<svg xmlns="http://www.w3.org/2000/svg" xmlns:xlink="http://www.w3.org/1999/xlink" width="50" height="50" viewBox="0 0 50 50">
  <defs>
    <clipPath id="clip-path">
      <rect id="Rectangle_536" data-name="Rectangle 536" width="50" height="50" fill="none"/>
    </clipPath>
  </defs>
  <g id="approve-logo1" transform="translate(0 0)">
    <g id="Group_752" data-name="Group 752" transform="translate(0 0)" clip-path="url(#clip-path)">
      <path id="Path_8857" data-name="Path 8857" d="M50,25A25,25,0,1,1,25,0,25,25,0,0,1,50,25" transform="translate(0 0)" fill="#ff1d25"/>
      <path id="Path_8858" data-name="Path 8858" d="M25.179,49.634c-12.1-.492-22.656-9.808-23.113-22.895A23.787,23.787,0,1,1,26.493,49.634c-.419.017-.9.017-1.314,0M40.058,7.253a23.694,23.694,0,1,0,1.716,1.5c-.183-.171-.362-.363-.533-.547Z" transform="translate(-0.848 -0.848)" fill="#ff1d25"/>
      <path id="Path_8859" data-name="Path 8859" d="M40.33,7.557l1.182.956c.171.183.35.376.533.547a23.071,23.071,0,1,1-1.716-1.5m-14-2.491c-.063-.793-.926-.787-.985,0H23.315s.009.064-.02.094-.09.016-.09.021V9.719c-.471-.022-.515.572-.079.748l1.9-.418.124-.1c.04-.169.083-.581-.083-.664l-.985.2V8.283h1.232c.675,1.251,2.018,2.364,3.47,2.06L28.742,9.8c-.115-.152-.815-.049-.99-.282,0-.055.522-.488.573-.6a.381.381,0,0,0-.462-.543c-.174.066-.8.723-.851.722-.2,0-.665-.578-.685-.811h2.027V5.152l-.082-.086Zm-5.983.185a.182.182,0,0,0-.157-.04L16.476,6.77c-.108.91,1.474-.215,1.581-.1l-.037.174c-.2.109-.988.311-1.049.5-.15.457.426,1.043.373,1.512a.488.488,0,0,0-.525.579c.15.735.485.368.941.171l-.082-.456,1.475-.5c.106.2.12.331.383.321.018.152,0,.09-.08.116-.5.168-.315-.219-.519-.264a1.523,1.523,0,0,0-.493.123c-.121.071-.147.228-.225.281s-.3.04-.354.145,0,.243-.054.346c-.038.07-.212.094-.24.212l.14.366c.2.052.285-.117.4-.151.177-.052.177.619-.111.582.005.882.563.657.857.079l.461.12c-.125.31-.956.456-1.082.587-.161.168.055.522.243.549a6.167,6.167,0,0,0,.931-.38c.3-.152.677-.48.964-.6a9.424,9.424,0,0,1,1.015-.2A6.092,6.092,0,0,0,22.4,10.47c.218-.159-.09-.39-.073-.579-.046-.046-1.075.5-1.2.4a1.958,1.958,0,0,0,.328-1.264l-.985.287c.01-.111.191-.072.247-.171.182-.317-.134-.517-.414-.487l-.112-.37-.214-.006.95-.406.145.233-.6.176a.325.325,0,0,0,.009.159,6.181,6.181,0,0,0,.678.469c.2.026.382-.137.571-.173l-.163-.436-.44-.024.688-.344c.041-.2-.1-.356-.169-.518-.029-.064-.008-.173-.037-.217-.1-.161-.53.127-.685.149l-.1-.04-.573-1.385-1.2.459c-.1-.088.28-.253.317-.27.3-.142,1.446-.34.984-.866m13.48.8a4.321,4.321,0,0,0-.6-.216c-.125-.011-.149.083-.274.073-.413-.035-1.161-.73-1.521-.168l-.665,1.6,5.142,2.037c.119-.583.533-1.175.678-1.731.022-.086.071-.2.014-.28l-1.34-.521c.049-.237-.149-.28-.347-.353-.155-.058-.4-.2-.457.019a5.126,5.126,0,0,1-.593-.226c-.072-.063-.006-.185-.04-.229M17.2,10.677c-.316-.79-.6-1.6-.939-2.378.142-.393.353-1.713-.383-1.53-.454.113-.283.459-.345.793a2.687,2.687,0,0,1-.327.863c-.131.209-.359.281-.291.535.029.111.206.546.29.563.252.053.309-.3.55-.263l1.314,3.305c.164.1.75-.074.77-.288.03-.329-.539-1.143-.555-1.535-.014-.036-.077-.045-.085-.064m18.7-1a6.928,6.928,0,0,0-.7-.327C34.1,8.9,32.988,8.483,31.885,8.055a4.525,4.525,0,0,0-1.039-.4.728.728,0,0,0-.287.073l-.807,2c-.115.129-.534-.136-.685.213-.226.522.841.8,1.206.506.307-.249.279-1.014.7-.579-.046.281-.43.786-.243,1.048a9.6,9.6,0,0,0,1.872.765l.074-.566L31.585,10.7a.6.6,0,0,1,.053-.26c.159-.487.13-.276.39-.176.195.074.4.128.587.217l.406,1.413a8.622,8.622,0,0,0,1.6.593c.076-.006.127-.119.192-.161.075-.5-.947-.44-1.1-.821.45.126.861.529,1.246.045l-.042-.1.274.057.085-.518-4.3-1.751c-.168-.111.18-.814.246-.82a1.435,1.435,0,0,0,.356.13c1.261.441,2.568,1.155,3.822,1.563a1.428,1.428,0,0,0,.273.059c.165,0,.3-.355.223-.492M31.258,8.628,31.1,9.06l4.089,1.685c.249.039.334-.506.053-.577-1.13-.444-2.258-.892-3.39-1.328-.181-.07-.359-.236-.591-.212m-18.514.4c-.056-.065-.662.526-.684.574-.079.18,0,.488-.029.689-.212-.227-.272-.048-.421-.021-.253.045-.439,0-.619.294s.033.411-.169.616l0,.11c.278.15-.009.186-.056.38-.073-.011-.095-.078-.106-.146-.019-.12.057-.375-.056-.429,0,.242-.611.611-.649.727a2.869,2.869,0,0,0,.005.7,1.268,1.268,0,0,0,.3.234c.186.029.187-.086.344-.106-.073.322.067.789.44.72.151-.028.175-.132.272-.2.07.179-.164.187-.145.316.009.065.117.141.138.244.017.088-.045.2-.021.247.04.077.427.287.515.222.128-.227-.047-.4-.049-.626.114.055.306.434.438.375l.436-.463-.163-.2c.189-.022.236-.164.219-.345.138-.049.126.152.2.174.2.059.183-.1.288-.2a6.477,6.477,0,0,0,.716-.746l-.108-.111c.226-.212.129-.3.053-.548.191,0,.237.192.342.247.229.12.329-.408.533-.42l-.164-.228a.378.378,0,0,0,.26-.2c.009-.119-.585-.579-.717-.55-.069.015-.057.22-.2.176.033-.219.227-.246.124-.5a1.414,1.414,0,0,0-.314-.347c-.158-.013-.148.259-.3.216.154-.242-.131-.695-.385-.61-.167.056-.108.234-.272.208Zm26.927.942a7.806,7.806,0,0,0-.76-.669c-.223-.1-.515-.069-.522.229-.01.474.567.569.723.88a5.2,5.2,0,0,1,.25.915c-.358-.095-.888-.955-1.219-.909-.171.023-.228.165-.205.335-.23-.055-.344-.31-.617-.231-.284.217-1.579,1.8-1.772,1.824-.124.014-.325-.1-.477-.032-.524.491.357,1.082.8.954.093-.027.221-.167.351-.179l1.423-1.527,1.5,1.347-.288.2-.312-.311.109-.114-.494-.516c-.188-.005-.889-.14-.99.007-.236.343.234.631.169.71a.351.351,0,0,0-.558.377c.014.042.526.546.613.629.129.124.581.319.356.488-.152.033-1.051-1.053-1.284-1.126-.261-.08-.47.049-.44.345s.7.757.9.954c.543.523,1.076,1.076,1.624,1.57.227.2.457.4.686.6.248-.033.228-.278.406-.369.032-.329-1.046-.984-1.206-1.319l.164-.058,1.064,1c.742-.6.24-.653-.217-1.089a4.385,4.385,0,0,1-.464-.518c.222-.283.889.775,1.145.836.106.025.42-.305.429-.413.015-.192-.326-.373-.457-.5-.175-.175-.344-.37-.514-.551l.244-.172,1.263,1.205a1.845,1.845,0,0,0,.4-.386c.1-.332-.3-.328-.265-.56.007-.046.339-.1.275-.448-.012-.064-.825-.725-.93-.874.085-.123.077-.055.144-.038a3.728,3.728,0,0,1,1.128.467c.165.129.311.547.558.342.453-.376.2-.564-.151-.9-.052-.049-.13-.047-.182-.1-.132-.128-.815-.764-.857-.858-.056-.125.07-.159.1-.267.119-.413-.073-.754-.5-.756-.213,0-.413.2-.536.171s-.487-.489-.607-.6M15.253,11.225h-.113L11.978,14.46l.324.321,0,.079c-.12.173-.531.477-.493.684a4.881,4.881,0,0,1,.51.685c.078.205-.154.512.1.7.389.287.936-.376.776-.814-.144-.393-.633-.916-.834-1.309l.822-.832h.108l-.715.778c0,.145.414.531.549.573.6.19.81-.528,1.262-.778.024.108-.057.137-.109.2-.263.327-.645.607-.926.927-.051.184.2.356.339.414.18-.026.184-.223.24-.28.86-.871,1.777-1.688,2.568-2.636.261-.541-.119-.807-.5-1.1l-1.12,1.1c.113-.484,1.094-.83.847-1.435-.059-.144-.417-.308-.474-.506m-.4,21.074h5.559l2.273-2.757a7.535,7.535,0,0,1,.345,1.073,2.975,2.975,0,0,0,2.5,1.687c3.742.251,7.738-.2,11.507,0a3.7,3.7,0,0,0,3.1-5.213,3.812,3.812,0,0,0-2.83-2.145c-2.024-.223-4.415.188-6.465,0a1.819,1.819,0,0,1-.494-.113.8.8,0,0,1,.282-1.493c2.153-.142,4.493.172,6.624,0a2.353,2.353,0,0,0,2.083-2.993,13.967,13.967,0,0,0-2.521-3.907C28.849,7.588,13.412,11.648,11.445,23.9S22.2,44.5,32.483,39.417a15.5,15.5,0,0,0,4.448-3.406c.86-1.126-.465-2.1-1.306-1.358-.436.383-.865.97-1.335,1.371A12.846,12.846,0,0,1,15.3,33.213c-.148-.23-.27-.546-.416-.759a.1.1,0,0,0-.109-.042c-.013-.022.063-.108.082-.114M9.114,12.834a.342.342,0,0,0-.2.527,3.686,3.686,0,0,0,.855.538c.4.111.518-.243.78-.474l-.465-.488-.209.164c-.261-.151-.435-.345-.764-.267M11.8,14.62c-.015-.019-.307-.253-.328-.263-.1-.045-.2.016-.3-.021-.293-.1-.647-.457-.965-.244a.422.422,0,0,0-.008.628,8.384,8.384,0,0,0,.993.453.687.687,0,0,0,.421-.05c.138-.084.319-.334.186-.5M8.668,18.775c.369-.818.719-1.652,1.063-2.483.048-.28-.414-.561-.637-.578a4.593,4.593,0,0,0-1.254.382A5.829,5.829,0,0,0,7.323,17.1c-.023.081,0,.1.077.081.3-.071.7-.284,1.013-.375.049-.013.169-.059.169.005L7.321,19.659c-.131.032-.089-.026-.121-.075-.17-.254-.587-1.36-.769-1.439-.353-.154-.647.467-.621.768.36.436.971,2.867,1.823,2.05a18.235,18.235,0,0,0,.9-1.9c.046-.1.093-.208.13-.292m35.46,1.459,2.51-1.243-1.285-2.83c-.207-.287-.382-.438-.748-.338l-2.015.937Zm-4.821-3.217L40.49,19.6l2.48-1.179-.9-2.027c-.178-.218-.335-.4-.624-.324-.667.169-1.442.793-2.136.95m-26.842.463-2.379-.987-.124.163c-.395,1.293-1.357,2.669-1.737,3.923a.744.744,0,0,0,.05.751l1.879.9.283.008Zm31.881,3.787c-.387-.589-.579-1.381-.942-1.97-.172-.278-.272-.412-.618-.386a11.374,11.374,0,0,0-1.746.756c-.087.047-.4.182-.414.256l1.181,2.49ZM11.628,35.885c-.067-.072-.171-.109-.229-.2.256-.736-.288-.36-.6-.294-.157.033-.824.061-.848.1-.145.214.04.386.04.455s-.154.182-.081.393c.062.178,1.055.915,1.115,1.132.011.038.042.069,0,.113l-.225.172-1.032-1.07a.763.763,0,0,0-.392-.084,3.247,3.247,0,0,0-.655.465c-.219.412.657.891.848,1.206a2.384,2.384,0,0,1-.535-.1c-.31-.086-.986-.454-1.195-.476a.241.241,0,0,0-.3.2c-.031.079.147.268.186.292a5.9,5.9,0,0,0,1.393.464c.186.041.42.03.614.074.047.041-.138.224-.166.256-.162.181-.659.488-.593.737.379.576.965-.624,1.236-.7.237-.064.809.755,1.059.886.03.181-.364.433-.525.433-.33,0-.409-.763-.834-.45-.242.286.54,1.149,1.121.917a3.053,3.053,0,0,0,.784-.672.512.512,0,0,0-.053-.349c-.107-.2-1.093-1.016-1.1-1.1-.015-.148.147-.312.267-.241a10.616,10.616,0,0,0,.941.993.666.666,0,0,0,.522-.025c.027-.016.446-.422.461-.451.166-.315-.178-.54-.328-.758.276.052.3-.185.466-.345.21.28.948,1.083.876.23l-.987-.92-.022-.492c-.136-.1-.469.1-.648.132a3.417,3.417,0,0,0-.719.079l-.006.281c-.1-.1-.465-.322-.324-.484.032-.038.233-.254.249-.26.2-.066.342.431.639.33.421-.144-.27-.726-.42-.884M41.005,35.4c-.132-.031-.25-.1-.385-.031a9.021,9.021,0,0,0-.656.808c-.123.082-.4-.211-.486.065-.119.379.362.445.538.686.06.208-.467.414-.285.812.014.03.408.405.47.457s.165-.031.147.073c-.308-.084-.324.167-.494.357-.137.154-.758.787-.763.936-.017.546.544.028.6.055.427.458.644.747,1.077.086.268,0,.788.515.649.807-.056.118-.468.226-.278.52.174.27,1.076-.179.8-.844-.2-.28-.842-1.074-1.169-1.045-.274.025-.367.329-.407.338a.331.331,0,0,1-.378-.3c.117-.285.457-.417.47-.743.06-.057.822.562.911.652.048.049.315.373.349.426.169.26.253.828.6.737.227-.08.131-.3.107-.494.648.208.562-.583.34-1.018-.132-.259-.684-.934-.947-.566-.176.246.274.431.417.6a1.042,1.042,0,0,1,.163.921,5.79,5.79,0,0,0-1.267-1.427c-.273-.239-.489-.262,0-.579.469.516.766.261,1.185-.12a.423.423,0,0,0,.052.263,8.387,8.387,0,0,0,.812.64.7.7,0,0,0,.931-.429c.232-.545-.586-1.11-.694-.724-.039.184.514.563.123.7-.352.125-.762-.786-1.168-.509-.009-.189.191-.259.251-.4.319-.724-.436-.969-.522-.659-.039.137.162.243.15.385a1.862,1.862,0,0,1-.574.658c-.089.015-.191-.11-.291-.1.09-.412.746-.555.437-1.032l.215-.094c.107-.308-.515-.931-.833-.642l-.832.964-.124-.142c.088-.178.863-.9.754-1.063m-1.826,2.088a.512.512,0,0,0-.475-.05l-.732.9c-.131.237.689.829.82.851.258.045.521-.291.679-.489.195-.244.488-.516.2-.815-.022-.023-.457-.372-.5-.4M15.466,39.269c-.4-.387-.9-.191-1.294.073a6.647,6.647,0,0,0-1.656,2.342c-.153.626-.018,1.287.7,1.3.744.01,1.683-1.261,2.037-1.872.282-.485.709-1.351.213-1.838m22.332.761c-.321-.342-.718-.7-1.2-.546-.832.261-.591,1.2-.325,1.829a7.353,7.353,0,0,0,1.354,1.941c.593.412,1.459.209,1.461-.641a5.568,5.568,0,0,0-1.29-2.583M18.742,41.236c-.7,0-1.14.94-1.362,1.527-.286.754-.863,2.554.335,2.738.77.118,1.245-.91,1.474-1.529.283-.765.9-2.737-.447-2.736m14.577.506a.845.845,0,0,0-1.289.646,5.1,5.1,0,0,0,1.259,3.321.853.853,0,0,0,1.351-.64c.111-.716-.686-2.972-1.321-3.327m-9.046,1.1a.813.813,0,0,0-1.341.056,5.353,5.353,0,0,0-.4,3.292.943.943,0,0,0,1.018.744,4.561,4.561,0,0,0,.464-.234c.023-.024.008-.1.033-.131s.1-.056.134-.12c.412-.757.633-2.932.093-3.608m4.665.1a.861.861,0,0,0-1.4.076,4.788,4.788,0,0,0,.3,3.633.851.851,0,0,0,1.529-.4,5.325,5.325,0,0,0-.43-3.314" transform="translate(-1.12 -1.152)" fill="#fff"/>
      <path id="Path_8860" data-name="Path 8860" d="M20.878,38.576c-.019.005-.094.092-.081.114a.1.1,0,0,1,.108.042c.147.212.268.528.416.759A12.846,12.846,0,0,0,40.315,42.3c.471-.4.9-.987,1.335-1.37.84-.738,2.166.231,1.306,1.358a15.507,15.507,0,0,1-4.448,3.406c-10.279,5.082-23-3.273-21.038-15.52s17.405-16.31,25.373-7.46a13.979,13.979,0,0,1,2.52,3.907,2.353,2.353,0,0,1-2.082,2.993c-2.131.175-4.472-.14-6.625,0a.8.8,0,0,0-.282,1.493,1.85,1.85,0,0,0,.495.113c2.05.185,4.442-.226,6.465,0a3.814,3.814,0,0,1,2.83,2.145,3.7,3.7,0,0,1-3.1,5.213c-3.769-.2-7.764.252-11.507,0a2.975,2.975,0,0,1-2.5-1.687,7.6,7.6,0,0,0-.345-1.073l-2.273,2.756ZM31.7,25.247v10.2c0,.019.072.087.054.144H42.786c.112,0,.134.05.313-.015a.76.76,0,0,0-.107-1.465c-2.122-.124-4.343.118-6.452-.011a3.7,3.7,0,0,1-2.887-5.85,3.925,3.925,0,0,1,2.613-1.509c2.114-.188,4.524.2,6.632,0,.264-.025.436-.084.323-.4a12.787,12.787,0,0,0-23.109,10.8c.135.355.319.687.467,1.035ZM26.574,35.7h2.081a.849.849,0,0,0,.192-.144V33L26.492,35.59c-.011.025.064.109.082.114" transform="translate(-7.145 -7.429)" fill="#ff1d25"/>
      <path id="Path_8861" data-name="Path 8861" d="M62.4,14.538c.121.112.5.572.608.6s.323-.171.536-.171c.422,0,.614.343.5.756-.03.108-.157.141-.1.267.042.094.724.73.856.859.052.05.13.047.183.1.348.331.6.519.15.9-.246.2-.393-.214-.557-.342a3.724,3.724,0,0,0-1.129-.468c-.067-.017-.059-.084-.144.039.1.149.918.81.93.874.065.348-.267.4-.274.448-.036.233.368.228.264.561a1.856,1.856,0,0,1-.4.386l-1.262-1.205-.244.172c.169.181.338.377.514.551.131.13.471.312.457.5-.008.108-.322.438-.429.413-.256-.061-.923-1.118-1.145-.835a4.534,4.534,0,0,0,.464.518c.457.436.959.491.217,1.089l-1.064-1-.164.058c.161.335,1.239.99,1.206,1.319-.178.09-.158.336-.405.369-.23-.2-.459-.4-.686-.6-.549-.494-1.082-1.046-1.624-1.569-.2-.2-.873-.668-.9-.954s.179-.426.44-.345c.234.072,1.133,1.158,1.285,1.126.225-.168-.227-.363-.356-.487-.087-.083-.6-.587-.613-.63a.351.351,0,0,1,.558-.377c.065-.079-.4-.367-.168-.71.1-.147.8-.012.99-.007l.493.516-.109.114.312.311.288-.2-1.5-1.346-1.422,1.527c-.131.012-.259.152-.352.179-.442.128-1.323-.463-.8-.953.152-.069.354.046.478.032.192-.022,1.487-1.606,1.771-1.823.274-.079.389.176.618.23-.023-.169.033-.312.2-.335.332-.046.861.814,1.219.909a5.209,5.209,0,0,0-.25-.914c-.156-.312-.733-.406-.723-.88.006-.3.3-.331.521-.23a7.827,7.827,0,0,1,.76.669m.532,1.508c-.062-.049-.052-.189-.182-.152l.063.393.485.065c-.08-.149-.26-.225-.365-.306m-.521.661-.373-.039c.075.054.417.506.493.43Zm-1.667,1.117c-.174-.147-.293-.307-.568-.322l.75.8c.456.019-.034-.356-.182-.481" transform="translate(-23.851 -5.717)" fill="#ff1d25"/>
      <path id="Path_8862" data-name="Path 8862" d="M40.528,6.258h1.944l.082.086V9.475H40.528c.021.233.489.808.685.811.055,0,.677-.657.851-.722a.381.381,0,0,1,.462.543c-.051.115-.573.549-.573.6.175.233.875.13.99.282l.042.543c-1.453.3-2.8-.809-3.47-2.06H38.282v1.206l.985-.2c.166.083.124.5.083.664l-.124.1-1.9.418c-.435-.176-.391-.77.079-.748V6.373c0-.005.062.009.09-.021s.015-.094.019-.094h2.027c.06-.787.923-.793.986,0M38.364,7.522h3.177c.015,0,.128-.059.139-.1l0-.363-3.344-.033c-.09.069-.08.457.03.493m3.314.747h-3.4l.009.365.073.095h3.314Z" transform="translate(-15.32 -2.344)" fill="#ff1d25"/>
      <path id="Path_8863" data-name="Path 8863" d="M30.06,6.96c.462.526-.681.724-.984.866-.036.017-.412.182-.317.27l1.2-.459.573,1.385.1.04c.155-.022.58-.31.685-.149.029.044.008.152.037.217.073.161.21.315.169.518l-.688.344.44.024.163.436c-.189.036-.366.2-.571.173a6.119,6.119,0,0,1-.678-.469A.319.319,0,0,1,30.185,10l.6-.176-.145-.233-.95.406L29.9,10l.112.37c.28-.03.6.17.414.487-.056.1-.237.059-.247.171l.985-.287A1.958,1.958,0,0,1,30.84,12c.13.1,1.158-.448,1.2-.4-.017.189.291.42.073.579A6.091,6.091,0,0,1,31.1,12.6a9.425,9.425,0,0,0-1.015.2c-.287.118-.669.446-.964.6a6.143,6.143,0,0,1-.931.38c-.188-.026-.4-.381-.243-.549.126-.131.957-.278,1.082-.587l-.461-.12c-.294.579-.852.8-.857-.079.288.038.288-.634.111-.582-.114.033-.2.2-.4.151l-.14-.366c.028-.117.2-.142.24-.212.057-.1,0-.243.054-.346s.265-.086.354-.145.1-.21.225-.281a1.523,1.523,0,0,1,.493-.123c.2.045.023.433.519.264.076-.026.1.036.08-.116-.263.011-.277-.116-.383-.32l-1.475.5.082.456c-.457.2-.791.564-.941-.171a.488.488,0,0,1,.525-.579c.053-.468-.523-1.055-.373-1.512.061-.186.85-.387,1.049-.5l.037-.173c-.107-.12-1.689,1-1.58.095L29.9,6.92a.181.181,0,0,1,.157.04m-.7,1.6c-.045-.19-.365-.015-.492.03-.335.122-.828.314-1.144.468-.086.042-.2.062-.171.192Zm.164.46c-.034-.276-.1-.1-.208-.074a9.659,9.659,0,0,0-1.474.58c-.074.046-.147.069-.125.183Zm-1.643,1.15a12,12,0,0,0,1.861-.776c.01-.13-.151-.033-.187-.026-.531.112-1.094.5-1.637.628Zm2.245.862-1.342.523-.574-.293-.164.46c.2-.125.42-.221.519.057a10.215,10.215,0,0,1,1.441-.617c.084-.035.148.032.12-.13m.055.632-.93.373c.4.319.891.178.93-.373" transform="translate(-10.836 -2.862)" fill="#ff1d25"/>
      <path id="Path_8864" data-name="Path 8864" d="M54.485,13.109c.076.137-.057.488-.222.492a1.418,1.418,0,0,1-.273-.059c-1.253-.409-2.561-1.122-3.822-1.563a1.422,1.422,0,0,1-.355-.13c-.067,0-.414.709-.246.82l4.3,1.751-.085.518-.274-.057.042.1c-.385.484-.8.081-1.246-.045.149.38,1.171.319,1.1.821-.064.042-.115.155-.191.161a8.684,8.684,0,0,1-1.6-.593L51.2,13.912c-.189-.089-.393-.142-.587-.217-.261-.1-.232-.31-.39.176a.591.591,0,0,0-.053.26l1.087.412-.074.566a9.63,9.63,0,0,1-1.872-.765c-.186-.261.2-.767.244-1.048-.417-.434-.389.33-.7.579-.365.3-1.432.015-1.206-.506.151-.349.57-.084.685-.213l.807-2a.725.725,0,0,1,.287-.073,4.531,4.531,0,0,1,1.039.4c1.1.428,2.22.841,3.314,1.292a6.912,6.912,0,0,1,.7.327m-1.522,1.483-.876-.288c-.136.135.712.405.792.4.108,0,.09-.007.084-.117" transform="translate(-19.705 -4.588)" fill="#ff1d25"/>
      <path id="Path_8865" data-name="Path 8865" d="M15.036,58.794c.151.159.842.741.42.884-.3.1-.44-.4-.639-.329-.016.005-.217.222-.25.259-.14.163.223.38.324.484l.007-.281a3.449,3.449,0,0,1,.719-.078c.179-.031.512-.234.648-.132l.023.492.987.919c.073.854-.665.051-.876-.229-.162.16-.189.4-.466.345.151.217.495.442.328.758-.015.029-.434.434-.462.451a.664.664,0,0,1-.522.025,10.556,10.556,0,0,1-.942-.994c-.12-.07-.281.093-.267.242.008.079.994.9,1.1,1.094a.514.514,0,0,1,.053.349,3.027,3.027,0,0,1-.783.672c-.582.232-1.363-.631-1.122-.917.426-.313.5.449.835.45.161,0,.556-.252.524-.433-.25-.13-.822-.95-1.059-.885-.271.074-.857,1.274-1.236.7-.067-.25.431-.556.591-.737.029-.032.215-.214.168-.256-.2-.044-.428-.033-.614-.074a5.9,5.9,0,0,1-1.393-.464c-.039-.023-.217-.213-.186-.292a.241.241,0,0,1,.3-.2c.209.022.885.39,1.2.476a2.378,2.378,0,0,0,.536.1c-.192-.315-1.067-.794-.848-1.206a3.253,3.253,0,0,1,.656-.465.769.769,0,0,1,.392.084l1.031,1.07.225-.172c.038-.044.007-.074,0-.113-.06-.217-1.052-.954-1.114-1.133-.073-.21.081-.334.08-.393s-.185-.24-.04-.455c.025-.036.691-.064.849-.1.316-.066.859-.443.6.294.058.087.162.124.23.2m-.651,0A.946.946,0,0,0,14,58.778c-.062.005-.388.022-.362.135.181.186.359.382.542.566.042.042.029.06.114.038l.222-.55c.007-.038-.117-.175-.127-.178m-1.266,1.44c-.053-.048-.221-.2-.273-.191l-.12.226c.189.124.8.889.941.9a.561.561,0,0,0,.181-.046c.073-.311-.178-.3-.306-.419s-.279-.344-.423-.474m2.7.725c.073-.38.344-.583-.132-.8l-.633.053.566.668Zm-.294.425a3.851,3.851,0,0,1-.665-.6l-.3.172.911.912c.359-.13.291-.268.055-.488" transform="translate(-4.528 -24.062)" fill="#ff1d25"/>
      <path id="Path_8866" data-name="Path 8866" d="M17.851,13.436v.459c.164.027.1-.152.271-.207.254-.085.539.368.386.609.154.043.145-.229.3-.215a1.394,1.394,0,0,1,.315.347c.1.254-.09.281-.124.5.143.045.132-.161.2-.176.132-.028.726.432.717.551a.38.38,0,0,1-.26.2l.164.227c-.2.012-.3.54-.533.42-.1-.055-.152-.247-.342-.247.076.25.172.336-.054.549l.108.111a6.518,6.518,0,0,1-.715.746c-.1.107-.087.264-.288.2-.076-.022-.064-.223-.2-.174.017.181-.029.323-.219.345l.163.2-.436.463c-.133.06-.325-.319-.439-.375,0,.23.178.4.049.627-.089.066-.475-.145-.515-.222-.024-.046.037-.159.02-.247-.02-.1-.128-.179-.138-.244-.018-.129.215-.137.145-.315-.1.07-.121.174-.272.2-.372.069-.512-.4-.44-.719-.157.019-.158.134-.344.106a1.27,1.27,0,0,1-.3-.234,2.839,2.839,0,0,1-.005-.7c.038-.116.645-.485.649-.727.113.053.037.308.056.428.011.068.032.135.106.146.046-.194.334-.23.056-.38l0-.11c.2-.2-.013-.314.168-.616s.366-.249.619-.294c.149-.027.21-.205.421.021.027-.2-.05-.509.028-.689.021-.049.627-.64.684-.575M17.8,14.872a.467.467,0,0,1-.548.026l-.982,1.036c.131.129.249.219.217.431.562-.106-.055-.33-.054-.431a4.011,4.011,0,0,1,.472-.451c.238-.248.344-.745.729-.185-.055.1-.621.575-.545.665l.586-.511.292.151c.089.107-.149.353-.24.455s-.572.467-.61.538-.015.179-.042.243c-.039.09-.264.253-.067.329.133.052.05-.19.168-.227l.406.17c.036-.158-.092-.1-.155-.21-.174-.308.294-.757.512-.937.3-.249.208-.151.519,0l-.106-.251.16-.323c-.111.049-.084.192-.257.219-.4.062-.57-.394-.454-.736m.6,1.667-.272-.174-.169.212c.018.475.355.288.441-.038" transform="translate(-6.227 -5.557)" fill="#ff1d25"/>
      <path id="Path_8867" data-name="Path 8867" d="M21.679,17.184c.057.2.416.363.475.506.246.606-.735.951-.847,1.436l1.12-1.1c.38.293.76.559.5,1.1-.791.948-1.708,1.765-2.568,2.636-.056.057-.06.254-.24.28-.143-.058-.39-.23-.339-.414.28-.319.662-.6.925-.927.053-.064.134-.093.11-.2-.452.25-.658.968-1.262.778-.134-.043-.548-.429-.548-.573l.715-.778H19.61l-.822.832c.2.394.69.916.833,1.309.161.438-.387,1.1-.776.814-.25-.185-.019-.492-.1-.7a4.752,4.752,0,0,0-.509-.686c-.038-.206.372-.511.492-.684l0-.079-.325-.32,3.163-3.235Z" transform="translate(-7.546 -7.11)" fill="#ff1d25"/>
      <path id="Path_8868" data-name="Path 8868" d="M53.633,7.982c.033.043-.033.165.039.228a5.131,5.131,0,0,0,.593.227c.057-.223.3-.077.457-.019.2.073.4.117.347.353l1.341.521c.056.08.008.195-.015.28-.145.556-.559,1.148-.678,1.731L50.576,9.267l.665-1.6c.361-.562,1.109.133,1.521.168.125.011.149-.083.275-.073a4.458,4.458,0,0,1,.6.217M52.6,8.605c.153-.154-.62-.524-.711-.315-.055.125.4.179.453.27a.436.436,0,0,0,.258.045m1.424.4-.657-.231c-.056.278.365.253.53.394Zm-1.7.114c-.146.025-.637-.344-.712-.143-.033.089.111.133.17.162a2.184,2.184,0,0,1,.46.209Zm3.066.631.032-.173c-.039-.056-.557-.311-.634-.142-.026.136.5.256.6.315m-1.7.115c.038-.316-.4-.294-.6-.4-.031.335.373.328.6.4m.822.173c-.165.175.61.546.657.315.026-.128-.545-.3-.657-.315" transform="translate(-20.928 -3.083)" fill="#ff1d25"/>
      <path id="Path_8869" data-name="Path 8869" d="M66.688,58.383c.108.164-.666.885-.754,1.063l.125.142.832-.964c.318-.288.94.335.834.642l-.215.094c.309.478-.348.621-.437,1.033.1-.006.2.118.291.1a1.867,1.867,0,0,0,.574-.658c.013-.142-.188-.248-.15-.385.087-.31.841-.065.522.659-.06.137-.26.206-.251.4.406-.277.815.634,1.168.509.39-.138-.162-.518-.123-.7.108-.386.926.179.693.723a.694.694,0,0,1-.931.429,8.459,8.459,0,0,1-.812-.64A.422.422,0,0,1,68,60.566c-.419.38-.716.636-1.185.12-.488.317-.271.341,0,.579a5.766,5.766,0,0,1,1.267,1.427,1.044,1.044,0,0,0-.162-.921c-.142-.174-.593-.358-.417-.6.263-.368.814.308.946.566.222.434.309,1.226-.339,1.018.023.191.12.414-.107.494-.352.091-.436-.478-.6-.738-.034-.052-.3-.377-.349-.426-.089-.091-.851-.71-.911-.652-.014.325-.354.457-.47.743a.331.331,0,0,0,.378.295c.04-.009.133-.314.407-.338.327-.029.969.765,1.169,1.045.273.665-.628,1.114-.8.844-.19-.294.223-.4.279-.52.139-.293-.38-.8-.649-.807-.434.662-.65.372-1.077-.086-.057-.027-.618.491-.6-.055,0-.148.625-.783.763-.936.17-.19.185-.441.494-.357.018-.1-.1-.031-.147-.073s-.455-.427-.47-.457c-.182-.4.345-.6.285-.812-.176-.242-.657-.308-.538-.687.087-.276.362.017.486-.065a8.824,8.824,0,0,1,.656-.808c.134-.07.252,0,.385.03m.548.631a.222.222,0,0,0-.165.03,7.046,7.046,0,0,0-.548.675.106.106,0,0,1-.108.043c-.022.039.219.312.373.217a1.361,1.361,0,0,1,.554-.569Zm-.881,1.269c-.253-.147-.413-.012-.482.247.213.3.529.08.482-.247" transform="translate(-26.803 -24.133)" fill="#ff1d25"/>
      <path id="Path_8870" data-name="Path 8870" d="M16.308,27.157,14.28,31.914,14,31.907l-1.88-.9a.746.746,0,0,1-.05-.751c.381-1.254,1.342-2.63,1.738-3.922l.123-.164ZM13.9,30.715l1.253-2.855c.012-.129-.749-.46-.869-.395l-1.261,2.709c-.013.276.656.444.876.54" transform="translate(-4.962 -10.828)" fill="#ff1d25"/>
      <path id="Path_8871" data-name="Path 8871" d="M72.281,29.416l-1.538-3.473,2.015-.937c.366-.1.541.05.748.337l1.285,2.83Zm.7-3.262c-.118-.158-1.062.327-1.069.417l.781,1.638c.078.022.777-.47.958-.4l-.013-.188Z" transform="translate(-29.272 -10.334)" fill="#ff1d25"/>
      <path id="Path_8872" data-name="Path 8872" d="M10.859,27.9c-.038.084-.084.192-.13.292a18.293,18.293,0,0,1-.9,1.9c-.853.817-1.463-1.614-1.823-2.05-.026-.3.267-.922.62-.768.182.079.6,1.184.769,1.439.033.049-.009.107.121.074l1.262-2.843c0-.064-.121-.019-.169,0-.31.09-.718.3-1.013.375-.076.018-.1,0-.078-.082a5.864,5.864,0,0,1,.518-1.008,4.6,4.6,0,0,1,1.254-.382c.223.018.685.3.637.579-.344.831-.694,1.665-1.063,2.483" transform="translate(-3.31 -10.278)" fill="#ff1d25"/>
      <path id="Path_8873" data-name="Path 8873" d="M65.143,26.381c.695-.157,1.47-.78,2.136-.95.289-.074.447.106.624.324l.9,2.027-2.479,1.179Zm2.241.178a2.308,2.308,0,0,0-1.011.4c-.086.147.214.628.3.776l.94-.413c.1-.29-.222-.478-.23-.761" transform="translate(-26.955 -10.516)" fill="#ff1d25"/>
      <path id="Path_8874" data-name="Path 8874" d="M71.113,32.648l-2.539,1.147L67.392,31.3c.016-.074.327-.209.414-.256a11.393,11.393,0,0,1,1.746-.756c.346-.026.447.108.618.386.363.589.555,1.381.943,1.97m-2.245-.057,1.038-.492c-.137-.214-.176-.761-.493-.693-.23.05-.6.366-.875.381Z" transform="translate(-27.886 -12.533)" fill="#ff1d25"/>
      <path id="Path_8875" data-name="Path 8875" d="M25.81,13.477c.008.019.071.028.085.064.016.393.584,1.206.555,1.536-.02.213-.606.393-.77.288L24.365,12.06c-.241-.039-.3.316-.55.263-.084-.018-.261-.453-.291-.563-.067-.254.161-.327.292-.535a2.671,2.671,0,0,0,.326-.864c.063-.334-.108-.679.346-.792.736-.183.525,1.137.383,1.53.339.781.623,1.588.939,2.378" transform="translate(-9.729 -3.952)" fill="#ff1d25"/>
      <path id="Path_8876" data-name="Path 8876" d="M38.194,70.888c.54.676.319,2.85-.093,3.608-.035.064-.1.074-.134.12s-.009.107-.033.131a4.74,4.74,0,0,1-.463.235.945.945,0,0,1-1.018-.744,5.355,5.355,0,0,1,.4-3.293.813.813,0,0,1,1.34-.056m-.886.5a2.46,2.46,0,0,0-.176.476,11.776,11.776,0,0,0-.172,1.663c0,.241.086.719.359.722.3,0,.339-.266.4-.509a7.614,7.614,0,0,0,.086-2.3.282.282,0,0,0-.491-.055" transform="translate(-15.042 -29.198)" fill="#ff1d25"/>
      <path id="Path_8877" data-name="Path 8877" d="M28.822,68.378c1.342,0,.73,1.971.447,2.735-.229.619-.7,1.648-1.474,1.53-1.2-.185-.621-1.984-.335-2.738.223-.587.659-1.527,1.362-1.527m.123.731c-.146-.141-.342-.035-.456.1a6.65,6.65,0,0,0-.784,2.44c0,.346.329.406.525.188a7.662,7.662,0,0,0,.829-2.467,1.029,1.029,0,0,0-.114-.257" transform="translate(-11.2 -28.294)" fill="#ff1d25"/>
      <path id="Path_8878" data-name="Path 8878" d="M54.011,69.155c.634.355,1.432,2.61,1.32,3.327a.853.853,0,0,1-1.351.64A5.107,5.107,0,0,1,52.721,69.8a.845.845,0,0,1,1.29-.646m-.216.629c-.264-.223-.492.039-.478.352a6.453,6.453,0,0,0,.946,2.407.384.384,0,0,0,.427-.057,5.407,5.407,0,0,0-.015-.609,9.835,9.835,0,0,0-.549-1.549,3.13,3.13,0,0,0-.33-.543" transform="translate(-21.812 -28.565)" fill="#ff1d25"/>
      <path id="Path_8879" data-name="Path 8879" d="M46.3,71.072a5.324,5.324,0,0,1,.43,3.314.851.851,0,0,1-1.529.4,4.785,4.785,0,0,1-.3-3.633.861.861,0,0,1,1.4-.076m-.483.392a.509.509,0,0,0-.4.046,2.031,2.031,0,0,0-.138.659,8.925,8.925,0,0,0,.259,1.916c.125.325.433.543.6.139a6.382,6.382,0,0,0-.132-2.3,3.8,3.8,0,0,0-.191-.46" transform="translate(-18.484 -29.276)" fill="#ff1d25"/>
      <path id="Path_8880" data-name="Path 8880" d="M22.351,64.868c.5.487.068,1.353-.213,1.838-.355.611-1.293,1.882-2.037,1.872-.717-.009-.852-.67-.7-1.3a6.644,6.644,0,0,1,1.656-2.343c.4-.263.9-.46,1.294-.072m-.772,1.568c.129-.219.566-.926.242-1.1-.2-.1-.315.04-.458.156a6.543,6.543,0,0,0-1.405,2.092c-.051.523.481.28.715.054a10.2,10.2,0,0,0,.907-1.2" transform="translate(-8.005 -26.751)" fill="#ff1d25"/>
      <path id="Path_8881" data-name="Path 8881" d="M61.317,65.91a5.568,5.568,0,0,1,1.29,2.583c0,.851-.868,1.053-1.46.641a7.339,7.339,0,0,1-1.354-1.941c-.266-.63-.507-1.569.325-1.829.482-.151.879.2,1.2.546m-.749.1a.309.309,0,0,0-.416.343A8.617,8.617,0,0,0,61.366,68.5c.311.287.645.279.587-.24a8.72,8.72,0,0,0-1.169-2.078c-.039-.041-.113-.042-.162-.075s-.04-.092-.053-.1" transform="translate(-24.638 -27.032)" fill="#ff1d25"/>
      <path id="Path_8882" data-name="Path 8882" d="M51.3,12.751c.232-.024.41.142.591.212,1.133.436,2.259.884,3.389,1.328.281.071.2.617-.053.577l-4.089-1.685Z" transform="translate(-21.16 -5.275)" fill="#ff1d25"/>
      <path id="Path_8883" data-name="Path 8883" d="M64.062,61.928c.039.026.473.375.5.4.284.3-.009.571-.2.815-.158.2-.421.534-.679.489-.13-.022-.95-.614-.82-.851l.732-.9a.512.512,0,0,1,.475.05m.128.783c.026-.045-.339-.4-.457-.346l-.325.344c-.147.145.232.422.365.392.152-.034.256-.381.417-.39" transform="translate(-26.002 -25.589)" fill="#ff1d25"/>
      <path id="Path_8884" data-name="Path 8884" d="M16.987,22.555c.133.168-.048.419-.187.5a.689.689,0,0,1-.421.05,8.3,8.3,0,0,1-.993-.453.422.422,0,0,1,.008-.628c.318-.212.673.141.965.244.1.036.2-.025.3.021.022.009.314.244.329.263" transform="translate(-6.31 -9.087)" fill="#ff1d25"/>
      <path id="Path_8885" data-name="Path 8885" d="M13.458,19.915c.329-.079.5.116.764.267l.209-.164.465.487c-.262.232-.376.585-.78.474a3.686,3.686,0,0,1-.855-.538.342.342,0,0,1,.2-.527" transform="translate(-5.464 -8.233)" fill="#ff1d25"/>
      <path id="Path_8886" data-name="Path 8886" d="M33.106,26.552,21.99,39.478c-.148-.348-.332-.681-.467-1.035a12.787,12.787,0,0,1,23.109-10.8c.112.318-.059.378-.324.4-2.108.2-4.516-.193-6.632,0a3.922,3.922,0,0,0-2.613,1.509A3.7,3.7,0,0,0,37.951,35.4c2.109.13,4.33-.113,6.452.012a.76.76,0,0,1,.108,1.464c-.18.066-.2.016-.314.016H33.161c.018-.057-.055-.125-.055-.144Z" transform="translate(-8.556 -8.734)" fill="#fff"/>
      <path id="Path_8887" data-name="Path 8887" d="M33.085,46.326c-.018,0-.093-.089-.082-.114l2.355-2.586v2.556a.849.849,0,0,1-.192.144Z" transform="translate(-13.656 -18.052)" fill="#fff"/>
      <path id="Path_8888" data-name="Path 8888" d="M62.535,20.426c.148.125.638.5.182.481l-.75-.8c.276.015.394.175.568.322" transform="translate(-25.641 -8.319)" fill="#fff"/>
      <path id="Path_8889" data-name="Path 8889" d="M66.54,17.508c.1.081.285.157.365.307l-.485-.065-.062-.394c.13-.036.12.1.182.152" transform="translate(-27.458 -7.179)" fill="#fff"/>
      <path id="Path_8890" data-name="Path 8890" d="M65.516,18.721l.12.392c-.076.076-.419-.377-.493-.431Z" transform="translate(-26.955 -7.73)" fill="#fff"/>
      <path id="Path_8891" data-name="Path 8891" d="M39.245,8.484c-.111-.036-.121-.424-.031-.493l3.345.033,0,.363c-.011.038-.124.1-.139.1Z" transform="translate(-16.201 -3.307)" fill="#fff"/>
      <path id="Path_8892" data-name="Path 8892" d="M42.565,10.106v.46H39.251l-.073-.095-.009-.365Z" transform="translate(-16.208 -4.182)" fill="#fff"/>
      <path id="Path_8893" data-name="Path 8893" d="M29.08,11.863l.036-.173c.543-.125,1.106-.516,1.637-.628.036-.008.2-.1.187.026a11.98,11.98,0,0,1-1.861.776" transform="translate(-12.033 -4.56)" fill="#fff"/>
      <path id="Path_8894" data-name="Path 8894" d="M30.6,10.388l-1.807.69c-.022-.114.052-.137.125-.183a9.72,9.72,0,0,1,1.474-.58c.1-.03.174-.2.208.074" transform="translate(-11.914 -4.234)" fill="#fff"/>
      <path id="Path_8895" data-name="Path 8895" d="M30.322,9.652l-1.807.69c-.033-.13.086-.15.171-.192C29,10,29.5,9.8,29.831,9.683c.127-.046.447-.221.491-.031" transform="translate(-11.797 -3.958)" fill="#fff"/>
      <path id="Path_8896" data-name="Path 8896" d="M31.44,13.929c.028.162-.036.095-.12.13a10.274,10.274,0,0,0-1.441.617c-.1-.278-.318-.182-.519-.057l.165-.46.573.293Z" transform="translate(-12.149 -5.764)" fill="#fff"/>
      <path id="Path_8897" data-name="Path 8897" d="M32.346,15.007c-.039.551-.535.692-.93.373Z" transform="translate(-12.999 -6.21)" fill="#fff"/>
      <path id="Path_8898" data-name="Path 8898" d="M56.105,16.863c.006.11.025.117-.084.117-.08,0-.928-.27-.792-.4Z" transform="translate(-22.847 -6.859)" fill="#fff"/>
      <path id="Path_8899" data-name="Path 8899" d="M18.085,63.238c.237.22.3.358-.055.488l-.911-.912.3-.172a3.851,3.851,0,0,0,.665.6" transform="translate(-7.084 -25.92)" fill="#fff"/>
      <path id="Path_8900" data-name="Path 8900" d="M14.378,61.563c.144.13.283.341.423.474s.379.107.306.419a.56.56,0,0,1-.181.045c-.143-.013-.753-.78-.941-.9l.12-.225c.051-.009.219.143.273.191" transform="translate(-5.787 -25.395)" fill="#fff"/>
      <path id="Path_8901" data-name="Path 8901" d="M18.727,62.369l-.2-.079-.567-.668.634-.053c.476.217.206.42.132.8" transform="translate(-7.432 -25.476)" fill="#fff"/>
      <path id="Path_8902" data-name="Path 8902" d="M16.284,59.223c.009,0,.134.141.127.178l-.222.55c-.085.022-.073,0-.114-.038-.183-.185-.361-.379-.542-.566-.026-.114.3-.13.362-.135a.949.949,0,0,1,.39.011" transform="translate(-6.426 -24.495)" fill="#fff"/>
      <path id="Path_8903" data-name="Path 8903" d="M18.655,15.889c-.116.342.059.8.454.736.174-.028.147-.171.258-.219l-.16.322.106.251c-.31-.148-.218-.246-.518,0-.218.18-.687.629-.512.937.063.11.191.052.154.21l-.405-.17c-.119.038-.036.28-.169.227-.2-.077.029-.239.068-.33.027-.063,0-.165.042-.243s.511-.429.609-.539.329-.348.24-.454l-.292-.151-.586.511c-.076-.09.49-.56.545-.665-.386-.56-.491-.064-.729.185a3.964,3.964,0,0,0-.472.451c0,.1.616.325.054.431.032-.212-.087-.3-.217-.431l.983-1.037a.467.467,0,0,0,.548-.026" transform="translate(-7.086 -6.575)" fill="#fff"/>
      <path id="Path_8904" data-name="Path 8904" d="M20.452,18.611c-.086.327-.423.514-.441.038l.169-.212Z" transform="translate(-8.28 -7.629)" fill="#fff"/>
      <path id="Path_8905" data-name="Path 8905" d="M53.52,9.154a.436.436,0,0,1-.258-.045c-.052-.09-.508-.145-.453-.27.091-.209.864.161.711.315" transform="translate(-21.85 -3.632)" fill="#fff"/>
      <path id="Path_8906" data-name="Path 8906" d="M53.052,10.16l-.081.229a2.172,2.172,0,0,0-.46-.209c-.059-.03-.2-.073-.17-.162.074-.2.566.168.712.143" transform="translate(-21.656 -4.12)" fill="#fff"/>
      <path id="Path_8907" data-name="Path 8907" d="M57.28,11.871c.112.019.682.187.657.315-.046.232-.821-.14-.657-.315" transform="translate(-23.692 -4.912)" fill="#fff"/>
      <path id="Path_8908" data-name="Path 8908" d="M55.467,11.293c-.228-.073-.633-.067-.6-.4.2.107.64.086.6.4" transform="translate(-22.702 -4.507)" fill="#fff"/>
      <path id="Path_8909" data-name="Path 8909" d="M58.364,11.118c-.1-.059-.628-.179-.6-.315.077-.169.6.086.634.142Z" transform="translate(-23.901 -4.446)" fill="#fff"/>
      <path id="Path_8910" data-name="Path 8910" d="M55.987,9.946l-.127.163c-.165-.141-.586-.116-.53-.394Z" transform="translate(-22.892 -4.02)" fill="#fff"/>
      <path id="Path_8911" data-name="Path 8911" d="M68.393,59.5l.107.4a1.363,1.363,0,0,0-.554.569c-.154.094-.4-.179-.373-.218a.106.106,0,0,0,.108-.043,7.213,7.213,0,0,1,.548-.675.222.222,0,0,1,.165-.03" transform="translate(-27.96 -24.619)" fill="#fff"/>
      <path id="Path_8912" data-name="Path 8912" d="M67.129,61.625c.047.327-.27.544-.482.247.07-.259.229-.393.482-.247" transform="translate(-27.578 -25.475)" fill="#fff"/>
      <path id="Path_8913" data-name="Path 8913" d="M14.631,31.623c-.22-.1-.89-.265-.876-.54l1.261-2.709c.12-.066.88.266.869.395Z" transform="translate(-5.691 -11.737)" fill="#fff"/>
      <path id="Path_8914" data-name="Path 8914" d="M73.8,26.965l.658,1.465.013.188c-.181-.067-.88.424-.958.4l-.781-1.638c.007-.09.95-.574,1.069-.417" transform="translate(-30.097 -11.145)" fill="#fff"/>
      <path id="Path_8915" data-name="Path 8915" d="M68.242,27.359c.008.283.326.471.23.761l-.94.413c-.087-.148-.386-.63-.3-.776a2.308,2.308,0,0,1,1.011-.4" transform="translate(-27.813 -11.317)" fill="#fff"/>
      <path id="Path_8916" data-name="Path 8916" d="M69.676,33.376l-.329-.8c.279-.015.644-.331.875-.381.317-.069.356.479.493.693Z" transform="translate(-28.695 -13.318)" fill="#fff"/>
      <path id="Path_8917" data-name="Path 8917" d="M37.737,71.894a.282.282,0,0,1,.491.055,7.614,7.614,0,0,1-.086,2.3c-.057.244-.1.512-.4.509-.273,0-.355-.481-.359-.722a11.775,11.775,0,0,1,.172-1.662,2.46,2.46,0,0,1,.176-.476" transform="translate(-15.47 -29.699)" fill="#fff"/>
      <path id="Path_8918" data-name="Path 8918" d="M29.395,69.578a1.029,1.029,0,0,1,.114.257A7.662,7.662,0,0,1,28.68,72.3c-.2.217-.521.158-.525-.188a6.65,6.65,0,0,1,.784-2.44c.114-.13.31-.236.456-.1" transform="translate(-11.65 -28.763)" fill="#fff"/>
      <path id="Path_8919" data-name="Path 8919" d="M54.22,70.255a3.13,3.13,0,0,1,.33.543,9.835,9.835,0,0,1,.549,1.549,5.407,5.407,0,0,1,.015.609.384.384,0,0,1-.427.057,6.453,6.453,0,0,1-.946-2.407c-.014-.314.214-.576.478-.352" transform="translate(-22.237 -29.036)" fill="#fff"/>
      <path id="Path_8920" data-name="Path 8920" d="M46.247,71.951a3.8,3.8,0,0,1,.191.46,6.382,6.382,0,0,1,.132,2.3c-.172.4-.479.186-.6-.139a8.925,8.925,0,0,1-.259-1.916A2.031,2.031,0,0,1,45.844,72a.509.509,0,0,1,.4-.046" transform="translate(-18.912 -29.763)" fill="#fff"/>
      <path id="Path_8921" data-name="Path 8921" d="M22.009,66.9a10.2,10.2,0,0,1-.907,1.2c-.234.226-.766.47-.715-.054a6.543,6.543,0,0,1,1.405-2.092c.143-.115.26-.26.458-.156.325.172-.113.88-.242,1.1" transform="translate(-8.435 -27.211)" fill="#fff"/>
      <path id="Path_8922" data-name="Path 8922" d="M60.994,66.471c.013.006.018.075.053.1s.124.034.162.075a8.72,8.72,0,0,1,1.169,2.078c.058.519-.276.528-.587.24a8.617,8.617,0,0,1-1.215-2.149.309.309,0,0,1,.416-.343" transform="translate(-25.065 -27.494)" fill="#fff"/>
      <path id="Path_8923" data-name="Path 8923" d="M64.566,63.076c-.161.009-.265.356-.417.39-.134.03-.512-.247-.365-.392l.325-.344c.118-.054.483.3.457.346" transform="translate(-26.379 -25.954)" fill="#fff"/>
    </g>
  </g>
</svg>
