<svg xmlns="http://www.w3.org/2000/svg" xmlns:xlink="http://www.w3.org/1999/xlink" width="50" height="50" viewBox="0 0 50 50">
  <defs>
    <clipPath id="clip-path">
      <rect id="Rectangle_535" data-name="Rectangle 535" width="50" height="50" fill="none"/>
    </clipPath>
  </defs>
  <g id="approve-logo2" transform="translate(0 0)">
    <g id="Group_750" data-name="Group 750" transform="translate(0 0)" clip-path="url(#clip-path)">
      <path id="Path_8819" data-name="Path 8819" d="M26.017,0l2.19.2A25.052,25.052,0,0,1,49.8,21.8l.2,2.191v2.025L49.8,28.2a25.052,25.052,0,0,1-21.6,21.6l-2.19.2H23.992l-2.19-.2A25.054,25.054,0,0,1,.2,28.2l-.2-2.191c.02-.673-.026-1.352,0-2.025A25.1,25.1,0,0,1,23.992,0ZM37.927,12.456a9.047,9.047,0,0,0-6.694,4.468A7.818,7.818,0,0,0,30,22.277l.1.374a6.755,6.755,0,0,1,1.344-4.558A7.206,7.206,0,0,1,36.99,14.9a3.418,3.418,0,0,1,.366.971c.137.523.215,1.064.311,1.6a12.8,12.8,0,0,0-6.855,5.184,15.624,15.624,0,0,0-2.124,7.539l0,1.892.654-1.5A23.345,23.345,0,0,1,41.713,19.424l.878-.306C37.349,22.31,32.347,26.6,29.836,32.334a10.965,10.965,0,0,0,4.094-.412,20,20,0,0,0,6.655-3.39c3.807-2.968,5.9-7.506,7.582-11.916a24.546,24.546,0,0,0-10.425.84,6.9,6.9,0,0,0,.186-5m-9.161,15.58c.621-3.137,1.432-6.429.57-9.6-.886-3.265-3.374-5.127-6.635-5.7a10.715,10.715,0,0,0-2.757-.164c.545,1.9.764,3.964,1.7,5.73a5.882,5.882,0,0,0,4.411,3.381,7.053,7.053,0,0,0,1.74.171c.055-.007.064.022.055-.055a5.049,5.049,0,0,0-.265-.843,14.994,14.994,0,0,0-4.851-6.244,10.356,10.356,0,0,1,4.551,4.061c1.492,2.636,1.58,6.136,1.443,9.1,0,.042-.025.18.04.174M5.661,22.8H1.842v.726H3.254v3.629h.993V23.529H5.661Zm-.191,4.355H6.5l.378-.97,1.888-.017.445.988h1.031L8.316,22.8l-1,.04Zm5.462,0h.955V22.8h-.955Zm2.6-4.355h-.993l1.109,4.352,1.088-.036.9-3.171,1.049,3.211.98-.025L18.8,22.8h-.955L17.1,25.822l-.843-3.02-1.159.006-.881,2.976Zm5.118,4.355h.974l.464-.988,1.889.017.377.971h1.07L21.5,22.81l-.97-.009Zm8.364-1.49L25.042,22.8h-.935v4.355h.916V24.37l1.928,2.789h.974V22.8h-.917ZM3.438,29.08A1.8,1.8,0,0,0,1.73,31.337c.288,1.9,3.331,1.92,3.728.183A1.842,1.842,0,0,0,3.438,29.08m10.51,3.139V30.787H12.229V31.4h.917c.007.4.073.468-.306.629a1.155,1.155,0,0,1-1.747-.849,1.2,1.2,0,0,1,.752-1.445,1.063,1.063,0,0,1,1.289.514l.739-.131c-.215-1.172-1.941-1.254-2.786-.759a1.937,1.937,0,0,0-.558,2.576c.645,1.122,2.516,1.038,3.42.285M28,30.137a1.783,1.783,0,0,0-2.685-.756,2.03,2.03,0,0,0-.628,2.294c.5,1.467,2.933,1.525,3.313-.047l-.763-.23a.905.905,0,0,1-1.776.076,2.079,2.079,0,0,1,.075-1.3.913.913,0,0,1,1.664.115ZM8.468,29.144c-.686-.063-1.463.047-2.158,0v3.591h.763V31.264c0-.091.44-.032.513-.016.453.1.982,1.14,1.3,1.487h.936c-.387-.544-.71-1.269-1.336-1.567l.472-.157c.977-.568.611-1.764-.492-1.867m5.977,3.591h.783l.359-.817L17.13,31.9l.369.834h.841l-1.584-3.593-.817.008Zm6.874-1.26L19.7,29.144h-.744v3.591h.726V30.4l1.623,2.33h.726l.057-.057V29.144h-.764Zm2.483-2.33h-.764v3.591H23.8ZM10.549,34.95H8.334v.5h1.8a1.049,1.049,0,0,1-.21.306,7.465,7.465,0,0,1-1.66,1.207l.284.43.974-.606v3.132h.458v-1.07h2.673c.124.852-.63.535-1.145.458l.017.5c.56.183,1.557.335,1.626-.477a21.725,21.725,0,0,0,0-2.944c-.006-.057-.03-.208-.1-.208H10.205l.573-.726H13.6c-.022-.159.057-.376-.057-.5H11.16l.076-.19-.435-.227Zm5.881-.42c-.147.02-.347-.055-.458.057v1.05h-.611v.5c.016.015.363-.012.441,0,.059.009.058-.023.057.058a4.979,4.979,0,0,1-.612,1.833l.493.132.231-.572v2.368h.458V37.242l.287.459a1.846,1.846,0,0,0,.364-.212c.056-.063-.029-.14.061-.163l.913-.228.094.22.382-.1-.266-.843-.384.1a4.114,4.114,0,0,0,.458-1.105l-.421-.063-.151.52a.631.631,0,0,1-.222-.258,7.357,7.357,0,0,1,.322-.774c.034-.142-.293-.207-.4-.228l-.231.648-.2-.074-.238.3a8.974,8.974,0,0,1,.743.83c-.161.243-.274.649-.605.661L17,37.2l-.529-.75c-.054-.08-.084-.279.019-.314l.434-.005-.006-.434c-.039-.119-.383-.041-.491-.063Zm2.215,3.018H17.213l-.057.057v1.223a2.644,2.644,0,0,1-.157.492c-.054.113-.277.349-.266.422l.423.2a1.849,1.849,0,0,0,.458-1.168l.857.384c.062-.147.191-.287.169-.455-.049-.078-.9-.317-.989-.4a.257.257,0,0,1-.02-.253,6.645,6.645,0,0,1,1.164-.031l.344.926a3.747,3.747,0,0,1-1.41.56l.173.422c.049.056.539-.127.638-.164a8.423,8.423,0,0,0,.845-.406c.3.394.837,1.073,1.133.282a2.345,2.345,0,0,0,.15-.858l-.456-.116-.077.726c-.086.072-.364-.263-.377-.357l.53-.712-.362-.229-.42.533-.248-.611h1.336v-.458h-.726l.148-.241-.3-.294.512-.079.122.266.36-.072-.308-.953-.343.095-.015.212-.251.074a5.807,5.807,0,0,0,.728-1.506l-.42-.1-.327.838-.242-.279.371-.767-.358-.213-.325.687-.17-.115-.192.268-.057-.764-.458-.039a14.956,14.956,0,0,0,.306,2.98m5.385-2.6H22.579v1.6h4.812v-1.6H26c-.114-.055-.027-.39-.057-.42h-.458l-.006.357-.057.057-.892.006-.036-.4-.461-.017Zm7.752-.114H29.53v.458h1.26l-.115.381.687.191-1.03.192.114.381h-.668c-.055.033-.053.076-.06.132-.071.6.048,1.265-.041,1.907a6.641,6.641,0,0,1-.373,1.244c.135.012.356.226.45.094a3.779,3.779,0,0,0,.425-1.733l.393.263L31,37.815h1.165v.5H30.714v.458h1.451V39.3H30.5c-.112.111-.038.311-.057.458h4.2c-.02-.148.055-.348-.057-.458H32.661V38.77h1.6v-.458h-1.6v-.5h1.757v-.458H32.661v-.5h1.872V36.44H33.54l.114-.287-.915-.343.859-.516h.859v-.458H32.241V34.53H31.8Zm9.433-.115H36.825v2.025h4.392Zm-13.672,2.1H22.675c-.055.033-.053.076-.06.132-.045.383.025.865,0,1.264a6.234,6.234,0,0,1-.307,1.584c.146-.015.348.207.455.054a3.7,3.7,0,0,0,.276-1.328l.057-.057.57.03v.922c-.464.114-.683-.163-.556.494a7.108,7.108,0,0,0,.9-.039,8.474,8.474,0,0,0,1.014-.17c.075-.052.009-.413-.064-.437l-.816.111v-.917c.151.023.4-.04.534.02.1.045.46.476.594.59a3.418,3.418,0,0,0,2.313.857l.107-.432a5.468,5.468,0,0,1-1.218-.2l.57-.367-.207-.394-.878.482a3.083,3.083,0,0,1-.478-.349c-.058-.056-.154-.122-.152-.211H27.62v-.42H23.037V37.3l.057-.057h4.449Zm11.228.382c-.038.012-.083-.038-.1-.038h-2.1l-.057.057V39.8h.456l.059-.189h1.241V39.8h.5Zm2.788,2.6v-2.54a.656.656,0,0,0-.1-.1H39.326l-.057.057V39.8h.5V39.61h1.3V39.8ZM27.315,37.472H23.5v.382h3.819Z" transform="translate(0 0)" fill="#00a63c"/>
      <path id="Path_8820" data-name="Path 8820" d="M48.661,17.118a6.9,6.9,0,0,1-.186,5A24.539,24.539,0,0,1,58.9,21.277c-1.685,4.409-3.776,8.947-7.583,11.916a19.975,19.975,0,0,1-6.654,3.39A10.965,10.965,0,0,1,40.57,37c2.511-5.732,7.512-10.024,12.755-13.217l-.878.306A23.349,23.349,0,0,0,40.078,35.243l-.654,1.5V34.855a15.622,15.622,0,0,1,2.124-7.539A12.808,12.808,0,0,1,48.4,22.131c-.1-.532-.175-1.073-.311-1.6a3.435,3.435,0,0,0-.366-.97,7.205,7.205,0,0,0-5.544,3.19,6.753,6.753,0,0,0-1.344,4.557l-.1-.373a7.825,7.825,0,0,1,1.233-5.352,9.047,9.047,0,0,1,6.695-4.468" transform="translate(-10.734 -4.661)" fill="#fff"/>
      <path id="Path_8821" data-name="Path 8821" d="M36.228,32.728c-.065.007-.041-.132-.039-.173.136-2.96.048-6.461-1.443-9.1A10.362,10.362,0,0,0,30.195,19.4a15.006,15.006,0,0,1,4.851,6.245,5.181,5.181,0,0,1,.265.843c.009.077,0,.048-.055.055a7.045,7.045,0,0,1-1.74-.17,5.883,5.883,0,0,1-4.411-3.381c-.935-1.766-1.154-3.827-1.7-5.73a10.686,10.686,0,0,1,2.757.164,7.781,7.781,0,0,1,6.635,5.7c.862,3.176.051,6.467-.571,9.6" transform="translate(-7.462 -4.691)" fill="#fff"/>
      <path id="Path_8822" data-name="Path 8822" d="M42.747,47.755l.022-.306h.437v.306h2.215v.458h-.859l-.859.516.915.343-.114.287H45.5v.42H43.626v.5h1.757v.458H43.626v.5h1.6v.458h-1.6v.535h1.929c.111.111.037.311.057.458h-4.2c.02-.147-.055-.347.057-.458h1.661v-.535H41.678v-.458h1.451v-.5H41.964l-.428.531L41.144,51a3.788,3.788,0,0,1-.426,1.733c-.095.132-.315-.082-.45-.094a6.587,6.587,0,0,0,.373-1.244c.09-.64-.029-1.3.042-1.906.007-.056,0-.1.059-.132h.668l-.114-.382,1.031-.191L41.64,48.6l.115-.381h-1.26v-.458Zm.955.458H41.945c.021.057.169.078.229.1.3.085.6.153.9.231ZM41.908,49.36h2.253c-.018-.063-.151-.093-.21-.116a4.592,4.592,0,0,0-.876-.264c-.139.007-.854.255-1.061.315-.039.012-.115.009-.106.065m1.222.42H41.2l-.057.057v1.089c.064.014.077-.02.114-.058a1.909,1.909,0,0,0,.535-1.05l.458.077-.076.381h.955Z" transform="translate(-10.964 -12.92)" fill="#fff"/>
      <path id="Path_8823" data-name="Path 8823" d="M18.218,31.335l.688,2.979.882-2.976,1.158-.006.843,3.02.744-3.018h.955l-1.141,4.332-.98.025-1.049-3.211-.9,3.171-1.087.035-1.109-4.352Z" transform="translate(-4.69 -8.532)" fill="#fff"/>
      <path id="Path_8824" data-name="Path 8824" d="M13.639,47.871l.253-.417.435.227-.076.19h2.387c.114.122.035.338.057.5H13.869l-.573.726h2.845c.068,0,.092.151.1.208a21.725,21.725,0,0,1,0,2.944c-.069.813-1.065.661-1.626.477l-.017-.5c.515.076,1.269.394,1.145-.458H13.067v1.07h-.458V49.7l-.974.606-.284-.43a7.465,7.465,0,0,0,1.66-1.207,1.049,1.049,0,0,0,.21-.306h-1.8v-.5Zm-.575,2.33H15.74V49.59H13.065Zm0,1.07H15.74V50.7H13.065Z" transform="translate(-3.09 -12.921)" fill="#fff"/>
      <path id="Path_8825" data-name="Path 8825" d="M36.029,34.2V31.336h.917V35.69h-.974L34.043,32.9V35.69h-.916V31.336h.935Z" transform="translate(-9.02 -8.532)" fill="#fff"/>
      <path id="Path_8826" data-name="Path 8826" d="M24.907,50.468a15,15,0,0,1-.306-2.979l.458.038.057.765.192-.268.17.114.325-.686.358.212-.37.768.242.279.327-.837.419.1a5.8,5.8,0,0,1-.728,1.506L26.3,49.4l.015-.212.343-.095.308.953-.359.072-.122-.265-.512.079.3.293-.148.241h.726v.458H25.518l.248.611.42-.533.363.229-.531.712c.013.093.291.429.377.357l.077-.726.456.116a2.334,2.334,0,0,1-.15.859c-.3.79-.831.111-1.132-.282a8.411,8.411,0,0,1-.845.405c-.1.038-.589.221-.639.164l-.173-.422a3.753,3.753,0,0,0,1.41-.56l-.344-.926a6.571,6.571,0,0,0-1.164.032.259.259,0,0,0,.02.252c.089.087.94.327.99.4.022.169-.108.309-.169.455l-.857-.383a1.847,1.847,0,0,1-.459,1.167l-.422-.2c-.012-.073.211-.309.265-.422a2.579,2.579,0,0,0,.158-.492V50.526l.057-.057Zm.562-.89a2.242,2.242,0,0,0,.313-.5c-.183-.172-.375-.432-.569-.581-.038-.029-.048-.074-.114-.057l.117,1.181a.345.345,0,0,0,.253-.047m-.1.89H25.9c.024-.09-.024-.065-.049-.087a.525.525,0,0,0-.218-.143l.172-.267-.514.116Z" transform="translate(-6.261 -12.921)" fill="#fff"/>
      <path id="Path_8827" data-name="Path 8827" d="M25.622,35.69l1.888-4.358.969.009L30.4,35.69h-1.07l-.378-.971L27.06,34.7l-.464.987ZM28.6,33.971l-.611-1.6-.687,1.6Z" transform="translate(-6.976 -8.531)" fill="#fff"/>
      <path id="Path_8828" data-name="Path 8828" d="M7.516,35.69l1.851-4.318,1-.039L12.29,35.69H11.259l-.445-.987-1.888.017-.378.969Zm1.719-1.719h1.3L9.9,32.4Z" transform="translate(-2.046 -8.532)" fill="#fff"/>
      <path id="Path_8829" data-name="Path 8829" d="M35.892,50.6v.42H31.443l-.057.057v.745h4.583v.42H33.677c0,.089.094.155.152.21a3.14,3.14,0,0,0,.478.349l.879-.482.207.394-.571.368a5.467,5.467,0,0,0,1.218.2l-.107.432a3.418,3.418,0,0,1-2.313-.857c-.134-.114-.493-.544-.594-.59-.132-.06-.384,0-.534-.02v.917l.816-.111c.073.025.14.384.064.437a8.6,8.6,0,0,1-1.014.17,7.239,7.239,0,0,1-.9.039c-.127-.657.092-.38.557-.494v-.922l-.571-.031-.057.057a3.7,3.7,0,0,1-.276,1.328c-.107.153-.309-.069-.455-.054A6.209,6.209,0,0,0,30.967,52c.021-.4-.048-.882,0-1.264.007-.055.005-.1.06-.132Z" transform="translate(-8.348 -13.778)" fill="#fff"/>
      <path id="Path_8830" data-name="Path 8830" d="M28.409,42.379v-2.33h.764v3.533l-.057.057h-.726l-1.624-2.33v2.33h-.726V40.049h.745Z" transform="translate(-7.091 -10.905)" fill="#fff"/>
      <path id="Path_8831" data-name="Path 8831" d="M10.828,40.041c1.1.1,1.469,1.3.491,1.867l-.472.156c.627.3.95,1.022,1.337,1.567h-.936c-.319-.346-.848-1.386-1.3-1.487-.072-.016-.512-.075-.512.016v1.471H8.67V40.041c.7.047,1.472-.063,2.158,0m-1.394.611v.859a1.782,1.782,0,0,0,.747.059,2.445,2.445,0,0,0,.663-.1c.355-.2.189-.818-.13-.818Z" transform="translate(-2.361 -10.897)" fill="#fff"/>
      <path id="Path_8832" data-name="Path 8832" d="M17.79,43.1c-.9.752-2.775.836-3.42-.285a1.937,1.937,0,0,1,.558-2.576c.845-.495,2.57-.413,2.786.759l-.739.131a1.062,1.062,0,0,0-1.288-.514,1.2,1.2,0,0,0-.752,1.444,1.155,1.155,0,0,0,1.747.85c.379-.162.313-.225.306-.63h-.917v-.611H17.79Z" transform="translate(-3.842 -10.878)" fill="#fff"/>
      <path id="Path_8833" data-name="Path 8833" d="M4.073,39.958A1.842,1.842,0,0,1,6.094,42.4c-.4,1.737-3.44,1.715-3.727-.183a1.8,1.8,0,0,1,1.707-2.257m.116.609c-1.376.066-1.34,2.256-.186,2.457,1.734.3,1.818-2.535.186-2.457" transform="translate(-0.636 -10.878)" fill="#fff"/>
      <path id="Path_8834" data-name="Path 8834" d="M32.479,47.87v-.42l.461.017.036.4.892-.006.057-.057.006-.357h.458c.03.03-.057.365.057.42h1.394v1.6H31.027v-1.6Zm0,.344h-.936c-.087.062-.055.175-.057.267h.993Zm1.451.267c0-.092.029-.205-.057-.267h-.9v.267Zm1.451,0c0-.082.033-.231-.063-.262l-.914.031-.016.231Zm-2.9.382h-.993v.229h.993Zm.5.229h.955v-.229h-.955Zm2.406-.229h-.993v.229h.993Z" transform="translate(-8.448 -12.92)" fill="#fff"/>
      <path id="Path_8835" data-name="Path 8835" d="M22.135,47.448v1.108c.108.021.453-.056.491.063l.006.434-.434.005c-.1.034-.073.234-.019.314l.529.75-.076-.267c.332-.012.445-.418.605-.661a8.974,8.974,0,0,0-.743-.83l.238-.3.2.074.231-.648c.11.021.437.086.4.229a7.287,7.287,0,0,0-.322.773.631.631,0,0,0,.222.258l.151-.519.421.062a4.114,4.114,0,0,1-.458,1.105l.384-.1.266.843-.382.1-.094-.22-.913.228c-.09.023-.005.1-.061.163a1.846,1.846,0,0,1-.364.212l-.287-.459v2.711h-.458V50.5l-.231.572-.493-.132a4.979,4.979,0,0,0,.612-1.833c0-.082,0-.049-.057-.058-.078-.012-.425.016-.441,0v-.5h.611v-1.05c.111-.112.311-.038.458-.057" transform="translate(-5.705 -12.918)" fill="#fff"/>
      <path id="Path_8836" data-name="Path 8836" d="M6.35,31.336v.726H4.936v3.629H3.944V32.062H2.531v-.726Z" transform="translate(-0.689 -8.532)" fill="#fff"/>
      <path id="Path_8837" data-name="Path 8837" d="M19.849,43.638l1.495-3.585.817-.008,1.584,3.593H22.9l-.369-.834-1.545.017-.359.817Zm2.444-1.413-.515-1.338-.516,1.338Z" transform="translate(-5.405 -10.904)" fill="#fff"/>
      <path id="Path_8838" data-name="Path 8838" d="M37.2,41.014l-.8.152a.913.913,0,0,0-1.665-.115,2.078,2.078,0,0,0-.074,1.3.9.9,0,0,0,1.776-.076l.763.229c-.38,1.573-2.815,1.514-3.313.048a2.031,2.031,0,0,1,.628-2.294,1.783,1.783,0,0,1,2.685.756" transform="translate(-9.194 -10.877)" fill="#fff"/>
      <path id="Path_8839" data-name="Path 8839" d="M54.995,49.737H50.6V47.712h4.392Zm-.458-1.527H51.1V49.24h3.437Z" transform="translate(-13.778 -12.991)" fill="#fff"/>
      <rect id="Rectangle_526" data-name="Rectangle 526" width="0.955" height="4.355" transform="translate(10.931 22.804)" fill="#fff"/>
      <path id="Path_8840" data-name="Path 8840" d="M56.253,53.708h-.5v-.191h-1.3v.191h-.5V51.129l.057-.057h2.139a.656.656,0,0,1,.1.1Zm-.5-.688V51.626l-.057-.057H54.515l-.057.057V53.02Z" transform="translate(-14.693 -13.906)" fill="#fff"/>
      <path id="Path_8841" data-name="Path 8841" d="M52.436,51.111v2.6h-.5v-.191H50.7l-.058.19h-.457V51.129l.057-.057h2.1c.012,0,.058.051.1.039m-.5,1.91V51.626l-.057-.057H50.7l-.057.057V53.02Z" transform="translate(-13.664 -13.906)" fill="#fff"/>
      <rect id="Rectangle_527" data-name="Rectangle 527" width="0.764" height="3.591" transform="translate(23.037 29.144)" fill="#fff"/>
      <rect id="Rectangle_528" data-name="Rectangle 528" width="3.819" height="0.382" transform="translate(23.496 37.471)" fill="#fff"/>
      <path id="Path_8842" data-name="Path 8842" d="M43.457,50.652v.5H42.5l.076-.381-.458-.077a1.909,1.909,0,0,1-.535,1.05c-.037.038-.05.072-.114.058V50.709l.057-.057Z" transform="translate(-11.292 -13.792)" fill="#00a63c"/>
      <path id="Path_8843" data-name="Path 8843" d="M42.521,49.933c-.009-.056.066-.053.106-.065.207-.06.921-.309,1.06-.314a4.647,4.647,0,0,1,.877.263c.059.023.191.052.209.116Z" transform="translate(-11.577 -13.493)" fill="#00a63c"/>
      <path id="Path_8844" data-name="Path 8844" d="M44.33,48.5l-.629.327c-.3-.079-.6-.146-.9-.231-.06-.017-.209-.038-.229-.1Z" transform="translate(-11.592 -13.206)" fill="#00a63c"/>
      <rect id="Rectangle_529" data-name="Rectangle 529" width="2.675" height="0.611" transform="translate(9.974 36.669)" fill="#00a63c"/>
      <rect id="Rectangle_530" data-name="Rectangle 530" width="2.675" height="0.573" transform="translate(9.974 37.777)" fill="#00a63c"/>
      <path id="Path_8845" data-name="Path 8845" d="M26.255,49.948a.346.346,0,0,1-.253.047l-.117-1.181c.066-.017.076.028.114.057.194.148.385.409.569.581a2.225,2.225,0,0,1-.313.5" transform="translate(-7.048 -13.29)" fill="#00a63c"/>
      <path id="Path_8846" data-name="Path 8846" d="M26.224,51.411l-.076-.381.514-.116-.172.267a.525.525,0,0,1,.218.143c.025.023.073,0,.049.087Z" transform="translate(-7.12 -13.863)" fill="#00a63c"/>
      <path id="Path_8847" data-name="Path 8847" d="M29.23,34.358h-1.3l.687-1.6Z" transform="translate(-7.605 -8.918)" fill="#00a63c"/>
      <path id="Path_8848" data-name="Path 8848" d="M9.878,34.372l.668-1.566.63,1.566Z" transform="translate(-2.69 -8.933)" fill="#00a63c"/>
      <path id="Path_8849" data-name="Path 8849" d="M9.72,40.889H11c.319,0,.485.618.13.818a2.445,2.445,0,0,1-.663.1,1.783,1.783,0,0,1-.747-.059Z" transform="translate(-2.647 -11.134)" fill="#00a63c"/>
      <path id="Path_8850" data-name="Path 8850" d="M4.493,40.8c1.632-.079,1.548,2.759-.186,2.457-1.154-.2-1.19-2.391.186-2.457" transform="translate(-0.939 -11.108)" fill="#00a63c"/>
      <path id="Path_8851" data-name="Path 8851" d="M32.649,48.5v.267h-.993c0-.092-.029-.205.057-.267Z" transform="translate(-8.618 -13.206)" fill="#00a63c"/>
      <path id="Path_8852" data-name="Path 8852" d="M36.639,48.769h-.993l.016-.231.914-.031c.1.031.058.18.063.262" transform="translate(-9.706 -13.208)" fill="#00a63c"/>
      <path id="Path_8853" data-name="Path 8853" d="M34.659,48.767H33.7V48.5h.9c.087.062.055.174.057.267" transform="translate(-9.177 -13.206)" fill="#00a63c"/>
      <rect id="Rectangle_531" data-name="Rectangle 531" width="0.993" height="0.229" transform="translate(23.038 35.943)" fill="#00a63c"/>
      <rect id="Rectangle_532" data-name="Rectangle 532" width="0.993" height="0.229" transform="translate(25.94 35.943)" fill="#00a63c"/>
      <rect id="Rectangle_533" data-name="Rectangle 533" width="0.955" height="0.229" transform="translate(24.527 35.943)" fill="#00a63c"/>
      <path id="Path_8854" data-name="Path 8854" d="M22.822,42.541H21.791l.516-1.338Z" transform="translate(-5.933 -11.219)" fill="#00a63c"/>
      <rect id="Rectangle_534" data-name="Rectangle 534" width="3.437" height="1.031" transform="translate(37.321 35.218)" fill="#00a63c"/>
      <path id="Path_8855" data-name="Path 8855" d="M55.942,53.206h-1.3V51.811l.057-.057h1.184l.057.057Z" transform="translate(-14.879 -14.092)" fill="#00a63c"/>
      <path id="Path_8856" data-name="Path 8856" d="M52.111,53.206h-1.3V51.811l.057-.057h1.184l.057.057Z" transform="translate(-13.835 -14.092)" fill="#00a63c"/>
    </g>
  </g>
</svg>
