<svg xmlns="http://www.w3.org/2000/svg" xmlns:xlink="http://www.w3.org/1999/xlink" width="50" height="50" viewBox="0 0 50 50">
  <defs>
    <clipPath id="clip-path">
      <rect id="Rectangle_525" data-name="Rectangle 525" width="50" height="50" transform="translate(0 0)" fill="none"/>
    </clipPath>
  </defs>
  <g id="approve-logo3" transform="translate(0 -0.004)">
    <g id="Group_747" data-name="Group 747" transform="translate(0 0.004)" clip-path="url(#clip-path)">
      <path id="Path_8801" data-name="Path 8801" d="M391.826,373.081a18.75,18.75,0,1,1-18.75-18.75,18.75,18.75,0,0,1,18.75,18.75" transform="translate(-348.076 -348.081)" fill="#fff" fill-rule="evenodd"/>
      <path id="Path_8802" data-name="Path 8802" d="M988.63,902.8l-4.759-4.759-1.7,1.7,4.758,4.759Z" transform="translate(-964.847 -882.199)" fill="#6ea01b"/>
      <rect id="Rectangle_520" data-name="Rectangle 520" width="2.087" height="6.73" transform="translate(19.341 15.523) rotate(-45)" fill="#6ea01b"/>
      <rect id="Rectangle_521" data-name="Rectangle 521" width="1.388" height="6.73" transform="translate(21.173 13.691) rotate(-45)" fill="#6ea01b"/>
      <path id="Path_8803" data-name="Path 8803" d="M1280.046,654.427l-4.759-4.759-.927.927,4.759,4.758Z" transform="translate(-1251.882 -638.209)" fill="#6ea01b"/>
      <path id="Path_8804" data-name="Path 8804" d="M1266.876,544.351l-7.8.138,7.675,7.675Z" transform="translate(-1236.869 -534.749)" fill="#6ea01b"/>
      <rect id="Rectangle_522" data-name="Rectangle 522" width="1.99" height="6.133" transform="translate(25.075 21.6) rotate(-45)" fill="#6ea01b"/>
      <rect id="Rectangle_523" data-name="Rectangle 523" width="1.728" height="6.133" transform="translate(23.591 23.084) rotate(-44.999)" fill="#6ea01b"/>
      <path id="Path_8805" data-name="Path 8805" d="M1274.665,1326.222l4.337,4.337.813-.812-4.337-4.337Z" transform="translate(-1252.181 -1302.031)" fill="#6ea01b"/>
      <rect id="Rectangle_524" data-name="Rectangle 524" width="1.085" height="6.133" transform="translate(21.449 25.226) rotate(-45)" fill="#6ea01b"/>
      <path id="Path_8806" data-name="Path 8806" d="M1140.753,1391.733l6.455-.114-6.353-6.353Z" transform="translate(-1120.632 -1360.832)" fill="#6ea01b"/>
      <path id="Path_8807" data-name="Path 8807" d="M711.654,1043.667h-.087a.383.383,0,0,1-.271-.112l-.756-.756a.383.383,0,0,1-.112-.271v-.275a.383.383,0,0,1,.112-.271l3.423-3.423a.379.379,0,0,0,.069-.1c.165-.137.326-.281.48-.436l5.987-5.987a6.924,6.924,0,0,0,0-9.7c-3.026-3.026-6.27-3.287-8.536-1.022l4.336,4.337a.992.992,0,0,1,0,1.4l-4.549,4.549.307.306a.992.992,0,0,1-.684,1.694l-6.455.114a.992.992,0,0,1-1.01-1.008l.1-6.467a.992.992,0,0,1,1.694-.686l.307.307.891-.891-5.1-5.1-2.722,2.722a6.861,6.861,0,0,0,0,9.7l5.726,5.726c.154.154.315.3.48.435a.384.384,0,0,0,.069.1l1.379,1.379,2.924,2.924,1.31,1.31a.24.24,0,0,0,.34,0l.046-.046.086-.086.259-.259a.067.067,0,0,0-.047-.114" transform="translate(-684.779 -1001.825)" fill="#6ea01b"/>
      <path id="Path_8808" data-name="Path 8808" d="M25,0A25,25,0,1,0,50,25,25,25,0,0,0,25,0m0,43.75A18.75,18.75,0,1,1,43.75,25,18.75,18.75,0,0,1,25,43.754" transform="translate(0 -0.004)" fill="#008a32"/>
      <path id="Path_8809" data-name="Path 8809" d="M434.6,2195.674l-.933-.79.241-.285.933.79.273-.322-.744-.63a2.148,2.148,0,0,1-.607.109l-.052-.381a3.226,3.226,0,0,1-1.271.9l-.188-.356a3.052,3.052,0,0,0,.756-.427,4.99,4.99,0,0,0,.633-.627l.6-.7a.09.09,0,0,1,.144-.012l.377.32.12-.3a6.776,6.776,0,0,0,.791.448l-.361-.5.275-.174-.807-.684.245-.289,1.425,1.207.176-.207.311.263-.175.207,1.4,1.188-.245.289-.544-.46-.847-.171c.165.248.305.488.431.715l-.238.123.633.536-.241.285-1.177-1-.26.307,1.1.932-.241.285-1.1-.932-.273.322,1.01.856-.241.285-1.01-.856-.3.352,1.244,1.054-.241.285-2.65-2.245.241-.285,1.092.925Zm1.016-1.2-1.218-1.031a.047.047,0,0,0-.072,0l-.464.548-.125.148a1.982,1.982,0,0,0,.509-.083,1.887,1.887,0,0,0,.523-.288l.233.318-.261.173.614.52Zm.911.283c-.139-.264-.313-.539-.5-.833a6.933,6.933,0,0,1-1.008-.447Zm-.3-1.125.007.006.609.167-1.184-1,.571.827Z" transform="translate(-424.633 -2153.104)" fill="#fff"/>
      <path id="Path_8810" data-name="Path 8810" d="M692.5,2373.75l-.558-.282.177-.35.558.282.181-.36-.407-.206.177-.35,1.173.593-.177.351-.416-.21-.181.359.5.251-.177.351-.5-.252-.647,1.282a4.715,4.715,0,0,0,.633.124l-.049.41a9.6,9.6,0,0,1-1.753-.51l.084-.414.7.278Zm-.369.085a10.7,10.7,0,0,1-.362,1.018l-.34-.155a6.742,6.742,0,0,0,.355-.994Zm.526-1.376-.191-.385a2.319,2.319,0,0,0,1.2-.279l.322.19-.059.052a5.356,5.356,0,0,0,.338.622l-.389.146a5.61,5.61,0,0,1-.243-.585,4,4,0,0,1-.979.239m.6,2a5.825,5.825,0,0,1-.489.709l-.268-.222a4.46,4.46,0,0,0,.469-.692Zm-.27,1.923-.351-.177,1.343-2.659a.084.084,0,0,1,.124-.041l.753.381.608-1.2.368.186-.608,1.2.818.414a.086.086,0,0,1,.045.126l-1.157,2.291a.424.424,0,0,1-.328.241,1.247,1.247,0,0,1-.8-.381l.2-.389c.229.224.387.331.478.323a.2.2,0,0,0,.172-.115l.206-.407-1.407-.71Zm2.048-.558.19-.376-1.407-.711-.19.377Zm.092-2.872a3,3,0,0,1-1.11.434,1.033,1.033,0,0,0-.059-.388,2.15,2.15,0,0,0,.958-.4Zm.275,2.144.186-.368c.009-.017,0-.03-.017-.041l-1.351-.682a.026.026,0,0,0-.039.013l-.186.368Zm.843-1.84a7.117,7.117,0,0,1,.15,1.026l-.386.023a6.185,6.185,0,0,0-.148-1Z" transform="translate(-678.841 -2329.96)" fill="#fff"/>
      <path id="Path_8811" data-name="Path 8811" d="M979.494,2474.6a1.675,1.675,0,0,1-.322.288l-.282-.265a2.048,2.048,0,0,0,.6-.647l-1.242-.292-.165.7a2,2,0,0,0,.708-.467l.269.257a2.192,2.192,0,0,1-.811.547l-.179-.276-.187.8a2.634,2.634,0,0,0,.914-.518l.243.281-.46.345-.426,1.814-.383-.09.352-1.5-.222.072-.082-.159a4.048,4.048,0,0,1-.618,1.379l-.34-.249a4.425,4.425,0,0,0,.659-1.555l.543-2.31a.129.129,0,0,1,.175-.108l3.581.842a.135.135,0,0,1,.117.182l-.16.68a.135.135,0,0,1-.185.111l-2.031-.477.267.158-.089.144,2.064.485-.078.331-2.215-.521Zm-1.16-1.28,3.047.716c.043.01.066,0,.075-.042l.03-.128c.01-.042-.01-.062-.053-.072l-2.981-.7c-.043-.01-.065,0-.075.042Zm.395,3.367-.124-.343a1.691,1.691,0,0,0,.743-.4l-.179-.042c-.024-.006-.035-.023-.027-.056l.252-1.072a.036.036,0,0,1,.047-.029l2.05.482c.033.008.044.026.038.049l-.252,1.073a.041.041,0,0,1-.058.036l-1.46-.343-.118.122,1.507.354.213.2c.021.02.016.038,0,.059a2.294,2.294,0,0,1-.945.521,5.206,5.206,0,0,0,.886.218l-.149.378-.132-.031a5.432,5.432,0,0,1-1.115-.451,4.128,4.128,0,0,1-1.137-.038l-.027-.4a7.673,7.673,0,0,0,.783.1,2.5,2.5,0,0,1-.387-.54,3.07,3.07,0,0,1-.405.154m1.232.335a2.9,2.9,0,0,0,.7-.214c.011-.047,0-.071-.047-.076l-1.124-.265a1.767,1.767,0,0,0,.4.492Zm-.358-1.51-.049.208,0,.021,1.384.325.019-.015.049-.208Zm1.463.095.05-.212-.012-.013-1.384-.325-.012.007-.05.213Z" transform="translate(-959.628 -2429.037)" fill="#fff"/>
      <path id="Path_8812" data-name="Path 8812" d="M1297.787,2528.522l-3.687.059c-.034,0-.048.015-.048.049l.031,1.97a5.532,5.532,0,0,1-.261,1.887l-.385-.121a5.9,5.9,0,0,0,.251-1.877l-.035-2.168a.093.093,0,0,1,.105-.109l4.022-.064Zm-3.133,2.85.393-.006.011.713.742-.011-.016-.995.393-.006,0,.31,1.32-.021.006.374-1.32.021.005.311,1.732-.027.006.374-3.833.061-.006-.374.572-.009Zm.588-.247-.374.006-.013-.849a2.905,2.905,0,0,1-.394.54l-.333-.179a3.051,3.051,0,0,0,.6-.8l-.519.009-.006-.374.636-.01,0-.3-.495.032-.064-.368a7.291,7.291,0,0,0,1.342-.157l.069.367a3.366,3.366,0,0,1-.479.081l.005.34.568-.009.006.374-.47.008.541.467-.262.291-.37-.368Zm1.76-.047-.373.006-.014-.844a4,4,0,0,1-.553.635l-.333-.218a3.869,3.869,0,0,0,.792-.881l-.568.009-.006-.374.655-.01,0-.306-.514.042-.064-.373a8.555,8.555,0,0,0,1.4-.178l.074.368-.522.1.005.34.757-.012.006.374-.655.01a3.219,3.219,0,0,0,.834.846l-.327.238a4.089,4.089,0,0,1-.6-.626Z" transform="translate(-1270.622 -2483.554)" fill="#fff"/>
      <path id="Path_8813" data-name="Path 8813" d="M1580.481,2481.014c.033-.008.055,0,.063.034l.3,1.226a.047.047,0,0,1-.04.06l-3.8.923a.043.043,0,0,1-.059-.036l-.3-1.225a.042.042,0,0,1,.036-.058l1.131-.275-.075-.311.386-.094.075.311.778-.189-.075-.311.382-.093.075.311Zm.306,3.01.261.276a4.663,4.663,0,0,1-.419.411,2.851,2.851,0,0,0,1.054-.1l-.022.425a5.835,5.835,0,0,1-.6.066,3.361,3.361,0,0,1-2.03-.7l-.434.105.177.73c.291-.115.513-.209.66-.285l.159.346a8.263,8.263,0,0,1-1.527.575l-.15-.353.488-.149-.187-.773-.5.121a3.36,3.36,0,0,1,.026,1.236l-.38-.042a3.9,3.9,0,0,0-.09-1.46l-.216-.891a.09.09,0,0,1,.075-.123l3.884-.942.084.349-3.573.867c-.033.008-.045.021-.037.054l.146.6,3.686-.894.085.349-1.876.455a3.219,3.219,0,0,0,.64.314,5.031,5.031,0,0,0,.619-.574m-2.9-2.051-.782.19c-.009,0-.014,0-.007.012l.047.193.792-.192Zm.125.514-.792.192.041.17.014.017.782-.19Zm2.955.576.074.306-3.1.751-.074-.306Zm-1.915-1.372-.778.188.049.2.778-.188Zm.125.513-.778.189.046.189.778-.189Zm.306-.4.8-.194-.047-.193-.021,0-.778.189Zm.121.5.778-.189.014-.023-.041-.17-.8.194Z" transform="translate(-1548.828 -2437.214)" fill="#fff"/>
      <path id="Path_8814" data-name="Path 8814" d="M1836.265,2362.8l-1.087.558-.171-.332,1.087-.558-.193-.375-.867.445a2.149,2.149,0,0,1-.132.6l-.372-.1a3.23,3.23,0,0,1,.344,1.519l-.4.037a3.067,3.067,0,0,0-.105-.862,4.983,4.983,0,0,0-.336-.825l-.421-.819a.089.089,0,0,1,.044-.137l.439-.227-.23-.225a6.785,6.785,0,0,0,.716-.559l-.6.143-.055-.32-.94.483-.173-.337,1.661-.854-.124-.242.362-.186.124.241,1.635-.84.173.336-.634.326-.482.717c.292-.058.568-.1.825-.125l.023.266.737-.379.171.332-1.372.7.184.358,1.281-.658.171.332-1.281.659.193.375,1.177-.605.171.332-1.178.605.211.41,1.449-.745.171.332-3.088,1.587-.171-.332,1.273-.654Zm-1.262-2.285.009,0,.387-.5-1.38.709.983-.21Zm.543.888-1.419.729a.047.047,0,0,0-.025.068l.328.638.089.173a2,2,0,0,0,.118-.5,1.887,1.887,0,0,0-.065-.594l.383-.093.06.307.716-.368Zm.61-.734c-.3.027-.617.083-.961.146a7.061,7.061,0,0,1-.8.759Z" transform="translate(-1800.486 -2317.426)" fill="#fff"/>
      <path id="Path_8815" data-name="Path 8815" d="M2082.72,2192.86l-2.681,2.306a.053.053,0,0,1-.085-.01l-1.006-1.169a.052.052,0,0,1,.006-.082l2.681-2.305a.049.049,0,0,1,.082.006l1.006,1.169c.029.033.03.057,0,.086m-3.213,1.113c-.011.01-.012.017,0,.027l.519.6c.009.01.02.015.031.005l2.114-1.818c.011-.009.009-.02,0-.031l-.519-.6-.027,0Zm2.258,3.086-.312.269-1.388-1.615c-.032-.03-.03-.064.007-.1l1.313-1.129a.078.078,0,0,1,.124,0l1.379,1.6-.312.269-.108-.125-.809.7Zm.432-1.133-.75-.871c-.025-.03-.052-.031-.086,0l-.717.616c-.033.028-.035.056-.006.082l.75.872Zm1.318-.372-.312.269-1.388-1.614c-.032-.03-.029-.064.007-.1l1.316-1.133a.076.076,0,0,1,.12.006l1.379,1.6-.312.269-.108-.125-.809.7Zm.433-1.133-.75-.872a.053.053,0,0,0-.086,0l-.718.617c-.032.028-.035.055-.006.082l.75.872Z" transform="translate(-2042.261 -2152.923)" fill="#fff"/>
      <path id="Path_8816" data-name="Path 8816" d="M745.886,148.721l-1.318-3-1.876.824-.269-.611,5.024-2.207.268.611-1.872.822,1.319,3Z" transform="translate(-729.328 -141.19)" fill="#fff"/>
      <path id="Path_8817" data-name="Path 8817" d="M1244.926,98.666l-1.516-.026-.587-.907-2.76-.048-.585.886L1238,98.545l2.758-3.9,1.474.026Zm-2.539-1.606-.926-1.481-.958,1.448Z" transform="translate(-1216.161 -92.978)" fill="#fff"/>
      <path id="Path_8818" data-name="Path 8818" d="M1777.984,173.55l1.761-3.531,2,1a14.075,14.075,0,0,1,1.457.793,2.177,2.177,0,0,1,.717.789.918.918,0,0,1,.015.867.863.863,0,0,1-.479.444,1.586,1.586,0,0,1-.7.086,2.922,2.922,0,0,1-.73-.155,13.807,13.807,0,0,1-1.319-.6l-.814-.406-.664,1.332Zm2.711-2.311-.5,1,.683.341a6.189,6.189,0,0,0,1.013.437,1.015,1.015,0,0,0,.477.021.391.391,0,0,0,.278-.2.412.412,0,0,0-.04-.417,1.281,1.281,0,0,0-.424-.407q-.211-.136-.885-.472Z" transform="translate(-1746.622 -167.02)" fill="#fff"/>
    </g>
  </g>
</svg>
