<svg xmlns="http://www.w3.org/2000/svg" xmlns:xlink="http://www.w3.org/1999/xlink" width="50" height="50" viewBox="0 0 50 50">
  <defs>
    <clipPath id="clip-path">
      <rect id="Rectangle_831" data-name="Rectangle 831" width="26.845" height="33.59" fill="#fff"/>
    </clipPath>
  </defs>
  <g id="approve-logo4" transform="translate(-183)">
    <circle id="Ellipse_40" data-name="Ellipse 40" cx="25" cy="25" r="25" transform="translate(183)" fill="#ff4d7d"/>
    <g id="Group_1011" data-name="Group 1011" transform="translate(194.578 8.205)">
      <g id="Group_1010" data-name="Group 1010" clip-path="url(#clip-path)">
        <path id="Path_8998" data-name="Path 8998" d="M25.253,16.568c.3-1.11,1.593-2.074,1.592-3.171,0-1.135-1.312-2.1-1.6-3.165-.294-1.086.349-2.574-.212-3.541s-2.172-1.148-2.968-1.943-.968-2.4-1.952-2.962c-.951-.546-2.433.1-3.543-.193S14.494,0,13.4,0c-1.135,0-2.1,1.312-3.165,1.6-1.086.294-2.574-.348-3.541.212S5.542,3.986,4.748,4.782s-2.4.968-2.962,1.952c-.546.951.1,2.433-.193,3.543S0,12.351,0,13.448c0,1.135,1.312,2.1,1.6,3.165.294,1.086-.349,2.574.212,3.541S3.986,21.3,4.782,22.1s.968,2.4,1.952,2.962c.951.546,2.433-.1,3.543.193s2.074,1.593,3.171,1.592c1.135,0,2.1-1.312,3.165-1.6,1.086-.294,2.574.349,3.541-.212S21.3,22.859,22.1,22.063s2.4-.968,2.962-1.952c.546-.951-.1-2.433.193-3.543m-4.87,3.815a9.844,9.844,0,1,1,2.883-6.96,9.779,9.779,0,0,1-2.883,6.96" transform="translate(0 0)" fill="#fff"/>
        <path id="Path_8999" data-name="Path 8999" d="M91.169,686.728a1.787,1.787,0,0,0-.451-.047c-.243,0-.514.026-.8.053-.317.03-.645.062-.978.062a3.026,3.026,0,0,1-1.562-.364,2.791,2.791,0,0,1-.812-.717l-2.308,5.914,4.254-1.255,2.371,3.7,2.232-6.149a9.756,9.756,0,0,1-.863-.565,4.119,4.119,0,0,0-1.082-.627" transform="translate(-81.157 -660.479)" fill="#fff"/>
        <path id="Path_9000" data-name="Path 9000" d="M410.6,686.7a3.093,3.093,0,0,1-1.609.378c-.329,0-.651-.03-.963-.058-.278-.026-.54-.05-.775-.05a1.725,1.725,0,0,0-.441.045,4,4,0,0,0-1.024.607,9.054,9.054,0,0,1-.96.627l2.221,6.119,2.371-3.7,4.253,1.255-2.3-5.9a2.743,2.743,0,0,1-.77.675" transform="translate(-389.931 -660.78)" fill="#fff"/>
        <path id="Path_9001" data-name="Path 9001" d="M134.056,125.244a8.813,8.813,0,1,0,6.232,2.581,8.755,8.755,0,0,0-6.232-2.581m5.359,7.991-2.478,2.344.627,3.352a.351.351,0,0,1-.514.373l-2.995-1.632-2.995,1.632a.351.351,0,0,1-.514-.373l.627-3.352-2.478-2.344a.351.351,0,0,1,.2-.6l3.382-.44,1.463-3.081a.351.351,0,0,1,.635,0l1.463,3.081,3.382.44a.351.351,0,0,1,.2.6" transform="translate(-120.634 -120.635)" fill="#fff"/>
      </g>
    </g>
  </g>
</svg>
