<svg id="footer-logo" xmlns="http://www.w3.org/2000/svg" xmlns:xlink="http://www.w3.org/1999/xlink" width="262.908" height="70.992" viewBox="0 0 262.908 70.992">
  <defs>
    <clipPath id="clip-path">
      <rect id="Rectangle_838" data-name="Rectangle 838" width="262.908" height="70.992" fill="none"/>
    </clipPath>
    <clipPath id="clip-path-3">
      <rect id="Rectangle_836" data-name="Rectangle 836" width="71.588" height="70.992" fill="none"/>
    </clipPath>
  </defs>
  <g id="Group_1049" data-name="Group 1049" clip-path="url(#clip-path)">
    <g id="Group_1048" data-name="Group 1048">
      <g id="Group_1047" data-name="Group 1047" clip-path="url(#clip-path)">
        <g id="Group_1046" data-name="Group 1046" transform="translate(0)" opacity="0.6">
          <g id="Group_1045" data-name="Group 1045">
            <g id="Group_1044" data-name="Group 1044" clip-path="url(#clip-path-3)">
              <path id="Path_9151" data-name="Path 9151" d="M25.258,24.094a8.122,8.122,0,0,0-7.2,1.061q-4.318,2.955-4.394,6.592-.3,3.486,5.606,10.986a3.175,3.175,0,0,0-.985,1.213q-1.667,2.727.151,7.5,1.592,3.789,4.168,4.925v7.652a7.452,7.452,0,0,1-1.212,4.47q-2.122,2.5-6.44,2.5-4.244,0-6.289-2.5a7.818,7.818,0,0,1-1.137-4.47V52.734l-.151-.076a12.361,12.361,0,0,1-6.44-4.546q-2.2-3.41.758-7.5A65.663,65.663,0,0,0,7.453,28.489v-1.97a7.1,7.1,0,0,1-4.394-1.212Q.633,23.414.634,19.094.709,14.7,3.059,13.033A7.382,7.382,0,0,1,7.529,11.9V7.35A7.971,7.971,0,0,1,8.665,2.8Q10.786.3,15.105.3q4.242,0,6.289,2.5A7.811,7.811,0,0,1,22.606,7.35v4.622a6.035,6.035,0,0,1,4.015,1.061q2.424,1.894,2.424,6.213a8.4,8.4,0,0,1-2.2,5.834,6.252,6.252,0,0,0-1.591-.985m-9.319,7.8a6.546,6.546,0,0,1,3.182-4.849q2.879-1.893,5.228-.758a7.042,7.042,0,0,1,2.8,2.5q4.166,6.29,4.167,8.182a6.542,6.542,0,0,1-3.182,4.849q-2.955,1.744-5.228.758-1.743-.757-5.834-7.122A6.129,6.129,0,0,1,15.939,31.9M22,44.7a7.811,7.811,0,0,0,7.2-1.06,9.112,9.112,0,0,0,4.394-6.592,6.762,6.762,0,0,0-.833-3.712v-.455a8.7,8.7,0,0,0,3.031-.53A8.909,8.909,0,0,0,41.4,27.125a8.1,8.1,0,0,0-.379-4.925q-1.818-4.848-3.485-9.243Q36.243,8.26,32.758,7.5V6.441a6.608,6.608,0,0,1,1.137-4.168Q35.788,0,39.653,0q4.166,0,5.758,2.273a7.4,7.4,0,0,1,1.061,4.168V36.747a71.154,71.154,0,0,1-2.879,20.532q-3.864,11.669-7.046,13.032-2.653,1.211-6.515-.606-3.864-2.123-4.395-4.925-.152-1.893,3.107-8.485a.067.067,0,0,1,.076-.076l7.652-3.258-.909-1.97L27.91,54.173a5.778,5.778,0,0,1-3.713.379,4.734,4.734,0,0,1-2.424-1.516,9.17,9.17,0,0,1-2.2-5.3,3.677,3.677,0,0,1,1.44-3.485q.455.227.985.454m6.364-17.956Q32.3,22.2,30.485,14.7q-1.363-3.484-3.864-4.168a5.329,5.329,0,0,1,1.515-.758,5.528,5.528,0,0,1,5,.379,5.622,5.622,0,0,1,2.046,2.955q2.045,4.773,3.712,9.849a5.639,5.639,0,0,1,.3,3.561,6.639,6.639,0,0,1-4.015,3.788,8.053,8.053,0,0,1-4.243.076q-2.5-3.56-2.576-3.636m29.17-9.016,2.121-2.5a5.7,5.7,0,0,1,3.409-2.273q2.651-.529,5.607,1.818,2.879,2.5,2.8,5.228a6.693,6.693,0,0,1-1.742,3.637l-7.2,8.485v2.2l2.2,1.288v-.076l3.03,1.439a5.573,5.573,0,0,1,2.728,2.652,7.466,7.466,0,0,1-.682,6.061q-2.046,3.107-4.394,3.333a7.4,7.4,0,0,1-2.879-.682V49.93a4.667,4.667,0,0,0-2.652,1.137,8.958,8.958,0,0,0-2.652,4.47l-.606,1.97,1.894.758.758-2.121a6.9,6.9,0,0,1,1.97-3.258q1.97-1.592,5.606-.606,3.484.986,4.47,3.485a7.334,7.334,0,0,1,0,3.94l-.909,4.319a12.13,12.13,0,0,1-1.137,3.182,4.677,4.677,0,0,0-.606.909q-1.971,1.969-7.2,2.2H54.427q-3.713-.38-4.849-2.728a5.709,5.709,0,0,1-.758-2.955V6.744a6.61,6.61,0,0,1,1.137-4.168Q51.85.3,55.715.3q4.166,0,5.758,2.273a7.4,7.4,0,0,1,1.061,4.168V10.76a8.437,8.437,0,0,0-4.546,3.03l-2.121,2.5Z" transform="translate(0 -0.001)" fill="#fff"/>
            </g>
          </g>
        </g>
        <path id="Path_9152" data-name="Path 9152" d="M78.609,31.62q1.819,7.5-2.121,12.047.075.076,2.576,3.636a8.053,8.053,0,0,0,4.243-.076,6.639,6.639,0,0,0,4.015-3.788,5.643,5.643,0,0,0-.3-3.561q-1.668-5.075-3.712-9.849a5.622,5.622,0,0,0-2.046-2.955,5.529,5.529,0,0,0-5-.379,5.315,5.315,0,0,0-1.515.758q2.5.682,3.864,4.167" transform="translate(-48.123 -16.922)" fill="#c9377d"/>
        <path id="Path_9153" data-name="Path 9153" d="M169.315,119.633a21.383,21.383,0,0,1-.657-2.165.559.559,0,0,0-.134-.258c-.039-.035-.152.007-.422.031a3.006,3.006,0,0,1,.126.413,8.066,8.066,0,0,0,1.8,3.972,4.156,4.156,0,0,0,1.711,1.3,1.752,1.752,0,0,0,1.46-.016c.084-.041.116-.181.172-.276-.093-.032-.207-.115-.274-.088a1.81,1.81,0,0,1-1.857-.4,5.737,5.737,0,0,1-1.924-2.516" transform="translate(-108.229 -75.455)" fill="#c9377d"/>
        <path id="Path_9154" data-name="Path 9154" d="M168.9,108.9a11.374,11.374,0,0,0,.7,1.418,2.44,2.44,0,0,0,1.918,1.167,4.666,4.666,0,0,0,.791-.079c.007-.045.014-.089.021-.134-1.592-.223-2.4-1.4-3.338-2.411l-.089.039" transform="translate(-108.745 -70.089)" fill="#c9377d"/>
        <path id="Path_9155" data-name="Path 9155" d="M138.727,47.7c.046-.078.074-.106.076-.135a1.912,1.912,0,0,0,0-.226,12.6,12.6,0,0,1,1.3-6.133,2.334,2.334,0,0,0,.189-.766,21.648,21.648,0,0,1,5.97-12.7,22.933,22.933,0,0,0-4.846,11.22,18.23,18.23,0,0,1,7.876-5.688,5.349,5.349,0,0,1-.66.485,16.636,16.636,0,0,0-7.292,9.685,2.584,2.584,0,0,0-.078.951,22.2,22.2,0,0,0,4.423,11.08,8.473,8.473,0,0,1,2.451-3.859,4.668,4.668,0,0,1,2.652-1.137V48.886a7.4,7.4,0,0,0,2.879.682q2.348-.227,4.395-3.333a7.468,7.468,0,0,0,.682-6.061,5.575,5.575,0,0,0-2.728-2.652l-3.03-1.44v.076l-2.2-1.288v-2.2l7.2-8.485a6.69,6.69,0,0,0,1.743-3.637c0-.089-.009-.178-.011-.266-.139.269-.267.562-.488.662a4.738,4.738,0,0,1-1.754.4c-.312.01-.629-.326-.944-.505a3.307,3.307,0,0,1,.662-.852,3.213,3.213,0,0,1,2.23-.322l.28.267a7.17,7.17,0,0,0-2.778-4.612q-2.955-2.348-5.607-1.818a4.935,4.935,0,0,0-2.494,1.3,4.873,4.873,0,0,1-.515,1.494,3.46,3.46,0,0,1-2.445,1.917l-.027,0-.049.057-.05-.043a2.749,2.749,0,0,1-2.383-.706,4.207,4.207,0,0,1-1-1.482,4.782,4.782,0,0,1-.384-1.5,3.592,3.592,0,0,1,.178-1.449.331.331,0,0,0-.223-.444.374.374,0,0,0-.449.25,4.229,4.229,0,0,0-.2,1.964,5.489,5.489,0,0,0,.51,1.688,4.541,4.541,0,0,0,1.842,2.076c.042.024.09.091.083.131s-.074.093-.123.111a3.157,3.157,0,0,1-1.429.167,3.864,3.864,0,0,1-2.973-1.863,5.138,5.138,0,0,1-.714-3,4.166,4.166,0,0,1,.887-2.464,3.543,3.543,0,0,1,2.471-1.394c.115-.013.183.021.21.135.037.149.083.295.126.442a.346.346,0,0,0,.36.26.343.343,0,0,0,.322-.259.545.545,0,0,0-.054-.28,2.765,2.765,0,0,0-2.374-1.8.328.328,0,0,1-.293-.267.4.4,0,0,1,.185-.406l.175-.049a.141.141,0,0,0,.031.01,3.4,3.4,0,0,1,2.221,1.063c.018.019.039.033.068.057,0-.041.008-.067.011-.092a2.288,2.288,0,0,1,1.692-1.982l1.3-.364a.344.344,0,0,1,.484.348,2.293,2.293,0,0,1-1.641,2.16c-.455.129-.911.255-1.367.383l-.126.035a1.05,1.05,0,0,1,.084.146c.035.094.082.088.169.046a4.373,4.373,0,0,1,1.183-.39,2.949,2.949,0,0,1,2.485.6,4.754,4.754,0,0,1,1.486,2.132,6.811,6.811,0,0,1,2.211-.939V7.291a7.393,7.393,0,0,0-1.061-4.168Q148.135.851,143.967.851q-3.864,0-5.758,2.273a6.611,6.611,0,0,0-1.136,4.168V31.558a24.305,24.305,0,0,1,2.895-5.59c.671-.967,1.436-1.876,2.157-2.812l1.454-1.374c-.24.324-.473.654-.721.972a25.712,25.712,0,0,0-5.785,14.23v3.17a27.717,27.717,0,0,0,1.444,7.065c.052.153.129.3.21.481m8.194-16.1a5.3,5.3,0,0,1-1.177,1.1c-.6.391-1.257.373-1.49.079s-.044-.836.445-1.449a13.114,13.114,0,0,1,1.506-.639.845.845,0,0,1,.732.187.721.721,0,0,1-.016.718m1.084-2a11.109,11.109,0,0,1-1.45.627.887.887,0,0,1-.78-.183.854.854,0,0,1,.064-.815,4.718,4.718,0,0,1,1.182-1.018c.432-.261.968-.468,1.421-.035.28.267.05.844-.437,1.423m3.552,11.5a5.021,5.021,0,0,1,1.774,1.693,7.254,7.254,0,0,1,1.228,3.672,4.088,4.088,0,0,1-.143,1.22,1.9,1.9,0,0,1-2.534,1.367,4.751,4.751,0,0,1-1.619-.878,9.43,9.43,0,0,1-3.277-6.5,7.991,7.991,0,0,1,.287-2.045,1.628,1.628,0,0,1,.286-.575c.367-.539.722-.586,1.2-.159.254.229.485.481.727.723l-.057.079c.708.471,1.393.979,2.133,1.4m.549-13.535a2.482,2.482,0,0,1-1.792,1.039,1.3,1.3,0,0,1-1.025-.283c-.14-.208.112-.657.155-.842a3.25,3.25,0,0,1,2.127-.906c.686.015.92.449.535.991m5.359-5.588c.58.167.658.636.135,1.128a2.841,2.841,0,0,1-2.443.43c-.578-.172-.681-.661-.211-1.04a2.671,2.671,0,0,1,2.519-.518m-4.881.142a2.735,2.735,0,0,1,2-1.858c.51-.053.83.243.672.716a7.986,7.986,0,0,1-.632,1.192,8.952,8.952,0,0,1-1.346.595c-.478.127-.75-.176-.691-.645m.372,1.311c.279-.077.805-.017.9.146a1.011,1.011,0,0,1-.118.916,3.693,3.693,0,0,1-1.059.9c-.625.376-1.247.37-1.491.072s-.055-.831.446-1.419a8.174,8.174,0,0,1,1.327-.618m-3.655-.046a7.935,7.935,0,0,1,.621-1.242,8.642,8.642,0,0,1,1.3-.6c.507-.14.792.17.718.671a2.736,2.736,0,0,1-1.938,1.85c-.525.071-.851-.2-.706-.681m.584,1.491c.477-.106.734.231.639.692a2.75,2.75,0,0,1-2.138,1.71c-.528.015-.8-.279-.614-.759a7.528,7.528,0,0,1,.645-1.078,9.75,9.75,0,0,1,1.468-.566m-2.722-1.552c.343-.082.726-.294,1.021-.218.459.118.415.588.35.966a2.5,2.5,0,0,1-1.053,1.729.878.878,0,0,1-.7.135.857.857,0,0,1-.369-.631,3.178,3.178,0,0,1,.754-1.98m-2.583,2.408c.152-.043.47-.235.681-.162a.9.9,0,0,1,.467.633,2.391,2.391,0,0,1-.73,2.14c-.472.465-1.005.317-1.137-.307a2.713,2.713,0,0,1,.718-2.3m-2.384,2.3a.571.571,0,0,1,.885-.034A2.4,2.4,0,0,1,143.2,30.7c-.281.327-.588.369-.782.2a2.374,2.374,0,0,1-.224-2.879m-1.39,2.706a.571.571,0,0,1,.913.092,2.442,2.442,0,0,1,.106,2.578.568.568,0,0,1-.862.192,2.265,2.265,0,0,1-.156-2.862" transform="translate(-88.252 -0.548)" fill="#c9377d"/>
        <path id="Path_9156" data-name="Path 9156" d="M159.564,140.4q-.986-2.5-4.47-3.485-3.637-.984-5.606.606a6.9,6.9,0,0,0-1.97,3.258l-.23.644a25.214,25.214,0,0,0,4.554,3.689c.275.175.52.342.718.489.152-.12.3-.241.463-.355a8.039,8.039,0,0,1,1.742-.757,1.545,1.545,0,0,1,.576-.064c.582.012.769.246.63.792-.074.292-.177.578-.267.868l-.087,0c-.075.736-.189,1.472-.214,2.208a4.48,4.48,0,0,1-.594,2.084,7.211,7.211,0,0,1-2.393,2.621,4.1,4.1,0,0,1-1.027.472,1.564,1.564,0,0,1-2.151-1.192,3.933,3.933,0,0,1,.014-1.587,8.943,8.943,0,0,1,2.919-4.764,29.474,29.474,0,0,1-6.36-3.087c-.5-.323-.986-.677-1.478-1.018l-1.924-1.833c-.16-.209-.3-.433-.481-.626a23.345,23.345,0,0,1-4.865-7.9v17.806a5.709,5.709,0,0,0,.758,2.955q1.137,2.347,4.849,2.728h7.046q5.228-.228,7.2-2.2a4.673,4.673,0,0,1,.606-.909,12.135,12.135,0,0,0,1.137-3.182l.909-4.319a7.335,7.335,0,0,0,0-3.94" transform="translate(-88.24 -84.638)" fill="#c9377d"/>
        <path id="Path_9157" data-name="Path 9157" d="M174.946,175.372c.426-.537.958-1,1.44-1.5a.537.537,0,0,0,.148-.218c.011-.045-.069-.108-.2-.291a2.976,2.976,0,0,1-.274.286,7.889,7.889,0,0,0-2.391,3.176,3.6,3.6,0,0,0-.311,1.854,1.348,1.348,0,0,0,.628,1.05c.068.041.193,0,.291-.005-.014-.082,0-.2-.046-.24a1.427,1.427,0,0,1-.466-1.534,5.336,5.336,0,0,1,1.184-2.58" transform="translate(-111.597 -111.618)" fill="#c9377d"/>
        <path id="Path_9158" data-name="Path 9158" d="M186.649,170.009a11.111,11.111,0,0,0-.83,1.174,2.055,2.055,0,0,0-.117,1.94,3.553,3.553,0,0,0,.4.536l.115-.048c-.494-1.259.1-2.4.5-3.556l-.068-.046" transform="translate(-119.437 -109.457)" fill="#c9377d"/>
        <path id="Path_9159" data-name="Path 9159" d="M53.616,87.219A18.772,18.772,0,0,1,49.946,85.2a4,4,0,0,1-1.057-1.02,2.615,2.615,0,0,1-.249-.591.228.228,0,0,1,.158-.3,4.816,4.816,0,0,1,.7-.224,7.421,7.421,0,0,1,1.876-.049.4.4,0,0,0,.2-.013,1.828,1.828,0,0,1,1.064-.138,10.58,10.58,0,0,1,2.548.565,35.45,35.45,0,0,1,4.551,1.9,5.426,5.426,0,0,0,.388-1.6q0-1.893-4.167-8.183a7.039,7.039,0,0,0-2.8-2.5q-2.349-1.137-5.227.758a6.544,6.544,0,0,0-3.182,4.849,6.132,6.132,0,0,0,1.137,3.561q4.091,6.364,5.834,7.122,2.273.986,5.227-.758l.03-.022c-1.117-.447-2.251-.86-3.354-1.335" transform="translate(-28.804 -46.754)" fill="#c9377d"/>
        <path id="Path_9160" data-name="Path 9160" d="M91.7,173.558a16.632,16.632,0,0,1,3.8-4.157,5.532,5.532,0,0,0-3.8,4.157" transform="translate(-59.041 -109.066)" fill="#c9377d"/>
        <path id="Path_9161" data-name="Path 9161" d="M81.834,36.747V6.441a7.4,7.4,0,0,0-1.061-4.168Q79.183,0,75.015,0q-3.864,0-5.758,2.273A6.61,6.61,0,0,0,68.12,6.441V7.5a5.363,5.363,0,0,1,1.507.572,4.066,4.066,0,0,1,.038-.528A4.748,4.748,0,0,1,70.948,5a3.851,3.851,0,0,1,2.094-1.215,3.276,3.276,0,0,1,2.578.485.152.152,0,0,1,.068.221c-.063.127-.116.258-.174.388a.321.321,0,0,0,.1.4A.317.317,0,0,0,76,5.282a.507.507,0,0,0,.129-.23,2.557,2.557,0,0,0-.608-2.687A.3.3,0,0,1,75.47,2a.365.365,0,0,1,.372-.177l.153.07a.122.122,0,0,0,.016.025,3.146,3.146,0,0,1,.938,2.075c0,.024.008.047.014.081l.062-.059A2.116,2.116,0,0,1,79.4,3.623l1.138.518a.318.318,0,0,1,.135.534,2.119,2.119,0,0,1-2.447.551q-.6-.27-1.195-.544l-.11-.05a.969.969,0,0,1-.027.153c-.031.087.006.111.092.132a4.028,4.028,0,0,1,1.069.429,2.724,2.724,0,0,1,1.4,1.907,4.553,4.553,0,0,1-.755,3.439,4.38,4.38,0,0,1-2.066,1.662,3.2,3.2,0,0,1-2.871-.1A2.559,2.559,0,0,1,72.4,10.271a3.9,3.9,0,0,1,.178-1.642A4.411,4.411,0,0,1,73.2,7.341a3.321,3.321,0,0,1,.989-.919.306.306,0,0,0,.107-.447.346.346,0,0,0-.467-.09,3.917,3.917,0,0,0-1.308,1.273,5.073,5.073,0,0,0-.645,1.5,4.782,4.782,0,0,0-.157,1.494,10.629,10.629,0,0,1,1.177,2.808q1.665,4.395,3.485,9.243a8.1,8.1,0,0,1,.379,4.925,8.91,8.91,0,0,1-5.606,5.227,8.689,8.689,0,0,1-3.031.531v.455a6.759,6.759,0,0,1,.833,3.712q-.029.251-.072.5,1.411-.58,2.823-1.16a.348.348,0,0,1,.215-.022c.584.19,1.165.388,1.774.594-.055.052-.071.071-.091.085q-2.066,1.59-4.131,3.183c1.517.832,3.008,1.7,4.48,2.607a.5.5,0,0,0,.632,0c.347-.24.716-.449,1.076-.672q1.728-1.07,3.458-2.138a.285.285,0,0,1,.211-.046c.732.341,1.459.692,2.2,1.049-.044.047-.068.074-.093.1l-2.5,2.519q-.731.736-1.461,1.473a.271.271,0,0,0,.059.48c.1.062.208.119.312.18l.825.483c-.182.15-.353.287-.518.43a.238.238,0,0,1-.264.046q-4.23-1.383-8.463-2.757a.362.362,0,0,0-.382.027c-.129.109-.1.236-.064.372.19.643.376,1.287.562,1.931.121.418.24.836.369,1.282-.1-.034-.165-.054-.23-.081-.588-.239-1.177-.475-1.76-.723a.831.831,0,0,1-.308-.226q-1.322-1.6-2.638-3.209c-.135.1-.272.2-.414.291a7.812,7.812,0,0,1-7.2,1.06q-.531-.227-.985-.454a3.677,3.677,0,0,0-1.44,3.485,9.168,9.168,0,0,0,2.2,5.3,4.732,4.732,0,0,0,2.424,1.516,5.777,5.777,0,0,0,3.713-.379l7.652-3.182.909,1.97-7.652,3.258a.067.067,0,0,0-.076.076Q60.846,62.886,61,64.78q.529,2.8,4.395,4.925,3.864,1.818,6.515.606,3.183-1.364,7.046-13.032a71.142,71.142,0,0,0,2.879-20.532M74.156,59.961c-.07.013-.14.027-.21.038a1.906,1.906,0,0,0-1.56,1.282,4.553,4.553,0,0,0-.228,1.169,3.169,3.169,0,0,1-1.5,2.4,3.44,3.44,0,0,1-.543.3,3.177,3.177,0,0,1-.567.172c-.069.014-.14.016-.209.025a6.32,6.32,0,0,1-1.631-.077.239.239,0,0,1-.2-.143,2.943,2.943,0,0,1-.275-.893,5.519,5.519,0,0,1-.056-2.116c.012-.045.027-.087.041-.13a2.392,2.392,0,0,1,1.1-1.5,3.272,3.272,0,0,1,1-.523c.106-.041.437-.135.669-.192a1.749,1.749,0,0,1,.243-.056,9.639,9.639,0,0,1,1.532-.181,10.839,10.839,0,0,1,2.565.371.163.163,0,0,1,.036.023l-.2.039" transform="translate(-35.362 -0.001)" fill="#c9377d"/>
        <path id="Path_9162" data-name="Path 9162" d="M22.724,189.22a5.655,5.655,0,0,0,.572,1.1,7.178,7.178,0,0,0,5.266,2.461q-.512-.38-1.016-.77a19.615,19.615,0,0,0-4.822-2.789" transform="translate(-14.63 -121.826)" fill="#c9377d"/>
        <path id="Path_9163" data-name="Path 9163" d="M18.432,122.726a20.311,20.311,0,0,1,5.174,4.838,6.784,6.784,0,0,0-5.174-4.838" transform="translate(-11.867 -79.015)" fill="#c9377d"/>
        <path id="Path_9164" data-name="Path 9164" d="M51.858,157.721c-.24.606-1,2.2-1.836,2.392-.092.1-.181.206-.28.3s-.226.178-.333.273a1.9,1.9,0,0,0-.693,1.464c.009,1.712.042,3.425.067,5.185.352-.307.792-.448.924-.945a19.042,19.042,0,0,1,.766-2.367,4.636,4.636,0,0,1,3.5-2.894v-4.813a6.1,6.1,0,0,1-1.622-1.077,7.057,7.057,0,0,1-.491,2.477" transform="translate(-31.365 -99.951)" fill="#c9377d"/>
        <path id="Path_9165" data-name="Path 9165" d="M50.794,183.63c-.563.446-1.127.893-1.7,1.33a.364.364,0,0,0-.172.328c.014.747.022,1.493.033,2.24a6.917,6.917,0,0,0,3.935-2.24,7.062,7.062,0,0,0,1.2-3.88,15.54,15.54,0,0,0-2.182,1.334c-.384.28-.74.594-1.112.889" transform="translate(-31.499 -116.796)" fill="#c9377d"/>
        <path id="Path_9166" data-name="Path 9166" d="M4.922,60.372a4.736,4.736,0,0,1,.874-.8,4.778,4.778,0,0,1-2.564-.73,4.126,4.126,0,0,1-1.2-1.111,6.648,6.648,0,0,0,2.337,4.745c-.139-.108-.263-.23-.389-.35a3.741,3.741,0,0,1,.238-.636,4.674,4.674,0,0,1,.708-1.114" transform="translate(-1.306 -37.167)" fill="#c9377d"/>
        <path id="Path_9167" data-name="Path 9167" d="M1.782,19.673a4.851,4.851,0,0,1,3.02-.448c.156.029.313.064.471.11a4.668,4.668,0,0,1,1.178.524,4.765,4.765,0,0,1-.121-1.074c0-.165.01-.326.026-.483a5.26,5.26,0,0,1,1.728-3.238,4.809,4.809,0,0,1,1.63,2.413A4.671,4.671,0,0,1,9.9,18.785a4.853,4.853,0,0,1-.087.919,4.807,4.807,0,0,1,.91-.369c.158-.046.316-.081.471-.11a4.441,4.441,0,0,1,2.344.179,4.842,4.842,0,0,1,.446-1.582,5.658,5.658,0,0,1,.858-1.35A5.723,5.723,0,0,1,15.9,15.5a5.791,5.791,0,0,1-3.107-.884A5.826,5.826,0,0,1,10.534,11.9a6.375,6.375,0,0,1,4.351-.916c.189.035.379.078.571.134a5.665,5.665,0,0,1,1.428.635,5.769,5.769,0,0,1-.147-1.3c0-.2.012-.395.031-.586a6.375,6.375,0,0,1,2.094-3.922,5.827,5.827,0,0,1,1.974,2.923,5.654,5.654,0,0,1,.221,1.584,5.852,5.852,0,0,1-.106,1.113,5.848,5.848,0,0,1,1.1-.447c.192-.056.382-.1.571-.134a4.532,4.532,0,0,1,1.129-.1V7.9a7.81,7.81,0,0,0-1.212-4.546q-2.046-2.5-6.289-2.5-4.318,0-6.44,2.5A7.972,7.972,0,0,0,8.675,7.9v4.546a7.382,7.382,0,0,0-4.47,1.137q-2.349,1.667-2.424,6.061c0,.015,0,.029,0,.044v-.012" transform="translate(-1.147 -0.548)" fill="#c9377d"/>
        <path id="Path_9168" data-name="Path 9168" d="M46.44,35.385A.709.709,0,0,0,47.554,35a.673.673,0,0,0-.535-.846.749.749,0,0,0-.878.489.3.3,0,0,1-.163.159,2.754,2.754,0,0,1-.4.082c-.019-.258-.064-.468.234-.643a.642.642,0,0,0,.055-1,.767.767,0,0,0-1.064.006.672.672,0,0,0,.068,1.005.45.45,0,0,1,.16.624c-.165-.035-.335-.062-.5-.111a.241.241,0,0,1-.128-.143A.744.744,0,0,0,43.7,34.1a.752.752,0,0,0-.7.483.692.692,0,0,0,.285.79.822.822,0,0,0,.919-.068.309.309,0,0,1,.186-.084c.173.021.343.069.537.111-.095.14-.178.249-.245.366a.449.449,0,0,1-.466.275.641.641,0,0,0-.6.47.682.682,0,0,0,.24.745.794.794,0,0,0,.919,0,.716.716,0,0,0,.21-.833.305.305,0,0,1-.026-.226c.1-.174.224-.333.361-.53.1.139.164.257.252.36a.371.371,0,0,1,.067.437.645.645,0,0,0,.433.857.725.725,0,0,0,.784-.167A.642.642,0,0,0,47,36.342a.709.709,0,0,0-.672-.419c-.078,0-.189,0-.225-.042-.136-.163-.248-.346-.384-.543.271-.06.466-.155.72.046" transform="translate(-27.666 -21.27)" fill="#c9377d"/>
        <path id="Path_9169" data-name="Path 9169" d="M16.757,57.455a.585.585,0,0,0,.92-.314.556.556,0,0,0-.442-.7.619.619,0,0,0-.725.4.251.251,0,0,1-.134.131,2.261,2.261,0,0,1-.329.067c-.016-.213-.053-.386.193-.531a.531.531,0,0,0,.046-.822.634.634,0,0,0-.879,0,.555.555,0,0,0,.056.83.372.372,0,0,1,.132.515c-.136-.029-.277-.051-.41-.092a.2.2,0,0,1-.105-.118.612.612,0,0,0-1.16-.036.57.57,0,0,0,.235.652.679.679,0,0,0,.758-.056.255.255,0,0,1,.154-.07c.143.017.284.057.443.092-.078.116-.147.206-.2.3a.371.371,0,0,1-.385.227.53.53,0,0,0-.494.388.563.563,0,0,0,.2.615.656.656,0,0,0,.759,0,.591.591,0,0,0,.173-.687.251.251,0,0,1-.021-.186c.08-.144.185-.275.3-.437.079.115.135.213.208.3a.307.307,0,0,1,.056.361.532.532,0,0,0,.357.707.6.6,0,0,0,.648-.138.53.53,0,0,0,.115-.62.585.585,0,0,0-.555-.345c-.064,0-.156,0-.186-.035-.112-.135-.2-.285-.316-.448.224-.05.384-.128.594.038" transform="translate(-8.945 -35.744)" fill="#c9377d"/>
        <path id="Path_9170" data-name="Path 9170" d="M26.622,35.314a4.451,4.451,0,0,0-1.321-.705,5.225,5.225,0,0,1-1.729,1.739A5.643,5.643,0,0,1,22.113,37a5.739,5.739,0,0,1-1.443.23,5.739,5.739,0,0,1,1.059.973,5.667,5.667,0,0,1,.858,1.35,5.828,5.828,0,0,1,.39,3.506,6.375,6.375,0,0,1-4.136-1.631c-.138-.134-.274-.274-.4-.426a5.794,5.794,0,0,1-.728-1.08,5.777,5.777,0,0,1-.728,1.08c-.13.152-.265.292-.4.426a6.117,6.117,0,0,1-3.759,1.61,4.021,4.021,0,0,1-1.047.913,4.665,4.665,0,0,1-1.2.541,4.724,4.724,0,0,1-1.191.189,4.74,4.74,0,0,1,.874.8A4.674,4.674,0,0,1,10.96,46.6a4.811,4.811,0,0,1,.322,2.894A5.262,5.262,0,0,1,7.868,48.15c-.114-.11-.226-.226-.333-.352a4.738,4.738,0,0,1-.6-.9,4.757,4.757,0,0,1-.6.9c-.107.126-.219.241-.333.352a3.655,3.655,0,0,1-.55.464,10.058,10.058,0,0,0,2,.187v1.97A65.663,65.663,0,0,1,1.695,62.893q-2.955,4.091-.758,7.5a12.361,12.361,0,0,0,6.44,4.546l.151.076V86.3a11.268,11.268,0,0,0,.12,1.67,9.157,9.157,0,0,1,1.264-.335,5.867,5.867,0,0,1,5.755,2,5.135,5.135,0,0,1,1.281,3.6.027.027,0,0,1,0,.005c.262-.019.513-.052.761-.087q-.046-3.331-.09-6.662a.437.437,0,0,0-.165-.362,3.472,3.472,0,0,0-.724-.633,3.77,3.77,0,0,0-.966-.106c-.137-.018-.271-.04-.4-.064a8.483,8.483,0,0,1-1.929-.4A5.005,5.005,0,0,1,9.82,83.009a6.724,6.724,0,0,1-.758-1.92q-.416-1.542-.7-3.114a14.266,14.266,0,0,1,5.747,2.505,4.951,4.951,0,0,1,1.715,1.926,5.087,5.087,0,0,1,.312,1.8c0,.013.005.025.007.038a1.083,1.083,0,0,1,.04.288.682.682,0,0,0,.414.7c0-.145,0-.271-.006-.4a2.624,2.624,0,0,1,.382-1.664,4.742,4.742,0,0,1,.561-.665.413.413,0,0,0,.145-.324c0-.1,0-.208-.006-.311a3.913,3.913,0,0,1-.164-2.508,22.76,22.76,0,0,1,1.621-4.206,14.786,14.786,0,0,1-.693-1.425q-1.819-4.773-.151-7.5a3.168,3.168,0,0,1,.985-1.213q-5.91-7.5-5.606-10.986.075-3.637,4.394-6.592a8.122,8.122,0,0,1,7.2-1.061,6.247,6.247,0,0,1,1.591.985,8.4,8.4,0,0,0,2.2-5.834q0-4.319-2.424-6.213m-13.9,35.077a3.912,3.912,0,0,1-.268,1.178.315.315,0,0,1-.245.209,8.006,8.006,0,0,1-2.057.306c-.089,0-.178,0-.266-.006a3.9,3.9,0,0,1-.733-.148,4.214,4.214,0,0,1-.713-.312,3.915,3.915,0,0,1-2.108-2.877,5.807,5.807,0,0,0-.393-1.467,2.332,2.332,0,0,0-2.087-1.442c-.09,0-.18-.014-.269-.022l-.258-.025a.231.231,0,0,1,.043-.034,13.846,13.846,0,0,1,3.212-.8,11.994,11.994,0,0,1,1.954.037,2.141,2.141,0,0,1,.312.04c.3.044.725.122.863.161a3.981,3.981,0,0,1,1.305.543,2.94,2.94,0,0,1,1.526,1.782c.022.054.044.106.064.162a7.165,7.165,0,0,1,.118,2.715" transform="translate(0 -22.282)" fill="#c9377d"/>
        <path id="Path_9171" data-name="Path 9171" d="M70.011,34.31q-.258-.088-.536-.154c.185.044.364.1.536.154" transform="translate(-44.73 -21.991)" fill="#c9377d"/>
        <path id="Path_9172" data-name="Path 9172" d="M70.98,34.588,71,34.6v0l-.021-.006" transform="translate(-45.699 -22.269)" fill="#c9377d"/>
        <path id="Path_9173" data-name="Path 9173" d="M231.486,137.859a.917.917,0,0,1-.5.906,1.066,1.066,0,0,1-.206.069.842.842,0,0,1-.177.041.82.82,0,0,1-.147.014h-.088q-1.162,0-1.163-1.03v-9.211h-2.929q-.485,0-.485-.44t.485-.453h8.153q.471,0,.471.44t-.471.453h-2.944Z" transform="translate(-145.371 -82.253)" fill="#4b3529"/>
        <path id="Path_9174" data-name="Path 9174" d="M263.75,139.053a1.815,1.815,0,0,0-.295-1.139,1.382,1.382,0,0,0-1.177-.467,1.275,1.275,0,0,0-1.368.988.384.384,0,0,0-.03.124l-.059.137a.648.648,0,0,1-.162.261,1.09,1.09,0,0,1-.839.289q-1.045,0-1.045-.783,0-.6.839-1.181a3.871,3.871,0,0,1,1.088-.494,5.6,5.6,0,0,1,1.56-.206,6.1,6.1,0,0,1,1.28.124,3.369,3.369,0,0,1,1.148.466,2.641,2.641,0,0,1,1.119,2.376v2.979a1.969,1.969,0,0,0,.029.316l.03.206.162.577a.4.4,0,0,1,.03.123.727.727,0,0,1-.353.576,1.333,1.333,0,0,1-.78.247,1.082,1.082,0,0,1-1.031-.851,3.712,3.712,0,0,1-.824.494,3.958,3.958,0,0,1-.809.248,5.324,5.324,0,0,1-.662.1,2.652,2.652,0,0,1-.265.014h-.191a3.036,3.036,0,0,1-2.192-.7,2.052,2.052,0,0,1-.6-1.537,2.139,2.139,0,0,1,.545-1.51,3.125,3.125,0,0,1,1.368-.8,8.722,8.722,0,0,1,1.752-.315q.4-.027.9-.041.192-.013.427-.014c.088-.01.225-.014.412-.014Zm0,1.386q-.78.013-1.3.069a3.927,3.927,0,0,0-1.046.261,1.487,1.487,0,0,0-.941,1.483,1.429,1.429,0,0,0,.294.961,1.463,1.463,0,0,0,1.148.412l.295-.014a2.218,2.218,0,0,0,.426-.1,3.037,3.037,0,0,0,1.119-.563Z" transform="translate(-166.333 -87.936)" fill="#4b3529"/>
        <path id="Path_9175" data-name="Path 9175" d="M294.966,137.722a4.51,4.51,0,0,1-.03,5.738,4.279,4.279,0,0,1-5.754,0,3.98,3.98,0,0,1-1.045-2.882,4.037,4.037,0,0,1,1.016-2.855,4.276,4.276,0,0,1,5.813,0m-4.106.288a4.534,4.534,0,0,0-.545,2.568,4.6,4.6,0,0,0,.545,2.58,1.544,1.544,0,0,0,2.383.028,2.634,2.634,0,0,0,.4-.961,7.2,7.2,0,0,0,.162-1.647,4.7,4.7,0,0,0-.515-2.527,1.534,1.534,0,0,0-2.428-.041" transform="translate(-185.512 -87.936)" fill="#4b3529"/>
        <path id="Path_9176" data-name="Path 9176" d="M317.263,138.01a1.1,1.1,0,0,1-.162-.453.839.839,0,0,1,.368-.672,1.284,1.284,0,0,1,.838-.3.78.78,0,0,1,.53.179,1.3,1.3,0,0,1,.265.343l2.561,4.529,2.266-4.777a.461.461,0,0,1,.221-.22.392.392,0,0,1,.206-.054q.486,0,.485.425a.484.484,0,0,1-.014.123l-4.312,9.129a.455.455,0,0,1-.442.274q-.47,0-.471-.425a.4.4,0,0,1,.045-.192l.956-2.018Z" transform="translate(-204.16 -87.936)" fill="#4b3529"/>
        <path id="Path_9177" data-name="Path 9177" d="M347.427,137.529a.824.824,0,0,1,.471-.824.782.782,0,0,1,.177-.069.931.931,0,0,1,.162-.041.75.75,0,0,1,.132-.014h.088q1.059,0,1.059.947v4.516a1.81,1.81,0,0,0,.25,1,1.214,1.214,0,0,0,1.09.508,1.818,1.818,0,0,0,1.163-.425,2.576,2.576,0,0,0,.721-.962v-4.639a.828.828,0,0,1,.456-.824,1.435,1.435,0,0,1,.177-.069,1.409,1.409,0,0,1,.176-.041.6.6,0,0,1,.132-.014h.089q1.045,0,1.045.947v6.1a.828.828,0,0,1-.456.823,1.483,1.483,0,0,1-.177.069,1.245,1.245,0,0,1-.176.041.6.6,0,0,1-.132.014h-.089a1.651,1.651,0,0,1-.295-.027,1.206,1.206,0,0,1-.338-.124.725.725,0,0,1-.412-.686v-.384a2.714,2.714,0,0,1-.309.357,2.445,2.445,0,0,1-.486.4,2.973,2.973,0,0,1-1.678.467,3.668,3.668,0,0,1-.986-.123,2.437,2.437,0,0,1-.913-.439,2.108,2.108,0,0,1-.677-.879,3.566,3.566,0,0,1-.265-1.441Z" transform="translate(-223.684 -87.936)" fill="#4b3529"/>
        <path id="Path_9178" data-name="Path 9178" d="M382.577,139.053a1.815,1.815,0,0,0-.295-1.139,1.382,1.382,0,0,0-1.177-.467,1.275,1.275,0,0,0-1.368.988.384.384,0,0,0-.03.124l-.059.137a.649.649,0,0,1-.162.261,1.09,1.09,0,0,1-.839.289q-1.045,0-1.045-.783,0-.6.839-1.181a3.871,3.871,0,0,1,1.088-.494,5.6,5.6,0,0,1,1.56-.206,6.1,6.1,0,0,1,1.28.124,3.366,3.366,0,0,1,1.148.466,2.641,2.641,0,0,1,1.119,2.376v2.979a1.972,1.972,0,0,0,.029.316l.03.206.162.577a.4.4,0,0,1,.03.123.728.728,0,0,1-.353.576,1.333,1.333,0,0,1-.78.247,1.082,1.082,0,0,1-1.031-.851,3.712,3.712,0,0,1-.824.494,3.959,3.959,0,0,1-.809.248,5.323,5.323,0,0,1-.662.1,2.645,2.645,0,0,1-.265.014h-.191a3.036,3.036,0,0,1-2.192-.7,2.052,2.052,0,0,1-.6-1.537,2.139,2.139,0,0,1,.545-1.51,3.125,3.125,0,0,1,1.368-.8,8.724,8.724,0,0,1,1.752-.315q.4-.027.9-.041.192-.013.427-.014c.088-.01.225-.014.412-.014Zm0,1.386q-.78.013-1.3.069a3.928,3.928,0,0,0-1.046.261,1.487,1.487,0,0,0-.941,1.483,1.429,1.429,0,0,0,.294.961,1.463,1.463,0,0,0,1.148.412l.295-.014a2.218,2.218,0,0,0,.426-.1,3.037,3.037,0,0,0,1.119-.563Z" transform="translate(-242.837 -87.936)" fill="#4b3529"/>
        <path id="Path_9179" data-name="Path 9179" d="M415.757,143.625a.828.828,0,0,1-.456.823,1.425,1.425,0,0,1-.177.069,1.3,1.3,0,0,1-.176.041.6.6,0,0,1-.132.013h-.089q-1.06,0-1.06-.933v-4.517a1.79,1.79,0,0,0-.265-1.029,1.224,1.224,0,0,0-1.074-.48,1.806,1.806,0,0,0-1.178.439,2.466,2.466,0,0,0-.692.947v4.627a.824.824,0,0,1-.47.823.8.8,0,0,1-.177.069.873.873,0,0,1-.162.041.758.758,0,0,1-.133.013h-.191a.822.822,0,0,1-.147-.013.871.871,0,0,1-.162-.041,1.186,1.186,0,0,1-.191-.069.816.816,0,0,1-.457-.81V137.53a.825.825,0,0,1,.471-.824.765.765,0,0,1,.177-.069.93.93,0,0,1,.162-.041.745.745,0,0,1,.133-.013h.088a1.75,1.75,0,0,1,.294.027,1.408,1.408,0,0,1,.353.124.736.736,0,0,1,.412.7v.371l.309-.357a2.451,2.451,0,0,1,.486-.4,2.947,2.947,0,0,1,1.662-.466,4.027,4.027,0,0,1,.971.11,2.446,2.446,0,0,1,.928.439,2.116,2.116,0,0,1,.676.879,3.606,3.606,0,0,1,.265,1.455Z" transform="translate(-262.921 -87.936)" fill="#4b3529"/>
        <path id="Path_9180" data-name="Path 9180" d="M456.044,138.188a.5.5,0,0,1-.235.261.489.489,0,0,1-.25.068c-.334,0-.5-.155-.5-.467a.325.325,0,0,1,.029-.151l3.473-9.732a1.478,1.478,0,0,1,1.56-.988,1.9,1.9,0,0,1,.839.179,1.531,1.531,0,0,1,.706.81l3.473,8.977a1.05,1.05,0,0,1,.074.33q0,1.043-1.281,1.043a.963.963,0,0,1-.706-.233,1.055,1.055,0,0,1-.162-.233l-.074-.192a.052.052,0,0,1-.015-.041l-.912-2.375H457.03Zm1.3-3.638h4.385l-1.958-5.092c-.088-.238-.187-.358-.294-.358s-.211.124-.309.371Z" transform="translate(-292.981 -81.881)" fill="#4b3529"/>
        <path id="Path_9181" data-name="Path 9181" d="M497.814,137.948a2.091,2.091,0,0,1,.089.618,1.89,1.89,0,0,1-.4,1.222,2.211,2.211,0,0,1-.942.659,4.156,4.156,0,0,1-1.119.261,8.662,8.662,0,0,1-2.06-.014,2.731,2.731,0,0,1-.383-.082l-.309-.082-.059.069a.175.175,0,0,0-.044.068.47.47,0,0,0-.059.248q0,.563,1.575.6l.868.027c.314.01.589.023.825.042a5.979,5.979,0,0,1,1.4.274,1.8,1.8,0,0,1,1.309,1.867,2.745,2.745,0,0,1-.1.81,1.618,1.618,0,0,1-.515.81,2.815,2.815,0,0,1-1.236.618,8.934,8.934,0,0,1-2.3.248,7.564,7.564,0,0,1-2.031-.233,2.627,2.627,0,0,1-1.132-.576,1.733,1.733,0,0,1-.5-.755,2.573,2.573,0,0,1-.1-.769,1.858,1.858,0,0,1,.486-1.359,1.591,1.591,0,0,1,.426-.3,1,1,0,0,1,.207-.1l.088-.041a.182.182,0,0,1,.073-.028l-.221-.082a1.831,1.831,0,0,1-.25-.166.854.854,0,0,1-.309-.686,1.146,1.146,0,0,1,.75-1.015,2,2,0,0,1-.662-.988,1.406,1.406,0,0,1-.088-.412.714.714,0,0,1-.015-.151v-.1a1.833,1.833,0,0,1,.471-1.276,2.544,2.544,0,0,1,1.074-.645,5.491,5.491,0,0,1,1.177-.246l.765-.028a5.849,5.849,0,0,1,1.649.192,2.607,2.607,0,0,1,.471.179c.078.037.2.1.353.192l.133-.192a1.485,1.485,0,0,1,.235-.248,1.253,1.253,0,0,1,.81-.3.578.578,0,0,1,.662.645q0,.659-.721.7a1.727,1.727,0,0,0-.53.083,2.008,2.008,0,0,1,.191.439m-4.9,4.763a1.81,1.81,0,0,0-.25,1.043q0,1.607,1.84,1.607a1.926,1.926,0,0,0,1.648-.618,1.605,1.605,0,0,0,.235-.535,2.291,2.291,0,0,0,.045-.48v-.138a1.046,1.046,0,0,0-.015-.179,1.472,1.472,0,0,0-.147-.439,1.319,1.319,0,0,0-1.132-.617,3.141,3.141,0,0,0-.324-.028l-1.015-.041c-.167-.009-.28-.018-.339-.027a1.935,1.935,0,0,0-.544.453m2.738-3.473a1.663,1.663,0,0,0,.147-.467,1.307,1.307,0,0,0,.014-.179v-.11a1.553,1.553,0,0,0-.25-.892,1.168,1.168,0,0,0-1.045-.509,1.257,1.257,0,0,0-1.074.494,1.632,1.632,0,0,0-.28.962.906.906,0,0,0,.015.178.7.7,0,0,0,.029.206,1.3,1.3,0,0,0,.192.453,1.275,1.275,0,0,0,1.148.508,1.119,1.119,0,0,0,1.1-.645" transform="translate(-315.856 -87.613)" fill="#4b3529"/>
        <path id="Path_9182" data-name="Path 9182" d="M524.024,143.625a.828.828,0,0,1-.457.823,1.393,1.393,0,0,1-.176.069,1.341,1.341,0,0,1-.177.041.6.6,0,0,1-.133.013h-.177a.819.819,0,0,1-.147-.013,1.325,1.325,0,0,1-.177-.041,1.4,1.4,0,0,1-.176-.069.816.816,0,0,1-.457-.81V137.53a.827.827,0,0,1,.457-.824,1.344,1.344,0,0,1,.176-.069,1.443,1.443,0,0,1,.177-.041.592.592,0,0,1,.132-.013h.089q1.044,0,1.045.947v.769a2.292,2.292,0,0,1,2.178-1.716q.926,0,.927.837a.747.747,0,0,1-.426.714,1.856,1.856,0,0,1-.383.109l-.324.042a2.4,2.4,0,0,0-1.516.576,1.272,1.272,0,0,0-.308.4l-.148.343Z" transform="translate(-336.047 -87.936)" fill="#4b3529"/>
        <path id="Path_9183" data-name="Path 9183" d="M547.392,127.535a1.178,1.178,0,0,1,.4.893,1.162,1.162,0,0,1-.4.879,1.33,1.33,0,0,1-.942.357,1.362,1.362,0,0,1-.941-.357,1.182,1.182,0,0,1-.383-.879,1.152,1.152,0,0,1,.383-.878,1.4,1.4,0,0,1,1.883-.015m.1,10.035a.829.829,0,0,1-.457.823,1.453,1.453,0,0,1-.177.069,1.284,1.284,0,0,1-.176.041.609.609,0,0,1-.133.013h-.088q-1.045,0-1.045-.933v-6.109a.828.828,0,0,1,.456-.824,1.411,1.411,0,0,1,.177-.069,1.468,1.468,0,0,1,.176-.041.6.6,0,0,1,.133-.013h.088q1.046,0,1.046.947Z" transform="translate(-350.969 -81.881)" fill="#4b3529"/>
        <path id="Path_9184" data-name="Path 9184" d="M569.356,142.06a1.6,1.6,0,0,1-.191.7,2.78,2.78,0,0,1-.618.837,3.522,3.522,0,0,1-1.148.686,5.206,5.206,0,0,1-1.781.288,3.95,3.95,0,0,1-3.12-1.194,4.058,4.058,0,0,1-.928-2.8A3.873,3.873,0,0,1,562.7,137.6a4.206,4.206,0,0,1,2.988-1.016,4.8,4.8,0,0,1,1.884.343,3.246,3.246,0,0,1,1.1.755,2.637,2.637,0,0,1,.515.823,1.187,1.187,0,0,1,.1.3.843.843,0,0,1,.029.179.673.673,0,0,1-.368.6,1.219,1.219,0,0,1-.647.178,1,1,0,0,1-.852-.329,1.486,1.486,0,0,1-.25-.673l-.03-.137a1.037,1.037,0,0,0-.043-.179,1.943,1.943,0,0,0-.222-.44,1.506,1.506,0,0,0-1.28-.562,1.486,1.486,0,0,0-1.325.631,6.225,6.225,0,0,0,.03,5.093,1.455,1.455,0,0,0,1.236.562,1.478,1.478,0,0,0,1.294-.6,1.633,1.633,0,0,0,.25-.522,1.793,1.793,0,0,0,.089-.467.935.935,0,0,1,1.074-.906c.715,0,1.074.274,1.074.824" transform="translate(-361.557 -87.936)" fill="#4b3529"/>
        <path id="Path_9185" data-name="Path 9185" d="M592.518,137.529a.825.825,0,0,1,.47-.824.806.806,0,0,1,.177-.069.952.952,0,0,1,.162-.041.744.744,0,0,1,.133-.014h.088q1.059,0,1.06.947v4.516a1.809,1.809,0,0,0,.25,1,1.211,1.211,0,0,0,1.088.508,1.821,1.821,0,0,0,1.164-.425,2.575,2.575,0,0,0,.721-.962v-4.639a.828.828,0,0,1,.456-.824,1.454,1.454,0,0,1,.177-.069,1.437,1.437,0,0,1,.177-.041.591.591,0,0,1,.132-.014h.088q1.046,0,1.046.947v6.1a.828.828,0,0,1-.456.823,1.478,1.478,0,0,1-.177.069,1.268,1.268,0,0,1-.177.041.607.607,0,0,1-.133.014h-.088a1.652,1.652,0,0,1-.295-.027,1.2,1.2,0,0,1-.338-.124.725.725,0,0,1-.413-.686v-.384a2.588,2.588,0,0,1-.309.357,2.417,2.417,0,0,1-.486.4,2.969,2.969,0,0,1-1.676.467,3.683,3.683,0,0,1-.987-.123,2.432,2.432,0,0,1-.911-.439,2.111,2.111,0,0,1-.677-.879,3.566,3.566,0,0,1-.265-1.441Z" transform="translate(-381.482 -87.936)" fill="#4b3529"/>
        <path id="Path_9186" data-name="Path 9186" d="M626.41,137.57a.83.83,0,0,1-.458.823,1.436,1.436,0,0,1-.177.069,1.246,1.246,0,0,1-.175.041.608.608,0,0,1-.132.013h-.177a.838.838,0,0,1-.148-.013,1.363,1.363,0,0,1-.175-.041,1.468,1.468,0,0,1-.177-.069.816.816,0,0,1-.456-.81v-9.458a.829.829,0,0,1,.456-.824,1.671,1.671,0,0,1,.177-.069,1.421,1.421,0,0,1,.175-.041.606.606,0,0,1,.134-.014h.175a.836.836,0,0,1,.148.014,1.3,1.3,0,0,1,.175.041,1.63,1.63,0,0,1,.177.069.83.83,0,0,1,.458.824Z" transform="translate(-401.967 -81.881)" fill="#4b3529"/>
        <path id="Path_9187" data-name="Path 9187" d="M642.747,138.3a1.262,1.262,0,0,0,.147.672.746.746,0,0,0,.677.316,1.32,1.32,0,0,0,.47-.068l.1-.041a.332.332,0,0,0,.1-.056.724.724,0,0,1,.206-.041.345.345,0,0,1,.4.384c0,.183-.157.343-.47.481a3.7,3.7,0,0,1-1.56.329,2.332,2.332,0,0,1-1.5-.439,1.953,1.953,0,0,1-.661-1.634v-4.887h-.972c-.293,0-.442-.133-.442-.4s.148-.411.442-.411h.972v-1.648a.827.827,0,0,1,.456-.823,1.443,1.443,0,0,1,.177-.069,1.274,1.274,0,0,1,.177-.041.58.58,0,0,1,.132-.014h.191a.819.819,0,0,1,.147.014,1.287,1.287,0,0,1,.177.041.81.81,0,0,1,.177.069.828.828,0,0,1,.456.823v1.648h1.575c.295,0,.442.132.442.4s-.147.412-.442.412h-1.575Z" transform="translate(-411.565 -83.643)" fill="#4b3529"/>
        <path id="Path_9188" data-name="Path 9188" d="M663.212,137.529a.825.825,0,0,1,.47-.824.809.809,0,0,1,.177-.069.955.955,0,0,1,.162-.041.744.744,0,0,1,.133-.014h.088q1.059,0,1.06.947v4.516a1.81,1.81,0,0,0,.25,1,1.211,1.211,0,0,0,1.088.508,1.821,1.821,0,0,0,1.164-.425,2.575,2.575,0,0,0,.721-.962v-4.639a.828.828,0,0,1,.456-.824,1.454,1.454,0,0,1,.177-.069,1.436,1.436,0,0,1,.177-.041.591.591,0,0,1,.132-.014h.088q1.046,0,1.046.947v6.1a.828.828,0,0,1-.456.823,1.483,1.483,0,0,1-.177.069,1.268,1.268,0,0,1-.177.041.607.607,0,0,1-.133.014h-.088a1.651,1.651,0,0,1-.295-.027,1.2,1.2,0,0,1-.338-.124.725.725,0,0,1-.413-.686v-.384a2.588,2.588,0,0,1-.309.357,2.42,2.42,0,0,1-.486.4,2.97,2.97,0,0,1-1.677.467,3.681,3.681,0,0,1-.987-.123,2.432,2.432,0,0,1-.911-.439,2.11,2.11,0,0,1-.677-.879,3.567,3.567,0,0,1-.265-1.441Z" transform="translate(-426.997 -87.936)" fill="#4b3529"/>
        <path id="Path_9189" data-name="Path 9189" d="M696.687,143.625a.827.827,0,0,1-.458.823,1.315,1.315,0,0,1-.175.069,1.336,1.336,0,0,1-.177.041.608.608,0,0,1-.133.013h-.177a.806.806,0,0,1-.147-.013,1.326,1.326,0,0,1-.177-.041,1.476,1.476,0,0,1-.177-.069.816.816,0,0,1-.456-.81V137.53a.828.828,0,0,1,.456-.824,1.416,1.416,0,0,1,.177-.069,1.444,1.444,0,0,1,.177-.041.581.581,0,0,1,.132-.013h.088q1.046,0,1.046.947v.769a2.29,2.29,0,0,1,2.177-1.716q.928,0,.928.837a.748.748,0,0,1-.427.714,1.85,1.85,0,0,1-.383.109l-.324.042a2.4,2.4,0,0,0-1.516.576,1.291,1.291,0,0,0-.31.4l-.146.343Z" transform="translate(-447.213 -87.936)" fill="#4b3529"/>
        <path id="Path_9190" data-name="Path 9190" d="M718.714,140.961a7.068,7.068,0,0,0,.073.92,3.7,3.7,0,0,0,.222.892,1.557,1.557,0,0,0,2.531.494,1.286,1.286,0,0,0,.236-.384l.1-.33a1.927,1.927,0,0,1,.281-.672,1.019,1.019,0,0,1,.81-.289q1.088,0,1.089.8a1.352,1.352,0,0,1-.163.591,2.12,2.12,0,0,1-.559.728,3.379,3.379,0,0,1-1.1.6,5.3,5.3,0,0,1-1.737.26c-.234,0-.461-.009-.676-.027a4.2,4.2,0,0,1-.8-.151,3.006,3.006,0,0,1-1.5-.824,3.733,3.733,0,0,1-.838-1.551c-.059-.246-.107-.5-.147-.769-.02-.219-.03-.439-.03-.659a4.108,4.108,0,0,1,.987-2.938,3.825,3.825,0,0,1,2.913-1.071,4.259,4.259,0,0,1,2.09.48,3.1,3.1,0,0,1,1.147,1.071,3.62,3.62,0,0,1,.472,1.153,3.581,3.581,0,0,1,.088.426l.014.261a.848.848,0,0,1-.543.851,1.862,1.862,0,0,1-.456.123,1.978,1.978,0,0,0-.222.014Zm2.84-.824c.3,0,.456-.137.456-.412a4.343,4.343,0,0,0-.116-.988,1.453,1.453,0,0,0-1.487-1.3,1.388,1.388,0,0,0-1.383.865,4.128,4.128,0,0,0-.236.879c-.029.238-.054.558-.073.961Z" transform="translate(-461.31 -87.936)" fill="#4b3529"/>
        <path id="Path_9191" data-name="Path 9191" d="M229.2,52q-.392.756-.844,1.48-.362.574-.754,1.088l-.271.392-.453.514a.81.81,0,0,1-1.387-.6.975.975,0,0,1,.181-.544,23.9,23.9,0,0,0,2.2-5.405,35.325,35.325,0,0,0,1.237-5.8h-1.99a1.492,1.492,0,0,1-.3-.03.929.929,0,0,1-.332-.121.812.812,0,0,1,0-1.389.721.721,0,0,1,.332-.121,1.3,1.3,0,0,1,.3-.03H229.2V37.267a3.841,3.841,0,0,1,.241-1.6,1.738,1.738,0,0,1,1.689-.785,1.719,1.719,0,0,1,1.689.816,3.749,3.749,0,0,1,.241,1.57v4.168h1.388a1.584,1.584,0,0,1,.3.03,1.713,1.713,0,0,1,.332.09.757.757,0,0,1,.392.725.73.73,0,0,1-.392.7.934.934,0,0,1-.332.121,1.5,1.5,0,0,1-.3.03h-1.388a21.481,21.481,0,0,0,2.564,7.036l.181.392a.534.534,0,0,1,.03.212q0,.846-.814.846a.91.91,0,0,1-.693-.332,13.437,13.437,0,0,1-1.267-1.751V60.823a3.855,3.855,0,0,1-.241,1.6,1.749,1.749,0,0,1-1.719.815,1.688,1.688,0,0,1-1.659-.815,3.841,3.841,0,0,1-.241-1.6Zm10.8-15.129a1.871,1.871,0,0,1,.03-.363,2.352,2.352,0,0,1,.211-.725,1.658,1.658,0,0,1,1.628-.815,1.741,1.741,0,0,1,1.689.845,2.792,2.792,0,0,1,.211.755,1.734,1.734,0,0,1,.03.331V48.682q-.03,1-.09,1.813a21.1,21.1,0,0,1-.483,3.5,14.109,14.109,0,0,1-1.206,3.352,12.646,12.646,0,0,1-2.322,3.079,14.487,14.487,0,0,1-2.5,1.933,4.483,4.483,0,0,1-1.568.725q-.845,0-.844-.815a1.154,1.154,0,0,1,.483-.816,12.407,12.407,0,0,0,2.473-2.778,11.632,11.632,0,0,0,1.387-2.838,17.147,17.147,0,0,0,.6-2.658l.181-2.144a24.226,24.226,0,0,1-2.292,3.05,1.766,1.766,0,0,1-1.3.725,1.54,1.54,0,0,1-1.206-.6,1.967,1.967,0,0,1-.513-1.3,1.784,1.784,0,0,1,1.055-1.48l.6-.392q.6-.362,1.146-.755.753-.482,1.357-.936.724-.544,1.237-1V44.968a2.116,2.116,0,0,1-1.81,1.117q-1.116,0-1.809-2.627a28.1,28.1,0,0,0-1.025-2.989,1.733,1.733,0,0,1-.151-.665.862.862,0,0,1,.3-.664.974.974,0,0,1,.543-.181,1.713,1.713,0,0,1,.844.453,10.729,10.729,0,0,1,1.176,1.087,13.192,13.192,0,0,1,1.93,2.355Zm9.047,11.656a40.567,40.567,0,0,1,4.614,2.507,1.818,1.818,0,0,1,.874,1.39,1.876,1.876,0,0,1-.6,1.358,1.93,1.93,0,0,1-1.387.635q-.6,0-1.417-1-.845-1.027-2.081-2.325V60.37q0,.755,1.206.755a.565.565,0,0,0,.3-.061.776.776,0,0,0,.211-.393,13.8,13.8,0,0,0,.332-2.809,112.055,112.055,0,0,0,.061-.544,1.713,1.713,0,0,1,.181-.514,1.515,1.515,0,0,1,1.357-.544q1.688,0,1.689,1.39a9.349,9.349,0,0,1-.634,3.473,2.9,2.9,0,0,1-3.015,1.691h-2.774q-2.655,0-2.654-2.3V36.875a1.871,1.871,0,0,1,.03-.363,2.4,2.4,0,0,1,.211-.755,1.609,1.609,0,0,1,1.6-.785,1.709,1.709,0,0,1,1.659.785,2.389,2.389,0,0,1,.211.725,2.273,2.273,0,0,1,.03.363v7.55A29.031,29.031,0,0,0,251,40.619l.09-.181a.741.741,0,0,0,.091-.182,1.49,1.49,0,0,1,.271-.392,1.426,1.426,0,0,1,1.055-.392,2.038,2.038,0,0,1,1.3.483,1.5,1.5,0,0,1,.664,1.208,2.42,2.42,0,0,1-.633,1.3A12.891,12.891,0,0,1,252.357,44a20.424,20.424,0,0,1-1.628,1.268,2.688,2.688,0,0,1-1.056.513.745.745,0,0,1-.422-.12.589.589,0,0,1-.211-.182Z" transform="translate(-145.176 -22.457)" fill="#4a3428"/>
        <path id="Path_9192" data-name="Path 9192" d="M400.3,60.522q0,3.382-3.619,3.383H378.041a4.865,4.865,0,0,1-1.116-.121,2.932,2.932,0,0,1-1.176-.453,3.073,3.073,0,0,1-1.327-2.809V40.893q0-3.382,3.619-3.383h18.637a4.863,4.863,0,0,1,1.116.12,3.2,3.2,0,0,1,1.207.453,3.1,3.1,0,0,1,1.3,2.809Zm-3.981-20.354a.88.88,0,0,0-1-1H379.4a.913.913,0,0,0-.723.363.942.942,0,0,0-.272.635V61.217a.88.88,0,0,0,1,1h15.923a1.01,1.01,0,0,0,.724-.332,1.05,1.05,0,0,0,.271-.664Zm-10.856,5.315V43.52h-4.342a1.57,1.57,0,0,1-.3-.03.94.94,0,0,1-.332-.121.823.823,0,0,1,.332-1.511,1.57,1.57,0,0,1,.3-.03h4.342v-.241a1.125,1.125,0,0,1,.03-.271,1.361,1.361,0,0,1,.211-.665,1.709,1.709,0,0,1,1.659-.785,1.729,1.729,0,0,1,1.659.815,1.977,1.977,0,0,1,.211.665,1.11,1.11,0,0,1,.031.272v.211h4.463a1.293,1.293,0,0,1,.3.03.987.987,0,0,1,.362.121.848.848,0,0,1,0,1.39.953.953,0,0,1-.332.121,1.3,1.3,0,0,1-.3.03h-4.493v1.962h5.609a1.3,1.3,0,0,1,.3.03.96.96,0,0,1,.362.121.741.741,0,0,1,.362.695.677.677,0,0,1-.362.665.936.936,0,0,1-.331.12,1.3,1.3,0,0,1-.3.031H379.88a1.575,1.575,0,0,1-.3-.031.933.933,0,0,1-.332-.12.812.812,0,0,1,0-1.39,1.122,1.122,0,0,1,.332-.09,1.294,1.294,0,0,1,.3-.03Zm-.03,11.023a19.368,19.368,0,0,1-2.021,1.813,16.6,16.6,0,0,1-1.779,1.238,11.277,11.277,0,0,1-1.327.725,2.375,2.375,0,0,1-.633.241q-.814,0-.815-.846a1.025,1.025,0,0,1,.543-.846,12.33,12.33,0,0,0,4.041-4.56h-.453a4.239,4.239,0,0,1-.513-.03,2.9,2.9,0,0,1-1-.272,1.945,1.945,0,0,1-1.116-1.994V50.586q0-2.3,2.654-2.3h8.715a3.078,3.078,0,0,1,1.84.483,2.065,2.065,0,0,1,.814,1.813v1.389q0,2.3-2.654,2.3h-1.086l.03.061a.088.088,0,0,1,.03.061.382.382,0,0,0,.091.151,2.442,2.442,0,0,0,.211.392,9.885,9.885,0,0,0,.724,1.057q.362-.363,1.116-1.269l.452-.453a1,1,0,0,1,.634-.211,1.294,1.294,0,0,1,1.478,1.45,1.127,1.127,0,0,1-.362.815,11.115,11.115,0,0,1-1.93,1.088l.332.3a3.643,3.643,0,0,0,.452.332,11.039,11.039,0,0,0,1.387.936.852.852,0,0,1,.542.786.747.747,0,0,1-.844.846,2.74,2.74,0,0,1-.724-.242,10.184,10.184,0,0,1-1.448-.785,13.3,13.3,0,0,1-1.779-1.238,11.245,11.245,0,0,1-1.779-1.752v3.2a1.119,1.119,0,0,1-.031.272,1.971,1.971,0,0,1-.211.664,1.81,1.81,0,0,1-1.719.786,1.659,1.659,0,0,1-1.628-.816,1.959,1.959,0,0,1-.211-.634,1.527,1.527,0,0,1-.03-.3Zm5.217-5.768a.667.667,0,0,0-.754-.755h-5.006a.667.667,0,0,0-.754.755v1.087a.666.666,0,0,0,.754.755h5.006a.667.667,0,0,0,.754-.755Z" transform="translate(-241.065 -24.15)" fill="#4a3428"/>
        <path id="Path_9193" data-name="Path 9193" d="M524.186,40.739a4.856,4.856,0,0,1,.844.061,2.639,2.639,0,0,1,.9.3,2.392,2.392,0,0,1,.965,2.2,25.089,25.089,0,0,1-2.473,11.084q1.055.484,1.99,1l.965.574q1.206.756,1.206,1.631a2.29,2.29,0,0,1-.573,1.48,1.912,1.912,0,0,1-1.508.755A2.292,2.292,0,0,1,525,59.161l-1.327-1.147q-.362-.3-.964-.755a25.1,25.1,0,0,1-2.081,2.507q-1,1-1.99,1.842a6.212,6.212,0,0,1-2.5,1.541q-.814,0-.814-.846a.859.859,0,0,1,.332-.7q.724-.634,1.086-1,.572-.574,1.055-1.147a21.269,21.269,0,0,0,2.413-3.836q-1.75-.965-3.227-1.63A2.226,2.226,0,0,1,515.41,52a9.107,9.107,0,0,1,.422-1.781q.271-.936.573-2.325.24-1.117.452-2.507.181-1,.332-2.023l.121-.966h-1.055a1.492,1.492,0,0,1-.3-.03.936.936,0,0,1-.332-.121.812.812,0,0,1,0-1.39,1.12,1.12,0,0,1,.332-.09,1.3,1.3,0,0,1,.3-.03h1.236a1.792,1.792,0,0,0,.03-.393l.362-3.534a6.094,6.094,0,0,1,.09-.725,1.646,1.646,0,0,1,.905-1.027,3.626,3.626,0,0,1,.542-.151,2.612,2.612,0,0,1,.422-.031l.513.031a2.356,2.356,0,0,0,.361.091,2.224,2.224,0,0,1,.392.151,1.57,1.57,0,0,1,1.025,1.54q0,.241-.06.785l-.513,3.262Zm-2.9,1.661a.519.519,0,0,1-.03.121.346.346,0,0,1-.03.151l-.332,1.781q-.212,1.149-.452,2.114-.543,2.416-1.3,4.8a3.069,3.069,0,0,0-.151.695.423.423,0,0,0,.061.241.619.619,0,0,0,.3.242l.362.121a5.912,5.912,0,0,0,.6.182l.935.271a28.96,28.96,0,0,0,1.779-9.966.711.711,0,0,0-.3-.664,1.06,1.06,0,0,0-.271-.09Zm12.244,2.174a7.713,7.713,0,0,1,.03-.786,2.6,2.6,0,0,1,.241-.845,1.84,1.84,0,0,1,1.81-.876,1.659,1.659,0,0,1,.332.03l.241.03a26.324,26.324,0,0,0,1.236-2.567,4.767,4.767,0,0,0,.392-1.329.461.461,0,0,0-.241-.453l-.241-.06h-8.806a1.514,1.514,0,0,1-.3-.03.933.933,0,0,1-.332-.121.823.823,0,0,1,.332-1.511,1.568,1.568,0,0,1,.3-.03h12.666a2.608,2.608,0,0,1,1.176.242,1.6,1.6,0,0,1,.634.513l.121.3a1.21,1.21,0,0,1,.09.242.909.909,0,0,1,.03.211v.09q0,.846-1.9,3.05a37.716,37.716,0,0,1-3.71,3.685v3.443h4.675a1.58,1.58,0,0,1,.3.03.955.955,0,0,1,.332.121.729.729,0,0,1,.392.7.675.675,0,0,1-.362.664.946.946,0,0,1-.362.121,1.237,1.237,0,0,1-.3.03h-4.675v10.51q0,2.9-3.136,2.9h-4.7a1.567,1.567,0,0,1-.3-.03.958.958,0,0,1-.332-.121.812.812,0,0,1,0-1.39,1.084,1.084,0,0,1,.332-.09,1.233,1.233,0,0,1,.3-.03h2.9a.747.747,0,0,0,.844-.846v-10.9h-5.579a1.486,1.486,0,0,1-.3-.03,1.6,1.6,0,0,1-.332-.09.643.643,0,0,1-.271-.242.8.8,0,0,1-.121-.452.838.838,0,0,1,.724-.816,1.291,1.291,0,0,1,.3-.03h5.579Z" transform="translate(-331.721 -22.457)" fill="#4a3428"/>
        <path id="Path_9194" data-name="Path 9194" d="M660.7,49.534a2.918,2.918,0,0,1,.693-2.054,3.185,3.185,0,0,1,2.442-.846H685.1a1.581,1.581,0,0,1,.3.03.941.941,0,0,1,.331.121.73.73,0,0,1,.392.695.754.754,0,0,1-.392.725,1.882,1.882,0,0,1-.633.12H665.374a.774.774,0,0,0-.875.876v3.262l-.03.332H686a1.572,1.572,0,0,1,.3.03.95.95,0,0,1,.332.121.728.728,0,0,1,.391.695.755.755,0,0,1-.391.725,1.6,1.6,0,0,1-.332.09,1.518,1.518,0,0,1-.3.03H678.01a9.751,9.751,0,0,0,1.538,3.02,11.249,11.249,0,0,0,1.418-1.057q.271-.211.633-.544l.754-.725.392-.3a1.866,1.866,0,0,1,.844-.181q1.838,0,1.839,1.63,0,.786-1.327,1.45l-.392.182a5.016,5.016,0,0,1-.663.271,21.128,21.128,0,0,1-2.021.725,12.751,12.751,0,0,0,2.473,1.419,12.962,12.962,0,0,0,1.3.483q.453.181,1.538.514a.787.787,0,0,1,.6.785q0,.846-.814.846a6.32,6.32,0,0,1-.724-.09q-.724-.12-1.569-.332-1.085-.272-2.141-.634a17.792,17.792,0,0,1-2.443-1,11.284,11.284,0,0,1-2.684-1.781,9.961,9.961,0,0,1-1.719-1.964,10.3,10.3,0,0,1-.935-1.66,4.909,4.909,0,0,1-.241-.634,1.174,1.174,0,0,1-.091-.241l-.06-.181h-2.292V59.47l1.689-.151,2.594-.3a.747.747,0,0,1,.844.846.666.666,0,0,1-.392.664,14.411,14.411,0,0,1-1.99.6q-7.69,1.993-9.831,1.993a1.32,1.32,0,0,1-1.3-.725,2.117,2.117,0,0,1-.182-.544.886.886,0,0,1-.03-.211v-.151q0-1.359,1.176-1.511a6.343,6.343,0,0,1,.664-.06l2.864-.121V54.487h-3.046q-.121.877-.271,1.57a10.709,10.709,0,0,1-.483,1.662,12.96,12.96,0,0,1-2.021,3.624l-.875,1a1.849,1.849,0,0,1-.965.664.746.746,0,0,1-.844-.846,1.269,1.269,0,0,1,.09-.3c.04-.121.11-.292.211-.513l.362-.816a18.469,18.469,0,0,0,.724-2.446q.211-1.117.332-2.385.12-1,.151-2.2ZM674.512,36.82v-.212a1.31,1.31,0,0,1,.03-.3,2.361,2.361,0,0,1,.211-.694,1.758,1.758,0,0,1,1.689-.815,1.728,1.728,0,0,1,1.659.815,2.361,2.361,0,0,1,.211.694,1.306,1.306,0,0,1,.03.3v.212h4.071q2.655,0,2.654,2.3v4.077A2.062,2.062,0,0,1,684.252,45a3.071,3.071,0,0,1-1.84.483H663.625q-2.685,0-2.684-2.295V39.116a2.036,2.036,0,0,1,.844-1.813,3.08,3.08,0,0,1,1.84-.483h4.162v-.242a1.316,1.316,0,0,1,.029-.3,2.341,2.341,0,0,1,.212-.695,1.707,1.707,0,0,1,1.658-.785,1.651,1.651,0,0,1,1.6.725,1.612,1.612,0,0,1,.18.664,1.661,1.661,0,0,1,.031.332v.3Zm-6.725,3.5V38.481h-2.323q-.784,0-.784.816v1.027Zm-3.107,1.63v1.057q0,.815.784.815h2.323V41.954Zm1.689,9.362a1.243,1.243,0,0,1-.3-.03.718.718,0,0,1-.332-.121.667.667,0,0,1-.392-.665.756.756,0,0,1,.392-.725,1.691,1.691,0,0,1,.332-.09,1.571,1.571,0,0,1,.3-.03h15.8a1.58,1.58,0,0,1,.3.03,1.715,1.715,0,0,1,.332.09.647.647,0,0,1,.272.242.808.808,0,0,1,.12.453.755.755,0,0,1-.392.724,1.575,1.575,0,0,1-.332.09,1.5,1.5,0,0,1-.3.03Zm8.142-12.835H671.5v1.843h3.016ZM671.5,43.826h3.016V41.954H671.5Zm9.891-3.5V39.3a.72.72,0,0,0-.814-.816h-2.231v1.843Zm-3.046,1.63v1.872h2.231a.72.72,0,0,0,.814-.815V41.954Z" transform="translate(-424.175 -22.403)" fill="#4a3428"/>
      </g>
    </g>
  </g>
</svg>
