<svg id="footer-logo" xmlns="http://www.w3.org/2000/svg" xmlns:xlink="http://www.w3.org/1999/xlink" width="269.134" height="62.99" viewBox="0 0 269.134 62.99">
  <defs>
    <clipPath id="clip-path">
      <rect id="Rectangle_143" data-name="Rectangle 143" width="269.134" height="62.99" fill="#ff4d7d"/>
    </clipPath>
  </defs>
  <g id="Group_209" data-name="Group 209" clip-path="url(#clip-path)">
    <path id="Path_1952" data-name="Path 1952" d="M65.274,20.568l.025.022-.025-.022" transform="translate(-35.34 -11.136)" fill="#ff4d7d"/>
    <path id="Path_1953" data-name="Path 1953" d="M67.068,23.03a7.294,7.294,0,0,1,.369.8,7.294,7.294,0,0,0-.369-.8" transform="translate(-36.311 -12.469)" fill="#ff4d7d"/>
    <path id="Path_1954" data-name="Path 1954" d="M55.823,23.064a7.468,7.468,0,0,1,1.325,2.153,7.468,7.468,0,0,0-1.325-2.153" transform="translate(-30.223 -12.487)" fill="#ff4d7d"/>
    <path id="Path_1955" data-name="Path 1955" d="M57.3,36.97a9.96,9.96,0,0,1-2.393,6.789A9.96,9.96,0,0,0,57.3,36.97" transform="translate(-29.726 -20.016)" fill="#ff4d7d"/>
    <path id="Path_1956" data-name="Path 1956" d="M52.878,18.492A6.453,6.453,0,0,1,54.7,18.13a6.453,6.453,0,0,0-1.822.362,4.72,4.72,0,0,0-1.345.673,4.72,4.72,0,0,1,1.345-.673" transform="translate(-27.9 -9.816)" fill="#ff4d7d"/>
    <path id="Path_1957" data-name="Path 1957" d="M71.165,32.919q.726,1.879,1.391,3.809-.664-1.93-1.391-3.809" transform="translate(-38.529 -17.823)" fill="#ff4d7d"/>
    <path id="Path_1958" data-name="Path 1958" d="M76.208,49.022c0,.006,0,.011,0,.017s0-.011,0-.017" transform="translate(-41.259 -26.541)" fill="#ff4d7d"/>
    <path id="Path_1959" data-name="Path 1959" d="M61.888,18.908c-.025-.017-.05-.038-.075-.055a4.343,4.343,0,0,0-1.977-.679,4.343,4.343,0,0,1,1.977.679c.026.017.05.038.075.055" transform="translate(-32.395 -9.839)" fill="#ff4d7d"/>
    <path id="Path_1960" data-name="Path 1960" d="M56.873,54.54q-1.657-2.357-1.882-2.657.223.3,1.882,2.657" transform="translate(-29.772 -28.09)" fill="#ff4d7d"/>
    <path id="Path_1961" data-name="Path 1961" d="M66,21.38a4.8,4.8,0,0,1,.316.454A4.8,4.8,0,0,0,66,21.38" transform="translate(-35.731 -11.575)" fill="#ff4d7d"/>
    <path id="Path_1962" data-name="Path 1962" d="M59.766,33.475a15.922,15.922,0,0,0-.3-2.919,15.922,15.922,0,0,1,.3,2.919" transform="translate(-32.194 -16.543)" fill="#ff4d7d"/>
    <path id="Path_1963" data-name="Path 1963" d="M51.533,19.161A4.149,4.149,0,0,1,53.5,20.389a7.464,7.464,0,0,1,1.324,2.154c.046.107.094.206.138.318.079.327.146.647.207.964a15.923,15.923,0,0,1,.3,2.919v.022a9.96,9.96,0,0,1-2.393,6.789s.021.027.039.05q.223.3,1.882,2.657l.366.521a7.149,7.149,0,0,0,3.766-.067A5.893,5.893,0,0,0,62.7,33.353a3.449,3.449,0,0,0,.151-1.043c0-.006,0-.011,0-.017a6.416,6.416,0,0,0-.419-2.1c-.163-.5-.333-.985-.5-1.475q-.664-1.93-1.391-3.809c-.451-1.166-.915-2.322-1.4-3.46-.034-.1-.071-.186-.107-.277a7.328,7.328,0,0,0-.369-.8q-.085-.158-.175-.3a4.922,4.922,0,0,0-.316-.454,4.02,4.02,0,0,0-.306-.35c-.008-.008-.017-.015-.025-.022a3.321,3.321,0,0,0-.442-.364c-.026-.018-.05-.039-.076-.055a4.34,4.34,0,0,0-1.977-.679,4.847,4.847,0,0,0-.64-.02,6.453,6.453,0,0,0-1.822.362,4.72,4.72,0,0,0-1.345.673" transform="translate(-27.9 -9.812)" fill="#ff4d7d"/>
    <path id="Path_1964" data-name="Path 1964" d="M116.976,82.967a18.912,18.912,0,0,1-.583-1.922.494.494,0,0,0-.119-.228c-.035-.031-.135.006-.375.027a2.649,2.649,0,0,1,.112.366,7.158,7.158,0,0,0,1.6,3.526,3.691,3.691,0,0,0,1.519,1.156,1.555,1.555,0,0,0,1.3-.015c.074-.037.1-.161.153-.245-.082-.028-.183-.1-.244-.078a1.606,1.606,0,0,1-1.648-.354,5.089,5.089,0,0,1-1.708-2.233" transform="translate(-62.748 -43.748)" fill="#ff4d7d"/>
    <path id="Path_1965" data-name="Path 1965" d="M116.452,75.092a10.168,10.168,0,0,0,.62,1.258,2.166,2.166,0,0,0,1.7,1.036,4.178,4.178,0,0,0,.7-.07c.006-.039.012-.079.019-.119-1.414-.2-2.127-1.243-2.964-2.14l-.079.034" transform="translate(-63.048 -40.637)" fill="#ff4d7d"/>
    <path id="Path_1966" data-name="Path 1966" d="M138.311,37.527Z" transform="translate(-74.882 -20.317)" fill="#ff4d7d"/>
    <path id="Path_1967" data-name="Path 1967" d="M137.219,33.861c.042.084.08.168.117.253-.037-.085-.075-.169-.117-.253" transform="translate(-74.291 -18.333)" fill="#ff4d7d"/>
    <path id="Path_1968" data-name="Path 1968" d="M137.746,35.079c.028.077.05.155.074.233-.024-.078-.046-.155-.074-.233" transform="translate(-74.576 -18.992)" fill="#ff4d7d"/>
    <path id="Path_1969" data-name="Path 1969" d="M138.108,36.3c.015.066.024.133.036.2-.012-.066-.021-.133-.036-.2" transform="translate(-74.772 -19.653)" fill="#ff4d7d"/>
    <path id="Path_1970" data-name="Path 1970" d="M114.239,100.344c-.052.061-.1.127-.153.192.05-.065.1-.13.153-.192" transform="translate(-61.767 -54.327)" fill="#ff4d7d"/>
    <path id="Path_1971" data-name="Path 1971" d="M136.523,32.646c.058.09.114.181.166.272-.052-.091-.108-.182-.166-.272" transform="translate(-73.914 -17.675)" fill="#ff4d7d"/>
    <path id="Path_1972" data-name="Path 1972" d="M112.347,103.15c-.057.108-.113.217-.167.331.054-.113.11-.223.167-.331" transform="translate(-60.735 -55.846)" fill="#ff4d7d"/>
    <path id="Path_1973" data-name="Path 1973" d="M112.924,102.145c-.056.091-.112.186-.166.282.054-.1.11-.19.166-.282" transform="translate(-61.048 -55.302)" fill="#ff4d7d"/>
    <path id="Path_1974" data-name="Path 1974" d="M113.554,101.207c-.055.077-.109.156-.162.237.054-.08.107-.16.162-.237" transform="translate(-61.391 -54.794)" fill="#ff4d7d"/>
    <path id="Path_1975" data-name="Path 1975" d="M111.821,104.218c-.057.126-.114.253-.168.385.054-.133.111-.26.168-.385" transform="translate(-60.449 -56.424)" fill="#ff4d7d"/>
    <path id="Path_1976" data-name="Path 1976" d="M120.694,25.408c.039-.014.078-.028.118-.041l-.118.041" transform="translate(-65.344 -13.734)" fill="#ff4d7d"/>
    <path id="Path_1977" data-name="Path 1977" d="M135.646,31.423c.078.1.155.2.226.3-.071-.1-.148-.2-.226-.3" transform="translate(-73.439 -17.013)" fill="#ff4d7d"/>
    <path id="Path_1978" data-name="Path 1978" d="M119.6,25.921l.012-.006-.012.006" transform="translate(-64.754 -14.031)" fill="#ff4d7d"/>
    <path id="Path_1979" data-name="Path 1979" d="M116.772,22.041a6.65,6.65,0,0,1,.962-.511A6.517,6.517,0,0,0,116.772,22.041Z" transform="translate(-63.221 -11.656)" fill="#ff4d7d"/>
    <path id="Path_1980" data-name="Path 1980" d="M119.445,21.13c-.141.045-.281.1-.42.157.139-.057.279-.111.42-.157" transform="translate(-64.441 -11.44)" fill="#ff4d7d"/>
    <path id="Path_1981" data-name="Path 1981" d="M134.552,30.162c.108.113.214.227.312.341-.1-.114-.2-.228-.312-.341" transform="translate(-72.847 -16.33)" fill="#ff4d7d"/>
    <path id="Path_1982" data-name="Path 1982" d="M119.7,6.229c.055.114.107.232.155.353-.048-.121-.1-.239-.155-.353" transform="translate(-64.803 -3.372)" fill="#ff4d7d"/>
    <path id="Path_1983" data-name="Path 1983" d="M94.506,70.531v2.813h0V70.531h0" transform="translate(-51.166 -38.186)" fill="#ff4d7d"/>
    <path id="Path_1984" data-name="Path 1984" d="M120.715,9.358c.041.21.075.426.1.651-.024-.225-.059-.441-.1-.651" transform="translate(-65.356 -5.066)" fill="#ff4d7d"/>
    <path id="Path_1985" data-name="Path 1985" d="M123.854,68.083l-1.23-.721Z" transform="translate(-66.389 -36.47)" fill="#ff4d7d"/>
    <path id="Path_1986" data-name="Path 1986" d="M129.509,71.124A6.355,6.355,0,0,0,128,70.064l-2.69-1.278h0L128,70.064a6.355,6.355,0,0,1,1.513,1.06" transform="translate(-67.841 -37.241)" fill="#ff4d7d"/>
    <path id="Path_1987" data-name="Path 1987" d="M111.346,105.321c-.059.15-.117.3-.172.459.055-.158.113-.309.172-.459" transform="translate(-60.19 -57.021)" fill="#ff4d7d"/>
    <path id="Path_1988" data-name="Path 1988" d="M123.27,24.9a4.484,4.484,0,0,0-1.191.075h0a4.484,4.484,0,0,1,1.191-.075" transform="translate(-66.094 -13.477)" fill="#ff4d7d"/>
    <path id="Path_1989" data-name="Path 1989" d="M118.376,26.665l.03-.022-.03.022" transform="translate(-64.089 -14.425)" fill="#ff4d7d"/>
    <path id="Path_1990" data-name="Path 1990" d="M114.864,99.7c.043-.045.085-.094.129-.137-.044.044-.086.092-.129.137" transform="translate(-62.188 -53.902)" fill="#ff4d7d"/>
    <path id="Path_1991" data-name="Path 1991" d="M95.515,2.6A6.274,6.274,0,0,1,100.626.587q3.237,0,4.723,1.545Q103.864.587,100.626.587A6.274,6.274,0,0,0,95.515,2.6a5.866,5.866,0,0,0-1.009,3.7v0a5.867,5.867,0,0,1,1.009-3.7" transform="translate(-51.166 -0.318)" fill="#ff4d7d"/>
    <path id="Path_1992" data-name="Path 1992" d="M129.127,27.146c-.177-.177-.364-.353-.565-.527a7.033,7.033,0,0,0-3.7-1.678,7.035,7.035,0,0,1,3.7,1.678c.2.175.388.351.565.527" transform="translate(-67.6 -13.503)" fill="#ff4d7d"/>
    <path id="Path_1993" data-name="Path 1993" d="M111.366,34.209h0l-.043.051-.042-.036.042.036Z" transform="translate(-60.248 -18.521)" fill="#ff4d7d"/>
    <path id="Path_1994" data-name="Path 1994" d="M95.974,42.175c.041-.07.066-.094.068-.12a1.634,1.634,0,0,0,0-.2A11.188,11.188,0,0,1,97.2,36.41a2.081,2.081,0,0,0,.168-.68,19.223,19.223,0,0,1,5.3-11.274,20.359,20.359,0,0,0-4.3,9.96,16.179,16.179,0,0,1,6.991-5.049,4.785,4.785,0,0,1-.586.431,14.767,14.767,0,0,0-6.474,8.6,2.29,2.29,0,0,0-.069.844,19.7,19.7,0,0,0,3.926,9.836h0c.055-.158.113-.309.172-.459.016-.04.031-.081.047-.121.054-.132.111-.259.168-.385.024-.054.049-.107.073-.16.055-.113.111-.222.168-.33.032-.061.065-.121.1-.179.054-.1.109-.19.166-.282.041-.066.083-.13.125-.194.053-.08.106-.161.162-.237s.1-.137.156-.2.1-.13.154-.192c.066-.078.135-.15.2-.223.043-.046.085-.094.129-.138.115-.114.233-.222.355-.323a4.141,4.141,0,0,1,2.354-1.009V43.229a6.568,6.568,0,0,0,2.556.6q2.084-.2,3.9-2.959a6.631,6.631,0,0,0,.605-5.381,4.007,4.007,0,0,0-.908-1.295,6.356,6.356,0,0,0-1.514-1.059l-2.69-1.278v.067l-1.229-.721-.721-.422V28.835l6.39-7.533a5.943,5.943,0,0,0,1.547-3.229c0-.079-.007-.158-.01-.237-.124.238-.237.5-.433.587a4.21,4.21,0,0,1-1.557.355c-.277.009-.559-.289-.838-.449a2.937,2.937,0,0,1,.587-.756,2.853,2.853,0,0,1,1.98-.286l.249.237h0c-.012-.121-.035-.242-.057-.362-.012-.067-.021-.134-.035-.2-.025-.11-.059-.219-.092-.328-.024-.078-.046-.155-.074-.233-.037-.1-.08-.2-.124-.3-.037-.085-.075-.169-.117-.253s-.1-.19-.153-.285-.108-.182-.166-.272-.114-.176-.177-.264-.147-.2-.225-.3c-.062-.079-.123-.158-.19-.237-.1-.114-.2-.228-.312-.341-.06-.063-.115-.127-.178-.189-.177-.177-.363-.353-.565-.527a7.04,7.04,0,0,0-3.7-1.678c-.028,0-.056-.009-.084-.011a4.486,4.486,0,0,0-1.192.075,3.616,3.616,0,0,0-.517.131l-.118.041a4,4,0,0,0-.488.21l-.012.006a4.674,4.674,0,0,0-.533.328l-.03.022a5.837,5.837,0,0,0-.516.417,4.309,4.309,0,0,1-.457,1.327,3.07,3.07,0,0,1-2.171,1.7l-.024,0-.043.051-.042-.037,0,0a2.441,2.441,0,0,1-2.116-.627,3.728,3.728,0,0,1-.884-1.316,4.241,4.241,0,0,1-.341-1.332,3.189,3.189,0,0,1,.158-1.287.294.294,0,0,0-.2-.394.332.332,0,0,0-.4.222,3.763,3.763,0,0,0-.173,1.744,4.865,4.865,0,0,0,.453,1.5,4.028,4.028,0,0,0,1.635,1.843.148.148,0,0,1,.073.116c-.007.037-.066.083-.11.1a2.8,2.8,0,0,1-1.268.148,3.431,3.431,0,0,1-2.639-1.654,4.557,4.557,0,0,1-.634-2.667,3.7,3.7,0,0,1,.787-2.187,3.146,3.146,0,0,1,2.194-1.238c.1-.011.162.018.187.12.033.132.074.262.112.392a.308.308,0,0,0,.32.231.3.3,0,0,0,.286-.23.487.487,0,0,0-.048-.248,2.455,2.455,0,0,0-2.108-1.6.291.291,0,0,1-.26-.237.351.351,0,0,1,.165-.36l.155-.044a.1.1,0,0,0,.028.009,3.018,3.018,0,0,1,1.972.944c.016.017.035.029.06.051,0-.037.007-.06.01-.082a2.03,2.03,0,0,1,1.5-1.76l1.156-.324a.305.305,0,0,1,.43.309,2.034,2.034,0,0,1-1.456,1.918c-.4.114-.809.227-1.214.34l-.112.032a.89.89,0,0,1,.074.129c.031.083.073.078.15.041a3.881,3.881,0,0,1,1.05-.347,2.618,2.618,0,0,1,2.207.537,4.217,4.217,0,0,1,1.319,1.892,6.491,6.491,0,0,1,.962-.511c.023-.01.047-.017.071-.027.139-.057.279-.111.42-.157.169-.055.339-.1.51-.138V6.3a9.609,9.609,0,0,0-.055-1.044c-.024-.225-.059-.441-.1-.651a6.156,6.156,0,0,0-.313-1.081q-.072-.182-.155-.353a4.762,4.762,0,0,0-.319-.57,3.969,3.969,0,0,0-.389-.473Q103.864.587,100.627.586A6.274,6.274,0,0,0,95.515,2.6a5.868,5.868,0,0,0-1.009,3.7V27.846a21.581,21.581,0,0,1,2.57-4.962c.6-.858,1.274-1.666,1.915-2.5l1.291-1.22c-.213.288-.42.58-.64.863a22.829,22.829,0,0,0-5.136,12.632v2.814a24.613,24.613,0,0,0,1.282,6.272c.046.136.115.265.186.427m7.275-14.294a4.714,4.714,0,0,1-1.045.98c-.532.347-1.116.331-1.323.07s-.039-.742.395-1.286a11.686,11.686,0,0,1,1.336-.567.75.75,0,0,1,.65.166.64.64,0,0,1-.014.637m.962-1.777a9.948,9.948,0,0,1-1.287.556.789.789,0,0,1-.692-.162.758.758,0,0,1,.057-.723,4.176,4.176,0,0,1,1.049-.9c.383-.232.859-.416,1.262-.031.249.237.045.749-.388,1.263m3.153,10.21a4.455,4.455,0,0,1,1.575,1.5,6.439,6.439,0,0,1,1.09,3.259,3.623,3.623,0,0,1-.127,1.083,1.688,1.688,0,0,1-2.249,1.213,4.209,4.209,0,0,1-1.438-.78,8.37,8.37,0,0,1-2.909-5.77,7.093,7.093,0,0,1,.255-1.816,1.442,1.442,0,0,1,.254-.51c.326-.479.641-.521,1.062-.142.226.2.431.427.645.642l-.051.071c.629.419,1.237.87,1.894,1.246m.487-12.016a2.2,2.2,0,0,1-1.591.923,1.152,1.152,0,0,1-.91-.251c-.124-.184.1-.583.138-.747a2.889,2.889,0,0,1,1.888-.8c.609.013.817.4.475.88m4.757-4.961c.515.149.584.565.12,1a2.524,2.524,0,0,1-2.169.382c-.513-.152-.6-.587-.187-.924a2.371,2.371,0,0,1,2.236-.46m-4.333.126a2.427,2.427,0,0,1,1.772-1.65c.453-.047.737.216.6.636a7.108,7.108,0,0,1-.561,1.059,7.935,7.935,0,0,1-1.2.528c-.425.113-.666-.156-.613-.573m.33,1.164c.247-.069.715-.015.795.13a.9.9,0,0,1-.105.813,3.277,3.277,0,0,1-.94.8c-.555.334-1.108.328-1.323.064s-.049-.737.4-1.259a7.221,7.221,0,0,1,1.178-.549m-3.245-.041a7.1,7.1,0,0,1,.551-1.1,7.7,7.7,0,0,1,1.158-.531c.45-.124.7.151.637.6a2.428,2.428,0,0,1-1.72,1.643c-.466.063-.756-.177-.627-.6m.519,1.324c.424-.094.652.2.567.615a2.441,2.441,0,0,1-1.9,1.518c-.469.014-.708-.248-.545-.674a6.635,6.635,0,0,1,.573-.957,8.625,8.625,0,0,1,1.3-.5m-2.417-1.378c.3-.073.644-.26.907-.194.407.105.368.523.311.858a2.215,2.215,0,0,1-.935,1.535.779.779,0,0,1-.624.12.763.763,0,0,1-.328-.56,2.822,2.822,0,0,1,.669-1.758m-2.293,2.138c.136-.038.417-.209.6-.144a.8.8,0,0,1,.415.562,2.123,2.123,0,0,1-.648,1.9c-.419.413-.893.282-1.01-.272a2.411,2.411,0,0,1,.638-2.046m-2.116,2.039a.508.508,0,0,1,.786-.03,2.132,2.132,0,0,1,.108,2.409c-.249.291-.522.327-.694.177a2.108,2.108,0,0,1-.2-2.556m-1.234,2.4a.507.507,0,0,1,.81.082,2.167,2.167,0,0,1,.094,2.289.5.5,0,0,1-.765.17,2.011,2.011,0,0,1-.138-2.541" transform="translate(-51.166 -0.317)" fill="#ff4d7d"/>
    <path id="Path_1995" data-name="Path 1995" d="M116.254,101.343q1.749-1.413,4.977-.538a6.727,6.727,0,0,1,3,1.618,6.727,6.727,0,0,0-3-1.618q-3.228-.874-4.977.538a6.119,6.119,0,0,0-1.749,2.892l-.2.571.2-.571a6.119,6.119,0,0,1,1.749-2.892" transform="translate(-61.883 -54.396)" fill="#ff4d7d"/>
    <path id="Path_1996" data-name="Path 1996" d="M94.824,127.6a4.96,4.96,0,0,1-.282-1.146,4.96,4.96,0,0,0,.282,1.146" transform="translate(-51.185 -68.463)" fill="#ff4d7d"/>
    <path id="Path_1997" data-name="Path 1997" d="M138.535,110.23c.012.15.02.3.02.466,0-.162-.008-.316-.02-.466" transform="translate(-75.004 -59.679)" fill="#ff4d7d"/>
    <path id="Path_1998" data-name="Path 1998" d="M94.5,90.638h0v15.807a3.783,3.783,0,0,0,.017.618,3.783,3.783,0,0,1-.017-.618Z" transform="translate(-51.159 -49.072)" fill="#ff4d7d"/>
    <path id="Path_1999" data-name="Path 1999" d="M138.221,108.451c.017.058.033.116.046.176-.014-.06-.03-.118-.046-.176" transform="translate(-74.834 -58.716)" fill="#ff4d7d"/>
    <path id="Path_2000" data-name="Path 2000" d="M99.476,111.489h6.255q4.642-.2,6.39-1.951a4.16,4.16,0,0,1,.538-.807,10.786,10.786,0,0,0,1.009-2.825l.807-3.834a9.683,9.683,0,0,0,.235-1.984c0-.162-.008-.316-.02-.466a4.377,4.377,0,0,0-.1-.639c-.014-.06-.03-.118-.046-.176-.022-.078-.044-.158-.072-.232a4.312,4.312,0,0,0-.968-1.475,6.723,6.723,0,0,0-3-1.618q-3.228-.874-4.977.538a6.13,6.13,0,0,0-1.749,2.892l-.2.571a22.357,22.357,0,0,0,4.043,3.275c.244.156.461.3.637.435.135-.106.268-.214.411-.315a7.1,7.1,0,0,1,1.546-.672,1.377,1.377,0,0,1,.511-.057c.517.011.683.219.559.7-.066.259-.157.514-.237.77l-.078,0c-.066.654-.168,1.307-.19,1.96a3.98,3.98,0,0,1-.527,1.85,6.4,6.4,0,0,1-2.125,2.327,3.65,3.65,0,0,1-.912.419,1.389,1.389,0,0,1-1.909-1.058,3.489,3.489,0,0,1,.012-1.409,7.943,7.943,0,0,1,2.592-4.229,26.173,26.173,0,0,1-5.646-2.74c-.448-.287-.875-.6-1.312-.9l-1.708-1.627c-.141-.186-.267-.385-.426-.556a20.729,20.729,0,0,1-4.32-7.013v15.807a3.835,3.835,0,0,0,.017.618,4.934,4.934,0,0,0,.282,1.147,6.929,6.929,0,0,0,.374.858q1.009,2.084,4.3,2.421" transform="translate(-51.159 -49.071)" fill="#ff4d7d"/>
    <path id="Path_2001" data-name="Path 2001" d="M119.8,122.6a3.193,3.193,0,0,0-.276,1.646,1.2,1.2,0,0,0,.557.932c.061.037.172,0,.259,0-.012-.073,0-.181-.041-.213a1.267,1.267,0,0,1-.414-1.362,4.734,4.734,0,0,1,1.051-2.29c.378-.477.85-.887,1.278-1.329a.473.473,0,0,0,.131-.194c.01-.039-.061-.1-.179-.259a2.641,2.641,0,0,1-.244.254A7.006,7.006,0,0,0,119.8,122.6" transform="translate(-64.701 -64.714)" fill="#ff4d7d"/>
    <path id="Path_2002" data-name="Path 2002" d="M128.424,120.456l.1-.043c-.439-1.118.089-2.128.448-3.157l-.061-.041a9.8,9.8,0,0,0-.737,1.042,1.824,1.824,0,0,0-.1,1.722,3.175,3.175,0,0,0,.351.476" transform="translate(-69.247 -63.461)" fill="#ff4d7d"/>
    <path id="Path_2003" data-name="Path 2003" d="M51.341,54.189q.244.282.485.609-.241-.327-.485-.609" transform="translate(-27.796 -29.338)" fill="#ff4d7d"/>
    <path id="Path_2004" data-name="Path 2004" d="M48.517,51.637a5.3,5.3,0,0,1,.626.484,5.3,5.3,0,0,0-.626-.484" transform="translate(-26.267 -27.957)" fill="#ff4d7d"/>
    <path id="Path_2005" data-name="Path 2005" d="M33.674,51.119q2.555-1.681,4.641-.673a4,4,0,0,1,.634.341,4,4,0,0,0-.634-.341q-2.086-1.009-4.641.673a5.807,5.807,0,0,0-2.825,4.3,4.139,4.139,0,0,0,.1,1.066,4.139,4.139,0,0,1-.1-1.066,5.807,5.807,0,0,1,2.825-4.3" transform="translate(-16.7 -27.107)" fill="#ff4d7d"/>
    <path id="Path_2006" data-name="Path 2006" d="M32.506,67.731q.116.207.251.417c.648,1.008,1.245,1.894,1.794,2.665-.549-.771-1.146-1.656-1.794-2.665q-.135-.21-.251-.417" transform="translate(-17.599 -36.67)" fill="#ff4d7d"/>
    <path id="Path_2007" data-name="Path 2007" d="M60.541,71.573a4.858,4.858,0,0,1-.072.5,4.491,4.491,0,0,0,.072-.5" transform="translate(-32.738 -38.75)" fill="#ff4d7d"/>
    <path id="Path_2008" data-name="Path 2008" d="M60.31,73.111c-.016.069-.038.136-.056.2.019-.068.04-.135.056-.2" transform="translate(-32.622 -39.583)" fill="#ff4d7d"/>
    <path id="Path_2009" data-name="Path 2009" d="M31.714,66.057a6.142,6.142,0,0,1-.271-.659,6.142,6.142,0,0,0,.271.659" transform="translate(-17.023 -35.407)" fill="#ff4d7d"/>
    <path id="Path_2010" data-name="Path 2010" d="M39.212,77.454c-.169-.206-.347-.433-.529-.671.182.238.36.465.529.671" transform="translate(-20.943 -41.571)" fill="#ff4d7d"/>
    <path id="Path_2011" data-name="Path 2011" d="M58.848,66.265a6.4,6.4,0,0,1,.815,2.434,6.4,6.4,0,0,0-.815-2.434" transform="translate(-31.861 -35.876)" fill="#ff4d7d"/>
    <path id="Path_2012" data-name="Path 2012" d="M40.8,52.667c-.025-.034-.05-.065-.074-.1q-.241-.327-.485-.609c-.119-.138-.238-.27-.359-.392q-.155-.157-.31-.3a5.339,5.339,0,0,0-.626-.484,4.057,4.057,0,0,0-.635-.341q-2.085-1.009-4.641.673a5.809,5.809,0,0,0-2.824,4.3,4.142,4.142,0,0,0,.1,1.066,5.086,5.086,0,0,0,.174.609,6.14,6.14,0,0,0,.272.659q.1.2.216.411t.251.417c.648,1.008,1.245,1.894,1.793,2.665q.413.58.788,1.07c.183.238.36.465.529.671a6.85,6.85,0,0,0,2.069,1.917q2.018.875,4.641-.673l.027-.02c-.992-.4-2-.764-2.978-1.185a16.649,16.649,0,0,1-3.259-1.8,3.542,3.542,0,0,1-.938-.905,2.316,2.316,0,0,1-.221-.525.2.2,0,0,1,.14-.266,4.27,4.27,0,0,1,.621-.2,6.6,6.6,0,0,1,1.666-.044.353.353,0,0,0,.177-.011,1.625,1.625,0,0,1,.944-.122,9.4,9.4,0,0,1,2.261.5,31.432,31.432,0,0,1,4.04,1.689,5.256,5.256,0,0,0,.173-.512c.019-.068.041-.135.056-.2s.029-.138.042-.206a4.859,4.859,0,0,0,.072-.5h0a6.4,6.4,0,0,0-.815-2.434,46.886,46.886,0,0,0-2.884-4.83" transform="translate(-16.7 -27.108)" fill="#ff4d7d"/>
    <path id="Path_2013" data-name="Path 2013" d="M63.224,120.486A14.764,14.764,0,0,1,66.6,116.8a4.911,4.911,0,0,0-3.372,3.69" transform="translate(-34.23 -63.234)" fill="#ff4d7d"/>
    <path id="Path_2014" data-name="Path 2014" d="M89.937,11.756h0c0-.206-.007-.406-.018-.6.011.2.018.4.018.6" transform="translate(-48.683 -6.039)" fill="#ff4d7d"/>
    <path id="Path_2015" data-name="Path 2015" d="M52.068,130.246a7.751,7.751,0,0,0,1.143,1.08,7.751,7.751,0,0,1-1.143-1.08" transform="translate(-28.19 -70.516)" fill="#ff4d7d"/>
    <path id="Path_2016" data-name="Path 2016" d="M55.707,105.412,62.5,102.52l-6.793,2.892a.06.06,0,0,0-.067.067.06.06,0,0,1,.067-.067" transform="translate(-30.124 -55.505)" fill="#ff4d7d"/>
    <path id="Path_2017" data-name="Path 2017" d="M55.275,133.129a12.757,12.757,0,0,0,1.311.827c.384.181.754.327,1.118.457-.364-.13-.734-.276-1.118-.457a12.757,12.757,0,0,1-1.311-.827" transform="translate(-29.926 -72.077)" fill="#ff4d7d"/>
    <path id="Path_2018" data-name="Path 2018" d="M52.9,113.289q.267-.6.581-1.268-.314.667-.581,1.268" transform="translate(-28.639 -60.649)" fill="#ff4d7d"/>
    <path id="Path_2019" data-name="Path 2019" d="M65.573,15.273a4.62,4.62,0,0,0-.639-.3,4.755,4.755,0,0,1,.639.3" transform="translate(-35.156 -8.106)" fill="#ff4d7d"/>
    <path id="Path_2020" data-name="Path 2020" d="M64.1,14.725a4.93,4.93,0,0,0-.688-.2,4.851,4.851,0,0,1,.688.2" transform="translate(-34.333 -7.862)" fill="#ff4d7d"/>
    <path id="Path_2021" data-name="Path 2021" d="M89.36,7.669c.022.078.042.155.061.236-.019-.08-.04-.158-.061-.236" transform="translate(-48.38 -4.152)" fill="#ff4d7d"/>
    <path id="Path_2022" data-name="Path 2022" d="M64.737,68.138A6.009,6.009,0,0,0,64.6,67.5a5.9,5.9,0,0,1,.142.639" transform="translate(-34.972 -36.544)" fill="#ff4d7d"/>
    <path id="Path_2023" data-name="Path 2023" d="M69.533,0q3.237,0,4.723,1.545Q72.77,0,69.533,0a6.274,6.274,0,0,0-5.112,2.018,5.866,5.866,0,0,0-1.009,3.7,5.867,5.867,0,0,1,1.009-3.7A6.274,6.274,0,0,1,69.533,0" transform="translate(-34.332)" fill="#ff4d7d"/>
    <path id="Path_2024" data-name="Path 2024" d="M71.873,22.73c-.066-.191-.136-.377-.21-.554.074.178.143.364.21.554" transform="translate(-38.799 -12.006)" fill="#ff4d7d"/>
    <path id="Path_2025" data-name="Path 2025" d="M70.374,19.645a8.033,8.033,0,0,1,.579,1.131A8.008,8.008,0,0,0,70.374,19.645Z" transform="translate(-38.101 -10.636)" fill="#ff4d7d"/>
    <path id="Path_2026" data-name="Path 2026" d="M49.615,120.117a13.237,13.237,0,0,1,1.251-4.056,13.237,13.237,0,0,0-1.251,4.056" transform="translate(-26.862 -62.836)" fill="#ff4d7d"/>
    <path id="Path_2027" data-name="Path 2027" d="M39.469,85.653c.209.1.436.209.673.314-.237-.1-.464-.209-.673-.314a2.917,2.917,0,0,0-1.026,1.278,2.917,2.917,0,0,1,1.026-1.278" transform="translate(-20.813 -46.373)" fill="#ff4d7d"/>
    <path id="Path_2028" data-name="Path 2028" d="M46.858,87.175a6.324,6.324,0,0,1-2.252-.078,6.324,6.324,0,0,0,2.252.078" transform="translate(-24.15 -47.155)" fill="#ff4d7d"/>
    <path id="Path_2029" data-name="Path 2029" d="M52.729,84.479h0a8.109,8.109,0,0,1-3.212,1.279,8.109,8.109,0,0,0,3.212-1.279h0" transform="translate(-26.808 -45.737)" fill="#ff4d7d"/>
    <path id="Path_2030" data-name="Path 2030" d="M38,89.321a4.389,4.389,0,0,0-.116,1.412,8.08,8.08,0,0,0,.588,2.489,8.08,8.08,0,0,1-.588-2.489A4.389,4.389,0,0,1,38,89.321" transform="translate(-20.501 -48.359)" fill="#ff4d7d"/>
    <path id="Path_2031" data-name="Path 2031" d="M71.081,50.739a5.5,5.5,0,0,0,.2-1.5,5.5,5.5,0,0,1-.2,1.5A7.909,7.909,0,0,1,66.1,55.38a7.714,7.714,0,0,1-2.691.471A7.714,7.714,0,0,0,66.1,55.38a7.909,7.909,0,0,0,4.977-4.641" transform="translate(-34.332 -26.66)" fill="#ff4d7d"/>
    <path id="Path_2032" data-name="Path 2032" d="M68.84,98.706l.552,1.2Z" transform="translate(-37.27 -53.44)" fill="#ff4d7d"/>
    <path id="Path_2033" data-name="Path 2033" d="M72.225,23.685c.069.206.136.418.2.64q1.478,3.9,3.094,8.206-1.614-4.3-3.094-8.206c-.061-.222-.127-.433-.2-.64" transform="translate(-39.103 -12.823)" fill="#ff4d7d"/>
    <path id="Path_2034" data-name="Path 2034" d="M64.947,69.158a5.288,5.288,0,0,1,.036,1.175h0a5.26,5.26,0,0,0-.036-1.175" transform="translate(-35.163 -37.442)" fill="#ff4d7d"/>
    <path id="Path_2035" data-name="Path 2035" d="M61.544,3.752c-.019-.08-.04-.158-.061-.235a5.2,5.2,0,0,0-.667-1.5,3.889,3.889,0,0,0-.389-.473Q58.94,0,55.7,0a6.274,6.274,0,0,0-5.112,2.018,5.867,5.867,0,0,0-1.009,3.7v.942h0a4.949,4.949,0,0,1,.688.2l.009,0a4.619,4.619,0,0,1,.639.3h0a3.567,3.567,0,0,1,.033-.469,4.213,4.213,0,0,1,1.139-2.264,3.419,3.419,0,0,1,1.859-1.078,2.908,2.908,0,0,1,2.289.431.135.135,0,0,1,.061.2c-.055.113-.1.229-.154.343a.29.29,0,0,0,.427.361.448.448,0,0,0,.114-.2A2.27,2.27,0,0,0,56.15,2.1a.268.268,0,0,1-.043-.323.325.325,0,0,1,.331-.157l.136.062a.107.107,0,0,0,.014.023,2.79,2.79,0,0,1,.833,1.842.7.7,0,0,0,.012.072l.055-.052a1.878,1.878,0,0,1,2.11-.35l1.01.46a.282.282,0,0,1,.12.474,1.881,1.881,0,0,1-2.172.489c-.354-.16-.707-.321-1.061-.482l-.1-.044a.833.833,0,0,1-.024.135c-.028.077.005.1.082.118a3.591,3.591,0,0,1,.949.381,2.419,2.419,0,0,1,1.241,1.693,4.043,4.043,0,0,1-.67,3.053,3.885,3.885,0,0,1-1.834,1.475,2.839,2.839,0,0,1-2.548-.089A2.272,2.272,0,0,1,53.38,9.118a3.451,3.451,0,0,1,.158-1.457,3.912,3.912,0,0,1,.552-1.145,2.941,2.941,0,0,1,.878-.816.272.272,0,0,0,.095-.4.307.307,0,0,0-.415-.08,3.474,3.474,0,0,0-1.161,1.13,4.5,4.5,0,0,0-.572,1.329,4.245,4.245,0,0,0-.139,1.327,8.039,8.039,0,0,1,.579,1.132l.011.029c.074.178.144.363.21.554.016.045.032.091.048.138.069.207.136.418.2.64q1.479,3.9,3.094,8.206a10.621,10.621,0,0,1,.349,1.207,7.521,7.521,0,0,1,.192,1.668,5.5,5.5,0,0,1-.2,1.5,7.907,7.907,0,0,1-4.977,4.641,7.7,7.7,0,0,1-2.691.471v.4q.109.21.2.42a6.778,6.778,0,0,1,.339.941,5.9,5.9,0,0,1,.142.639c.007.041.014.082.02.122a5.315,5.315,0,0,1,.036,1.175h0c-.017.148-.039.295-.064.44q1.253-.515,2.506-1.03a.307.307,0,0,1,.191-.019c.519.169,1.034.345,1.575.527-.049.046-.063.062-.081.076q-1.835,1.412-3.667,2.825c1.347.739,2.67,1.514,3.977,2.315a.446.446,0,0,0,.56,0c.308-.213.636-.4.955-.6q1.535-.951,3.07-1.9a.252.252,0,0,1,.188-.041c.649.3,1.295.615,1.955.931-.039.042-.06.066-.083.088l-2.221,2.236q-.649.654-1.3,1.308a.241.241,0,0,0,.052.426c.091.055.185.105.277.159l.732.428c-.161.133-.313.255-.46.382a.211.211,0,0,1-.234.041q-3.755-1.227-7.513-2.447a.32.32,0,0,0-.339.024c-.114.1-.093.21-.057.33.169.57.333,1.142.5,1.714.107.371.213.742.327,1.138-.086-.03-.146-.048-.2-.072-.521-.213-1.045-.422-1.562-.642a.734.734,0,0,1-.273-.2q-1.173-1.423-2.342-2.849c-.12.087-.241.173-.366.258h0a8.105,8.105,0,0,1-3.212,1.278,6.325,6.325,0,0,1-2.252-.078,6.943,6.943,0,0,1-.926-.259c-.07-.03-.134-.06-.2-.089-.237-.105-.464-.21-.673-.314a2.92,2.92,0,0,0-1.026,1.278,3.307,3.307,0,0,0-.136.4,4.4,4.4,0,0,0-.116,1.412,8.1,8.1,0,0,0,.588,2.489,8.512,8.512,0,0,0,1.362,2.219,4.2,4.2,0,0,0,2.152,1.346,5.131,5.131,0,0,0,3.3-.337l6.793-2.825.552,1.2.255.552-6.793,2.892a.06.06,0,0,0-.067.067q-.362.731-.676,1.4t-.581,1.268q-.133.3-.255.585a13.269,13.269,0,0,0-1.251,4.057,2.116,2.116,0,0,0,.006.226A4.791,4.791,0,0,0,44.38,59.73a7.772,7.772,0,0,0,1.143,1.08c.1.082.216.162.328.242a12.71,12.71,0,0,0,1.311.827c.384.181.754.327,1.118.457a6.086,6.086,0,0,0,4.666.081q2.825-1.211,6.256-11.569a63.172,63.172,0,0,0,2.556-18.227V5.717c0-.206-.007-.406-.018-.6a7.935,7.935,0,0,0-.195-1.363m-6.6,49.477c-.062.012-.124.024-.187.034A1.692,1.692,0,0,0,53.369,54.4a4.052,4.052,0,0,0-.2,1.038,2.814,2.814,0,0,1-1.33,2.128,3.122,3.122,0,0,1-.482.264,2.842,2.842,0,0,1-.5.153c-.061.012-.123.015-.185.022a5.613,5.613,0,0,1-1.448-.068.211.211,0,0,1-.181-.127,2.616,2.616,0,0,1-.244-.793,4.895,4.895,0,0,1-.049-1.878c.011-.039.024-.077.036-.116a2.122,2.122,0,0,1,.977-1.333,2.906,2.906,0,0,1,.884-.464c.094-.037.388-.12.594-.171a1.518,1.518,0,0,1,.216-.049,8.6,8.6,0,0,1,1.36-.161,9.63,9.63,0,0,1,2.277.329.153.153,0,0,1,.032.02l-.178.035" transform="translate(-20.502)" fill="#ff4d7d"/>
    <path id="Path_2036" data-name="Path 2036" d="M21.035,135.86q-.193-.083-.377-.176.184.094.377.176" transform="translate(-11.184 -73.46)" fill="#ff4d7d"/>
    <path id="Path_2037" data-name="Path 2037" d="M18.475,134.253c-.12-.089-.234-.187-.346-.286.112.1.226.2.346.286" transform="translate(-9.815 -72.53)" fill="#ff4d7d"/>
    <path id="Path_2038" data-name="Path 2038" d="M16.163,131.553l-.016-.033.016.033" transform="translate(-8.742 -71.206)" fill="#ff4d7d"/>
    <path id="Path_2039" data-name="Path 2039" d="M17.232,133.078a5.538,5.538,0,0,1-.455-.488,5.538,5.538,0,0,0,.455.488" transform="translate(-9.083 -71.785)" fill="#ff4d7d"/>
    <line id="Line_5" data-name="Line 5" transform="translate(7.185 59.829)" fill="#fff"/>
    <path id="Path_2040" data-name="Path 2040" d="M25.965,137.228q-.384-.032-.744-.091.36.059.744.091" transform="translate(-13.655 -74.247)" fill="#ff4d7d"/>
    <path id="Path_2041" data-name="Path 2041" d="M19.7,135.135c-.121-.069-.237-.144-.351-.221.114.077.23.152.351.221" transform="translate(-10.478 -73.043)" fill="#ff4d7d"/>
    <path id="Path_2042" data-name="Path 2042" d="M24.075,136.9c-.166-.033-.33-.066-.488-.107.158.041.322.075.488.107" transform="translate(-12.77 -74.059)" fill="#ff4d7d"/>
    <path id="Path_2043" data-name="Path 2043" d="M22.485,136.445c-.143-.043-.283-.089-.419-.139.136.051.276.1.419.139" transform="translate(-11.947 -73.797)" fill="#ff4d7d"/>
    <path id="Path_2044" data-name="Path 2044" d="M19.947,132.938a17.41,17.41,0,0,0-4.281-2.475c.067.168.141.33.221.485l.016.033a4.523,4.523,0,0,0,.271.456v0a5.475,5.475,0,0,0,.455.488c.053.05.111.1.166.144.112.1.226.2.346.286.07.052.143.1.216.148.114.077.23.152.351.221.08.046.164.089.247.132q.184.094.377.177c.089.038.177.075.269.109.136.05.276.1.418.139.093.028.184.057.279.082.158.041.322.075.488.107.087.017.172.038.261.052q.36.059.744.091l.056.006q-.455-.338-.9-.684" transform="translate(-8.482 -70.633)" fill="#ff4d7d"/>
    <path id="Path_2045" data-name="Path 2045" d="M17.3,88.91a6.021,6.021,0,0,0-4.593-4.295A18.039,18.039,0,0,1,17.3,88.91" transform="translate(-6.88 -45.811)" fill="#ff4d7d"/>
    <path id="Path_2046" data-name="Path 2046" d="M43.759,109.119h0Z" transform="translate(-23.691 -59.078)" fill="#ff4d7d"/>
    <path id="Path_2047" data-name="Path 2047" d="M42.3,108.323c.067.042.134.084.2.123-.068-.039-.135-.08-.2-.123" transform="translate(-22.901 -58.647)" fill="#ff4d7d"/>
    <path id="Path_2048" data-name="Path 2048" d="M40.62,107.036a5.805,5.805,0,0,0,.563.449,6.083,6.083,0,0,1-.563-.449" transform="translate(-21.992 -57.95)" fill="#ff4d7d"/>
    <path id="Path_2049" data-name="Path 2049" d="M36.376,109.234c-.213.538-.887,1.956-1.63,2.124-.082.091-.161.183-.249.271s-.2.158-.3.242a1.69,1.69,0,0,0-.615,1.3c.008,1.52.038,3.04.06,4.6.313-.273.7-.4.82-.839a16.955,16.955,0,0,1,.681-2.1,4.117,4.117,0,0,1,3.105-2.569v-4.273h0a4.752,4.752,0,0,1-.467-.242c-.068-.039-.135-.081-.2-.123s-.138-.093-.207-.141a5.755,5.755,0,0,1-.564-.449h0a6.271,6.271,0,0,1-.436,2.2" transform="translate(-18.184 -57.949)" fill="#ff4d7d"/>
    <path id="Path_2050" data-name="Path 2050" d="M38.348,134.921c-.107.07-.217.139-.33.2.114-.063.222-.133.33-.2" transform="translate(-20.583 -73.047)" fill="#ff4d7d"/>
    <path id="Path_2051" data-name="Path 2051" d="M39.721,133.872c-.111.1-.228.19-.348.279q.18-.133.348-.279" transform="translate(-21.317 -72.479)" fill="#ff4d7d"/>
    <path id="Path_2052" data-name="Path 2052" d="M37.074,135.757c-.049.024-.1.046-.15.068l.15-.068" transform="translate(-19.991 -73.499)" fill="#ff4d7d"/>
    <path id="Path_2053" data-name="Path 2053" d="M42.662,130.035c-.028.075-.059.147-.09.219.031-.072.062-.144.09-.219" transform="translate(-23.049 -70.402)" fill="#ff4d7d"/>
    <path id="Path_2054" data-name="Path 2054" d="M42.233,130.939c-.04.084-.084.165-.128.245.044-.08.088-.161.128-.245" transform="translate(-22.796 -70.891)" fill="#ff4d7d"/>
    <path id="Path_2055" data-name="Path 2055" d="M43.29,128.074c-.014.064-.028.128-.044.19.016-.063.03-.126.044-.19" transform="translate(-23.414 -69.34)" fill="#ff4d7d"/>
    <path id="Path_2056" data-name="Path 2056" d="M43.012,129.079c-.02.069-.042.137-.064.2.022-.067.044-.135.064-.2" transform="translate(-23.252 -69.884)" fill="#ff4d7d"/>
    <path id="Path_2057" data-name="Path 2057" d="M43.645,125.982c0,.043-.007.087-.011.129,0-.042.007-.086.011-.129" transform="translate(-23.624 -68.207)" fill="#ff4d7d"/>
    <path id="Path_2058" data-name="Path 2058" d="M41.654,131.791c-.074.125-.153.246-.237.362.084-.116.162-.237.237-.362" transform="translate(-22.423 -71.352)" fill="#ff4d7d"/>
    <path id="Path_2059" data-name="Path 2059" d="M43.5,127.033c-.009.057-.017.114-.026.17.01-.056.017-.113.026-.17" transform="translate(-23.538 -68.776)" fill="#ff4d7d"/>
    <path id="Path_2060" data-name="Path 2060" d="M40.9,132.588a5.582,5.582,0,0,1-.437.453,5.506,5.506,0,0,0,.437-.453" transform="translate(-21.905 -71.784)" fill="#ff4d7d"/>
    <path id="Path_2061" data-name="Path 2061" d="M36.378,126.258c-.341.249-.657.528-.987.79-.5.4-1,.792-1.507,1.181a.321.321,0,0,0-.153.291c.012.663.02,1.325.029,1.988a7.337,7.337,0,0,0,1.435-.466c.05-.022.1-.044.149-.068.12-.057.238-.117.352-.181s.222-.132.33-.2.2-.132.291-.2c.119-.089.236-.181.348-.279q.076-.067.151-.136a5.666,5.666,0,0,0,.437-.453h0l0,0c.084-.116.162-.237.237-.362.028-.047.052-.1.079-.145.044-.08.088-.161.128-.245.031-.063.058-.13.086-.2s.062-.144.09-.219.055-.155.082-.234.044-.135.064-.2q.039-.133.073-.27c.016-.062.03-.126.044-.19.022-.1.043-.2.061-.308.01-.056.018-.113.027-.17.017-.116.034-.233.047-.353,0-.042.007-.086.011-.129.013-.137.025-.274.032-.416a13.816,13.816,0,0,0-1.937,1.184" transform="translate(-18.262 -67.716)" fill="#ff4d7d"/>
    <path id="Path_2062" data-name="Path 2062" d="M2.831,45.081c-.026-.052-.049-.107-.074-.16.025.053.048.108.074.16" transform="translate(-1.493 -24.32)" fill="#ff4d7d"/>
    <path id="Path_2063" data-name="Path 2063" d="M1.4,39.8h0Z" transform="translate(-0.756 -21.548)" fill="#ff4d7d"/>
    <path id="Path_2064" data-name="Path 2064" d="M3.476,46.241c-.053-.079-.1-.161-.153-.244q.074.125.153.244" transform="translate(-1.799 -24.903)" fill="#ff4d7d"/>
    <path id="Path_2065" data-name="Path 2065" d="M4.289,47.365c-.083-.092-.163-.186-.239-.284.076.1.157.192.239.284" transform="translate(-2.193 -25.49)" fill="#ff4d7d"/>
    <path id="Path_2066" data-name="Path 2066" d="M5.377,48.5a4.808,4.808,0,0,1-.46-.414,4.748,4.748,0,0,0,.46.414" transform="translate(-2.662 -26.033)" fill="#ff4d7d"/>
    <path id="Path_2067" data-name="Path 2067" d="M3.126,43.7a3.282,3.282,0,0,1,.212-.565,4.126,4.126,0,0,1,.629-.989,4.187,4.187,0,0,1,.775-.713,4.24,4.24,0,0,1-2.276-.648A3.661,3.661,0,0,1,1.4,39.8h0a7.566,7.566,0,0,0,.624,2.347c.025.053.048.108.074.16.058.115.122.224.186.333.05.083.1.165.153.244s.118.172.181.254c.076.1.156.193.238.284.053.059.1.12.159.177a4.86,4.86,0,0,0,.46.413h0c-.122-.1-.233-.2-.345-.311" transform="translate(-0.756 -21.549)" fill="#ff4d7d"/>
    <path id="Path_2068" data-name="Path 2068" d="M4.408,24.036a6.554,6.554,0,0,1,3.968-1.009,6.554,6.554,0,0,0-3.968,1.009,4.324,4.324,0,0,0-1.28,1.451,4.324,4.324,0,0,1,1.28-1.451" transform="translate(-1.694 -12.467)" fill="#ff4d7d"/>
    <path id="Path_2069" data-name="Path 2069" d="M27.934,2.082a7.32,7.32,0,0,0-4.851-1.5,7.455,7.455,0,0,0-5.217,1.7,7.455,7.455,0,0,1,5.217-1.7,7.32,7.32,0,0,1,4.851,1.5" transform="translate(-9.673 -0.318)" fill="#ff4d7d"/>
    <path id="Path_2070" data-name="Path 2070" d="M2.1,28.39a8.369,8.369,0,0,0-.872,3.93c0,.014,0,.026,0,.039v-.008c0-.011,0-.021,0-.032A8.369,8.369,0,0,1,2.1,28.39" transform="translate(-0.664 -15.37)" fill="#ff4d7d"/>
    <path id="Path_2071" data-name="Path 2071" d="M14.573,12.8h0a11.007,11.007,0,0,1,.063-1.21,11.007,11.007,0,0,0-.063,1.21" transform="translate(-7.89 -6.274)" fill="#ff4d7d"/>
    <path id="Path_2072" data-name="Path 2072" d="M14.711,9.742a7.527,7.527,0,0,1,.331-1.564,7.533,7.533,0,0,0-.331,1.564" transform="translate(-7.965 -4.428)" fill="#ff4d7d"/>
    <path id="Path_2073" data-name="Path 2073" d="M15.433,6.689a5.121,5.121,0,0,1,.615-1.262,5.121,5.121,0,0,0-.615,1.262" transform="translate(-8.355 -2.938)" fill="#ff4d7d"/>
    <path id="Path_2074" data-name="Path 2074" d="M41.414,5.427a5.24,5.24,0,0,1,.47.833,5.24,5.24,0,0,0-.47-.833" transform="translate(-22.422 -2.938)" fill="#ff4d7d"/>
    <path id="Path_2075" data-name="Path 2075" d="M3.908,16.9c.138.026.278.057.418.1a4.13,4.13,0,0,1,1.046.465,4.248,4.248,0,0,1-.107-.953c0-.147.009-.289.022-.429A4.672,4.672,0,0,1,6.823,13.2a4.267,4.267,0,0,1,1.446,2.142,4.13,4.13,0,0,1,.162,1.161,4.283,4.283,0,0,1-.078.816A4.257,4.257,0,0,1,9.162,17c.14-.041.28-.072.418-.1a3.938,3.938,0,0,1,2.08.159,4.315,4.315,0,0,1,.4-1.4,5.019,5.019,0,0,1,.762-1.2,5.094,5.094,0,0,1,.94-.864A5.141,5.141,0,0,1,11,12.8,5.173,5.173,0,0,1,9,10.4a5.662,5.662,0,0,1,3.863-.814c.167.032.336.069.507.119a5.03,5.03,0,0,1,1.267.564,5.134,5.134,0,0,1-.13-1.155c0-.177.011-.35.028-.52A5.659,5.659,0,0,1,16.39,5.11a5.172,5.172,0,0,1,1.753,2.6,5.012,5.012,0,0,1,.2,1.406,5.223,5.223,0,0,1-.094.988,5.178,5.178,0,0,1,.979-.4c.17-.05.339-.087.507-.119a4.018,4.018,0,0,1,1-.089V6.842a7.724,7.724,0,0,0-.606-3.2,5.275,5.275,0,0,0-.47-.833,5.455,5.455,0,0,0-.731-.724,7.319,7.319,0,0,0-4.851-1.5,7.454,7.454,0,0,0-5.216,1.7,5.718,5.718,0,0,0-.5.52,5.1,5.1,0,0,0-.615,1.262,7.5,7.5,0,0,0-.331,1.564,11.007,11.007,0,0,0-.063,1.21v4.036a6.555,6.555,0,0,0-3.968,1.009A4.334,4.334,0,0,0,2.1,13.337a8.364,8.364,0,0,0-.872,3.93c0,.011,0,.021,0,.032v0a4.3,4.3,0,0,1,2.68-.4" transform="translate(-0.664 -0.318)" fill="#ff4d7d"/>
    <path id="Path_2076" data-name="Path 2076" d="M29.907,24.854a.731.731,0,0,0,.816-.06.271.271,0,0,1,.165-.075c.154.019.3.061.477.1-.084.125-.158.222-.217.326a.4.4,0,0,1-.414.244.569.569,0,0,0-.531.417.606.606,0,0,0,.213.662.7.7,0,0,0,.816,0,.635.635,0,0,0,.186-.739.269.269,0,0,1-.022-.2c.087-.154.2-.3.321-.47.085.123.146.228.224.32a.329.329,0,0,1,.06.388.572.572,0,0,0,.384.761.643.643,0,0,0,.7-.148.57.57,0,0,0,.123-.667.629.629,0,0,0-.6-.371c-.069,0-.168,0-.2-.038-.121-.145-.22-.307-.34-.482.241-.053.413-.137.639.041a.63.63,0,0,0,.99-.338.6.6,0,0,0-.475-.751.665.665,0,0,0-.78.433.269.269,0,0,1-.144.141,2.408,2.408,0,0,1-.354.072c-.017-.229-.057-.415.208-.571a.571.571,0,0,0,.049-.884.682.682,0,0,0-.945.006.6.6,0,0,0,.06.892.4.4,0,0,1,.143.554c-.147-.031-.3-.055-.442-.1a.214.214,0,0,1-.113-.127.658.658,0,0,0-1.247-.039.614.614,0,0,0,.253.7" transform="translate(-16.039 -12.332)" fill="#ff4d7d"/>
    <path id="Path_2077" data-name="Path 2077" d="M10.9,41.324a.525.525,0,0,0,.154-.61.221.221,0,0,1-.019-.165c.072-.127.165-.244.265-.388a3.14,3.14,0,0,0,.185.264.273.273,0,0,1,.05.321.472.472,0,0,0,.317.628.531.531,0,0,0,.575-.122.47.47,0,0,0,.1-.551.519.519,0,0,0-.493-.306c-.057,0-.138,0-.165-.031-.1-.12-.181-.254-.281-.4.2-.044.341-.113.527.034a.519.519,0,0,0,.817-.279.493.493,0,0,0-.393-.62.549.549,0,0,0-.643.358.221.221,0,0,1-.119.116,2,2,0,0,1-.293.06c-.014-.189-.047-.343.172-.471a.471.471,0,0,0,.04-.73.562.562,0,0,0-.78,0,.492.492,0,0,0,.05.737.33.33,0,0,1,.117.457c-.121-.026-.245-.045-.364-.082a.177.177,0,0,1-.094-.105.546.546,0,0,0-.518-.385.552.552,0,0,0-.511.354.508.508,0,0,0,.209.579.6.6,0,0,0,.673-.05.221.221,0,0,1,.137-.062c.127.016.251.05.393.081-.069.1-.13.183-.179.269a.33.33,0,0,1-.342.2.471.471,0,0,0-.438.344.5.5,0,0,0,.176.546.582.582,0,0,0,.674,0" transform="translate(-5.185 -20.723)" fill="#ff4d7d"/>
    <path id="Path_2078" data-name="Path 2078" d="M50.27,24.421l.072.039-.072-.039" transform="translate(-27.216 -13.222)" fill="#ff4d7d"/>
    <path id="Path_2079" data-name="Path 2079" d="M1.5,71.6a43.025,43.025,0,0,0,3.132-5.937A43.025,43.025,0,0,1,1.5,71.6,6.6,6.6,0,0,0,.011,75.9,6.6,6.6,0,0,1,1.5,71.6" transform="translate(0 -35.552)" fill="#ff4d7d"/>
    <path id="Path_2080" data-name="Path 2080" d="M12.473,51.334h0v1.749q-.841,2.207-1.656,4.086.814-1.879,1.656-4.086Z" transform="translate(-5.856 -27.792)" fill="#ff4d7d"/>
    <path id="Path_2081" data-name="Path 2081" d="M33.775,78.016q.395.554.836,1.139-.442-.585-.836-1.139" transform="translate(-18.286 -42.238)" fill="#ff4d7d"/>
    <path id="Path_2082" data-name="Path 2082" d="M55.426,33.006a8.629,8.629,0,0,0-.678-3.6,8.629,8.629,0,0,1,.678,3.6" transform="translate(-29.641 -15.921)" fill="#ff4d7d"/>
    <path id="Path_2083" data-name="Path 2083" d="M31.68,74.939q.305.471.649.967-.344-.5-.649-.967" transform="translate(-17.152 -40.572)" fill="#ff4d7d"/>
    <path id="Path_2084" data-name="Path 2084" d="M26.63,64.1c.034.18.075.366.129.558-.054-.193-.095-.378-.129-.558" transform="translate(-14.418 -34.702)" fill="#ff4d7d"/>
    <path id="Path_2085" data-name="Path 2085" d="M36.362,101.053c.1.206.2.4.308.591q-.158-.286-.308-.591" transform="translate(-19.687 -54.711)" fill="#ff4d7d"/>
    <path id="Path_2086" data-name="Path 2086" d="M.246,89.134A4.647,4.647,0,0,1,.038,88.1a4.647,4.647,0,0,0,.208,1.033" transform="translate(-0.021 -47.698)" fill="#ff4d7d"/>
    <path id="Path_2087" data-name="Path 2087" d="M12.408,51.235l-.141-.012.141.012" transform="translate(-6.641 -27.732)" fill="#ff4d7d"/>
    <line id="Line_6" data-name="Line 6" transform="translate(4.838 23.376)" fill="#fff"/>
    <path id="Path_2088" data-name="Path 2088" d="M33.86,91.337a9.337,9.337,0,0,0,.281,1.983,9.337,9.337,0,0,1-.281-1.983" transform="translate(-18.332 -49.45)" fill="#ff4d7d"/>
    <path id="Path_2089" data-name="Path 2089" d="M14.637,125.618c0-.026,0-.05-.006-.076,0,.026,0,.05.006.076" transform="translate(-7.921 -67.969)" fill="#ff4d7d"/>
    <path id="Path_2090" data-name="Path 2090" d="M52.707,26.573a4.907,4.907,0,0,0-1.174-1.346h0a4.9,4.9,0,0,1,1.174,1.345" transform="translate(-27.9 -13.658)" fill="#ff4d7d"/>
    <path id="Path_2091" data-name="Path 2091" d="M7.913,70.94a5.207,5.207,0,0,1,5.108,1.771A4.559,4.559,0,0,1,14.159,75.9v.005c.233-.017.455-.046.676-.078q-.041-2.957-.08-5.914a.388.388,0,0,0-.146-.321,3.091,3.091,0,0,0-.643-.561,3.321,3.321,0,0,0-.858-.094c-.122-.016-.241-.036-.359-.057a7.485,7.485,0,0,1-1.712-.354,4.439,4.439,0,0,1-2.32-1.7,5.943,5.943,0,0,1-.673-1.7q-.37-1.37-.62-2.765a12.661,12.661,0,0,1,5.1,2.224,4.4,4.4,0,0,1,1.523,1.71,4.518,4.518,0,0,1,.277,1.6c0,.011.005.023.007.034a.957.957,0,0,1,.036.256.6.6,0,0,0,.367.617c0-.128,0-.24-.006-.352a2.33,2.33,0,0,1,.339-1.477,4.186,4.186,0,0,1,.5-.591.367.367,0,0,0,.129-.288c0-.092,0-.184-.005-.276a3.474,3.474,0,0,1-.146-2.226,20.172,20.172,0,0,1,1.439-3.734h0c-.105-.191-.209-.385-.308-.591s-.208-.438-.307-.673a14.684,14.684,0,0,1-.559-1.8,9.369,9.369,0,0,1-.281-1.983,5.2,5.2,0,0,1,.706-2.875,2.817,2.817,0,0,1,.875-1.076c-.274-.347-.532-.685-.783-1.018q-.442-.585-.836-1.139c-.107-.15-.21-.3-.312-.444q-.344-.5-.649-.967c-.356-.549-.677-1.077-.955-1.575a16.583,16.583,0,0,1-.869-1.787,9.845,9.845,0,0,1-.363-1.052c-.054-.193-.095-.378-.129-.559a5.017,5.017,0,0,1-.093-.811,3.7,3.7,0,0,1,.012-.4q0-.2.023-.4a5.4,5.4,0,0,1,.134-.788,8.355,8.355,0,0,1,3.744-4.663,9.563,9.563,0,0,1,1.61-.815,7.132,7.132,0,0,1,2.4-.5,6.788,6.788,0,0,1,2.381.372,5.538,5.538,0,0,1,1.413.875A7.457,7.457,0,0,0,25.786,30a8.622,8.622,0,0,0-.678-3.6,5.569,5.569,0,0,0-.3-.572,4.914,4.914,0,0,0-1.174-1.345h0a3.587,3.587,0,0,0-.508-.33l-.072-.039a4.376,4.376,0,0,0-.593-.256,4.644,4.644,0,0,1-1.535,1.544,5.019,5.019,0,0,1-1.3.581,5.072,5.072,0,0,1-1.28.2,5.085,5.085,0,0,1,.94.864,5.031,5.031,0,0,1,.762,1.2,5.172,5.172,0,0,1,.347,3.112,5.658,5.658,0,0,1-3.672-1.447,5.119,5.119,0,0,1-1-1.337,5.1,5.1,0,0,1-.646.959c-.115.135-.235.26-.358.378a5.427,5.427,0,0,1-3.337,1.429,3.572,3.572,0,0,1-.93.811,4.144,4.144,0,0,1-1.069.48,4.2,4.2,0,0,1-1.057.168,4.207,4.207,0,0,1,.776.714,4.135,4.135,0,0,1,.629.989,4.267,4.267,0,0,1,.286,2.57,4.674,4.674,0,0,1-3.031-1.2c-.1-.1-.2-.2-.295-.312a4.211,4.211,0,0,1-.534-.8,4.23,4.23,0,0,1-.533.8c-.095.111-.194.215-.3.312a3.277,3.277,0,0,1-.488.412c.25.05.514.087.787.115l.141.012c.272.023.553.038.849.038v1.749q-.841,2.207-1.656,4.086-.163.376-.325.738A43.078,43.078,0,0,1,1.5,48.971,6.6,6.6,0,0,0,.012,53.263c0,.02,0,.039.006.059a4.642,4.642,0,0,0,.208,1.033,5.344,5.344,0,0,0,.607,1.275,10.972,10.972,0,0,0,5.717,4.036l.134.067V69.754c0,.255.01.5.027.738,0,.026,0,.05.006.076.018.229.042.453.074.669a8.176,8.176,0,0,1,1.122-.3M5.618,54.163a5.165,5.165,0,0,0-.349-1.3,2.07,2.07,0,0,0-1.853-1.28c-.08,0-.16-.013-.239-.02l-.229-.022a.22.22,0,0,1,.039-.03,12.274,12.274,0,0,1,2.852-.71,10.673,10.673,0,0,1,1.734.032,2.033,2.033,0,0,1,.277.036c.265.039.644.108.766.144a3.536,3.536,0,0,1,1.159.482,2.611,2.611,0,0,1,1.355,1.583c.019.048.039.094.056.144a6.345,6.345,0,0,1,.105,2.41,3.465,3.465,0,0,1-.238,1.046.278.278,0,0,1-.218.185,7.094,7.094,0,0,1-1.826.271c-.079,0-.158,0-.237-.005a3.457,3.457,0,0,1-.65-.132,3.692,3.692,0,0,1-.633-.276,3.478,3.478,0,0,1-1.872-2.554" transform="translate(0 -12.919)" fill="#ff4d7d"/>
    <path id="Path_2092" data-name="Path 2092" d="M48.938,23.847l.017.007h0l-.018-.006" transform="translate(-26.495 -12.911)" fill="#ff4d7d"/>
    <path id="Path_2093" data-name="Path 2093" d="M180,117.742a.942.942,0,0,1-.513.93,1.1,1.1,0,0,1-.212.071.856.856,0,0,1-.182.042.834.834,0,0,1-.15.014h-.091q-1.193,0-1.193-1.057v-9.453h-3.006q-.5,0-.5-.451t.5-.465h8.368q.483,0,.483.451t-.483.465H180Z" transform="translate(-94.291 -58.132)" fill="#ff4d7d"/>
    <path id="Path_2094" data-name="Path 2094" d="M205.656,116.945a1.865,1.865,0,0,0-.3-1.17,1.418,1.418,0,0,0-1.208-.479,1.309,1.309,0,0,0-1.4,1.014.4.4,0,0,0-.03.127l-.061.14a.668.668,0,0,1-.166.268,1.119,1.119,0,0,1-.861.3q-1.072,0-1.072-.8,0-.619.861-1.212a3.975,3.975,0,0,1,1.117-.507,5.734,5.734,0,0,1,1.6-.211,6.271,6.271,0,0,1,1.313.127,3.455,3.455,0,0,1,1.178.479,2.71,2.71,0,0,1,1.148,2.438v3.057a2.015,2.015,0,0,0,.03.324l.03.211.166.593a.415.415,0,0,1,.03.127.748.748,0,0,1-.362.592,1.37,1.37,0,0,1-.8.253,1.11,1.11,0,0,1-1.058-.873,3.817,3.817,0,0,1-.846.507,4.039,4.039,0,0,1-.83.254,5.511,5.511,0,0,1-.68.1,2.709,2.709,0,0,1-.272.014h-.2a3.116,3.116,0,0,1-2.25-.718,2.107,2.107,0,0,1-.62-1.578,2.2,2.2,0,0,1,.559-1.55,3.206,3.206,0,0,1,1.4-.817,8.981,8.981,0,0,1,1.8-.324c.271-.018.579-.033.921-.042.131-.009.277-.014.438-.014.09-.01.231-.015.423-.015Zm0,1.423q-.8.014-1.329.071a4.035,4.035,0,0,0-1.073.268,1.525,1.525,0,0,0-.966,1.522,1.468,1.468,0,0,0,.3.986,1.5,1.5,0,0,0,1.178.423l.3-.015a2.259,2.259,0,0,0,.438-.1,3.121,3.121,0,0,0,1.148-.578Z" transform="translate(-108.342 -61.942)" fill="#ff4d7d"/>
    <path id="Path_2095" data-name="Path 2095" d="M230.866,115.578a4.63,4.63,0,0,1-.03,5.889,4.392,4.392,0,0,1-5.906,0,4.085,4.085,0,0,1-1.073-2.958,4.144,4.144,0,0,1,1.043-2.931,4.389,4.389,0,0,1,5.966,0m-4.214.3a4.654,4.654,0,0,0-.559,2.636,4.723,4.723,0,0,0,.559,2.648,1.584,1.584,0,0,0,2.446.028,2.689,2.689,0,0,0,.409-.986,7.384,7.384,0,0,0,.166-1.69,4.816,4.816,0,0,0-.529-2.593,1.574,1.574,0,0,0-2.492-.042" transform="translate(-121.197 -61.942)" fill="#ff4d7d"/>
    <path id="Path_2096" data-name="Path 2096" d="M247.112,115.874a1.127,1.127,0,0,1-.166-.465.861.861,0,0,1,.378-.69,1.319,1.319,0,0,1,.86-.31.8.8,0,0,1,.544.183,1.332,1.332,0,0,1,.271.352l2.629,4.649,2.325-4.9a.475.475,0,0,1,.227-.226.4.4,0,0,1,.212-.056q.5,0,.5.437a.49.49,0,0,1-.015.127l-4.426,9.37a.467.467,0,0,1-.453.282c-.322,0-.484-.146-.484-.437a.409.409,0,0,1,.046-.2l.982-2.071Z" transform="translate(-133.698 -61.942)" fill="#ff4d7d"/>
    <path id="Path_2097" data-name="Path 2097" d="M271.12,115.381a.846.846,0,0,1,.483-.846.8.8,0,0,1,.182-.071.933.933,0,0,1,.166-.042.763.763,0,0,1,.136-.014h.091q1.087,0,1.087.972v4.635a1.858,1.858,0,0,0,.257,1.028,1.247,1.247,0,0,0,1.118.522,1.865,1.865,0,0,0,1.193-.437,2.644,2.644,0,0,0,.74-.987v-4.762a.85.85,0,0,1,.468-.846,1.48,1.48,0,0,1,.182-.071,1.428,1.428,0,0,1,.181-.042.612.612,0,0,1,.136-.014h.091q1.073,0,1.072.972v6.256a.85.85,0,0,1-.468.845,1.484,1.484,0,0,1-.182.071,1.286,1.286,0,0,1-.181.042.618.618,0,0,1-.136.014h-.091a1.688,1.688,0,0,1-.3-.028,1.23,1.23,0,0,1-.347-.127.744.744,0,0,1-.423-.7v-.394a2.761,2.761,0,0,1-.317.367,2.51,2.51,0,0,1-.5.408,3.051,3.051,0,0,1-1.722.479,3.757,3.757,0,0,1-1.012-.127,2.5,2.5,0,0,1-.936-.45,2.162,2.162,0,0,1-.694-.9,3.661,3.661,0,0,1-.272-1.479Z" transform="translate(-146.786 -61.942)" fill="#ff4d7d"/>
    <path id="Path_2098" data-name="Path 2098" d="M300.378,116.945a1.865,1.865,0,0,0-.3-1.17,1.418,1.418,0,0,0-1.208-.479,1.309,1.309,0,0,0-1.4,1.014.4.4,0,0,0-.03.127l-.061.14a.668.668,0,0,1-.166.268,1.12,1.12,0,0,1-.861.3q-1.072,0-1.072-.8,0-.619.861-1.212a3.975,3.975,0,0,1,1.117-.507,5.734,5.734,0,0,1,1.6-.211,6.27,6.27,0,0,1,1.313.127,3.454,3.454,0,0,1,1.178.479,2.71,2.71,0,0,1,1.148,2.438v3.057a2.015,2.015,0,0,0,.03.324l.03.211.166.593a.415.415,0,0,1,.03.127.748.748,0,0,1-.362.592,1.37,1.37,0,0,1-.8.253,1.11,1.11,0,0,1-1.058-.873,3.817,3.817,0,0,1-.846.507,4.039,4.039,0,0,1-.83.254,5.51,5.51,0,0,1-.68.1,2.709,2.709,0,0,1-.272.014h-.2a3.116,3.116,0,0,1-2.25-.718,2.107,2.107,0,0,1-.62-1.578,2.2,2.2,0,0,1,.559-1.55,3.206,3.206,0,0,1,1.4-.817,8.981,8.981,0,0,1,1.8-.324c.271-.018.579-.033.921-.042.131-.009.277-.014.438-.014.09-.01.231-.015.423-.015Zm0,1.423q-.8.014-1.329.071a4.036,4.036,0,0,0-1.073.268,1.525,1.525,0,0,0-.966,1.522,1.468,1.468,0,0,0,.3.986,1.5,1.5,0,0,0,1.178.423l.3-.015a2.259,2.259,0,0,0,.438-.1,3.121,3.121,0,0,0,1.148-.578Z" transform="translate(-159.625 -61.942)" fill="#ff4d7d"/>
    <path id="Path_2099" data-name="Path 2099" d="M327.282,121.637a.85.85,0,0,1-.468.845,1.48,1.48,0,0,1-.182.071,1.287,1.287,0,0,1-.181.042.619.619,0,0,1-.136.014h-.091q-1.088,0-1.088-.958v-4.636a1.837,1.837,0,0,0-.272-1.057,1.258,1.258,0,0,0-1.1-.493,1.853,1.853,0,0,0-1.209.45,2.534,2.534,0,0,0-.71.972v4.749a.845.845,0,0,1-.482.845.815.815,0,0,1-.182.071.861.861,0,0,1-.166.042.772.772,0,0,1-.136.014h-.2a.837.837,0,0,1-.151-.014.862.862,0,0,1-.166-.042,1.205,1.205,0,0,1-.2-.071.838.838,0,0,1-.469-.831v-6.269a.847.847,0,0,1,.484-.846.8.8,0,0,1,.182-.071.934.934,0,0,1,.166-.042.764.764,0,0,1,.136-.014h.091a1.769,1.769,0,0,1,.3.028,1.434,1.434,0,0,1,.362.127.756.756,0,0,1,.423.718v.381l.317-.366a2.516,2.516,0,0,1,.5-.409,3.024,3.024,0,0,1,1.706-.479,4.123,4.123,0,0,1,1,.113,2.505,2.505,0,0,1,.952.45,2.169,2.169,0,0,1,.694.9,3.7,3.7,0,0,1,.271,1.493Z" transform="translate(-173.087 -61.942)" fill="#ff4d7d"/>
    <path id="Path_2100" data-name="Path 2100" d="M357.93,118.213a.509.509,0,0,1-.241.268.5.5,0,0,1-.257.07c-.343,0-.514-.16-.514-.479a.332.332,0,0,1,.03-.155l3.564-9.989a1.517,1.517,0,0,1,1.6-1.014,1.954,1.954,0,0,1,.861.183,1.57,1.57,0,0,1,.725.831l3.565,9.214a1.076,1.076,0,0,1,.076.338q0,1.07-1.315,1.07a.989.989,0,0,1-.725-.239,1.1,1.1,0,0,1-.166-.239l-.076-.2a.054.054,0,0,1-.015-.042l-.936-2.437h-5.166Zm1.329-3.734h4.5l-2.009-5.227c-.091-.244-.192-.367-.3-.367s-.216.127-.317.381Z" transform="translate(-193.237 -57.883)" fill="#ff4d7d"/>
    <path id="Path_2101" data-name="Path 2101" d="M392.657,115.924a2.151,2.151,0,0,1,.091.634,1.937,1.937,0,0,1-.407,1.254,2.266,2.266,0,0,1-.967.677,4.273,4.273,0,0,1-1.148.268,8.883,8.883,0,0,1-2.114-.015,2.834,2.834,0,0,1-.393-.084l-.317-.084-.061.071a.173.173,0,0,0-.045.07.48.48,0,0,0-.061.254q0,.578,1.617.62l.891.028c.323.01.6.024.847.043a6.136,6.136,0,0,1,1.434.282,1.851,1.851,0,0,1,1.344,1.916,2.814,2.814,0,0,1-.105.831,1.659,1.659,0,0,1-.529.831,2.893,2.893,0,0,1-1.268.634,9.168,9.168,0,0,1-2.356.254,7.774,7.774,0,0,1-2.085-.239,2.7,2.7,0,0,1-1.162-.592,1.782,1.782,0,0,1-.514-.775,2.648,2.648,0,0,1-.106-.789,1.907,1.907,0,0,1,.5-1.4,1.626,1.626,0,0,1,.438-.31,1.032,1.032,0,0,1,.212-.1l.091-.042a.176.176,0,0,1,.075-.028l-.227-.084a1.889,1.889,0,0,1-.257-.17.879.879,0,0,1-.317-.7,1.177,1.177,0,0,1,.77-1.042,2.049,2.049,0,0,1-.68-1.014,1.448,1.448,0,0,1-.091-.423.739.739,0,0,1-.015-.155v-.1a1.881,1.881,0,0,1,.483-1.31,2.609,2.609,0,0,1,1.1-.663,5.643,5.643,0,0,1,1.208-.253l.785-.028a5.988,5.988,0,0,1,1.692.2,2.673,2.673,0,0,1,.483.183c.08.038.2.1.362.2l.136-.2a1.508,1.508,0,0,1,.241-.254,1.284,1.284,0,0,1,.831-.31.593.593,0,0,1,.68.662q0,.678-.74.719a1.775,1.775,0,0,0-.544.085,2.087,2.087,0,0,1,.2.45m-5.029,4.889a1.858,1.858,0,0,0-.257,1.07q0,1.65,1.889,1.649a1.977,1.977,0,0,0,1.691-.635,1.648,1.648,0,0,0,.241-.549,2.356,2.356,0,0,0,.046-.493v-.141a1.054,1.054,0,0,0-.016-.183,1.506,1.506,0,0,0-.151-.45,1.354,1.354,0,0,0-1.162-.634c-.05-.009-.161-.019-.333-.028l-1.042-.042c-.172-.009-.287-.018-.348-.028a1.989,1.989,0,0,0-.559.465m2.81-3.565a1.7,1.7,0,0,0,.151-.479,1.344,1.344,0,0,0,.015-.183v-.113a1.593,1.593,0,0,0-.257-.915,1.2,1.2,0,0,0-1.072-.522,1.29,1.29,0,0,0-1.1.507,1.673,1.673,0,0,0-.287.987.992.992,0,0,0,.015.183.737.737,0,0,0,.029.212,1.341,1.341,0,0,0,.2.465,1.308,1.308,0,0,0,1.178.521,1.148,1.148,0,0,0,1.133-.662" transform="translate(-208.571 -61.724)" fill="#ff4d7d"/>
    <path id="Path_2102" data-name="Path 2102" d="M412.369,121.637a.849.849,0,0,1-.469.845,1.417,1.417,0,0,1-.181.071,1.3,1.3,0,0,1-.182.042.612.612,0,0,1-.136.014h-.182a.834.834,0,0,1-.15-.014,1.3,1.3,0,0,1-.182-.042,1.415,1.415,0,0,1-.181-.071.837.837,0,0,1-.469-.831v-6.269a.85.85,0,0,1,.469-.846,1.415,1.415,0,0,1,.181-.071,1.442,1.442,0,0,1,.182-.042.606.606,0,0,1,.136-.014h.091q1.072,0,1.072.972v.789a2.352,2.352,0,0,1,2.235-1.761q.951,0,.952.859a.766.766,0,0,1-.437.733,1.9,1.9,0,0,1-.393.112l-.333.043a2.468,2.468,0,0,0-1.556.592,1.31,1.31,0,0,0-.316.408l-.151.352Z" transform="translate(-222.105 -61.942)" fill="#ff4d7d"/>
    <path id="Path_2103" data-name="Path 2103" d="M431.041,107.278a1.208,1.208,0,0,1,.408.916,1.192,1.192,0,0,1-.408.9,1.364,1.364,0,0,1-.967.366,1.4,1.4,0,0,1-.966-.366,1.213,1.213,0,0,1-.393-.9,1.183,1.183,0,0,1,.393-.9,1.437,1.437,0,0,1,1.933-.015m.106,10.3a.85.85,0,0,1-.469.845,1.483,1.483,0,0,1-.182.071,1.256,1.256,0,0,1-.181.042.617.617,0,0,1-.136.014h-.091q-1.073,0-1.072-.958v-6.269a.85.85,0,0,1,.468-.846,1.483,1.483,0,0,1,.182-.071,1.466,1.466,0,0,1,.181-.042.621.621,0,0,1,.137-.014h.09q1.073,0,1.073.972Z" transform="translate(-232.108 -57.883)" fill="#ff4d7d"/>
    <path id="Path_2104" data-name="Path 2104" d="M449.814,120.031a1.645,1.645,0,0,1-.2.718,2.852,2.852,0,0,1-.635.859,3.608,3.608,0,0,1-1.178.7,5.342,5.342,0,0,1-1.828.3,4.054,4.054,0,0,1-3.2-1.226,4.163,4.163,0,0,1-.952-2.874,3.975,3.975,0,0,1,1.163-3.057,4.317,4.317,0,0,1,3.066-1.043,4.929,4.929,0,0,1,1.934.352,3.334,3.334,0,0,1,1.132.775,2.7,2.7,0,0,1,.528.845,1.233,1.233,0,0,1,.106.31.884.884,0,0,1,.029.183.69.69,0,0,1-.378.62,1.248,1.248,0,0,1-.664.183,1.028,1.028,0,0,1-.875-.338,1.527,1.527,0,0,1-.257-.691l-.031-.14a1.052,1.052,0,0,0-.044-.183,1.982,1.982,0,0,0-.228-.451,1.545,1.545,0,0,0-1.314-.577,1.524,1.524,0,0,0-1.359.648,6.391,6.391,0,0,0,.03,5.228,1.493,1.493,0,0,0,1.268.577,1.517,1.517,0,0,0,1.329-.619,1.67,1.67,0,0,0,.257-.536,1.845,1.845,0,0,0,.092-.479.959.959,0,0,1,1.1-.93c.734,0,1.1.282,1.1.846" transform="translate(-239.205 -61.942)" fill="#ff4d7d"/>
    <path id="Path_2105" data-name="Path 2105" d="M466.493,115.381a.847.847,0,0,1,.482-.846.833.833,0,0,1,.182-.071.965.965,0,0,1,.167-.042.756.756,0,0,1,.136-.014h.09q1.087,0,1.088.972v4.635a1.858,1.858,0,0,0,.257,1.028,1.245,1.245,0,0,0,1.118.522,1.869,1.869,0,0,0,1.194-.437,2.642,2.642,0,0,0,.739-.987v-4.762a.85.85,0,0,1,.468-.846,1.482,1.482,0,0,1,.182-.071,1.442,1.442,0,0,1,.182-.042.606.606,0,0,1,.136-.014H473q1.073,0,1.073.972v6.256a.85.85,0,0,1-.468.845,1.482,1.482,0,0,1-.182.071,1.3,1.3,0,0,1-.182.042.618.618,0,0,1-.136.014h-.09a1.688,1.688,0,0,1-.3-.028,1.219,1.219,0,0,1-.347-.127.744.744,0,0,1-.424-.7v-.394a2.633,2.633,0,0,1-.317.367,2.487,2.487,0,0,1-.5.408,3.048,3.048,0,0,1-1.721.479,3.769,3.769,0,0,1-1.013-.127,2.5,2.5,0,0,1-.936-.45,2.164,2.164,0,0,1-.7-.9,3.661,3.661,0,0,1-.271-1.479Z" transform="translate(-252.562 -61.942)" fill="#ff4d7d"/>
    <path id="Path_2106" data-name="Path 2106" d="M493.986,117.578a.851.851,0,0,1-.47.845,1.481,1.481,0,0,1-.182.071,1.216,1.216,0,0,1-.18.042.617.617,0,0,1-.136.014h-.182a.854.854,0,0,1-.152-.014,1.337,1.337,0,0,1-.18-.042,1.481,1.481,0,0,1-.182-.071.838.838,0,0,1-.468-.831v-9.708a.85.85,0,0,1,.468-.846,1.647,1.647,0,0,1,.182-.071,1.494,1.494,0,0,1,.18-.042.623.623,0,0,1,.138-.014H493a.854.854,0,0,1,.152.014,1.345,1.345,0,0,1,.18.042,1.648,1.648,0,0,1,.182.071.852.852,0,0,1,.47.846Z" transform="translate(-266.293 -57.883)" fill="#ff4d7d"/>
    <path id="Path_2107" data-name="Path 2107" d="M507.336,117.7a1.3,1.3,0,0,0,.15.69.766.766,0,0,0,.7.324,1.356,1.356,0,0,0,.482-.07l.106-.042a.344.344,0,0,0,.106-.057.746.746,0,0,1,.211-.042.355.355,0,0,1,.407.394c0,.188-.161.352-.482.493a3.8,3.8,0,0,1-1.6.338,2.392,2.392,0,0,1-1.541-.45,2,2,0,0,1-.679-1.677v-5.016h-1c-.3,0-.453-.136-.453-.409s.152-.422.453-.422h1v-1.692a.85.85,0,0,1,.468-.845,1.48,1.48,0,0,1,.182-.071,1.3,1.3,0,0,1,.182-.042.6.6,0,0,1,.136-.014h.2a.834.834,0,0,1,.15.014,1.3,1.3,0,0,1,.182.042.834.834,0,0,1,.182.071.85.85,0,0,1,.468.845v1.692h1.616c.3,0,.453.136.453.408s-.15.423-.453.423h-1.616Z" transform="translate(-272.727 -59.064)" fill="#ff4d7d"/>
    <path id="Path_2108" data-name="Path 2108" d="M522.846,115.381a.847.847,0,0,1,.482-.846.833.833,0,0,1,.182-.071.963.963,0,0,1,.167-.042.755.755,0,0,1,.136-.014h.09q1.087,0,1.088.972v4.635a1.855,1.855,0,0,0,.257,1.028,1.243,1.243,0,0,0,1.117.522,1.869,1.869,0,0,0,1.194-.437,2.641,2.641,0,0,0,.739-.987v-4.762a.85.85,0,0,1,.468-.846,1.483,1.483,0,0,1,.182-.071,1.441,1.441,0,0,1,.182-.042.606.606,0,0,1,.136-.014h.09q1.073,0,1.074.972v6.256a.85.85,0,0,1-.468.845,1.483,1.483,0,0,1-.182.071,1.3,1.3,0,0,1-.182.042.618.618,0,0,1-.136.014h-.09a1.688,1.688,0,0,1-.3-.028,1.22,1.22,0,0,1-.347-.127.744.744,0,0,1-.424-.7v-.394a2.633,2.633,0,0,1-.317.367,2.485,2.485,0,0,1-.5.408,3.048,3.048,0,0,1-1.721.479,3.768,3.768,0,0,1-1.013-.127,2.5,2.5,0,0,1-.936-.45,2.164,2.164,0,0,1-.7-.9,3.661,3.661,0,0,1-.271-1.479Z" transform="translate(-283.071 -61.942)" fill="#ff4d7d"/>
    <path id="Path_2109" data-name="Path 2109" d="M550.007,121.637a.848.848,0,0,1-.47.845,1.349,1.349,0,0,1-.18.071,1.3,1.3,0,0,1-.182.042.619.619,0,0,1-.136.014h-.182a.819.819,0,0,1-.15-.014,1.3,1.3,0,0,1-.182-.042,1.486,1.486,0,0,1-.182-.071.838.838,0,0,1-.468-.831v-6.269a.85.85,0,0,1,.468-.846,1.486,1.486,0,0,1,.182-.071,1.442,1.442,0,0,1,.182-.042.594.594,0,0,1,.136-.014h.09q1.073,0,1.073.972v.789a2.35,2.35,0,0,1,2.234-1.761q.953,0,.952.859a.767.767,0,0,1-.438.733,1.873,1.873,0,0,1-.393.112l-.332.043a2.468,2.468,0,0,0-1.556.592,1.327,1.327,0,0,0-.317.408l-.15.352Z" transform="translate(-296.623 -61.942)" fill="#ff4d7d"/>
    <path id="Path_2110" data-name="Path 2110" d="M567.6,118.9a7.3,7.3,0,0,0,.075.944,3.825,3.825,0,0,0,.227.916,1.6,1.6,0,0,0,2.6.507,1.329,1.329,0,0,0,.242-.394l.1-.339a1.977,1.977,0,0,1,.288-.69,1.045,1.045,0,0,1,.831-.3q1.117,0,1.118.817a1.391,1.391,0,0,1-.167.607,2.181,2.181,0,0,1-.574.747,3.462,3.462,0,0,1-1.132.62,5.442,5.442,0,0,1-1.783.267c-.24,0-.473-.009-.693-.028a4.282,4.282,0,0,1-.816-.155,3.085,3.085,0,0,1-1.541-.846,3.833,3.833,0,0,1-.86-1.593c-.061-.253-.11-.516-.15-.789-.02-.225-.031-.45-.031-.676a4.217,4.217,0,0,1,1.013-3.015,3.925,3.925,0,0,1,2.991-1.1,4.369,4.369,0,0,1,2.144.493,3.188,3.188,0,0,1,1.178,1.1,4.689,4.689,0,0,1,.575,1.62l.015.268a.87.87,0,0,1-.558.873,1.919,1.919,0,0,1-.468.127,2.022,2.022,0,0,0-.227.015Zm2.915-.846c.312,0,.468-.14.468-.423a4.461,4.461,0,0,0-.119-1.014,1.491,1.491,0,0,0-1.526-1.339,1.425,1.425,0,0,0-1.42.888,4.213,4.213,0,0,0-.243.9c-.029.244-.055.573-.075.986Z" transform="translate(-306.072 -61.942)" fill="#ff4d7d"/>
    <path id="Path_2111" data-name="Path 2111" d="M179,30.825q-.547,1.055-1.178,2.064-.5.8-1.051,1.517l-.378.547-.631.716a1.13,1.13,0,0,1-1.935-.842,1.36,1.36,0,0,1,.253-.759,33.344,33.344,0,0,0,3.07-7.537,49.323,49.323,0,0,0,1.724-8.086H176.1a2.082,2.082,0,0,1-.421-.043,1.31,1.31,0,0,1-.462-.168,1.132,1.132,0,0,1,0-1.938,1.013,1.013,0,0,1,.462-.168,1.823,1.823,0,0,1,.421-.042H179V10.273a5.362,5.362,0,0,1,.337-2.232,2.424,2.424,0,0,1,2.355-1.1,2.4,2.4,0,0,1,2.356,1.138,5.243,5.243,0,0,1,.335,2.19v5.811h1.935a2.224,2.224,0,0,1,.421.042,2.38,2.38,0,0,1,.463.126,1.055,1.055,0,0,1,.546,1.011,1.017,1.017,0,0,1-.546.969,1.321,1.321,0,0,1-.463.168,2.084,2.084,0,0,1-.421.043h-1.935a29.941,29.941,0,0,0,3.576,9.812l.252.547a.743.743,0,0,1,.042.3q0,1.18-1.135,1.179a1.268,1.268,0,0,1-.967-.464,18.64,18.64,0,0,1-1.767-2.442V43.123a5.387,5.387,0,0,1-.335,2.232,2.442,2.442,0,0,1-2.4,1.137,2.355,2.355,0,0,1-2.313-1.137A5.36,5.36,0,0,1,179,43.123Zm15.056-21.1a2.634,2.634,0,0,1,.042-.506,3.306,3.306,0,0,1,.295-1.011,2.314,2.314,0,0,1,2.27-1.136,2.426,2.426,0,0,1,2.355,1.179,3.87,3.87,0,0,1,.295,1.053,2.4,2.4,0,0,1,.042.462V26.192q-.042,1.391-.126,2.528a29.4,29.4,0,0,1-.673,4.885,19.594,19.594,0,0,1-1.683,4.675,17.623,17.623,0,0,1-3.238,4.295,20.178,20.178,0,0,1-3.491,2.7,6.251,6.251,0,0,1-2.186,1.011q-1.179,0-1.178-1.136a1.607,1.607,0,0,1,.673-1.138,17.312,17.312,0,0,0,3.449-3.875,16.213,16.213,0,0,0,1.935-3.958,23.923,23.923,0,0,0,.841-3.706l.252-2.99a33.8,33.8,0,0,1-3.2,4.253,2.462,2.462,0,0,1-1.809,1.011,2.145,2.145,0,0,1-1.682-.842,2.742,2.742,0,0,1-.715-1.811A2.488,2.488,0,0,1,188,30.024l.841-.547q.841-.5,1.6-1.053,1.051-.673,1.893-1.305,1.01-.759,1.724-1.39V21.012a2.952,2.952,0,0,1-2.524,1.558q-1.557,0-2.523-3.664a39.087,39.087,0,0,0-1.429-4.169,2.421,2.421,0,0,1-.211-.927,1.2,1.2,0,0,1,.421-.926,1.358,1.358,0,0,1,.757-.253,2.39,2.39,0,0,1,1.177.632,14.9,14.9,0,0,1,1.64,1.517,18.334,18.334,0,0,1,2.692,3.284Zm12.617,16.255a56.587,56.587,0,0,1,6.434,3.5,2.536,2.536,0,0,1,1.22,1.938,2.618,2.618,0,0,1-.842,1.894,2.692,2.692,0,0,1-1.934.885q-.842,0-1.977-1.39-1.178-1.432-2.9-3.243V42.491q0,1.052,1.682,1.053a.783.783,0,0,0,.421-.085,1.08,1.08,0,0,0,.294-.547A19.229,19.229,0,0,0,209.534,39a271.471,271.471,0,0,0,.084-.758,2.4,2.4,0,0,1,.252-.716,2.114,2.114,0,0,1,1.893-.758q2.355,0,2.356,1.938a13.053,13.053,0,0,1-.883,4.843q-.969,2.357-4.206,2.358H205.16q-3.7,0-3.7-3.2V9.726a2.634,2.634,0,0,1,.042-.506,3.368,3.368,0,0,1,.295-1.053,2.244,2.244,0,0,1,2.229-1.094,2.382,2.382,0,0,1,2.313,1.094,3.332,3.332,0,0,1,.295,1.011,3.146,3.146,0,0,1,.042.506V20.212a40.51,40.51,0,0,0,2.733-5.264l.126-.253a1.062,1.062,0,0,0,.127-.253,2.087,2.087,0,0,1,.378-.547,1.992,1.992,0,0,1,1.472-.547,2.84,2.84,0,0,1,1.808.673,2.094,2.094,0,0,1,.925,1.685,3.375,3.375,0,0,1-.883,1.811,18,18,0,0,1-2.061,2.149,28.428,28.428,0,0,1-2.271,1.768,3.747,3.747,0,0,1-1.473.715,1.032,1.032,0,0,1-.588-.168.812.812,0,0,1-.294-.253Z" transform="translate(-94.112 -3.76)" fill="#ff4d7d"/>
    <path id="Path_2112" data-name="Path 2112" d="M323.4,41.885q0,4.717-5.047,4.717H292.36a6.778,6.778,0,0,1-1.556-.168,4.08,4.08,0,0,1-1.64-.631,4.286,4.286,0,0,1-1.85-3.917V14.511q0-4.716,5.046-4.717h25.99a6.775,6.775,0,0,1,1.556.168,4.46,4.46,0,0,1,1.683.632,4.322,4.322,0,0,1,1.809,3.917ZM317.846,13.5a1.228,1.228,0,0,0-1.388-1.391H294.253a1.273,1.273,0,0,0-1.009.506,1.311,1.311,0,0,0-.379.885V42.855a1.228,1.228,0,0,0,1.388,1.39h22.206a1.408,1.408,0,0,0,1.009-.464,1.466,1.466,0,0,0,.378-.926Zm-15.14,7.412V18.175H296.65a2.178,2.178,0,0,1-.421-.042,1.3,1.3,0,0,1-.462-.168,1.132,1.132,0,0,1,0-1.938,1.011,1.011,0,0,1,.462-.168,2.178,2.178,0,0,1,.421-.042h6.056V15.48a1.563,1.563,0,0,1,.042-.379,1.906,1.906,0,0,1,.294-.927,2.383,2.383,0,0,1,2.313-1.094,2.41,2.41,0,0,1,2.313,1.136,2.771,2.771,0,0,1,.294.927,1.568,1.568,0,0,1,.042.379v.294h6.224a1.794,1.794,0,0,1,.421.042,1.375,1.375,0,0,1,.5.168,1.182,1.182,0,0,1,0,1.938,1.32,1.32,0,0,1-.462.168,1.8,1.8,0,0,1-.421.042H308v2.737h7.823a1.8,1.8,0,0,1,.421.043,1.345,1.345,0,0,1,.5.168,1.035,1.035,0,0,1,.5.969.943.943,0,0,1-.5.927,1.31,1.31,0,0,1-.462.168,1.8,1.8,0,0,1-.421.042H294.926a2.181,2.181,0,0,1-.421-.042,1.31,1.31,0,0,1-.462-.168,1.132,1.132,0,0,1,0-1.938,1.556,1.556,0,0,1,.462-.126,1.8,1.8,0,0,1,.421-.043Zm-.042,15.372a27.063,27.063,0,0,1-2.818,2.527,23.054,23.054,0,0,1-2.481,1.726,15.676,15.676,0,0,1-1.85,1.011,3.3,3.3,0,0,1-.883.337q-1.136,0-1.136-1.179a1.43,1.43,0,0,1,.757-1.179,17.191,17.191,0,0,0,5.636-6.36h-.631a5.885,5.885,0,0,1-.715-.041,4.035,4.035,0,0,1-1.388-.379,2.713,2.713,0,0,1-1.556-2.78V28.03q0-3.2,3.7-3.2h12.154a4.291,4.291,0,0,1,2.565.673,2.879,2.879,0,0,1,1.135,2.528v1.937q0,3.2-3.7,3.2h-1.514l.042.085a.123.123,0,0,1,.042.085.533.533,0,0,0,.127.21,3.443,3.443,0,0,0,.294.547,13.79,13.79,0,0,0,1.009,1.474q.5-.507,1.556-1.77l.631-.632a1.4,1.4,0,0,1,.884-.294,1.805,1.805,0,0,1,2.061,2.021,1.57,1.57,0,0,1-.5,1.136,15.5,15.5,0,0,1-2.692,1.517l.463.421a5.026,5.026,0,0,0,.631.462,15.312,15.312,0,0,0,1.935,1.306,1.188,1.188,0,0,1,.756,1.1A1.041,1.041,0,0,1,316,42.012a3.816,3.816,0,0,1-1.009-.338,14.17,14.17,0,0,1-2.018-1.094,18.622,18.622,0,0,1-2.482-1.728A15.69,15.69,0,0,1,308,36.41v4.464a1.579,1.579,0,0,1-.042.38,2.763,2.763,0,0,1-.294.926,2.524,2.524,0,0,1-2.4,1.1A2.315,2.315,0,0,1,303,42.138a2.721,2.721,0,0,1-.294-.884,2.152,2.152,0,0,1-.042-.421Zm7.275-8.044a.93.93,0,0,0-1.051-1.053h-6.981a.93.93,0,0,0-1.052,1.053v1.516a.93.93,0,0,0,1.052,1.053h6.981a.93.93,0,0,0,1.051-1.053Z" transform="translate(-155.553 -5.303)" fill="#ff4d7d"/>
    <path id="Path_2113" data-name="Path 2113" d="M405.081,15.117a6.74,6.74,0,0,1,1.177.085,3.681,3.681,0,0,1,1.262.421,3.337,3.337,0,0,1,1.346,3.074,34.987,34.987,0,0,1-3.448,15.456q1.471.675,2.775,1.39l1.345.8q1.681,1.055,1.682,2.275a3.19,3.19,0,0,1-.8,2.064,2.665,2.665,0,0,1-2.1,1.053,3.2,3.2,0,0,1-2.1-.927l-1.851-1.6q-.5-.42-1.346-1.053a34.995,34.995,0,0,1-2.9,3.5q-1.388,1.389-2.775,2.569-2.65,2.148-3.491,2.149-1.136,0-1.135-1.179a1.2,1.2,0,0,1,.462-.97q1.01-.884,1.514-1.39.8-.8,1.472-1.6a29.661,29.661,0,0,0,3.364-5.35q-2.439-1.346-4.5-2.273-2.187-1.011-2.187-2.78a12.655,12.655,0,0,1,.588-2.484q.378-1.3.8-3.243.336-1.557.631-3.5.252-1.39.462-2.822l.168-1.347H394.02a2.114,2.114,0,0,1-.421-.042,1.313,1.313,0,0,1-.462-.168,1.133,1.133,0,0,1,0-1.938,1.553,1.553,0,0,1,.462-.126,1.8,1.8,0,0,1,.421-.042h1.724a2.518,2.518,0,0,0,.042-.547l.5-4.928a8.542,8.542,0,0,1,.126-1.011A2.3,2.3,0,0,1,397.68,7.2a5.092,5.092,0,0,1,.756-.21,3.683,3.683,0,0,1,.589-.042l.715.042a3.237,3.237,0,0,0,.5.127,3.137,3.137,0,0,1,.547.211,2.19,2.19,0,0,1,1.429,2.147c0,.224-.028.59-.084,1.094l-.714,4.549Zm-4.037,2.317A.709.709,0,0,1,401,17.6a.485.485,0,0,1-.042.21L400.5,20.3q-.294,1.6-.631,2.949-.757,3.369-1.808,6.7a4.245,4.245,0,0,0-.21.969.59.59,0,0,0,.084.337.866.866,0,0,0,.42.338l.5.168a8.215,8.215,0,0,0,.841.253l1.3.379a40.394,40.394,0,0,0,2.481-13.9.992.992,0,0,0-.421-.926,1.485,1.485,0,0,0-.378-.126Zm17.074,3.032a10.737,10.737,0,0,1,.042-1.1,3.63,3.63,0,0,1,.337-1.179,2.567,2.567,0,0,1,2.524-1.221,2.333,2.333,0,0,1,.462.042l.337.041a36.642,36.642,0,0,0,1.724-3.579,6.648,6.648,0,0,0,.547-1.853.642.642,0,0,0-.337-.632l-.336-.083H411.137a2.075,2.075,0,0,1-.421-.043,1.294,1.294,0,0,1-.462-.168,1.014,1.014,0,0,1-.547-.969,1.017,1.017,0,0,1,.547-.969,1,1,0,0,1,.462-.168,2.178,2.178,0,0,1,.421-.043H428.8a3.643,3.643,0,0,1,1.64.338,2.228,2.228,0,0,1,.883.715l.168.421a1.686,1.686,0,0,1,.126.338,1.276,1.276,0,0,1,.042.294v.126q0,1.179-2.65,4.253a52.565,52.565,0,0,1-5.173,5.139v4.8h6.519a2.183,2.183,0,0,1,.42.043,1.327,1.327,0,0,1,.463.168,1.016,1.016,0,0,1,.547.969.941.941,0,0,1-.5.926,1.326,1.326,0,0,1-.5.168,1.719,1.719,0,0,1-.42.042h-6.519V41.945q0,4.042-4.373,4.043H412.9a2.168,2.168,0,0,1-.42-.042,1.342,1.342,0,0,1-.463-.168,1.133,1.133,0,0,1,0-1.938,1.521,1.521,0,0,1,.463-.126,1.714,1.714,0,0,1,.42-.043h4.037a1.042,1.042,0,0,0,1.178-1.179v-15.2h-7.78a2.067,2.067,0,0,1-.421-.042,2.213,2.213,0,0,1-.463-.126.9.9,0,0,1-.378-.338,1.116,1.116,0,0,1-.168-.631,1.169,1.169,0,0,1,1.01-1.138,1.789,1.789,0,0,1,.421-.043h7.78Z" transform="translate(-212.551 -3.761)" fill="#ff4d7d"/>
    <path id="Path_2114" data-name="Path 2114" d="M503.731,27.407a4.07,4.07,0,0,1,.967-2.864,4.443,4.443,0,0,1,3.406-1.179h29.65a2.186,2.186,0,0,1,.42.043,1.306,1.306,0,0,1,.462.168,1.019,1.019,0,0,1,.547.969,1.052,1.052,0,0,1-.547,1.011,2.651,2.651,0,0,1-.882.168h-27.5a1.079,1.079,0,0,0-1.22,1.221v4.549l-.041.464h30.027a2.209,2.209,0,0,1,.42.041,1.323,1.323,0,0,1,.464.17,1.016,1.016,0,0,1,.546.969,1.054,1.054,0,0,1-.546,1.011,2.226,2.226,0,0,1-.464.126,2.071,2.071,0,0,1-.42.042H527.871a13.592,13.592,0,0,0,2.145,4.211,15.684,15.684,0,0,0,1.977-1.474q.378-.293.882-.758l1.052-1.011.547-.421a2.6,2.6,0,0,1,1.178-.252q2.563,0,2.565,2.273,0,1.1-1.851,2.021l-.547.253a6.945,6.945,0,0,1-.925.379,29.432,29.432,0,0,1-2.818,1.011,17.784,17.784,0,0,0,3.449,1.979,18.1,18.1,0,0,0,1.808.674q.632.252,2.145.717a1.1,1.1,0,0,1,.842,1.094q0,1.18-1.135,1.179a8.907,8.907,0,0,1-1.009-.126q-1.01-.169-2.187-.464-1.512-.38-2.985-.884a24.824,24.824,0,0,1-3.407-1.391,15.745,15.745,0,0,1-3.743-2.484,13.912,13.912,0,0,1-2.4-2.738,14.364,14.364,0,0,1-1.3-2.316,6.79,6.79,0,0,1-.336-.885,1.631,1.631,0,0,1-.128-.337l-.083-.253h-3.2v6.95l2.355-.21,3.617-.421a1.042,1.042,0,0,1,1.178,1.179.929.929,0,0,1-.547.926,19.962,19.962,0,0,1-2.776.843q-10.723,2.78-13.709,2.779a1.84,1.84,0,0,1-1.808-1.011,2.959,2.959,0,0,1-.253-.758,1.223,1.223,0,0,1-.042-.294v-.21q0-1.9,1.64-2.106a8.858,8.858,0,0,1,.926-.083l3.995-.17V34.314h-4.247q-.169,1.223-.378,2.19a14.922,14.922,0,0,1-.673,2.317,18.067,18.067,0,0,1-2.818,5.054l-1.22,1.39a2.579,2.579,0,0,1-1.346.926,1.04,1.04,0,0,1-1.176-1.179,1.777,1.777,0,0,1,.126-.421c.056-.168.154-.408.294-.715l.5-1.138a25.706,25.706,0,0,0,1.01-3.411q.293-1.557.462-3.326.169-1.391.21-3.075Zm19.262-17.73v-.3a1.836,1.836,0,0,1,.041-.421,3.3,3.3,0,0,1,.294-.969,2.452,2.452,0,0,1,2.355-1.136A2.409,2.409,0,0,1,528,7.992a3.3,3.3,0,0,1,.294.969,1.831,1.831,0,0,1,.042.421v.3h5.677q3.7,0,3.7,3.2v5.686a2.874,2.874,0,0,1-1.135,2.526,4.284,4.284,0,0,1-2.566.675h-26.2q-3.744,0-3.743-3.2V12.878a2.838,2.838,0,0,1,1.177-2.528,4.294,4.294,0,0,1,2.566-.673h5.8V9.34a1.811,1.811,0,0,1,.041-.421,3.263,3.263,0,0,1,.3-.969,2.38,2.38,0,0,1,2.312-1.094,2.3,2.3,0,0,1,2.23,1.011,2.237,2.237,0,0,1,.252.926,2.309,2.309,0,0,1,.043.464v.421Zm-9.379,4.885v-2.57h-3.239q-1.094,0-1.093,1.138v1.432Zm-4.332,2.273v1.474q0,1.136,1.093,1.136h3.239V16.836Zm2.355,13.056a1.75,1.75,0,0,1-.421-.042,1,1,0,0,1-.463-.168.929.929,0,0,1-.547-.927,1.053,1.053,0,0,1,.547-1.011,2.349,2.349,0,0,1,.463-.126,2.21,2.21,0,0,1,.421-.042h22.037a2.224,2.224,0,0,1,.42.042,2.362,2.362,0,0,1,.462.126.9.9,0,0,1,.379.338,1.125,1.125,0,0,1,.168.632,1.053,1.053,0,0,1-.547,1.011,2.184,2.184,0,0,1-.462.126,2.117,2.117,0,0,1-.42.042Zm11.355-17.9h-4.206v2.57h4.206Zm-4.206,7.454h4.206V16.836h-4.206Zm13.794-4.884V13.131a1,1,0,0,0-1.135-1.138h-3.112v2.57Zm-4.248,2.273v2.611h3.112a1,1,0,0,0,1.135-1.136V16.836Z" transform="translate(-271.311 -3.712)" fill="#ff4d7d"/>
  </g>
</svg>
