<svg id="friends-chicken" xmlns="http://www.w3.org/2000/svg" xmlns:xlink="http://www.w3.org/1999/xlink" width="324.838" height="184.041" viewBox="0 0 324.838 184.041">
  <defs>
    <clipPath id="clip-path">
      <rect id="Rectangle_490" data-name="Rectangle 490" width="324.838" height="184.041" fill="none"/>
    </clipPath>
  </defs>
  <g id="Group_653" data-name="Group 653" clip-path="url(#clip-path)">
    <path id="Path_2992" data-name="Path 2992" d="M411.907,237.931l0,0,0,0,0,0Z" transform="translate(-338.478 -92.707)" fill="#fff"/>
    <path id="Path_2993" data-name="Path 2993" d="M300.775,222.486l0-.005,0,0Z" transform="translate(-159.512 -86.687)" fill="#fff"/>
    <path id="Path_2994" data-name="Path 2994" d="M344.213,237.2l.043-.013h0Z" transform="translate(-229.511 -92.418)" fill="#fff"/>
    <path id="Path_2995" data-name="Path 2995" d="M475.113,145.345h0Z" transform="translate(-440.26 -56.633)" fill="#fff"/>
    <path id="Path_2996" data-name="Path 2996" d="M311.634,213.118l-.005,0,0,0Z" transform="translate(-176.995 -83.037)" fill="#fff"/>
    <path id="Path_2997" data-name="Path 2997" d="M496.786,149.391l0,0h0Z" transform="translate(-475.165 -58.21)" fill="#fff"/>
    <path id="Path_2998" data-name="Path 2998" d="M474.105,159.318l0,0,0,0Z" transform="translate(-438.647 -62.078)" fill="#fff"/>
    <path id="Path_2999" data-name="Path 2999" d="M254.62,74.007h0a4.911,4.911,0,0,1,.326-1.728,4.964,4.964,0,0,1,.959-1.563,32.093,32.093,0,0,1,6.534-5.195l0,0a12.946,12.946,0,0,1,3.643-1.62,13.527,13.527,0,0,1,3.33-.456,4.909,4.909,0,0,1-1.455-3.492v-.013a5.036,5.036,0,0,1,1.318-3.373l.007-.008a4.932,4.932,0,0,1,3.638-1.6,5.039,5.039,0,0,1,1.331.179,40,40,0,0,1,13.007,6.706l0,0c.791.591,1.53,1.178,2.226,1.753,3.143-2.225,7.433-5.048,13.322-8.674a54.587,54.587,0,0,1,16.42-6.616,73.677,73.677,0,0,1,16.525-1.776,104.871,104.871,0,0,1,18.877,1.829c.27-1.683.554-3.517.85-5.527a68.661,68.661,0,0,1,4.155-16.019c2.67-6.525,6.2-11.008,10.036-13.906a23.171,23.171,0,0,1,5.914-3.256,16.989,16.989,0,0,1,.958-4.824l.007-.02v0a8.9,8.9,0,0,1,1.688-2.885l.01-.01a6.074,6.074,0,0,1,1.691-1.31A5.4,5.4,0,0,1,382.4,0h.018a2.312,2.312,0,0,1,.247.013,5.457,5.457,0,0,1,.918.112,7.681,7.681,0,0,1,3.153,1.467c.054-.028.1-.058.159-.085l.007,0a7.837,7.837,0,0,1,3.4-.853v0h.073a6.491,6.491,0,0,1,3.443.992,7.726,7.726,0,0,1,2.761,2.869c.053,0,.1-.007.154-.007h.022a6.737,6.737,0,0,1,2.581.486,5.5,5.5,0,0,1,1.491.91,5.382,5.382,0,0,1,1.212,1.473,8.9,8.9,0,0,1,1.113,4.387v.007c0,.273-.014.526-.033.768a8.973,8.973,0,0,1,.632,1.227l.007.015a6.451,6.451,0,0,1,.51,2.349h0c0,.064,0,.1,0,.1a5.21,5.21,0,0,1-.46,2.155,6.827,6.827,0,0,1-1.386,1.993l0,0a8.109,8.109,0,0,1-1.266,1.022c.224.243.445.5.659.765l0,0a24.166,24.166,0,0,1,2.776,4.579,3.97,3.97,0,0,1-.428,4.131h0a3.969,3.969,0,0,1-3.149,1.552,4.026,4.026,0,0,1-.723-.066l-.115-.021h0l-.917-.17c-.56-.1-1.3-.237-2.062-.374a18.24,18.24,0,0,1-.947,2.184l0,0a12.467,12.467,0,0,1-1.824,2.667l0,0a8.244,8.244,0,0,1-3,2.135l-.022.008c.439,1.874.8,3.79,1.08,5.728a112.73,112.73,0,0,1,1.03,15.907c0,3.689-.139,7.043-.305,9.763a22.571,22.571,0,0,1,.4,4.207V74.5a33.592,33.592,0,0,1-4.158,15.259h0a55.644,55.644,0,0,1-18.811,20.209c-1.137.743-2.313,1.439-3.508,2.108-.154.277-.3.555-.464.833v0a49.882,49.882,0,0,1-6.3,8.5h0a28.373,28.373,0,0,1-2.93,2.758q1.122,1.943,2.242,3.889a4.044,4.044,0,0,0,.514.385l.043.028-.038-.024c.15.1.348.211.573.329.75.023,1.556.046,2.339.067s1.546.041,2.19.054,1.173.022,1.463.022a5.764,5.764,0,0,1,1.951.327,5.056,5.056,0,0,1,1.479.829l.037.032c.09.039.178.076.273.123l.02.01.01.005a6.41,6.41,0,0,1,1.111.722,5.724,5.724,0,0,1,1.036,1.1c.063.09.114.181.17.273.079.038.165.08.253.129l.024.013.022.013c.033.02.176.1.339.215a4.23,4.23,0,0,1,.513.429l.01.01c.168.091.342.193.518.309l.032.021-.024-.016a8.043,8.043,0,0,1,2.284,2.326,4.734,4.734,0,0,1,.765,2.553v.006c0,.013,0,.062,0,.134h0a4.7,4.7,0,0,1-.5,2l-.013.026.01-.02a4.9,4.9,0,0,1-1.816,1.947l-.016.01a4.925,4.925,0,0,1-2.524.71h-.012c-.054,0-.093,0-.118,0l-.038,0v0a4.714,4.714,0,0,1-1.237-.21,6.072,6.072,0,0,1-1.014.084h-.009a11.94,11.94,0,0,1-1.313-.092h-.007c-.756-.087-1.661-.223-2.678-.378s-2.134-.328-3.282-.491h0c-1.136-.162-2.3-.312-3.381-.421s-2.051-.172-2.808-.172h-.078c-.273,0-.52.01-.717.024l-.122.011a16.455,16.455,0,0,1-3.448,2.38h0a13.345,13.345,0,0,1-2.13.875l-.011,0a8.632,8.632,0,0,1-1.982.369,4.386,4.386,0,0,1-1.271.292l-.108.023h-.3v0a4.462,4.462,0,0,1-2.533-.815,4.609,4.609,0,0,1-.968-.927,4.944,4.944,0,0,1-1.428,1.317l-.009,0-.007,0a4.929,4.929,0,0,1-2.524.71h-.011c-.057,0-.1,0-.121,0l-.037,0v0a4.726,4.726,0,0,1-1.235-.209,6.083,6.083,0,0,1-1.015.084h-.009a11.927,11.927,0,0,1-1.313-.092h-.007c-.756-.088-1.661-.223-2.677-.378s-2.134-.329-3.282-.491h0c-1.136-.162-2.3-.312-3.381-.421s-2.051-.171-2.807-.172h-.078c-.274,0-.521.01-.717.024l-.123.01a16.417,16.417,0,0,1-3.448,2.38l0,0a13.288,13.288,0,0,1-2.13.874l-.009,0a8.641,8.641,0,0,1-1.984.369,4.387,4.387,0,0,1-1.271.292l-.108.023h-.3v0a4.461,4.461,0,0,1-2.532-.815,4.555,4.555,0,0,1-1.589-1.989,4.627,4.627,0,0,1-.35-1.772v-.016a11.01,11.01,0,0,1,.624-2.824l0,0a6.114,6.114,0,0,1,1.546-2l.008-.007a10.316,10.316,0,0,1,1.906-1.285l-.009,0a2.436,2.436,0,0,0,.583-.411,1.057,1.057,0,0,0,.17-.228q-1.267-3.935-2.51-7.855c-.112-.048-.224-.094-.335-.148l-.011-.006-.014-.007a4.375,4.375,0,0,1-.475-.278c-.137-.093-.234-.172-.235-.171l-.029-.022-.027-.021a5.936,5.936,0,0,1-.521-.479l-.014-.015h0c-.244-.252-.475-.518-.734-.826l0,0c-.966-1.153-2.444-3.08-4.2-5.524a142.354,142.354,0,0,1-8.381-13.063,58.274,58.274,0,0,1-3.307-6.832,27.183,27.183,0,0,1-.959-2.875c-2.159-2-3.953-3.839-5.346-5.352-.556.309-1.132.635-1.721.957h0q-3.984,2.167-8.12,4.039a4.968,4.968,0,0,1-2.048.443h-.005a4.956,4.956,0,0,1-4.959-4.717l-.013-.109v-.234a15.728,15.728,0,0,1,.906-4.872c.048-.143.107-.277.162-.414-.692.308-1.377.626-2.052.96-1.894.938-3.746,1.844-5.523,2.787l-.012.007-.029.015,0,0-.007,0,0,0h0a4.943,4.943,0,0,1-1.89.529l-.1.024h-.311a4.977,4.977,0,0,1-4.7-6.492v0l.706-2.211a6.631,6.631,0,0,1,1.047-1.986l0-.007a10,10,0,0,1,2.58-2.3l.015-.01-.005,0c.369-.236.75-.455,1.138-.664-.6.02-1.146.041-1.616.06h-.018l-.071,0h-.121a4.978,4.978,0,0,1-4.973-4.976v-.043Zm88.659,64.372-.007-.01,0,0,0,.005m-.385-.538a6.239,6.239,0,0,1,1.445-1.814l.007-.007a10.3,10.3,0,0,1,1.906-1.285l-.009,0a2.449,2.449,0,0,0,.583-.412c.037-.039.062-.071.088-.1q-1.766-3.062-3.522-6.115a6.844,6.844,0,0,1-1.22-.267h0l-.033-.01-.026-.009a4.256,4.256,0,0,1-.509-.208c-.074-.036-.138-.071-.183-.1l-.07-.04-.03-.016-.034-.02a5.76,5.76,0,0,1-.582-.4l-.014-.011c-.279-.217-.544-.448-.844-.716l0,0c-1.118-1.006-2.851-2.709-4.926-4.883-.256-.268-.524-.555-.789-.837a48.473,48.473,0,0,1-4.293,4.039l0,0a27.981,27.981,0,0,1-4.007,2.815h0c-.136.076-.275.14-.413.212q.517,1.61,1.032,3.223c.063.045.131.091.2.138l.006,0c.151.1.349.211.574.329.75.023,1.555.046,2.338.067s1.546.04,2.19.054,1.174.022,1.463.022a5.772,5.772,0,0,1,1.951.327,5.064,5.064,0,0,1,1.48.829l.038.034c.09.038.178.076.271.122l.01,0,.021.011a6.441,6.441,0,0,1,1.111.722,5.711,5.711,0,0,1,1.037,1.1c.063.09.114.181.169.272.079.038.165.081.253.129l.018.01.027.016c.032.02.176.1.339.215a4.216,4.216,0,0,1,.514.431l.009.008c.168.092.342.193.518.309l.009.006a8,8,0,0,1,1.9,1.794M387.009,1.8h0ZM396.6,4.547l0,0,0,0Zm6.355,7.731-.021-.032v0ZM342.518,142.646v0l0,0Z" transform="translate(-235.551 0)" fill="#fff"/>
    <path id="Path_3000" data-name="Path 3000" d="M478.328,101.716v0l0,0Z" transform="translate(-445.441 -39.633)" fill="#fff"/>
    <path id="Path_3001" data-name="Path 3001" d="M468.812,90.339h0Z" transform="translate(-430.111 -35.2)" fill="#fff"/>
    <path id="Path_3002" data-name="Path 3002" d="M474.375,90.785h0Z" transform="translate(-439.071 -35.374)" fill="#fff"/>
    <path id="Path_3003" data-name="Path 3003" d="M498.867,115.854l0,0,0,.005Z" transform="translate(-478.508 -45.142)" fill="#fff"/>
    <path id="Path_3004" data-name="Path 3004" d="M369,215.984h0Z" transform="translate(-269.385 -84.157)" fill="#fff"/>
    <path id="Path_3005" data-name="Path 3005" d="M256.538,30.11h0v0Z" transform="translate(-88.28 -11.731)" fill="#fff"/>
    <path id="Path_3006" data-name="Path 3006" d="M366.58,217.344l-.005,0,0,0Z" transform="translate(-265.478 -84.684)" fill="#fff"/>
    <path id="Path_3007" data-name="Path 3007" d="M312.475,21.149h0Z" transform="translate(-178.356 -8.241)" fill="#fff"/>
    <path id="Path_3008" data-name="Path 3008" d="M101.633,273.893v0h0Z" transform="translate(161.175 -106.721)" fill="#fff"/>
    <path id="Path_3009" data-name="Path 3009" d="M54.186,299.352l.017-.013Z" transform="translate(237.563 -116.636)" fill="#fff"/>
    <path id="Path_3010" data-name="Path 3010" d="M110.784,297.189v0Z" transform="translate(146.435 -115.799)" fill="#fff"/>
    <path id="Path_3011" data-name="Path 3011" d="M51.647,295.6v-.007Z" transform="translate(241.666 -115.176)" fill="#fff"/>
    <path id="Path_3012" data-name="Path 3012" d="M222.648,278.969h0Z" transform="translate(-33.705 -108.699)" fill="#fff"/>
    <path id="Path_3013" data-name="Path 3013" d="M224.67,275.729l0,0v0Z" transform="translate(-36.963 -107.437)" fill="#fff"/>
    <path id="Path_3014" data-name="Path 3014" d="M225.857,267.263l0,0v0Z" transform="translate(-38.874 -104.138)" fill="#fff"/>
    <path id="Path_3015" data-name="Path 3015" d="M213.175,284.682l0,0,0,0Z" transform="translate(-18.452 -110.925)" fill="#fff"/>
    <path id="Path_3016" data-name="Path 3016" d="M201.953,286.308v0Z" transform="translate(-0.379 -111.559)" fill="#fff"/>
    <path id="Path_3017" data-name="Path 3017" d="M54.176,299.336l0,0,0,0Z" transform="translate(237.59 -116.633)" fill="#fff"/>
    <path id="Path_3018" data-name="Path 3018" d="M225.567,245.2v0Z" transform="translate(-38.404 -95.541)" fill="#fff"/>
    <path id="Path_3019" data-name="Path 3019" d="M223.621,240.274l0,.007-.009.01Z" transform="translate(-35.262 -93.622)" fill="#fff"/>
    <path id="Path_3020" data-name="Path 3020" d="M31.365,124.069l0,0h0Z" transform="translate(274.333 -48.343)" fill="#fff"/>
    <path id="Path_3021" data-name="Path 3021" d="M.45,201.912a8.4,8.4,0,0,1,1.874-2.847l.007-.007.005-.005a7.739,7.739,0,0,1-.6-2.913h0l0-.046v-.048c0-.213.009-.424.024-.632a5.349,5.349,0,0,1,.365-1.6A5.265,5.265,0,0,1,2.95,192.4a5.765,5.765,0,0,1,1.607-1.353l.006,0a7.556,7.556,0,0,1,2.353-.839h.007a11.851,11.851,0,0,1,2.191-.19h0a19.534,19.534,0,0,1,3.862.422h0a22.559,22.559,0,0,1,3.707,1.105,32.456,32.456,0,0,1,4.771-6.235,39.775,39.775,0,0,1,4.914-9.365c.119-.162.233-.311.347-.46l.043-.078c1.221-2.078,2.809-4.375,4.525-6.706,4.778-6.486,10.566-13.215,11.38-14.159a21.982,21.982,0,0,1,1.851-2.213l0,0a48.71,48.71,0,0,1,6.666-5.786,66.8,66.8,0,0,1,10.947-6.456,81.182,81.182,0,0,1,32.617-7.427v-.024l2.485-.013h.015c2.287,0,4.847.175,7.432.428,2.541.25,5.1.578,7.4.905.045-.107.083-.21.129-.319v0a53.012,53.012,0,0,1,2.752-5.447h0a38.251,38.251,0,0,1,3.274-4.886l0,0a8,8,0,0,1,2.044-1.824,5.748,5.748,0,0,1,2.813-.842v-.006s.048,0,.131,0h.036a2.506,2.506,0,0,1,.281.018,5.532,5.532,0,0,1,2.175.569l.006,0c.14.07.258.155.387.233a16.1,16.1,0,0,1,1.733-1.888l.005-.005a9.447,9.447,0,0,1,1.938-1.385l.006,0a6.374,6.374,0,0,1,2.883-.756v0h.084a5.624,5.624,0,0,1,3.042.907,6.779,6.779,0,0,1,2.034,2.1l.009.015a8.4,8.4,0,0,1,.861,1.88,13.159,13.159,0,0,1,.439,1.866l0,.013a25.307,25.307,0,0,1,.278,4.006v0a64.812,64.812,0,0,1-.5,7.372c-.306,2.59-.724,5.258-1.184,7.81s-.963,4.984-1.44,7.089c-.451,1.986-.875,3.665-1.238,4.93a86.408,86.408,0,0,1-5.5,18.72A71.834,71.834,0,0,1,118.7,192.227c-.272.326-.549.646-.827.965-.463.783-.9,1.5-1.294,2.143-1.18,2.26-2.36,4.392-3.433,6.253-1.1,1.9-2.081,3.522-2.85,4.724-.386.6-.718,1.1-1.009,1.51v0c-.144.2-.287.4-.448.593l-.006.008c-.037.045-.082.1-.134.159.059.029.116.057.187.087l0,0a11.913,11.913,0,0,1,1.494.735,7.757,7.757,0,0,1,1.34.99l.01.01a5.683,5.683,0,0,1,1.17,1.528,4.95,4.95,0,0,1,.437,1.209,4.836,4.836,0,0,1,.358,1.8v.007a4.634,4.634,0,0,1-.2,1.336,4.586,4.586,0,0,1-1.545,2.282,4.483,4.483,0,0,1-2.78.97l-.09,0h-.029v0a4.454,4.454,0,0,1-1.117-.175c-.112,0-.228.016-.338.016h0a9.619,9.619,0,0,1-2.217-.284h-.006a15.224,15.224,0,0,1-2.864-1.027c.013.013.02.023.035.038a2.465,2.465,0,0,0,.746.443l.068.028-.064-.026a11.877,11.877,0,0,1,1.495.735,7.8,7.8,0,0,1,1.339.989l.018.017-.008-.007a5.674,5.674,0,0,1,1.17,1.528,4.936,4.936,0,0,1,.437,1.208,4.854,4.854,0,0,1,.359,1.8v.007a4.656,4.656,0,0,1-.2,1.336,4.589,4.589,0,0,1-1.545,2.282,4.479,4.479,0,0,1-2.78.97l-.09,0h-.029v0a4.429,4.429,0,0,1-1.117-.175c-.112.006-.227.016-.338.016h0a9.613,9.613,0,0,1-2.217-.284h-.005a15.4,15.4,0,0,1-3.193-1.179h0a16.906,16.906,0,0,1-2.5-1.526h-.043a11.5,11.5,0,0,0-1.3.1c-.549.067-1.182.168-1.85.294h0c-2.043.381-4.467.992-6.556,1.533-1.049.27-2.017.523-2.852.727-.418.1-.805.192-1.169.268h0a11.068,11.068,0,0,1-1.116.184l-.029,0h.011a6.486,6.486,0,0,1-.649.032h-.117v-.005c-.089,0-.176-.012-.265-.018a4.709,4.709,0,0,1-1.586.39l-.126.025-.253,0h-.074a5.006,5.006,0,0,1-1.628-.307,5.067,5.067,0,0,1-1.454-.839l-.012-.01-.007-.006a4.857,4.857,0,0,1-1.192-1.481,4.688,4.688,0,0,1-.53-2.167v-.042h0a4.8,4.8,0,0,1,.525-2.136,8.2,8.2,0,0,1,2.277-2.759l.015-.012-.008.007c.093-.073.206-.136.305-.205l.012-.015.013-.017.013-.016a4.2,4.2,0,0,1,.657-.638l.016-.013.019-.014a4.216,4.216,0,0,1,.432-.289c.051-.111.1-.223.161-.333l.007-.012a5.831,5.831,0,0,1,1.013-1.293c.148-.143.3-.264.453-.385a4.7,4.7,0,0,1-.322-1.7v-.042h0a4.807,4.807,0,0,1,.525-2.136c.051-.1.114-.194.168-.292-1.151.06-2.3.1-3.444.1a70.454,70.454,0,0,1-15.645-1.8c-3.627.961-10.234,2.662-17.388,4.254.076.25.15.5.211.759v.005a8.624,8.624,0,0,1,.257,2v.018l0,.138v.041a7.493,7.493,0,0,1-1.187,3.726l-.007.012a11.125,11.125,0,0,1-3.845,3.636l-.008,0a11.065,11.065,0,0,1-5.506,1.537h0a9.224,9.224,0,0,1-5.941-2.123,3.952,3.952,0,0,1-5.079-.057l0,0A17.72,17.72,0,0,1,16.17,220.5c-.03-.051-.056-.106-.085-.157a6.919,6.919,0,0,1-2.07.665v0h0l-.026,0-.042.005a5.179,5.179,0,0,1-.708.049,5.421,5.421,0,0,1-1.877-.341l-.011,0a6.8,6.8,0,0,1-2.013-1.2L9.32,219.5a9.736,9.736,0,0,1-.922-.9c-.2-.042-.413-.089-.634-.148H7.758a9.864,9.864,0,0,1-2.05-.808,8.8,8.8,0,0,1-2.17-1.626A5.521,5.521,0,0,1,2.3,214.04a5.838,5.838,0,0,1-.341-1.989v-.013a7.308,7.308,0,0,1,.4-2.3,7.128,7.128,0,0,1-.782-.87,8.242,8.242,0,0,1-1.334-2.76A6.664,6.664,0,0,1,0,204.32a6.748,6.748,0,0,1,.448-2.4ZM78.775,215.6l-.017.012.01-.006.007-.006M2.6,199.637l0,0v0l0,0M102.69,229.216h0Zm-23.953-.154,0,0-.012.007Zm-1.332-11.8,0,0h0v0" transform="translate(185.405 -45.744)" fill="#fff"/>
    <path id="Path_3022" data-name="Path 3022" d="M42.488,279.42v0l0,0Z" transform="translate(256.415 -108.872)" fill="#fff"/>
    <path id="Path_3023" data-name="Path 3023" d="M52.632,288.462v0l0,0Z" transform="translate(240.085 -112.396)" fill="#fff"/>
    <path id="Path_3024" data-name="Path 3024" d="M45.016,283.158l0,0,0,0Z" transform="translate(252.34 -110.329)" fill="#fff"/>
    <path id="Path_3025" data-name="Path 3025" d="M5.939,118.886l-.006,0-.007,0Z" transform="translate(315.282 -46.32)" fill="#fff"/>
    <path id="Path_3026" data-name="Path 3026" d="M43.473,272.286v0l0,0Z" transform="translate(254.834 -106.093)" fill="#fff"/>
    <path id="Path_3027" data-name="Path 3027" d="M310.806,218.718h0Z" transform="translate(-175.669 -85.222)" fill="#9c2546"/>
    <path id="Path_3028" data-name="Path 3028" d="M259.273,73.916a29.776,29.776,0,0,1,6.045-4.78,10.711,10.711,0,0,1,5.891-1.693,18.492,18.492,0,0,1,5.489.984c.758.237,1.427.466,1.958.623l.028.008a7.365,7.365,0,0,0-.472-.671,21.125,21.125,0,0,0-2.377-2.469c-.939-.851-1.962-1.69-2.9-2.42h0a2.556,2.556,0,0,1-.735-.906,2.475,2.475,0,0,1-.244-1.075,2.584,2.584,0,0,1,.682-1.743,2.513,2.513,0,0,1,.8-.585,2.48,2.48,0,0,1,1.04-.228,2.641,2.641,0,0,1,.686.093,37.632,37.632,0,0,1,12.193,6.309c1.324.989,2.518,1.977,3.562,2.9.469-.344.959-.7,1.5-1.082,3.086-2.186,7.347-4.993,13.229-8.613,9.976-6.138,21.307-8.029,31.665-8.03A105.035,105.035,0,0,1,358.188,52.8c.393-2.33.814-4.993,1.265-8.046a66.276,66.276,0,0,1,4-15.45c2.54-6.2,5.807-10.281,9.251-12.886a20.66,20.66,0,0,1,6.867-3.433c-.008-.2-.025-.4-.025-.6a15.329,15.329,0,0,1,.847-5.147,6.5,6.5,0,0,1,1.216-2.111,3.624,3.624,0,0,1,1.013-.79,2.973,2.973,0,0,1,2.006-.265,5.224,5.224,0,0,1,2.346,1.136,5.014,5.014,0,0,1,.942,1.093,9.159,9.159,0,0,1,1.621-1.047,5.384,5.384,0,0,1,2.376-.605,4.056,4.056,0,0,1,2.172.621,5.291,5.291,0,0,1,1.924,1.986,4.438,4.438,0,0,1,.475,1.487A8.009,8.009,0,0,1,398.3,8.5a4.3,4.3,0,0,1,1.664.3,3.054,3.054,0,0,1,1.5,1.315,6.461,6.461,0,0,1,.8,3.2,7.918,7.918,0,0,1-.125,1.382c.1.131.2.279.308.441a6.953,6.953,0,0,1,.6,1.121,3.956,3.956,0,0,1,.333,1.516,2.79,2.79,0,0,1-.242,1.152,4.384,4.384,0,0,1-.894,1.279,6.591,6.591,0,0,1-2.055,1.348l-.046.018a11.651,11.651,0,0,1,.125,1.649c0,.237-.006.478-.02.721a11.5,11.5,0,0,1,1.205,1.3,21.825,21.825,0,0,1,2.487,4.119,1.526,1.526,0,0,1-1.657,2.16l-1.036-.192c-.94-.173-2.369-.433-3.625-.649l-.588-.1a17.688,17.688,0,0,1-1.407,3.837,10.056,10.056,0,0,1-1.462,2.149,5.81,5.81,0,0,1-2.109,1.517,5.193,5.193,0,0,1-1.935.381c-.063,0-.123-.011-.186-.013a61.092,61.092,0,0,1,1.672,7.985,110.42,110.42,0,0,1,1,15.556c0,3.757-.146,7.177-.319,9.9a20.157,20.157,0,0,1,.414,4.086,31.133,31.133,0,0,1-3.882,14.2,53.22,53.22,0,0,1-17.985,19.3c-1.277.836-2.606,1.622-3.972,2.366q-.366.69-.773,1.386a47.484,47.484,0,0,1-5.975,8.073A24.474,24.474,0,0,1,357,124.194a11.16,11.16,0,0,1-1.249.808q1.768,3.056,3.528,6.118a5.778,5.778,0,0,0,1.143.936,11.89,11.89,0,0,0,1.288.7c.892.027,1.909.057,2.886.084,1.578.043,3.07.078,3.72.078a3.319,3.319,0,0,1,1.128.184,2.624,2.624,0,0,1,.767.428,2.382,2.382,0,0,1,.249.234,4.217,4.217,0,0,1,.5.208,3.5,3.5,0,0,1,1.287,1.079,1.82,1.82,0,0,1,.313.794c.11.028.217.056.317.085a3.552,3.552,0,0,1,.357.122,2.107,2.107,0,0,1,.234.111,1.662,1.662,0,0,1,.377.283,2.371,2.371,0,0,1,.2.235,4.95,4.95,0,0,1,.681.371,5.594,5.594,0,0,1,1.594,1.624,2.312,2.312,0,0,1,.372,1.244,2.245,2.245,0,0,1-.245,1.015,2.444,2.444,0,0,1-.917.98,2.475,2.475,0,0,1-1.279.363,2.267,2.267,0,0,1-1.126-.3c-.025-.014-.048-.033-.072-.048a3.457,3.457,0,0,1-1.21.209,9.849,9.849,0,0,1-1.05-.076c-1.379-.159-3.558-.53-5.9-.861a51.622,51.622,0,0,0-6.58-.618,9.067,9.067,0,0,0-1.618.117,2.106,2.106,0,0,0-.385.106l-.029.013a13.906,13.906,0,0,1-3.4,2.447,10.89,10.89,0,0,1-1.738.716,5.825,5.825,0,0,1-1.675.284c-.065,0-.129-.009-.195-.013-.032.02-.059.048-.092.066a2,2,0,0,1-.953.243,2.075,2.075,0,0,1-1.9-1.294l0,0a2.183,2.183,0,0,1-.165-.84,16.232,16.232,0,0,1,.394-1.806,3.672,3.672,0,0,1,.946-1.2,7.9,7.9,0,0,1,1.46-.977,4.012,4.012,0,0,0,1.783-1.706,3.513,3.513,0,0,0,.36-1.268q-2.291-3.964-4.566-7.928l-.176-.309a3.931,3.931,0,0,1-.591.051,4.264,4.264,0,0,1-1.317-.212h0a1.749,1.749,0,0,1-.36-.164,3.385,3.385,0,0,1-.35-.243c-.2-.159-.432-.356-.712-.607-1.037-.933-2.752-2.614-4.792-4.753-.818-.858-1.689-1.793-2.582-2.775a47.586,47.586,0,0,1-5.821,5.779,25.531,25.531,0,0,1-3.649,2.57,10.937,10.937,0,0,1-1.7.787c-.178.062-.355.114-.534.161q.97,3.016,1.933,6.033a6.243,6.243,0,0,0,.991.775,11.9,11.9,0,0,0,1.288.7c.892.027,1.909.057,2.886.084,1.578.043,3.069.077,3.719.077a3.333,3.333,0,0,1,1.128.184,2.619,2.619,0,0,1,.767.429,2.281,2.281,0,0,1,.25.234,4.226,4.226,0,0,1,.5.208,3.506,3.506,0,0,1,1.287,1.079,1.821,1.821,0,0,1,.312.794c.11.027.217.056.317.084.116.035.225.069.358.122a2.176,2.176,0,0,1,.233.112,1.673,1.673,0,0,1,.377.283,2.453,2.453,0,0,1,.2.235,5.034,5.034,0,0,1,.682.372,5.585,5.585,0,0,1,1.593,1.624,2.307,2.307,0,0,1,.373,1.244,2.247,2.247,0,0,1-.245,1.015,2.444,2.444,0,0,1-.917.98,2.469,2.469,0,0,1-1.278.362,2.266,2.266,0,0,1-1.126-.3c-.026-.014-.048-.033-.073-.049a3.441,3.441,0,0,1-1.21.21,9.684,9.684,0,0,1-1.05-.077c-1.379-.159-3.559-.529-5.9-.861a51.517,51.517,0,0,0-6.581-.618,9.016,9.016,0,0,0-1.618.117,2.031,2.031,0,0,0-.385.106l-.029.013a13.916,13.916,0,0,1-3.4,2.448,10.883,10.883,0,0,1-1.738.715,5.8,5.8,0,0,1-1.675.284c-.065,0-.129-.01-.194-.013-.033.02-.059.048-.093.066a1.992,1.992,0,0,1-.953.242,2.076,2.076,0,0,1-1.9-1.293l0,0a2.177,2.177,0,0,1-.165-.839,16.121,16.121,0,0,1,.394-1.807,3.671,3.671,0,0,1,.946-1.2,7.924,7.924,0,0,1,1.46-.977,4.009,4.009,0,0,0,1.783-1.706,3.494,3.494,0,0,0,.347-1.18c-.021-.066-.05-.127-.068-.195h0c-1.025-3.175-2.031-6.351-3.044-9.523a4.232,4.232,0,0,1-1.193-.376,1.768,1.768,0,0,1-.334-.214,3.41,3.41,0,0,1-.312-.289c-.18-.186-.378-.413-.62-.7-.9-1.069-2.36-2.973-4.081-5.377a139.844,139.844,0,0,1-8.232-12.828A55.932,55.932,0,0,1,296.5,102.1a23.894,23.894,0,0,1-.962-2.941c-.029-.116-.051-.229-.077-.343l-.327-.3a91.571,91.571,0,0,1-6.671-6.8c-1.145.56-2.3,1.244-3.43,1.861q-3.906,2.124-7.96,3.959a2.536,2.536,0,0,1-3.577-2.313v-.042a13.33,13.33,0,0,1,.775-4.122,6.294,6.294,0,0,1,.993-1.827,8.873,8.873,0,0,1,2.1-1.892,24.957,24.957,0,0,1,2.181-1.267c.321-.172.674-.341,1.036-.528a8.047,8.047,0,0,0,1.413-.874,1.659,1.659,0,0,0,.237-.236c-.015-.02-.029-.038-.052-.065h0a.426.426,0,0,0-.2-.115,1.965,1.965,0,0,0-.607-.078,8.781,8.781,0,0,0-2.423.473c-.886.276-1.725.61-2.38.838a64.314,64.314,0,0,0-7.575,3.141c-1.887.934-3.759,1.85-5.584,2.82l-.017.009-.01.005h0a2.535,2.535,0,0,1-3.68-2.255,2.546,2.546,0,0,1,.121-.776l.707-2.211a4.18,4.18,0,0,1,.665-1.254,7.594,7.594,0,0,1,1.967-1.729,24.852,24.852,0,0,1,4.706-2.2c2.593-.956,5.4-1.759,7.517-2.462q.386-.128.739-.251c-.919-.118-2.017-.205-3.211-.259-1.373-.063-2.862-.087-4.33-.087-2.825,0-5.574.09-7.318.163h-.109a2.531,2.531,0,0,1-1.878-4.229m78.594,63.8h0l.011.008Z" transform="translate(-237.11 -1.559)" fill="#9c2546"/>
    <path id="Path_3029" data-name="Path 3029" d="M365.752,222.944h0v0Z" transform="translate(-264.151 -86.869)" fill="#9c2546"/>
    <path id="Path_3030" data-name="Path 3030" d="M359.079,228.884h0v0Z" transform="translate(-253.405 -89.183)" fill="#9c2546"/>
    <path id="Path_3031" data-name="Path 3031" d="M5.632,202.327a9.982,9.982,0,0,1,1.439-1.2,5.155,5.155,0,0,1-.75-1.066,5.263,5.263,0,0,1-.587-2.46c0-.151.005-.306.018-.464a2.921,2.921,0,0,1,.643-1.63,3.313,3.313,0,0,1,.935-.783,5.129,5.129,0,0,1,1.6-.562,9.452,9.452,0,0,1,1.74-.148,17.124,17.124,0,0,1,3.375.373,18.237,18.237,0,0,1,4.768,1.644q.233.125.453.258a30.95,30.95,0,0,1,5.843-8.071,37.989,37.989,0,0,1,4.79-9.274c.144-.2.289-.386.434-.574.032-.056.06-.114.093-.17,1.15-1.959,2.7-4.2,4.386-6.5,4.835-6.563,10.8-13.472,11.319-14.077a19,19,0,0,1,1.726-2.07,56.785,56.785,0,0,1,16.874-11.707,79.461,79.461,0,0,1,34.018-7.231h.056a114.463,114.463,0,0,1,14.608,1.325q.942.135,1.816.267.316-.962.787-2.059a50.607,50.607,0,0,1,2.623-5.189A35.917,35.917,0,0,1,121.7,126.4a5.563,5.563,0,0,1,1.42-1.282,3.3,3.3,0,0,1,1.7-.5,3.087,3.087,0,0,1,1.372.328,4.481,4.481,0,0,1,1.552,1.359c.1.14.2.282.287.424.223-.354.466-.723.724-1.095a16.394,16.394,0,0,1,2.3-2.719,7,7,0,0,1,1.436-1.034,3.9,3.9,0,0,1,1.814-.482,3.2,3.2,0,0,1,1.736.513,4.338,4.338,0,0,1,1.3,1.359,7.669,7.669,0,0,1,.963,2.858,22.979,22.979,0,0,1,.246,3.616A90.454,90.454,0,0,1,136.9,144.5c-.453,2.513-.948,4.911-1.418,6.981-.459,2.02-.891,3.719-1.241,4.927a83.978,83.978,0,0,1-5.363,18.314,69.406,69.406,0,0,1-10.5,17.5q-.463.555-.945,1.1c-.515.873-.993,1.665-1.422,2.358-1.177,2.257-2.357,4.39-3.427,6.245-1.082,1.876-2.049,3.467-2.791,4.627q-.558.872-.942,1.411c-.129.18-.24.331-.352.468-.057.069-.113.134-.184.209a1.845,1.845,0,0,1-.362.3,4.331,4.331,0,0,1-.972.446l-.067.15a3.814,3.814,0,0,0,.359,1.055,3.6,3.6,0,0,0,.77,1,4.911,4.911,0,0,0,1.462.9,6.9,6.9,0,0,1,2.11,1.26,3.222,3.222,0,0,1,.674.872,2.5,2.5,0,0,1,.258.811c.013.027.029.049.042.077a2.472,2.472,0,0,1,.222,1.006,2.217,2.217,0,0,1-.093.633,2.153,2.153,0,0,1-.722,1.07,2.024,2.024,0,0,1-2.141.244c-.015-.007-.028-.019-.044-.027-.068.01-.132.032-.2.039h0c-.148.015-.3.021-.448.021a7.185,7.185,0,0,1-1.657-.218,12.971,12.971,0,0,1-2.682-.994,14.531,14.531,0,0,1-2-1.2q-.744,1.664-1.491,3.327a3.787,3.787,0,0,0,.359,1.055,3.589,3.589,0,0,0,.77,1,4.916,4.916,0,0,0,1.462.9,6.925,6.925,0,0,1,2.111,1.26,3.234,3.234,0,0,1,.673.872,2.49,2.49,0,0,1,.258.811c.013.027.029.049.041.077a2.472,2.472,0,0,1,.222,1.007,2.175,2.175,0,0,1-.093.633,2.152,2.152,0,0,1-.722,1.071,2.043,2.043,0,0,1-1.265.443,2.019,2.019,0,0,1-.875-.2c-.016-.007-.029-.019-.044-.027-.068.01-.132.032-.2.039h-.007c-.146.014-.295.021-.446.021a7.19,7.19,0,0,1-1.656-.218,12.982,12.982,0,0,1-2.682-.994,14.313,14.313,0,0,1-2.629-1.675,3.159,3.159,0,0,0-.968-.1,21.322,21.322,0,0,0-3.631.435c-2.155.4-4.615,1.026-6.717,1.569-1.052.271-2.015.522-2.82.719-.4.1-.766.182-1.089.25a8.821,8.821,0,0,1-.875.146h0a4.018,4.018,0,0,1-.41.021,3.286,3.286,0,0,1-.877-.118,2.079,2.079,0,0,1-.212.156,2.317,2.317,0,0,1-1.234.349,2.552,2.552,0,0,1-1.632-.6,2.4,2.4,0,0,1-.594-.736,2.26,2.26,0,0,1-.255-1.04,2.366,2.366,0,0,1,.261-1.069,5.764,5.764,0,0,1,1.6-1.94,4.99,4.99,0,0,1,.559-.375,2.352,2.352,0,0,1,.175-.256,1.691,1.691,0,0,1,.281-.272,2.1,2.1,0,0,1,.341-.211,4.963,4.963,0,0,1,.51-.216c.048-.018.108-.038.159-.056a1.822,1.822,0,0,1,.233-.878,3.64,3.64,0,0,1,1.32-1.307c.128-.074.261-.144.4-.208a2.5,2.5,0,0,1,.584-.562,2.889,2.889,0,0,1,.7-.348,2.613,2.613,0,0,1-.678-.4,2.4,2.4,0,0,1-.594-.736,2.253,2.253,0,0,1-.255-1.04,2.36,2.36,0,0,1,.261-1.069,5.761,5.761,0,0,1,1.6-1.94,5.055,5.055,0,0,1,.56-.375,2.356,2.356,0,0,1,.175-.256,1.671,1.671,0,0,1,.281-.272,2.118,2.118,0,0,1,.341-.211,5.017,5.017,0,0,1,.51-.216c.048-.018.109-.038.159-.056a1.823,1.823,0,0,1,.233-.878c.055-.1.118-.178.179-.264a61.641,61.641,0,0,1-9.487.727,68.121,68.121,0,0,1-15.7-1.869c-3.8,1.013-11.8,3.086-20.141,4.882-.166.035-.336.081-.5.119.253.546.485,1.086.681,1.61a12.765,12.765,0,0,1,.463,1.483,6.243,6.243,0,0,1,.191,1.44l0,.115a5.053,5.053,0,0,1-.821,2.515,9.04,9.04,0,0,1-7.3,4.035,6.883,6.883,0,0,1-4.639-1.766,7.479,7.479,0,0,1-1.888-2.715c-.012.057-.025.121-.037.176-.112.54-.208,1-.274,1.332l-.1.519a1.526,1.526,0,0,1-2.49.859,15.327,15.327,0,0,1-3.3-3.771,9.854,9.854,0,0,1-1.147-2.875,8.41,8.41,0,0,1-.77.827,6.03,6.03,0,0,1-1.211.88,4.528,4.528,0,0,1-1.53.515h0a2.78,2.78,0,0,1-.375.026,2.989,2.989,0,0,1-1.033-.19,4.353,4.353,0,0,1-1.3-.786,8.166,8.166,0,0,1-1.21-1.312,8.283,8.283,0,0,1-1.3-.242,6.766,6.766,0,0,1-3.111-1.781,3.083,3.083,0,0,1-.687-1.1,3.4,3.4,0,0,1-.2-1.162,5.363,5.363,0,0,1,.461-2.044,9.7,9.7,0,0,1,.562-1.112,4.785,4.785,0,0,1-.529-.263,4.671,4.671,0,0,1-1.367-1.227,5.814,5.814,0,0,1-.933-1.948A4.252,4.252,0,0,1,4,205.879a4.311,4.311,0,0,1,.288-1.534,5.961,5.961,0,0,1,1.344-2.018M90.1,217.786c.078-.048.161-.1.237-.143l-.893.23.656-.087" transform="translate(183.846 -47.303)" fill="#9c2546"/>
    <path id="Path_3032" data-name="Path 3032" d="M261.12,41.6c.737,0,7.334,1.237,7.334,1.237q-2.25-4.688-4.723-5.944Z" transform="translate(-102.991 -14.375)" fill="#ebd059"/>
    <path id="Path_3033" data-name="Path 3033" d="M325.114,220.268c.737-.737,1.167-2.7-.676-2.7s-9.327-.245-9.327-.245l.483,2.15Z" transform="translate(-193.236 -84.678)" fill="#ebd059"/>
    <path id="Path_3034" data-name="Path 3034" d="M337.649,185.345c2.228,2.339,3.855,5.51,5.472,8.3q2.867,4.948,5.715,9.909c1.976,3.45-3.734,6.375-5.549,2.784-1.79-3.087-3.563-6.185-5.344-9.277a54.7,54.7,0,0,0-4.884-7.651c-2.7-2.878,1.868-6.923,4.59-4.066" transform="translate(-227.188 -71.839)" fill="#ebd059"/>
    <path id="Path_3035" data-name="Path 3035" d="M362.3,162.6c.768,5.442-9.737,19.492-13.942,20.085s-3.64-1.947-4.767-.45-2.455,2.394-3.986,1.895c-.952-.311-20.14-19.454-21.273-27.486S362.3,162.6,362.3,162.6" transform="translate(-231.79 -60.066)" fill="#fff"/>
    <path id="Path_3036" data-name="Path 3036" d="M319.273,213.782c3.23,3.755,14.255,5.026,14.715,5.486s1.29,3.091-.921,3.091-14.741-2.764-16.584-.922-4.4,3.049-5.785,3.049-2.937-1.267.212-2.957a5.207,5.207,0,0,0,2.809-5.989Z" transform="translate(-198.333 -83.299)" fill="#ebd059"/>
    <path id="Path_3037" data-name="Path 3037" d="M312.936,218.955a2.008,2.008,0,0,1,2.378.663c.191.272-.19.651-.461.461a2.505,2.505,0,0,0-.814-.443,4.759,4.759,0,0,0-.922-.018.359.359,0,0,1-.18-.664" transform="translate(-181.425 -85.244)" fill="#edb91e"/>
    <path id="Path_3038" data-name="Path 3038" d="M306.087,223.633l.027-.062a.648.648,0,0,1,.557-.32,3.361,3.361,0,0,1,2.939,1.675c.582.911-.923,1.793-1.449.847a2.293,2.293,0,0,0-1.182-1.068c-.474-.187-1.175-.417-.892-1.073" transform="translate(-171.685 -86.984)" fill="#edb91e"/>
    <path id="Path_3039" data-name="Path 3039" d="M349.6,228.384a.319.319,0,0,1,.223.538c-.16.2-.371.308-.489.554s-.075.533-.231.759a.509.509,0,0,1-.916-.12c-.283-.68.733-1.765,1.413-1.731" transform="translate(-237.562 -88.989)" fill="#edb91e"/>
    <path id="Path_3040" data-name="Path 3040" d="M317.416,222.247a.121.121,0,0,1,.122.209,1.121,1.121,0,0,0-.456.7.148.148,0,0,1-.218.089.152.152,0,0,1-.068-.167,1.2,1.2,0,0,1,.62-.827" transform="translate(-186.111 -86.591)" fill="#c49710"/>
    <path id="Path_3041" data-name="Path 3041" d="M321.012,221.373a1.235,1.235,0,0,1,.687-.282.069.069,0,0,1,.048.115c-.176.158-.41.248-.593.4-.15.127-.274.364-.477.389-.057.007-.092-.051-.1-.1-.028-.219.277-.416.433-.528" transform="translate(-192.594 -86.147)" fill="#c49710"/>
    <path id="Path_3042" data-name="Path 3042" d="M324.629,220.527a1.264,1.264,0,0,1,.73-.38c.109-.017.159.143.046.17a.982.982,0,0,0-.578.4c-.112.157-.135.411-.28.535a.094.094,0,0,1-.145-.019c-.144-.216.08-.544.226-.7" transform="translate(-198.602 -85.779)" fill="#c49710"/>
    <path id="Path_3043" data-name="Path 3043" d="M336.43,213.227a2.719,2.719,0,0,1,2.591-.715c.053.023.032.1-.015.116-.413.126-.864.079-1.288.2s-.781.41-1.2.513c-.061.015-.129-.056-.088-.114" transform="translate(-219.548 -82.766)" fill="#c49710"/>
    <path id="Path_3044" data-name="Path 3044" d="M338.482,209.178a3.921,3.921,0,0,1,2.546-.5.086.086,0,0,1,0,.173,7.236,7.236,0,0,0-1.338.148c-.39.085-.757.249-1.149.319a.077.077,0,0,1-.059-.14" transform="translate(-222.845 -81.302)" fill="#c49710"/>
    <path id="Path_3045" data-name="Path 3045" d="M341.654,204.5a3.482,3.482,0,0,1,2.721-.679c.095.016.058.143-.021.153a9.343,9.343,0,0,0-1.418.221c-.413.118-.781.347-1.192.46a.093.093,0,0,1-.09-.154" transform="translate(-228.107 -79.399)" fill="#c49710"/>
    <path id="Path_3046" data-name="Path 3046" d="M295.211,20.045c-7.614.945-18.386,6.569-22.015,31.131-4.133,27.976-5.813,23.879-5.813,23.879l35.089,9.274s3.655-30.291-4.139-45.446c0,0,12.169-.091,12.633-8.815.558-10.488-12.465-10.432-15.756-10.024" transform="translate(-149.344 -7.761)" fill="#fff"/>
    <path id="Path_3047" data-name="Path 3047" d="M364.568,88.049c-2.211.007-38.225-13.47-64.156,2.493s-20.076,15.937-20.076,15.937l1.206,12.478s22.68,29.738,54.516,28.8c34.489-1.014,58.082-35.56,45.814-51.273s-17.3-8.436-17.3-8.436" transform="translate(-231.077 -32.239)" fill="#fff"/>
    <path id="Path_3048" data-name="Path 3048" d="M471.8,108.893c-2.4-2.6-10.07-9.963-18.695-12.308a1.009,1.009,0,0,0-.889,1.768c2.961,2.308,6.787,5.683,6.685,7.645-.165,3.19-7.673-3.843-14.417.482A28.391,28.391,0,0,0,438.754,111a1.008,1.008,0,0,0,.789,1.682c4.724-.2,16.729-.521,18.22,1.133,1.861,2.065-15.971,4.338-17.439,8.936l-.706,2.21a1.007,1.007,0,0,0,1.408,1.21l.01,0c1.856-.985,3.741-1.907,5.623-2.839a65.862,65.862,0,0,1,7.755-3.216c1.718-.593,5.736-2.365,7.241-.7,1.779,1.97-1.681,3.341-3.046,4.072-1.817.973-3.834,2.057-4.545,4.135a11.79,11.79,0,0,0-.693,3.654,1.01,1.01,0,0,0,1.422.94q4-1.811,7.861-3.911c2.541-1.382,5.527-3.369,8.548-3.212,2.471.128,1.112-13.338.864-15.621a1,1,0,0,0-.261-.572" transform="translate(-415.457 -37.619)" fill="#fff"/>
    <path id="Path_3049" data-name="Path 3049" d="M276.87,22.025c-2.835-2.817-9.841-4.269-12.789-4.26s-2.122-11.989,1.439-11.23a3.757,3.757,0,0,1,2.959,3.477s3.365-4.126,6.012-2.476a3.3,3.3,0,0,1,1.365,4.418s4.385-2.071,5.5-.109a5.682,5.682,0,0,1,.351,4.207s1.827,1.99,1.27,3.221c-1.129,2.491-6.1,2.752-6.1,2.752" transform="translate(-118.328 -2.533)" fill="#e85b3f"/>
    <path id="Path_3050" data-name="Path 3050" d="M282.175,37.413c.865,1.84-.636,10.382-4.351,11.868s-6.74-3.48-5.949-5.878,6.741-7.023,7.322-7.025a17.007,17.007,0,0,1,2.979,1.035" transform="translate(-123.436 -14.175)" fill="#e85b3f"/>
    <path id="Path_3051" data-name="Path 3051" d="M277.71,32.888a2.57,2.57,0,0,1,.013-1.437,1.715,1.715,0,0,1,1.605-1.154,1.625,1.625,0,0,1,1.815,1.29,1.748,1.748,0,0,1-.07.855,2.934,2.934,0,0,1,.065.414,1.939,1.939,0,0,1-1.518,2.162,1.747,1.747,0,0,1-1.556-.5,1.632,1.632,0,0,1-.356-1.626l0,0" transform="translate(-125.771 -11.802)" fill="#9c2546"/>
    <path id="Path_3052" data-name="Path 3052" d="M280.713,30.287c-.029,0-.056.006-.084.008-.047,0-.093,0-.141.009l.225-.017" transform="translate(-127.071 -11.801)" fill="#a67c52"/>
    <path id="Path_3053" data-name="Path 3053" d="M380.059,224.494c.737-.737,1.167-2.7-.676-2.7s-9.327-.245-9.327-.245l.483,2.15Z" transform="translate(-281.717 -86.325)" fill="#ebd059"/>
    <path id="Path_3054" data-name="Path 3054" d="M393.842,186.172c1.683,2.758,2.6,6.2,3.592,9.271q1.754,5.444,3.489,10.894c1.2,3.79-5,5.441-6.013,1.547-1.1-3.4-2.173-6.8-3.259-10.2a54.783,54.783,0,0,0-3.155-8.511c-2.031-3.384,3.29-6.371,5.346-3" transform="translate(-313.081 -71.965)" fill="#ebd059"/>
    <path id="Path_3055" data-name="Path 3055" d="M407.328,166.341c0,5.5-12.364,17.941-16.611,17.941s-3.332-2.437-4.658-1.111-2.765,2.027-4.212,1.318c-.9-.44-17.225-22.076-17.225-30.187s42.706,12.039,42.706,12.039" transform="translate(-305.038 -59.373)" fill="#fff"/>
    <path id="Path_3056" data-name="Path 3056" d="M374.219,218.009c3.229,3.756,14.254,5.026,14.715,5.486s1.29,3.091-.921,3.091-14.741-2.764-16.584-.922-4.4,3.049-5.785,3.049-2.937-1.267.212-2.957a5.207,5.207,0,0,0,2.809-5.989Z" transform="translate(-286.815 -84.946)" fill="#ebd059"/>
    <path id="Path_3057" data-name="Path 3057" d="M367.881,223.181a2.007,2.007,0,0,1,2.378.663c.191.272-.19.651-.461.461a2.5,2.5,0,0,0-.814-.443,4.76,4.76,0,0,0-.922-.018.359.359,0,0,1-.18-.664" transform="translate(-269.906 -86.891)" fill="#edb91e"/>
    <path id="Path_3058" data-name="Path 3058" d="M361.033,227.859l.027-.062a.648.648,0,0,1,.557-.32,3.361,3.361,0,0,1,2.939,1.675c.582.911-.923,1.793-1.449.847a2.293,2.293,0,0,0-1.182-1.068c-.474-.187-1.175-.417-.892-1.073" transform="translate(-260.167 -88.631)" fill="#edb91e"/>
    <path id="Path_3059" data-name="Path 3059" d="M404.55,232.61a.32.32,0,0,1,.223.538c-.161.2-.371.308-.489.554s-.075.533-.231.759a.509.509,0,0,1-.915-.12c-.283-.681.733-1.765,1.412-1.731" transform="translate(-326.043 -90.635)" fill="#edb91e"/>
    <path id="Path_3060" data-name="Path 3060" d="M372.363,226.474a.121.121,0,0,1,.122.209,1.121,1.121,0,0,0-.456.7.149.149,0,0,1-.218.089.153.153,0,0,1-.068-.168,1.2,1.2,0,0,1,.62-.827" transform="translate(-274.594 -88.238)" fill="#c49710"/>
    <path id="Path_3061" data-name="Path 3061" d="M375.958,225.6a1.235,1.235,0,0,1,.687-.282.069.069,0,0,1,.048.115c-.176.158-.41.248-.593.4-.151.127-.274.364-.477.389-.057.007-.092-.051-.1-.1-.028-.219.277-.416.433-.528" transform="translate(-281.077 -87.794)" fill="#c49710"/>
    <path id="Path_3062" data-name="Path 3062" d="M379.575,224.754a1.262,1.262,0,0,1,.729-.38c.109-.017.159.143.047.17a.982.982,0,0,0-.578.4c-.112.157-.135.411-.28.535a.094.094,0,0,1-.145-.019c-.144-.216.08-.544.226-.7" transform="translate(-287.084 -87.426)" fill="#c49710"/>
    <path id="Path_3063" data-name="Path 3063" d="M391.376,217.453a2.719,2.719,0,0,1,2.591-.715c.053.023.032.1-.015.116-.413.126-.864.079-1.288.2s-.781.41-1.2.513c-.061.015-.129-.056-.088-.114" transform="translate(-308.03 -84.412)" fill="#c49710"/>
    <path id="Path_3064" data-name="Path 3064" d="M393.427,213.405a3.921,3.921,0,0,1,2.546-.5.086.086,0,0,1,0,.173,7.236,7.236,0,0,0-1.338.148c-.39.085-.757.249-1.149.319a.077.077,0,0,1-.059-.14" transform="translate(-311.326 -82.949)" fill="#c49710"/>
    <path id="Path_3065" data-name="Path 3065" d="M396.6,208.721a3.482,3.482,0,0,1,2.721-.679c.095.016.058.143-.021.153a9.267,9.267,0,0,0-1.418.221c-.413.118-.781.347-1.192.46a.093.093,0,0,1-.09-.154" transform="translate(-316.589 -81.046)" fill="#c49710"/>
    <path id="Path_3066" data-name="Path 3066" d="M315.351,115.315c.131-.962,2.248-2.38,5.011-3.843,4.254-3.585,23.335-14.922,37.658-16.406,21.989-2.277,28.431,9.048,28.431,9.048,7.408,16.9-17.007,33.536-36.539,31.462h0c-5.159,1.126-24.528-.278-23.924-4.717.344-2.53,2.728-4.536,4.635-5.788-.463-.394-.86-.781-1.285-1.153-4.6.222-11.454.047-11.036-3.029.267-1.962,1.8-3.49,3.457-4.6-.179-.224-.338-.438-.491-.64-2.993.753-6.124,1.193-5.916-.337" transform="translate(-255.439 -36.924)" fill="#f2f2f2"/>
    <path id="Path_3067" data-name="Path 3067" d="M319.645,117.093a.426.426,0,0,1,.512.066c.162.17.121.3.066.511-.084.319-.543.449-.259.9.3.479.97.336,1.371.159,1.182-.521,1.655-1.994,3-2.234a.183.183,0,0,1,.176.3c-1.124,1.079-2.262,3.151-4.075,2.925a1.462,1.462,0,0,1-.79-2.634" transform="translate(-194.447 -45.392)" fill="#fff"/>
    <path id="Path_3068" data-name="Path 3068" d="M328.555,114.029c.566.011,1.052.35,1.638.3a2.149,2.149,0,0,0,1.667-1.063.213.213,0,0,1,.387.163,2.357,2.357,0,0,1-1.8,1.623c-.693.161-1.9.116-2.106-.751a.218.218,0,0,1,.208-.273" transform="translate(-207.819 -44.095)" fill="#fff"/>
    <path id="Path_3069" data-name="Path 3069" d="M329.88,106.636a2.192,2.192,0,0,1,2.382.314c.126.107-.035.283-.168.217a2.136,2.136,0,0,0-2.01.15c-.519.329-.613.959-1.08,1.281a.275.275,0,0,1-.372-.1c-.431-.774.635-1.6,1.249-1.865" transform="translate(-207.989 -41.467)" fill="#fff"/>
    <path id="Path_3070" data-name="Path 3070" d="M326.308,133.443c1.331.589,2.455,1.288,3.983.9,1.551-.394,2.22-1.583,2.993-2.836a.152.152,0,0,1,.281.076c-.036,3.475-5.8,5.343-7.648,2.25-.159-.266.146-.5.39-.39" transform="translate(-207.625 -51.213)" fill="#fff"/>
    <path id="Path_3071" data-name="Path 3071" d="M337.274,126.97a.239.239,0,0,1,.358.205,1.551,1.551,0,0,0,.394,1.454c.63.464,1.413-.22,1.517-.853.027-.167.254-.1.271.037a1.5,1.5,0,0,1-2.014,1.505c-.877-.347-1.431-1.732-.526-2.348" transform="translate(-220.559 -49.46)" fill="#fff"/>
    <path id="Path_3072" data-name="Path 3072" d="M344.857,104.464c.427-2.589,3.37-2.091,5.038-1.132a.212.212,0,0,1-.163.386c-1.169-.357-3.475-1.189-4,.544a1.457,1.457,0,0,0,.667,1.692c.571.315,1.1.022,1.68.156a.3.3,0,0,1,.175.431c-.4.8-1.68.584-2.325.218a2.172,2.172,0,0,1-1.069-2.3" transform="translate(-235.621 -39.961)" fill="#fff"/>
    <path id="Path_3073" data-name="Path 3073" d="M346.585,117.765c.283-.607,1.134-1.159,1.67-.547a.224.224,0,0,1-.1.369c-.737.3-1.231.907-.479,1.583a2.124,2.124,0,0,0,1.763.356,3.357,3.357,0,0,0,2.294-1.873c.055-.117.219-.031.2.083a3.149,3.149,0,0,1-4.572,2.141,1.662,1.662,0,0,1-.777-2.112" transform="translate(-238.549 -45.57)" fill="#fff"/>
    <path id="Path_3074" data-name="Path 3074" d="M346.965,148.569a3.372,3.372,0,0,1,1.987-2.635.314.314,0,0,1,.352.457c-.392.6-.814,1.08-1.15,1.667a22.764,22.764,0,0,0,6.639-3.151.2.2,0,0,1,.246.319,16.345,16.345,0,0,1-7.537,3.881.442.442,0,0,1-.537-.537" transform="translate(-242.024 -56.45)" fill="#fff"/>
    <path id="Path_3075" data-name="Path 3075" d="M358.961,139.63a.359.359,0,0,1,.251.251l.051.176a.231.231,0,0,1-.221.29,1.775,1.775,0,0,1-.273-.023q-.233,1.377.9,1.138a7.793,7.793,0,0,0,1.454-.2,16.247,16.247,0,0,0,2.6-.786c.092-.035.151.111.067.157-1.357.758-4.135,2.107-5.623,1.051-1.062-.754-.552-2.37.792-2.058" transform="translate(-257.256 -54.391)" fill="#fff"/>
    <path id="Path_3076" data-name="Path 3076" d="M372.914,129.846a13.879,13.879,0,0,0,2.727.775,5.192,5.192,0,0,0,3.022-.778c.221-.132.389.189.2.336-1.567,1.2-4.741,1.84-6.172.057a.236.236,0,0,1,.227-.39" transform="translate(-281.54 -50.581)" fill="#fff"/>
    <path id="Path_3077" data-name="Path 3077" d="M369.737,110.733a3.294,3.294,0,0,1,2.157-.917,6.917,6.917,0,0,1,3,.134c.272.076.231.537-.068.509a9.036,9.036,0,0,0-3.234.164c-.477.128-1.37.323-1.229.988.131.619,1.052.743,1.5,1.069a.345.345,0,0,1-.172.636c-1.246.1-2.879-1.307-1.96-2.582" transform="translate(-275.746 -42.749)" fill="#fff"/>
    <path id="Path_3078" data-name="Path 3078" d="M362.3,116.481a9.927,9.927,0,0,0,2.356.438,6.27,6.27,0,0,0,2.51-.749.173.173,0,0,1,.209.271c-1.184,1.357-3.973,1.841-5.349.509a.283.283,0,0,1,.273-.469" transform="translate(-263.496 -45.257)" fill="#fff"/>
    <path id="Path_3079" data-name="Path 3079" d="M397.336,117.054a3.7,3.7,0,0,1,2.293-.88,9.586,9.586,0,0,1,3.266-.154.179.179,0,0,1,0,.342c-.814.22-1.669.245-2.5.395-.386.07-.77.15-1.151.242-.161.036-.319.077-.477.123q-.958.125-.414,1.226a.28.28,0,0,1,.122.462c-.947.951-1.864-.908-1.141-1.755" transform="translate(-320.54 -45.172)" fill="#fff"/>
    <path id="Path_3080" data-name="Path 3080" d="M399.817,126.429a2.873,2.873,0,0,1,1.59-.139c.672.025,1.351.03,2.02.1a.229.229,0,0,1,0,.458c-.67.067-1.348.072-2.02.1a2.873,2.873,0,0,1-1.59-.139.218.218,0,0,1,0-.373" transform="translate(-322.774 -49.192)" fill="#fff"/>
    <path id="Path_3081" data-name="Path 3081" d="M389.979,138.718c.894.323,1.508,1.038,2.482,1.278a5.147,5.147,0,0,0,3.229-.3c.2-.079.287.215.137.324a4.672,4.672,0,0,1-3.522.742c-.978-.172-2.336-.674-2.676-1.692a.287.287,0,0,1,.35-.351" transform="translate(-308.868 -54.046)" fill="#fff"/>
    <path id="Path_3082" data-name="Path 3082" d="M378.856,154.946a22.218,22.218,0,0,0,4.011.445,19.7,19.7,0,0,0,4.257-1.213.148.148,0,0,1,.143.245c-1.831,1.964-6.3,2.534-8.574,1.126-.253-.156-.174-.638.164-.6" transform="translate(-293.512 -60.072)" fill="#fff"/>
    <path id="Path_3083" data-name="Path 3083" d="M70.2,269.145c-.845-.69-1.5-2.691.418-2.886s9.688-1.242,9.688-1.242l-.275,2.29Z" transform="translate(202.193 -103.263)" fill="#ebd059"/>
    <path id="Path_3084" data-name="Path 3084" d="M53.592,229.584c-2.074,2.672-3.432,6.145-4.822,9.224q-2.462,5.457-4.9,10.923c-1.693,3.8,4.562,6.245,6.074,2.313,1.537-3.405,3.056-6.818,4.584-10.227a57.266,57.266,0,0,1,4.278-8.485c2.509-3.282-2.677-7.013-5.21-3.749" transform="translate(238.771 -88.966)" fill="#ebd059"/>
    <path id="Path_3085" data-name="Path 3085" d="M22.067,207.989c.581,5.724,14.773,17.378,19.2,16.929s3.214-2.889,4.733-1.649,3.094,1.819,4.526.928c.89-.554,15.606-24.813,14.749-33.259s-43.2,17.051-43.2,17.051" transform="translate(246.063 -73.73)" fill="#ed773b"/>
    <path id="Path_3086" data-name="Path 3086" d="M64.209,261.171c-2.966,4.253-14.314,6.741-14.746,7.269s-1.016,3.356,1.287,3.122,15.06-4.437,17.174-2.712,4.907,2.709,6.346,2.563,2.925-1.63-.533-3.057a5.45,5.45,0,0,1-3.558-5.94Z" transform="translate(219.034 -101.764)" fill="#ebd059"/>
    <path id="Path_3087" data-name="Path 3087" d="M87.727,268.428a2.1,2.1,0,0,0-2.406.942.355.355,0,0,0,.529.431,2.629,2.629,0,0,1,.8-.547,5.023,5.023,0,0,1,.959-.116.376.376,0,0,0,.117-.71" transform="translate(184.847 -104.543)" fill="#edb91e"/>
    <path id="Path_3088" data-name="Path 3088" d="M93.516,273.81l-.034-.062a.68.68,0,0,0-.614-.273,3.517,3.517,0,0,0-2.883,2.055c-.511,1.01,1.15,1.77,1.6.729a2.406,2.406,0,0,1,1.118-1.237c.474-.244,1.18-.558.815-1.212" transform="translate(176.358 -106.559)" fill="#edb91e"/>
    <path id="Path_3089" data-name="Path 3089" d="M48.955,274.832a.334.334,0,0,0-.175.583c.189.192.419.281.568.526s.135.548.321.766a.533.533,0,0,0,.941-.222c.223-.739-.95-1.76-1.655-1.653" transform="translate(244.496 -107.084)" fill="#edb91e"/>
    <path id="Path_3090" data-name="Path 3090" d="M83.9,271.785a.127.127,0,0,0-.1.231,1.172,1.172,0,0,1,.549.677.155.155,0,0,0,.236.069.159.159,0,0,0,.053-.181,1.252,1.252,0,0,0-.733-.8" transform="translate(189.096 -105.896)" fill="#c49710"/>
    <path id="Path_3091" data-name="Path 3091" d="M80.066,270.413a1.29,1.29,0,0,0-.746-.221.071.071,0,0,0-.037.125c.2.146.452.215.66.357.17.117.324.35.538.355.06,0,.09-.063.092-.112.006-.231-.333-.4-.507-.5" transform="translate(195.891 -105.277)" fill="#c49710"/>
    <path id="Path_3092" data-name="Path 3092" d="M76.433,269.128a1.317,1.317,0,0,0-.8-.319c-.115-.006-.151.165-.031.181a1.028,1.028,0,0,1,.644.353c.134.152.184.414.348.527a.1.1,0,0,0,.149-.035c.128-.24-.141-.558-.31-.708" transform="translate(201.964 -104.74)" fill="#c49710"/>
    <path id="Path_3093" data-name="Path 3093" d="M64,260.016a2.845,2.845,0,0,0-2.773-.471c-.053.029-.023.109.028.119.444.088.908-.009,1.362.073s.856.345,1.3.408c.065.009.128-.071.079-.128" transform="translate(223.463 -101.061)" fill="#c49710"/>
    <path id="Path_3094" data-name="Path 3094" d="M62.262,255.575a4.1,4.1,0,0,0-2.7-.251.091.091,0,0,0,.018.18,7.54,7.54,0,0,1,1.409.012c.415.047.815.179,1.23.21a.08.08,0,0,0,.046-.151" transform="translate(226.228 -99.443)" fill="#c49710"/>
    <path id="Path_3095" data-name="Path 3095" d="M59.369,250.351a3.643,3.643,0,0,0-2.906-.42c-.1.027-.045.155.038.157a9.706,9.706,0,0,1,1.5.08c.442.08.85.28,1.29.353a.1.1,0,0,0,.077-.17" transform="translate(231.004 -97.336)" fill="#c49710"/>
    <path id="Path_3096" data-name="Path 3096" d="M79.358,285.322c-.845-.69-1.5-2.691.418-2.886s9.688-1.242,9.688-1.242l-.275,2.29Z" transform="translate(187.443 -109.566)" fill="#ebd059"/>
    <path id="Path_3097" data-name="Path 3097" d="M62.751,245.761c-2.073,2.671-3.432,6.145-4.821,9.224q-2.463,5.458-4.9,10.924c-1.693,3.8,4.562,6.245,6.074,2.313,1.537-3.405,3.056-6.818,4.584-10.227a57.263,57.263,0,0,1,4.278-8.485c2.509-3.282-2.677-7.013-5.21-3.749" transform="translate(224.021 -95.269)" fill="#ebd059"/>
    <path id="Path_3098" data-name="Path 3098" d="M31.225,224.165c.581,5.724,14.773,17.378,19.2,16.929s3.214-2.889,4.734-1.649,3.094,1.819,4.526.928c.891-.554,15.606-24.813,14.749-33.259s-43.2,17.051-43.2,17.051" transform="translate(231.315 -80.033)" fill="#ed773b"/>
    <path id="Path_3099" data-name="Path 3099" d="M73.368,277.348c-2.967,4.253-14.314,6.741-14.746,7.269s-1.016,3.356,1.287,3.122,15.06-4.437,17.174-2.712,4.907,2.71,6.346,2.564,2.925-1.63-.533-3.057a5.45,5.45,0,0,1-3.558-5.94Z" transform="translate(204.285 -108.068)" fill="#ebd059"/>
    <path id="Path_3100" data-name="Path 3100" d="M96.885,284.606a2.1,2.1,0,0,0-2.406.942.355.355,0,0,0,.529.431,2.629,2.629,0,0,1,.8-.547,4.973,4.973,0,0,1,.959-.115.377.377,0,0,0,.117-.711" transform="translate(170.1 -110.846)" fill="#edb91e"/>
    <path id="Path_3101" data-name="Path 3101" d="M102.674,289.987l-.034-.062a.682.682,0,0,0-.614-.274,3.519,3.519,0,0,0-2.883,2.056c-.511,1.009,1.151,1.77,1.6.729a2.4,2.4,0,0,1,1.118-1.237c.474-.244,1.18-.558.815-1.212" transform="translate(161.611 -112.861)" fill="#edb91e"/>
    <path id="Path_3102" data-name="Path 3102" d="M58.114,291.009a.334.334,0,0,0-.175.583c.189.192.419.281.568.526s.135.548.321.766a.533.533,0,0,0,.941-.222c.223-.738-.95-1.76-1.655-1.653" transform="translate(229.747 -113.388)" fill="#edb91e"/>
    <path id="Path_3103" data-name="Path 3103" d="M93.057,287.962a.127.127,0,0,0-.1.231,1.172,1.172,0,0,1,.549.677.153.153,0,0,0,.119.1.156.156,0,0,0,.117-.027.16.16,0,0,0,.053-.182,1.252,1.252,0,0,0-.733-.8" transform="translate(174.349 -112.199)" fill="#c49710"/>
    <path id="Path_3104" data-name="Path 3104" d="M89.225,286.59a1.291,1.291,0,0,0-.746-.221.072.072,0,0,0-.038.125c.2.146.453.215.66.357.17.117.324.35.538.355.06,0,.09-.063.092-.112.006-.231-.333-.4-.507-.5" transform="translate(181.143 -111.58)" fill="#c49710"/>
    <path id="Path_3105" data-name="Path 3105" d="M85.592,285.3a1.32,1.32,0,0,0-.8-.319c-.115-.006-.151.165-.031.181a1.028,1.028,0,0,1,.644.353c.134.152.184.414.348.527a.1.1,0,0,0,.149-.035c.128-.24-.141-.558-.31-.708" transform="translate(187.214 -111.044)" fill="#c49710"/>
    <path id="Path_3106" data-name="Path 3106" d="M73.161,276.193a2.846,2.846,0,0,0-2.773-.471c-.053.029-.023.109.028.119.444.088.908-.009,1.362.073s.856.344,1.3.407c.065.009.128-.071.079-.128" transform="translate(208.716 -107.364)" fill="#c49710"/>
    <path id="Path_3107" data-name="Path 3107" d="M71.42,271.752a4.1,4.1,0,0,0-2.7-.251.09.09,0,0,0,.018.179,7.6,7.6,0,0,1,1.409.013c.415.047.815.179,1.23.21a.08.08,0,0,0,.046-.151" transform="translate(211.48 -105.746)" fill="#c49710"/>
    <path id="Path_3108" data-name="Path 3108" d="M68.527,266.528a3.643,3.643,0,0,0-2.906-.42c-.1.027-.045.155.038.157a9.71,9.71,0,0,1,1.5.08c.442.08.85.28,1.29.353a.1.1,0,0,0,.077-.17" transform="translate(216.256 -103.639)" fill="#c49710"/>
    <path id="Path_3109" data-name="Path 3109" d="M212.141,260.633c-2-3.7-.4-10.566.481-13.539s-12.464-6.326-12.753-2.507A3.952,3.952,0,0,0,202.5,248.6s-5.161,2.175-4.28,5.334a3.471,3.471,0,0,0,4.055,2.687s-3.39,3.813-1.739,5.516a5.978,5.978,0,0,0,4.142,1.6s1.467,2.434,2.875,2.236c2.849-.4,4.586-5.345,4.586-5.345" transform="translate(-8.748 -94.636)" fill="#e85b3f"/>
    <path id="Path_3110" data-name="Path 3110" d="M169.075,262.528c-1.934,1.658-3.907,12.153.133,15.729s10.134-.551,10.219-3.683-5.367-11.419-6.1-11.715a25.038,25.038,0,0,0-4.251-.33" transform="translate(43.573 -102.293)" fill="#e85b3f"/>
    <path id="Path_3111" data-name="Path 3111" d="M194.35,274.419c-.422.651-2.007,8.577-2.007,8.577-2.667-2.287-4.52-4.932-4.092-8.7Z" transform="translate(15.626 -106.877)" fill="#ffe261"/>
    <path id="Path_3112" data-name="Path 3112" d="M158.929,193.962c-7.09,9.193-14.44,7.121-20.413,23.384-8.294,7.759-13.5,25.246-3.138,27.181,4.885.913,10.565-1.665,16.246-2.888,11.483-2.471,22.353-5.482,22.353-5.482Z" transform="translate(71.749 -75.577)" fill="#ed773b"/>
    <path id="Path_3113" data-name="Path 3113" d="M191.3,264.062a.42.42,0,0,1-.324.081.83.83,0,0,1-.151.086,1.061,1.061,0,0,1-.568.082.085.085,0,0,1-.076.054c-1.718-.1-2.091-3.1-1.887-4.406a5.49,5.49,0,0,1,3.448-4.218.525.525,0,0,1,.745.344c.5,2.2.889,6.437-1.188,7.977" transform="translate(17.05 -99.63)" fill="#db563b"/>
    <path id="Path_3114" data-name="Path 3114" d="M192.162,262.363a1.464,1.464,0,0,1-.4,1.438,1.568,1.568,0,0,1-1.418.37,1.74,1.74,0,0,1-1.251-2.012,2.526,2.526,0,0,1,.079-.367,1.564,1.564,0,0,1-.019-.769,1.456,1.456,0,0,1,1.689-1.064,1.54,1.54,0,0,1,1.38,1.113,2.307,2.307,0,0,1-.061,1.288Z" transform="translate(17.148 -101.284)" fill="#9c2546"/>
    <path id="Path_3115" data-name="Path 3115" d="M22.984,157.044c1.79-6.105,6.224-27.365,3.3-31.98s-8.181,6-8.181,6-1.833-6.6-4.995-2.725S5.512,141.234,6.7,142.2s16.288,14.844,16.288,14.844" transform="translate(293.615 -48.278)" fill="#ed773b"/>
    <path id="Path_3116" data-name="Path 3116" d="M30.091,169.277c2.6-3.834,19.41-20.4,51.442-20.435,8.355-.009,22.553,2.619,22.553,2.619l11.779,12.832s-3.673,37.491-34,51.736c-32.853,15.432-77.971-8.273-67.359-26.36,4.418-7.529,15.583-20.393,15.583-20.393" transform="translate(201.083 -57.996)" fill="#ed773b"/>
    <path id="Path_3117" data-name="Path 3117" d="M99.2,159.309c-.685-.758-3.365-.733-6.633-.363-5.823-.589-29.35.487-42.444,8.1-21.964,12.777-19.581,24.821-19.581,24.821,3.595,19.071,35.041,19.006,50.15,5.724h0c5.9-2.273,21.4-14.888,18.238-18.385-1.8-1.993-4.932-2.365-7.332-2.32.168-.616.349-1.21.5-1.786,4.126-2.537,10.008-6.769,7.819-9.193-1.4-1.545-3.619-1.968-5.715-1.946.023-.3.043-.583.054-.85,3.046-1.124,6.035-2.6,4.946-3.807" transform="translate(205.863 -61.835)" fill="#c96e3d"/>
    <path id="Path_3118" data-name="Path 3118" d="M123.634,213.569c-.581-.591-1.6-.269-2.317-.182a29.107,29.107,0,0,0-3.807.557c-.352.092-.16.557.136.566a30.426,30.426,0,0,0,3.976-.316c.131-.013.791-.165.881-.088q-.046.417-.092.833l-.288.121c-.365.284-.814.352-1.176.682-.339.309-.2,1.038.359.938s1.442.461.758.821a5.25,5.25,0,0,1-1.534.3c-.886.126-1.769.139-2.659.209s-.7,1.317.135,1.331a13.472,13.472,0,0,0,3.411-.471,3.619,3.619,0,0,0,2.216-1.093,1.344,1.344,0,0,0-.024-1.588,1.48,1.48,0,0,0-.669-.512c.842-.529,1.587-1.2.694-2.107" transform="translate(129.212 -83.081)" fill="#d97842"/>
    <path id="Path_3119" data-name="Path 3119" d="M120.807,191.68a1.421,1.421,0,0,0-.747-.012,3.94,3.94,0,0,0-.059-1.374.491.491,0,0,0-.657-.4c-1.29.569-3.159,2.026-2.881,3.646a.206.206,0,0,0,.36.108c.427-.449.651-1.042,1.041-1.525a4.239,4.239,0,0,1,1.234-1.032,3.093,3.093,0,0,1-.455,1.556c-.257.436.4.984.778.635a3.347,3.347,0,0,1,.394-.349q.425-.45.729.549c-.031.275-.5.682-.682.862a12.65,12.65,0,0,1-1.559,1.123.536.536,0,0,0,.508.929c1.332-.364,2.97-2.019,2.908-3.489a1.287,1.287,0,0,0-.912-1.223" transform="translate(132.052 -73.975)" fill="#d97842"/>
    <path id="Path_3120" data-name="Path 3120" d="M96.626,178.244c-.585-.474-1.613-.076-2.246.1a9.379,9.379,0,0,0-3.121,1.456c-.2.144-.023.493.211.386.646-.3,1.292-.6,1.964-.834.493-.17,1.66-.692,2.161-.521.451.154.112.311-.117.544a7.4,7.4,0,0,1-.955.674,4.082,4.082,0,0,0-1.3,1.189c-.2.329.215.62.506.537a3.911,3.911,0,0,0,1.4-.9,12.894,12.894,0,0,0,1.416-1.182c.379-.413.594-1.031.087-1.442" transform="translate(172.265 -69.365)" fill="#d97842"/>
    <path id="Path_3121" data-name="Path 3121" d="M97.134,196.872a1.349,1.349,0,0,0-.733-.436,1.113,1.113,0,0,0-.063-1.476c-.853-.979-2.136-.142-2.732.645a.25.25,0,0,0,.339.358c.226-.156,1.182-.916,1.384-.662q.057.478.113.955a3.359,3.359,0,0,1-.63.356.47.47,0,0,0,.34.875q.84-.533,1.191.511a3.451,3.451,0,0,1-.681.508,6.688,6.688,0,0,1-1.133.549,12.871,12.871,0,0,1-2.565.56.547.547,0,0,0,.11,1.088c1.638.041,4.291-.856,5.157-2.37a1.227,1.227,0,0,0-.1-1.462" transform="translate(171.571 -75.793)" fill="#d97842"/>
    <path id="Path_3122" data-name="Path 3122" d="M94.7,222.566a3.519,3.519,0,0,0-2.131-.41.384.384,0,0,0-.316.516.767.767,0,0,0,.692.574c.286.053,1.412-.123.829.274a4.4,4.4,0,0,1-1.965.392c-.646.037-1.287-.062-1.932-.037a.251.251,0,0,0-.078.474,5.124,5.124,0,0,0,2.741.307,3.9,3.9,0,0,0,2.322-.752.915.915,0,0,0-.162-1.338" transform="translate(175.023 -86.561)" fill="#d97842"/>
    <path id="Path_3123" data-name="Path 3123" d="M70.115,209.647a2.466,2.466,0,0,0-1.5.389.316.316,0,0,0,.054.536,1.24,1.24,0,0,0,.538.117,7.065,7.065,0,0,1-1.049,1.083c-.522.43-1.171.718-1.656,1.182-.165.157.023.421.218.4,1.523-.125,3.008-1.8,3.782-2.991a.449.449,0,0,0-.388-.72" transform="translate(213.703 -81.687)" fill="#d97842"/>
    <path id="Path_3124" data-name="Path 3124" d="M66.375,198.293A20.539,20.539,0,0,0,62.3,200.1c-.172.1-.013.392.167.307a16.064,16.064,0,0,1,3.422-1.168,2.172,2.172,0,0,1-.386.532,1.478,1.478,0,0,0-.4.537.315.315,0,0,0,.231.437c1.063.142,1.624-1.232,1.6-2.106a.424.424,0,0,0-.568-.349" transform="translate(219.913 -77.256)" fill="#d97842"/>
    <path id="Path_3125" data-name="Path 3125" d="M48.713,187.732a8.085,8.085,0,0,0-3.72.638.359.359,0,0,0,.165.688,8.079,8.079,0,0,0,3.662-.873.256.256,0,0,0-.107-.454" transform="translate(248.589 -73.136)" fill="#d97842"/>
    <path id="Path_3126" data-name="Path 3126" d="M50.633,166.388a1.047,1.047,0,0,0-1.025-.748,3.025,3.025,0,0,0-.8.1c-.267.049-.53.015-.793.078a.4.4,0,0,0-.179.61.88.88,0,0,0,.946.284c.141-.024.847-.3.956-.117.06.1-.615.464-.727.53-.344.2-.781.348-.986.7-.1.163.049.332.2.374.533.149,1.306-.359,1.744-.634a1.155,1.155,0,0,0,.665-1.184" transform="translate(245.03 -64.54)" fill="#d97842"/>
    <path id="Path_3127" data-name="Path 3127" d="M72.432,178.578a3.138,3.138,0,0,0-3.8.668c-.233.25.147.654.413.436a2.769,2.769,0,0,1,3.022-.312.436.436,0,0,0,.361-.792" transform="translate(210.325 -69.435)" fill="#d97842"/>
    <path id="Path_3128" data-name="Path 3128" d="M75.842,185.465a1.534,1.534,0,0,0-.884.081.266.266,0,0,0-.013.483l.064.037a5.536,5.536,0,0,1-4.568,1.107.2.2,0,0,0-.116.377c1.908,1.1,4.427.114,5.766-1.423a.413.413,0,0,0-.249-.663" transform="translate(205.801 -72.255)" fill="#d97842"/>
    <path id="Path_3129" data-name="Path 3129" d="M81.655,199.761a5,5,0,0,0-4.4,1.841.382.382,0,0,0,.518.547,8.561,8.561,0,0,1,1.921-1.222c.653-.272,1.351-.386,2.013-.629a.283.283,0,0,0-.054-.538" transform="translate(195.851 -77.811)" fill="#d97842"/>
    <path id="Path_3130" data-name="Path 3130" d="M445.7,208.287c2.717-2.584,9.71-1.93,14.652,3.266s3.849,10.241.88,13.065-8.063,3.662-13-1.534-5.244-12.213-2.527-14.8" transform="translate(-409.911 -80.585)" fill="#fff"/>
    <path id="Path_3131" data-name="Path 3131" d="M445.7,208.287c2.717-2.584,9.71-1.93,14.652,3.266s3.849,10.241.88,13.065-8.063,3.662-13-1.534S442.982,210.871,445.7,208.287Z" transform="translate(-409.911 -80.585)" fill="none" stroke="#9c2546" stroke-miterlimit="10" stroke-width="0.863"/>
    <path id="Path_3132" data-name="Path 3132" d="M255.375,198.508c3.624.964,6.724,7.266,4.881,14.2s-6.715,8.638-10.674,7.584-7.339-4.955-5.5-11.885,7.665-10.858,11.289-9.894" transform="translate(-84.628 -77.292)" fill="#fff"/>
    <path id="Path_3133" data-name="Path 3133" d="M255.375,198.508c3.624.964,6.724,7.266,4.881,14.2s-6.715,8.638-10.674,7.584-7.339-4.955-5.5-11.885S251.751,197.544,255.375,198.508Z" transform="translate(-84.628 -77.292)" fill="none" stroke="#9c2546" stroke-miterlimit="10" stroke-width="0.863"/>
    <path id="Path_3134" data-name="Path 3134" d="M517.331,235.943c2.906,2.37,3.138,9.39-1.4,14.946s-9.675,5.108-12.85,2.518-4.648-7.537-.115-13.095,11.455-6.74,14.361-4.37" transform="translate(-499.844 -91.483)" fill="#fff"/>
    <path id="Path_3135" data-name="Path 3135" d="M517.331,235.943c2.906,2.37,3.138,9.39-1.4,14.946s-9.675,5.108-12.85,2.518-4.648-7.537-.115-13.095S514.425,233.573,517.331,235.943Z" transform="translate(-499.844 -91.483)" fill="none" stroke="#9c2546" stroke-miterlimit="10" stroke-width="0.863"/>
  </g>
</svg>
