<svg xmlns="http://www.w3.org/2000/svg" xmlns:xlink="http://www.w3.org/1999/xlink" width="274" height="65" viewBox="0 0 274 65">
  <defs>
    <clipPath id="clip-path">
      <rect id="Rectangle_843" data-name="Rectangle 843" width="274" height="65" transform="translate(2293 4982)" fill="#fff" stroke="#707070" stroke-width="1"/>
    </clipPath>
    <clipPath id="clip-path-2">
      <rect id="Rectangle_514" data-name="Rectangle 514" width="1935.942" height="25.673" fill="#fff"/>
    </clipPath>
    <clipPath id="clip-path-3">
      <rect id="Rectangle_515" data-name="Rectangle 515" width="1920" height="30" fill="#ffa200"/>
    </clipPath>
  </defs>
  <g id="hot-top" transform="translate(-2293 -4982)" clip-path="url(#clip-path)">
    <g id="Group_1055" data-name="Group 1055">
      <path id="p0038_l" d="M0,0H1920V1366H0Z" transform="translate(2162 5007.402)" fill="#fff"/>
      <g id="Group_1054" data-name="Group 1054" transform="translate(2162 713.619)">
        <g id="Group_726" data-name="Group 726" transform="translate(1924.971 4294.372) rotate(180)">
          <g id="Group_725" data-name="Group 725" clip-path="url(#clip-path-2)">
            <path id="Path_8779" data-name="Path 8779" d="M0,0C34.569,0,34.569,25.673,69.139,25.673S103.708,0,138.277,0s34.569,25.673,69.138,25.673S241.984,0,276.552,0s34.571,25.673,69.142,25.673S380.262,0,414.831,0s34.569,25.673,69.14,25.673S518.541,0,553.109,0s34.571,25.673,69.139,25.673S656.819,0,691.389,0s34.567,25.673,69.132,25.673S795.089,0,829.657,0,864.227,25.673,898.8,25.673,933.367,0,967.935,0s34.569,25.673,69.139,25.673S1071.642,0,1106.211,0s34.568,25.673,69.138,25.673S1209.918,0,1244.488,0s34.572,25.673,69.143,25.673S1348.2,0,1382.776,0s34.571,25.673,69.143,25.673S1486.491,0,1521.064,0s34.571,25.673,69.142,25.673S1624.776,0,1659.347,0s34.572,25.673,69.145,25.673S1763.064,0,1797.635,0s34.577,25.673,69.153,25.673S1901.365,0,1935.942,0" fill="#fff"/>
          </g>
        </g>
        <g id="Group_729" data-name="Group 729" transform="translate(0 4294.868)">
          <g id="Group_728" data-name="Group 728" clip-path="url(#clip-path-3)">
            <path id="Path_8780" data-name="Path 8780" d="M1919.344,30l-.079,0a46.573,46.573,0,0,1-21.12-4.553c-8.313-4.09-13.969-10.063-20.683-14.886a44.748,44.748,0,0,0-11.226-6.085A45.168,45.168,0,0,0,1850.761,2a42.906,42.906,0,0,0-19.544,4.2c-7.747,3.783-13.338,9.625-20.275,14.643a47.661,47.661,0,0,1-11.965,6.467A48.951,48.951,0,0,1,1782.247,30h-.045a46.592,46.592,0,0,1-21.122-4.553c-8.311-4.09-13.968-10.063-20.679-14.886a44.759,44.759,0,0,0-11.224-6.085A45.16,45.16,0,0,0,1713.7,2a42.885,42.885,0,0,0-19.541,4.2c-7.745,3.783-13.337,9.625-20.274,14.643a47.622,47.622,0,0,1-11.964,6.467A48.936,48.936,0,0,1,1645.2,30h-.047a46.587,46.587,0,0,1-21.12-4.553c-8.311-4.09-13.968-10.063-20.678-14.886a44.761,44.761,0,0,0-11.224-6.085A45.16,45.16,0,0,0,1576.656,2a42.873,42.873,0,0,0-19.539,4.2c-7.745,3.783-13.336,9.625-20.272,14.643a47.628,47.628,0,0,1-11.964,6.467A48.92,48.92,0,0,1,1508.155,30h-.047a46.592,46.592,0,0,1-21.122-4.553c-8.311-4.09-13.968-10.063-20.68-14.886a44.736,44.736,0,0,0-11.224-6.085A45.159,45.159,0,0,0,1439.609,2a42.874,42.874,0,0,0-19.54,4.2c-7.745,3.783-13.336,9.625-20.272,14.643a47.648,47.648,0,0,1-11.964,6.467A48.934,48.934,0,0,1,1371.106,30h-.045a46.589,46.589,0,0,1-21.122-4.553c-8.311-4.09-13.968-10.063-20.68-14.886a44.737,44.737,0,0,0-11.224-6.085A45.159,45.159,0,0,0,1302.562,2a42.874,42.874,0,0,0-19.54,4.2c-7.745,3.783-13.337,9.625-20.274,14.643a47.624,47.624,0,0,1-11.964,6.467A48.935,48.935,0,0,1,1234.058,30h-.045a46.587,46.587,0,0,1-21.12-4.553c-8.311-4.09-13.966-10.063-20.678-14.886a44.73,44.73,0,0,0-11.223-6.085A45.158,45.158,0,0,0,1165.519,2a42.879,42.879,0,0,0-19.54,4.2c-7.744,3.783-13.334,9.625-20.271,14.643a47.636,47.636,0,0,1-11.962,6.467A48.935,48.935,0,0,1,1097.019,30h-.045a46.576,46.576,0,0,1-21.119-4.553c-8.311-4.09-13.966-10.063-20.677-14.886a44.752,44.752,0,0,0-11.223-6.085A45.158,45.158,0,0,0,1028.483,2a42.874,42.874,0,0,0-19.54,4.2c-7.745,3.783-13.335,9.625-20.272,14.643a47.615,47.615,0,0,1-11.962,6.467A48.932,48.932,0,0,1,959.984,30h-.047a46.581,46.581,0,0,1-21.119-4.553c-8.31-4.09-13.966-10.063-20.677-14.886a44.73,44.73,0,0,0-11.223-6.085A45.143,45.143,0,0,0,891.448,2a42.885,42.885,0,0,0-19.541,4.2c-7.744,3.783-13.335,9.625-20.272,14.643a47.624,47.624,0,0,1-11.964,6.467A48.919,48.919,0,0,1,822.945,30H822.9a46.586,46.586,0,0,1-21.12-4.553c-8.31-4.09-13.965-10.063-20.676-14.886a44.754,44.754,0,0,0-11.223-6.085A45.157,45.157,0,0,0,754.409,2a42.88,42.88,0,0,0-19.537,4.2c-7.744,3.784-13.334,9.626-20.269,14.644a47.615,47.615,0,0,1-11.962,6.467A48.912,48.912,0,0,1,685.917,30h-.045a46.586,46.586,0,0,1-21.12-4.553c-8.311-4.09-13.968-10.063-20.679-14.886A44.755,44.755,0,0,0,632.85,4.476,45.167,45.167,0,0,0,617.376,2a42.868,42.868,0,0,0-19.538,4.2c-7.745,3.783-13.336,9.625-20.272,14.643A47.6,47.6,0,0,1,565.6,27.308,48.921,48.921,0,0,1,548.877,30h-.045a46.587,46.587,0,0,1-21.12-4.553c-8.31-4.09-13.966-10.063-20.677-14.886a44.778,44.778,0,0,0-11.223-6.085A45.16,45.16,0,0,0,480.338,2,42.868,42.868,0,0,0,460.8,6.2c-7.745,3.783-13.337,9.625-20.272,14.643a47.647,47.647,0,0,1-11.964,6.467A48.91,48.91,0,0,1,411.854,30h-.061a46.578,46.578,0,0,1-21.12-4.553c-8.311-4.09-13.966-10.063-20.679-14.886a44.728,44.728,0,0,0-11.223-6.085A45.152,45.152,0,0,0,343.3,2a42.874,42.874,0,0,0-19.54,4.2c-7.744,3.783-13.335,9.625-20.272,14.643a47.638,47.638,0,0,1-11.962,6.467A48.924,48.924,0,0,1,274.814,30h-.061a46.587,46.587,0,0,1-21.12-4.553c-8.311-4.09-13.966-10.063-20.677-14.886a44.729,44.729,0,0,0-11.223-6.085A45.157,45.157,0,0,0,206.261,2a42.868,42.868,0,0,0-19.538,4.2c-7.745,3.783-13.335,9.625-20.272,14.643a47.614,47.614,0,0,1-11.962,6.467A48.91,48.91,0,0,1,137.778,30h-.061a46.587,46.587,0,0,1-21.12-4.553c-8.31-4.09-13.966-10.063-20.677-14.886A44.753,44.753,0,0,0,84.7,4.476,45.157,45.157,0,0,0,69.225,2a42.874,42.874,0,0,0-19.54,4.2C41.941,9.981,36.35,15.823,29.415,20.841a47.648,47.648,0,0,1-11.964,6.467A48.91,48.91,0,0,1,.741,30h0a.938.938,0,0,1-.277-.03L0,29.851V28.5H.706V28a42.862,42.862,0,0,0,19.54-4.2c7.745-3.783,13.335-9.625,20.272-14.643A47.614,47.614,0,0,1,52.478,2.692,48.859,48.859,0,0,1,69.082,0L69.1,0h.172a46.618,46.618,0,0,1,21.1,4.552c8.311,4.09,13.966,10.063,20.679,14.886a44.729,44.729,0,0,0,11.223,6.085A45.123,45.123,0,0,0,137.743,28a42.856,42.856,0,0,0,19.538-4.2c7.744-3.783,13.335-9.625,20.271-14.643a47.638,47.638,0,0,1,11.962-6.467A48.859,48.859,0,0,1,206.118,0l.013,0h.172a46.618,46.618,0,0,1,21.1,4.552c8.311,4.09,13.966,10.063,20.679,14.886A44.744,44.744,0,0,0,259.3,25.524,45.138,45.138,0,0,0,274.778,28a42.866,42.866,0,0,0,19.54-4.2c7.744-3.783,13.335-9.625,20.272-14.643a47.638,47.638,0,0,1,11.962-6.467A48.868,48.868,0,0,1,343.158,0l.013,0h.171a46.61,46.61,0,0,1,21.1,4.552c8.311,4.09,13.968,10.063,20.679,14.886a44.728,44.728,0,0,0,11.223,6.085A45.138,45.138,0,0,0,411.818,28a42.86,42.86,0,0,0,19.538-4.2c7.745-3.783,13.336-9.625,20.272-14.643a47.623,47.623,0,0,1,11.964-6.467A48.853,48.853,0,0,1,480.2,0l.013,0h.171a46.62,46.62,0,0,1,21.1,4.552c8.311,4.09,13.966,10.063,20.677,14.886a44.762,44.762,0,0,0,11.224,6.085A45.135,45.135,0,0,0,548.857,28,42.856,42.856,0,0,0,568.4,23.8c7.745-3.783,13.336-9.625,20.272-14.643a47.624,47.624,0,0,1,11.964-6.467A48.853,48.853,0,0,1,617.235,0l.013,0h.171a46.625,46.625,0,0,1,21.1,4.552c8.311,4.09,13.966,10.063,20.679,14.886a44.728,44.728,0,0,0,11.223,6.085A45.137,45.137,0,0,0,685.9,28a42.868,42.868,0,0,0,19.537-4.2c7.744-3.784,13.334-9.626,20.269-14.644a47.613,47.613,0,0,1,11.962-6.467A48.934,48.934,0,0,1,754.409,0h.042a46.618,46.618,0,0,1,21.1,4.552c8.31,4.09,13.966,10.063,20.677,14.886a44.744,44.744,0,0,0,11.221,6.085A45.138,45.138,0,0,0,822.925,28a42.871,42.871,0,0,0,19.54-4.2c7.744-3.783,13.335-9.625,20.272-14.643A47.624,47.624,0,0,1,874.7,2.692,48.945,48.945,0,0,1,891.448,0h.042a46.618,46.618,0,0,1,21.1,4.552c8.31,4.09,13.966,10.063,20.677,14.886a44.744,44.744,0,0,0,11.221,6.085A45.134,45.134,0,0,0,959.963,28a42.862,42.862,0,0,0,19.54-4.2c7.744-3.783,13.335-9.625,20.271-14.643a47.651,47.651,0,0,1,11.964-6.467A48.957,48.957,0,0,1,1028.483,0h.042a46.619,46.619,0,0,1,21.1,4.552c8.311,4.09,13.966,10.063,20.677,14.886a44.729,44.729,0,0,0,11.223,6.085A45.135,45.135,0,0,0,1097,28a42.866,42.866,0,0,0,19.54-4.2c7.744-3.783,13.334-9.625,20.271-14.643a47.636,47.636,0,0,1,11.962-6.467A48.951,48.951,0,0,1,1165.519,0h.042a46.619,46.619,0,0,1,21.1,4.552c8.311,4.09,13.968,10.063,20.678,14.886a44.755,44.755,0,0,0,11.223,6.085A45.144,45.144,0,0,0,1234.038,28a42.862,42.862,0,0,0,19.54-4.2c7.745-3.783,13.337-9.625,20.274-14.643a47.622,47.622,0,0,1,11.964-6.467A48.951,48.951,0,0,1,1302.562,0h.042a46.631,46.631,0,0,1,21.1,4.552c8.311,4.09,13.968,10.063,20.68,14.886a44.712,44.712,0,0,0,11.224,6.085A45.139,45.139,0,0,0,1371.087,28a42.861,42.861,0,0,0,19.54-4.2c7.745-3.783,13.336-9.625,20.272-14.643a47.653,47.653,0,0,1,11.964-6.467A48.958,48.958,0,0,1,1439.609,0h.042a46.626,46.626,0,0,1,21.1,4.552c8.311,4.09,13.968,10.063,20.68,14.886a44.739,44.739,0,0,0,11.224,6.085A45.139,45.139,0,0,0,1508.135,28a42.86,42.86,0,0,0,19.538-4.2c7.745-3.783,13.335-9.625,20.272-14.643a47.652,47.652,0,0,1,11.964-6.467A48.958,48.958,0,0,1,1576.656,0h.042a46.62,46.62,0,0,1,21.1,4.552c8.313,4.09,13.968,10.063,20.68,14.886a44.725,44.725,0,0,0,11.223,6.085A45.145,45.145,0,0,0,1645.179,28a42.863,42.863,0,0,0,19.54-4.2c7.747-3.783,13.337-9.625,20.273-14.643a47.633,47.633,0,0,1,11.965-6.467A48.944,48.944,0,0,1,1713.7,0h.042a46.62,46.62,0,0,1,21.1,4.552c8.313,4.09,13.968,10.063,20.68,14.886a44.736,44.736,0,0,0,11.224,6.085A45.139,45.139,0,0,0,1782.228,28a42.871,42.871,0,0,0,19.542-4.2c7.747-3.783,13.339-9.625,20.276-14.643a47.633,47.633,0,0,1,11.965-6.467A48.962,48.962,0,0,1,1850.761,0h.042a46.637,46.637,0,0,1,21.106,4.552c8.313,4.09,13.969,10.063,20.683,14.886a44.722,44.722,0,0,0,11.225,6.085A45.149,45.149,0,0,0,1919.294,28h.7v1.965Z" transform="translate(0 -0.001)" fill="#ffa200"/>
          </g>
        </g>
      </g>
    </g>
  </g>
</svg>
