<svg id="ic-ai" xmlns="http://www.w3.org/2000/svg" width="41.874" height="33.458" viewBox="0 0 41.874 33.458">
  <path id="Path_387" data-name="Path 387" d="M-2332.816,3093.416h-2.243a4.043,4.043,0,0,1-4.038-4.039v-5.952a4.042,4.042,0,0,1,4.038-4.038h2.243a1.047,1.047,0,0,1,1.047,1.047v11.934A1.048,1.048,0,0,1-2332.816,3093.416Zm-2.243-11.935a1.946,1.946,0,0,0-1.944,1.945v5.952a1.947,1.947,0,0,0,1.944,1.944h1.2v-9.841Z" transform="translate(2339.097 -3065.778)" fill="#fff"/>
  <path id="Path_388" data-name="Path 388" d="M-2170.807,3093.416h-2.243a1.048,1.048,0,0,1-1.047-1.047v-11.934a1.047,1.047,0,0,1,1.047-1.047h2.243a4.042,4.042,0,0,1,4.038,4.038v5.952A4.043,4.043,0,0,1-2170.807,3093.416Zm-1.2-2.094h1.2a1.947,1.947,0,0,0,1.944-1.944v-5.952a1.947,1.947,0,0,0-1.944-1.945h-1.2Z" transform="translate(2208.643 -3065.778)" fill="#fff"/>
  <path id="Path_389" data-name="Path 389" d="M-2283.739,3031.136a1.046,1.046,0,0,1-1.047-1.046,13.625,13.625,0,0,0-13.609-13.61A13.624,13.624,0,0,0-2312,3030.09a1.047,1.047,0,0,1-1.047,1.046,1.047,1.047,0,0,1-1.047-1.046,15.721,15.721,0,0,1,15.7-15.7,15.72,15.72,0,0,1,15.7,15.7A1.047,1.047,0,0,1-2283.739,3031.136Z" transform="translate(2319.332 -3014.387)" fill="#fff"/>
  <path id="Path_390" data-name="Path 390" d="M-2228.86,3134.661h-4.187a1.046,1.046,0,0,1-1.047-1.047,1.047,1.047,0,0,1,1.047-1.047h4.187a7.335,7.335,0,0,0,7.327-7.327,1.047,1.047,0,0,1,1.047-1.047,1.047,1.047,0,0,1,1.046,1.047A9.432,9.432,0,0,1-2228.86,3134.661Z" transform="translate(2256.078 -3101.204)" fill="#fff"/>
  <g id="Group_529" data-name="Group 529" transform="translate(10.259 5.082)">
    <path id="Path_391" data-name="Path 391" d="M-2265.64,3135.635l-.83-5.17,5.417,1.78-3.733,3.671A.506.506,0,0,1-2265.64,3135.635Z" transform="translate(2271.418 -3111.243)" fill="#fff"/>
    <path id="Path_392" data-name="Path 392" d="M-2276.015,3039.2a10.732,10.732,0,0,0-13.545,6.847,10.732,10.732,0,0,0,6.848,13.545,10.732,10.732,0,0,0,13.545-6.848A10.732,10.732,0,0,0-2276.015,3039.2Zm-8.917,11.93a1.85,1.85,0,0,1-1.85-1.85,1.85,1.85,0,0,1,1.85-1.85,1.85,1.85,0,0,1,1.85,1.85A1.85,1.85,0,0,1-2284.933,3051.127Zm5.582,0a1.85,1.85,0,0,1-1.85-1.85,1.85,1.85,0,0,1,1.85-1.85,1.85,1.85,0,0,1,1.85,1.85A1.85,1.85,0,0,1-2279.351,3051.127Zm5.582,0a1.851,1.851,0,0,1-1.85-1.85,1.851,1.851,0,0,1,1.85-1.85,1.85,1.85,0,0,1,1.85,1.85A1.85,1.85,0,0,1-2273.769,3051.127Z" transform="translate(2290.099 -3038.658)" fill="#fff"/>
  </g>
</svg>
