<svg id="ic-cart-title-order" xmlns="http://www.w3.org/2000/svg" width="34" height="34" viewBox="0 0 34 34">
  <g id="Group_1088" data-name="Group 1088">
    <rect id="Rectangle_853" data-name="Rectangle 853" width="34" height="34" fill="none"/>
  </g>
  <g id="Group_1090" data-name="Group 1090" transform="translate(2.833 4.25)">
    <g id="Group_1089" data-name="Group 1089">
      <path id="Path_9220" data-name="Path 9220" d="M27.5,3H4.833A2.842,2.842,0,0,0,2,5.833V25.667A2.842,2.842,0,0,0,4.833,28.5H27.5a2.842,2.842,0,0,0,2.833-2.833V5.833A2.842,2.842,0,0,0,27.5,3Zm0,22.667H4.833V5.833H27.5Z" transform="translate(-2 -3)" fill-rule="evenodd"/>
      <path id="Path_9221" data-name="Path 9221" d="M22.5,11.012,20.486,9l-4.491,4.491-2-2.012-2,2L15.995,17.5Z" transform="translate(2.167 -0.5)" fill-rule="evenodd"/>
      <rect id="Rectangle_854" data-name="Rectangle 854" width="7.083" height="2.833" transform="translate(4.25 5.667)"/>
      <rect id="Rectangle_855" data-name="Rectangle 855" width="7.083" height="2.833" transform="translate(4.25 11.333)"/>
      <rect id="Rectangle_856" data-name="Rectangle 856" width="7.083" height="2.833" transform="translate(4.25 17)"/>
    </g>
  </g>
</svg>
