<svg xmlns="http://www.w3.org/2000/svg" xmlns:xlink="http://www.w3.org/1999/xlink" width="34" height="34" viewBox="0 0 34 34">
  <defs>
    <clipPath id="clip-path">
      <rect id="Rectangle_840" data-name="Rectangle 840" width="33.092" height="33.434"/>
    </clipPath>
  </defs>
  <g id="ic-cart-title" transform="translate(-260 -273)">
    <g id="Group_1055" data-name="Group 1055" transform="translate(260 273)">
      <g id="Group_1054" data-name="Group 1054" clip-path="url(#clip-path)">
        <path id="Path_9201" data-name="Path 9201" d="M22.48,28.976a3.344,3.344,0,1,0,3.153-2.229H10.03a1.114,1.114,0,1,1,0-2.229H26.224a5.572,5.572,0,0,0,5.516-4.784L33.059,10.5a3.343,3.343,0,0,0-3.31-3.816H7.249L6.882,3.011A3.343,3.343,0,0,0,3.555,0H1.114a1.114,1.114,0,1,0,0,2.229H3.555a1.115,1.115,0,0,1,1.109,1L6.291,19.5a5.558,5.558,0,0,0,1.7,3.481A3.344,3.344,0,0,0,9.15,28.859a3.343,3.343,0,1,0,6.262.117Zm3.153,0a1.114,1.114,0,1,1-1.114,1.114,1.115,1.115,0,0,1,1.114-1.114m-13.374,0a1.114,1.114,0,1,1-1.114,1.114,1.115,1.115,0,0,1,1.114-1.114M7.473,8.916,8.509,19.278a3.343,3.343,0,0,0,3.327,3.011H26.224a3.343,3.343,0,0,0,3.31-2.871l1.319-9.231a1.114,1.114,0,0,0-1.1-1.272Z" fill-rule="evenodd"/>
      </g>
    </g>
    <rect id="Rectangle_881" data-name="Rectangle 881" width="34" height="34" transform="translate(260 273)" fill="none"/>
  </g>
</svg>
