<svg id="ic-cart-hurry" xmlns="http://www.w3.org/2000/svg" xmlns:xlink="http://www.w3.org/1999/xlink" width="28.713" height="17.854" viewBox="0 0 28.713 17.854">
  <defs>
    <clipPath id="clip-path">
      <rect id="Rectangle_954" data-name="Rectangle 954" width="28.713" height="17.854" fill="#ff4d7d" stroke="#ff4d7d" stroke-width="0.5"/>
    </clipPath>
  </defs>
  <g id="Group_1156" data-name="Group 1156" clip-path="url(#clip-path)">
    <path id="Path_9289" data-name="Path 9289" d="M58.784,179.067a1.286,1.286,0,1,0,1.286,1.286,1.286,1.286,0,0,0-1.286-1.286" transform="translate(-52.591 -163.785)" fill="#ff4d7d" stroke="#ff4d7d" stroke-width="0.5"/>
    <path id="Path_9290" data-name="Path 9290" d="M137.789,179.067a1.286,1.286,0,1,0,1.286,1.286,1.286,1.286,0,0,0-1.286-1.286" transform="translate(-124.853 -163.785)" fill="#ff4d7d" stroke="#ff4d7d" stroke-width="0.5"/>
    <path id="Path_9291" data-name="Path 9291" d="M21.661,5.517H18.9l.739-1.875h4.143a.6.6,0,0,0,0-1.195H20.111l.494-1.253h3.179a.6.6,0,0,0,0-1.195H20.2a.6.6,0,0,0-.556.378l-.959,2.434h0L17.474,5.882h0L16.549,8.23h0l-2.016,5.117H4.362l-.87-2.4H9.137a.6.6,0,1,0,0-1.195H3.06L2.377,7.869H5.79a.6.6,0,0,0,0-1.195H1.944l-.5-1.368H15.3a.6.6,0,1,0,0-1.195H.6a.6.6,0,0,0-.562.8l3.347,9.236a.6.6,0,0,0,.562.394h11a.6.6,0,0,0,.556-.378l2.011-5.1h2.336a.6.6,0,0,0,0-1.195H17.977l.454-1.153h3.229a.6.6,0,1,0,0-1.195" transform="translate(0)" fill="#ff4d7d" stroke="#ff4d7d" stroke-width="0.5"/>
    <path id="Path_9292" data-name="Path 9292" d="M272.57,64.651h-1.2a.6.6,0,0,0,0,1.195h1.2a.6.6,0,1,0,0-1.195" transform="translate(-247.668 -59.134)" fill="#ff4d7d" stroke="#ff4d7d" stroke-width="0.5"/>
    <path id="Path_9293" data-name="Path 9293" d="M294.856,0h-2.63a.6.6,0,1,0,0,1.195h2.63a.6.6,0,1,0,0-1.195" transform="translate(-266.741)" fill="#ff4d7d" stroke="#ff4d7d" stroke-width="0.5"/>
    <path id="Path_9294" data-name="Path 9294" d="M85.723,78.2a.6.6,0,1,0,0,1.195H87A.6.6,0,0,0,87,78.2Z" transform="translate(-77.861 -71.526)" fill="#ff4d7d" stroke="#ff4d7d" stroke-width="0.5"/>
    <path id="Path_9295" data-name="Path 9295" d="M127.428,114.274a.6.6,0,1,0,0,1.195h1.806a.6.6,0,0,0,0-1.195Z" transform="translate(-116.007 -104.522)" fill="#ff4d7d" stroke="#ff4d7d" stroke-width="0.5"/>
  </g>
</svg>
