<svg id="ic-cart-add" xmlns="http://www.w3.org/2000/svg" xmlns:xlink="http://www.w3.org/1999/xlink" width="16" height="16" viewBox="0 0 16 16">
  <defs>
    <clipPath id="clip-path">
      <rect id="Rectangle_839" data-name="Rectangle 839" width="16" height="16" fill="#ae864b"/>
    </clipPath>
  </defs>
  <g id="Group_1051" data-name="Group 1051" clip-path="url(#clip-path)">
    <path id="Path_9197" data-name="Path 9197" d="M10.869,13.867a1.581,1.581,0,0,0-.092.533,1.617,1.617,0,1,0,1.617-1.6H4.85a.533.533,0,1,1,0-1.067h7.83a2.685,2.685,0,0,0,2.667-2.29l.638-4.417A1.589,1.589,0,0,0,15.6,3.752,1.623,1.623,0,0,0,14.384,3.2H3.505L3.327,1.441A1.61,1.61,0,0,0,1.719,0H.539A.536.536,0,0,0,0,.533a.536.536,0,0,0,.539.533h1.18a.537.537,0,0,1,.536.48l.787,7.785A2.65,2.65,0,0,0,3.865,11a1.594,1.594,0,0,0,.56,2.813,1.581,1.581,0,0,0-.113.589,1.617,1.617,0,0,0,3.233,0,1.581,1.581,0,0,0-.092-.533Zm1.524,0a.533.533,0,1,1-.539.533.536.536,0,0,1,.539-.533m-6.466,0a.533.533,0,1,1-.539.533.536.536,0,0,1,.539-.533m-2.314-9.6.5,4.959a1.61,1.61,0,0,0,1.608,1.441h6.957a1.611,1.611,0,0,0,1.6-1.374l.638-4.418a.53.53,0,0,0-.126-.425.541.541,0,0,0-.407-.184Z" fill="#ae864b" fill-rule="evenodd"/>
    <path id="Path_9198" data-name="Path 9198" d="M90.977,60.99h0a.544.544,0,0,1-.547-.541V57.533a.547.547,0,0,1,1.093,0v2.915a.544.544,0,0,1-.547.541" transform="translate(-81.854 -51.642)" fill="#ae864b" fill-rule="evenodd"/>
    <path id="Path_9199" data-name="Path 9199" d="M74.9,73.062h0a.544.544,0,0,1,.547-.541h2.945a.541.541,0,1,1,0,1.082H75.448a.544.544,0,0,1-.547-.541" transform="translate(-67.798 -65.714)" fill="#ae864b" fill-rule="evenodd"/>
  </g>
</svg>
