<svg xmlns="http://www.w3.org/2000/svg" xmlns:xlink="http://www.w3.org/1999/xlink" width="28" height="28" viewBox="0 0 28 28">
  <defs>
    <clipPath id="clip-path">
      <rect id="Rectangle_908" data-name="Rectangle 908" width="28" height="26.179" fill="none"/>
    </clipPath>
  </defs>
  <g id="ic-cat" transform="translate(-6925 201)">
    <g id="Group_1740" data-name="Group 1740" transform="translate(6925 -200)">
      <path id="Path_9251" data-name="Path 9251" d="M27.8,58.773H2.378l1.012-7.211H29.175Z" transform="translate(-1.525 -33.081)" fill="#fc0"/>
      <g id="Group_1101" data-name="Group 1101" transform="translate(0 0)">
        <g id="Group_1100" data-name="Group 1100" clip-path="url(#clip-path)">
          <path id="Path_9252" data-name="Path 9252" d="M29.156,8.449c0,4.518-5.626,8.181-12.566,8.181S4.024,12.966,4.024,8.449,9.65.268,16.59.268,29.156,3.931,29.156,8.449" transform="translate(-2.582 -0.172)" fill="#fc0"/>
          <path id="Path_9253" data-name="Path 9253" d="M15.931,20.275l-.239-.232c-.06-.058.006-.259.047-.4a1.338,1.338,0,0,1-.381,0,.51.51,0,0,1-.21-.375l.815-.821.025-.937-.994-.3-.033-.377c-.008-.094.121-.158.254-.25l-.737-.14v-.5l.483-.092a2.773,2.773,0,0,0,3.028.251,3.233,3.233,0,0,0,1.271-1.256,3,3,0,0,0,2.458-1.848l7-.006,5.7-2.1.406.8-5.282,3.133,1.82,5.842-.868.566-2.9-2.715-2.428,2.924-1.085-.5,1.067-3.4-2.639.006-4.361,3.9-1.2-.743.818-1.28Zm3.266-2.91-.8-1.084-.009,2.229Z" transform="translate(-9.288 -6.981)"/>
          <path id="Path_9254" data-name="Path 9254" d="M14.53,8.923a2.86,2.86,0,0,1-1.023-1.145,7.652,7.652,0,0,1-.739-3.742L15.132,5.8l3.287.02L21.25,3.985a11.007,11.007,0,0,1-.787,4.326,2.8,2.8,0,0,1-2.183,1.811,3.988,3.988,0,0,0,.308-2.128l-2.14.937Zm1.3-1.223a.333.333,0,0,0,.361-.127c.284-.579-2.005-.991-1.895-.337.07.411.69-.005,1.534.463M19.3,7.169c-.129-.59-2.353-.084-1.843.485a.372.372,0,0,0,.361.016c.831-.4,1.581-.051,1.483-.5" transform="translate(-8.188 -2.557)"/>
          <path id="Path_9255" data-name="Path 9255" d="M25.456,20.521c2.69-1.924,4.115-4.935,2.5-8.014a.562.562,0,0,1,.357-.227,5.833,5.833,0,0,1-.048,5.8,11.065,11.065,0,0,1-6.4,4.638,18.463,18.463,0,0,1-10.308.177C8.82,22.156,6.04,20.6,4.6,18.146A6.109,6.109,0,0,1,5.868,10.49l.261.332a5.733,5.733,0,0,0-.275,8.345c2.5,2.739,6.515,3.9,10.168,3.974a15.841,15.841,0,0,0,9.434-2.621" transform="translate(-2.412 -6.73)"/>
          <path id="Path_9256" data-name="Path 9256" d="M18.048,15.555a3.076,3.076,0,0,1-1.819,3.091,2.488,2.488,0,0,1-2.826-.622,4.465,4.465,0,0,1-1.129-2.947l1.845,1.287,2.09.008ZM14.44,17.7a.3.3,0,0,0,.249-.1c.037-.06-.057-.257-.127-.283-.828-.306-1.077-.031-.967.077a.7.7,0,0,0,.193.134Zm1.637-.081.4-.089a.243.243,0,0,0,.133-.206c-.07-.256-.783-.2-1.09.153.014.35.395.177.554.142" transform="translate(-7.875 -9.674)"/>
          <path id="Path_9257" data-name="Path 9257" d="M35.579,3.439C31.088-.118,23.962-.46,18.792,1.915a1.225,1.225,0,0,1-.13-.376,18.226,18.226,0,0,1,13.673-.4A12.96,12.96,0,0,1,35.8,3.1a.542.542,0,0,1-.219.34" transform="translate(-11.973 0)"/>
          <path id="Path_9258" data-name="Path 9258" d="M32.913,34.209l-1.256-1.9,1.72-1.515.669,3.062Z" transform="translate(-20.31 -19.754)"/>
          <path id="Path_9259" data-name="Path 9259" d="M64.25,41.614a.579.579,0,0,1,.615.363.524.524,0,0,1-.341.661.6.6,0,0,1-.669-.35.561.561,0,0,1,.395-.674m.209.577c-.025-.034-.152-.082-.173-.042l-.136.269-.058-.579a.416.416,0,0,0,.562.613Z" transform="translate(-40.959 -26.691)"/>
          <path id="Path_9260" data-name="Path 9260" d="M26.194,58.678H0l1.811-8.021H28ZM6.511,57.115H4.525l.325-1.3H7.9l.227-.932H5.078l.172-.662,1.77-.288.2-.835h.289l-.277,1.132L8.3,54.219,8.8,52.165h-2.7l.2-.749-1.068,0-.182.746H2.358l-.506,2.058H2.864l-.095.408,1.377-.23-.117.477-2.343,0-.229.93H3.79l-.557,2.24H7.34l.441-1.778H6.721Zm5.944-1.051c-.083.7-.245,1.291-.361,1.945l2.183-.3.637.3-.275-1.4-1.267.173.141-.666.465.007v.388l1.035-.137v-.254l1.42,0,.841-3.38-2.308-.008.772-.747.591-.568-3.382,0a13.687,13.687,0,0,1-2.588,1.753l.7.694.34-.19h4.574l-.079.286-5.535,0-.226.94h5.523l-.059.28H10.822l-.23.933.455.012-.981.989-.852.242,1.277.651ZM20.232,58a3.418,3.418,0,0,0,2.28-.67l2.192.675.257-1-1.656-.516.219-.36,1.654,0,.843-3.388H24.406l.1-.381h1.606l.233-.94H22.067l-.112.478-.815-.473a19.757,19.757,0,0,1-2.6,3.159l.821.509.329-.319-.806,3.238h1.068l1.252-5.03.738-1.048-.092.43,1.591-.009-.084.381-1.607,0L20.9,56.122l1.384.007a2.381,2.381,0,0,1-1.8.839Zm-4.072-.512-.245-1.218-.983.378.251,1.244Zm9.177-.287a.426.426,0,0,0,.263.81.426.426,0,1,0-.263-.81" transform="translate(0 -32.501)" fill="#006964"/>
          <path id="Path_9261" data-name="Path 9261" d="M66.959,62.778l-.546,0,.072-.282.539-.005Z" transform="translate(-42.609 -40.094)" fill="#006964"/>
          <path id="Path_9262" data-name="Path 9262" d="M63.354,59.358l-.527.005.054-.284h.543Z" transform="translate(-40.309 -37.903)" fill="#006964"/>
          <path id="Path_9263" data-name="Path 9263" d="M67.812,59.364h-.547l.068-.28.539,0Z" transform="translate(-43.156 -37.906)" fill="#006964"/>
          <path id="Path_9264" data-name="Path 9264" d="M62.491,62.775l-.541,0,.066-.285.536,0Z" transform="translate(-39.746 -40.094)" fill="#006964"/>
          <path id="Path_9265" data-name="Path 9265" d="M36.538,55.777h-.782l.478-.377.7,0Z" transform="translate(-22.94 -35.544)" fill="#006964"/>
          <path id="Path_9266" data-name="Path 9266" d="M11.616,57.486l-3.04.493.116-.529,2.935-.008c.057-.012.088.087-.011.043" transform="translate(-5.502 -36.854)" fill="#006964"/>
          <path id="Path_9267" data-name="Path 9267" d="M70.3,69.079a.356.356,0,1,1,.248.667.359.359,0,0,1-.461-.2.347.347,0,0,1,.213-.464m.293.556.058-.033-.012-.231-.008-.149c0-.029-.093-.049-.124-.049l-.288,0,.011.479a.363.363,0,0,0,.07-.222l.257.009Z" transform="translate(-44.952 -44.307)" fill="#006964"/>
          <path id="Path_9268" data-name="Path 9268" d="M70.943,69.533c.032,0,.06.123.031.129l-.135.028c-.032.006-.149.017-.145-.014l.019-.153Z" transform="translate(-45.356 -44.605)" fill="#006964"/>
        </g>
      </g>
    </g>
    <rect id="Rectangle_1228" data-name="Rectangle 1228" width="28" height="28" transform="translate(6925 -201)" fill="none"/>
  </g>
</svg>
