<svg xmlns="http://www.w3.org/2000/svg" xmlns:xlink="http://www.w3.org/1999/xlink" width="24" height="24" viewBox="0 0 24 24">
  <defs>
    <clipPath id="clip-path">
      <rect id="Rectangle_984" data-name="Rectangle 984" width="24" height="24" fill="#fff2c8"/>
    </clipPath>
  </defs>
  <g id="ic-coin" transform="translate(-14 -49)">
    <g id="Group_1174" data-name="Group 1174" transform="translate(14 49)" clip-path="url(#clip-path)">
      <path id="Path_9312" data-name="Path 9312" d="M5.5,12.195c.113,1.419,1.234,2.523,3.245,2.654V15.9h.892V14.842c2.082-.146,3.3-1.258,3.3-2.873,0-1.468-.931-2.225-2.595-2.617l-.7-.167V6.335a1.668,1.668,0,0,1,1.6,1.264H12.8c-.113-1.367-1.285-2.436-3.161-2.552V4H8.745V5.069c-1.777.174-2.989,1.243-2.989,2.755,0,1.338.9,2.189,2.4,2.538l.59.146v3.025a1.8,1.8,0,0,1-1.657-1.338ZM8.737,8.974c-.877-.2-1.353-.619-1.353-1.243A1.444,1.444,0,0,1,8.745,6.355V8.973H8.737Zm1.029,1.774c1.066.247,1.558.647,1.558,1.353,0,.806-.613,1.359-1.688,1.46V10.718Z" transform="translate(2.679 1.948)" fill="#fff2c8"/>
      <path id="Path_9313" data-name="Path 9313" d="M11.9,22.305A10.409,10.409,0,1,1,22.305,11.9,10.409,10.409,0,0,1,11.9,22.305m0,1.487A11.9,11.9,0,1,0,0,11.9a11.9,11.9,0,0,0,11.9,11.9" fill="#fff2c8"/>
      <path id="Path_9314" data-name="Path 9314" d="M10.922,19.1A8.179,8.179,0,1,1,19.1,10.922,8.178,8.178,0,0,1,10.922,19.1m0,.744A8.922,8.922,0,1,0,2,10.922a8.922,8.922,0,0,0,8.922,8.922" transform="translate(0.974 0.974)" fill="#fff2c8"/>
    </g>
  </g>
</svg>
