<svg xmlns="http://www.w3.org/2000/svg" xmlns:xlink="http://www.w3.org/1999/xlink" width="22" height="22" viewBox="0 0 22 22">
  <defs>
    <clipPath id="clip-path">
      <rect id="Rectangle_839" data-name="Rectangle 839" width="22" height="22" fill="#fff"/>
    </clipPath>
  </defs>
  <g id="ic-cart-white" transform="translate(-0.207 -0.064)">
    <g id="Group_1051" data-name="Group 1051" transform="translate(0.207 0.064)" clip-path="url(#clip-path)">
      <path id="Path_9197" data-name="Path 9197" d="M14.35,18.062a2.035,2.035,0,0,0-.122.695,2.135,2.135,0,1,0,2.134-2.084H6.4a.695.695,0,1,1,0-1.389H16.74A3.531,3.531,0,0,0,20.261,12.3L21.1,6.547a2.051,2.051,0,0,0-.5-1.66,2.156,2.156,0,0,0-1.612-.719H4.628L4.393,1.877A2.116,2.116,0,0,0,2.269,0H.711A.7.7,0,0,0,0,.695a.7.7,0,0,0,.711.695H2.269a.705.705,0,0,1,.708.626l1.038,10.14A3.434,3.434,0,0,0,5.1,14.325a2.064,2.064,0,0,0-.834,1.653,2.094,2.094,0,0,0,1.573,2.011,2.035,2.035,0,0,0-.15.768,2.135,2.135,0,0,0,4.268,0,2.035,2.035,0,0,0-.122-.695Zm2.013,0a.695.695,0,1,1-.711.695.7.7,0,0,1,.711-.695m-8.537,0a.695.695,0,1,1-.711.695.7.7,0,0,1,.711-.695M4.77,5.558l.661,6.46a2.116,2.116,0,0,0,2.124,1.877H16.74A2.119,2.119,0,0,0,18.853,12.1l.842-5.754a.684.684,0,0,0-.167-.553.719.719,0,0,0-.538-.24Z" transform="translate(-0.182 -0.054)" fill="#fff" fill-rule="evenodd"/>
      <path id="Path_9198" data-name="Path 9198" d="M91.172,62.2h0a.724.724,0,0,1-.742-.7V57.7a.743.743,0,0,1,1.484,0v3.8a.724.724,0,0,1-.742.7" transform="translate(-78.976 -50.078)" fill="#fff" fill-rule="evenodd"/>
      <path id="Path_9199" data-name="Path 9199" d="M74.9,73.226h0a.724.724,0,0,1,.742-.7h4a.706.706,0,1,1,0,1.41h-4a.724.724,0,0,1-.742-.7" transform="translate(-65.445 -63.708)" fill="#fff" fill-rule="evenodd"/>
    </g>
  </g>
</svg>
