<svg xmlns="http://www.w3.org/2000/svg" xmlns:xlink="http://www.w3.org/1999/xlink" width="28" height="28" viewBox="0 0 28 28">
  <defs>
    <clipPath id="clip-path">
      <rect id="Rectangle_992" data-name="Rectangle 992" width="28" height="21" fill="#666"/>
    </clipPath>
  </defs>
  <g id="ic-credit" transform="translate(-7085 283)">
    <g id="Group_1743" data-name="Group 1743" transform="translate(7085 -279)">
      <g id="Group_1189" data-name="Group 1189" clip-path="url(#clip-path)">
        <rect id="Rectangle_991" data-name="Rectangle 991" width="5.25" height="3.5" rx="0.5" transform="translate(19.25 5.25)" fill="#666"/>
        <path id="Path_9332" data-name="Path 9332" d="M3.5,0A3.5,3.5,0,0,0,0,3.5v14A3.5,3.5,0,0,0,3.5,21h21A3.5,3.5,0,0,0,28,17.5V3.5A3.5,3.5,0,0,0,24.5,0ZM26.25,3.5v8.75H1.75V3.5A1.751,1.751,0,0,1,3.5,1.75h21A1.751,1.751,0,0,1,26.25,3.5M24.5,19.25H3.5A1.751,1.751,0,0,1,1.75,17.5V15.75h24.5V17.5a1.751,1.751,0,0,1-1.75,1.75" fill="#666"/>
      </g>
    </g>
    <rect id="Rectangle_1227" data-name="Rectangle 1227" width="28" height="28" transform="translate(7085 -283)" fill="none"/>
  </g>
</svg>
