<svg xmlns="http://www.w3.org/2000/svg" xmlns:xlink="http://www.w3.org/1999/xlink" width="18" height="18" viewBox="0 0 18 18">
  <defs>
    <clipPath id="clip-path">
      <rect id="Rectangle_840" data-name="Rectangle 840" width="18" height="18" transform="translate(0 -0.328)" fill="#9c2546"/>
    </clipPath>
  </defs>
  <g id="ic-cart-ol" transform="translate(0 0.328)">
    <g id="Group_1097" data-name="Group 1097">
      <g id="Group_1054" data-name="Group 1054" clip-path="url(#clip-path)">
        <path id="Path_9201" data-name="Path 9201" d="M12,15.315a1.747,1.747,0,0,0-.1.589,1.785,1.785,0,1,0,1.785-1.767H5.356a.589.589,0,1,1,0-1.178H14a2.966,2.966,0,0,0,2.946-2.529l.7-4.879a1.755,1.755,0,0,0-.419-1.408,1.793,1.793,0,0,0-1.349-.609H3.871l-.2-1.943A1.779,1.779,0,0,0,1.9,0H.6A.592.592,0,0,0,0,.589a.592.592,0,0,0,.6.589H1.9a.593.593,0,0,1,.592.53l.869,8.6a2.926,2.926,0,0,0,.909,1.84,1.76,1.76,0,0,0,.618,3.107,1.746,1.746,0,0,0-.125.651,1.785,1.785,0,0,0,3.571,0,1.747,1.747,0,0,0-.1-.589Zm1.684,0a.589.589,0,1,1-.6.589.592.592,0,0,1,.6-.589m-7.142,0a.589.589,0,1,1-.6.589.592.592,0,0,1,.6-.589M3.99,4.712l.553,5.477A1.779,1.779,0,0,0,6.32,11.781H14a1.78,1.78,0,0,0,1.767-1.517l.7-4.879a.585.585,0,0,0-.14-.469.6.6,0,0,0-.45-.2Z" fill="#9c2546" fill-rule="evenodd"/>
      </g>
    </g>
    <rect id="Rectangle_875" data-name="Rectangle 875" width="18" height="18" transform="translate(0 -0.328)" fill="none"/>
  </g>
</svg>
