<svg xmlns="http://www.w3.org/2000/svg" width="18" height="18.001" viewBox="0 0 18 18.001">
  <path id="ic-cart" d="M0,1.6A.6.6,0,0,1,.6,1H2.4a.6.6,0,0,1,.582.455L3.468,3.4H17.4a.6.6,0,0,1,.589.71l-1.8,9.6a.6.6,0,0,1-.589.49H4.8a.6.6,0,0,1-.589-.49l-1.8-9.582L1.932,2.2H.6A.6.6,0,0,1,0,1.6M6,14.2a2.4,2.4,0,1,0,2.4,2.4A2.4,2.4,0,0,0,6,14.2m8.4,0a2.4,2.4,0,1,0,2.4,2.4,2.4,2.4,0,0,0-2.4-2.4M6,15.4a1.2,1.2,0,1,1-1.2,1.2A1.2,1.2,0,0,1,6,15.4m8.4,0a1.2,1.2,0,1,1-1.2,1.2,1.2,1.2,0,0,1,1.2-1.2" transform="translate(0 -1)" fill="#fff"/>
</svg>
