<svg xmlns="http://www.w3.org/2000/svg" xmlns:xlink="http://www.w3.org/1999/xlink" width="28" height="28" viewBox="0 0 28 28">
  <defs>
    <clipPath id="clip-path">
      <rect id="Rectangle_907" data-name="Rectangle 907" width="27.071" height="28" fill="none"/>
    </clipPath>
  </defs>
  <g id="ic-family" transform="translate(-7375 208)">
    <g id="Group_1739" data-name="Group 1739" transform="translate(7375 -208)">
      <path id="Path_9238" data-name="Path 9238" d="M.011,142.592v8.56H27.081l0-8.559Z" transform="translate(-0.01 -131.088)" fill="#008bd3"/>
      <path id="Path_9239" data-name="Path 9239" d="M27.079,0H.011v8.56H27.081Z" transform="translate(-0.01 0)" fill="#329e4a"/>
      <path id="Path_9240" data-name="Path 9240" d="M205.785,297.1l-.017-2.758-1.005,1.334-1.008-1.322-.009,2.745-.844-.009v-3.969l.855-.007,1,1.227,1-1.223.86.005v3.963Z" transform="translate(-186.792 -269.791)" fill="#008bd3"/>
      <g id="Group_1098" data-name="Group 1098">
        <g id="Group_1097" data-name="Group 1097" clip-path="url(#clip-path)">
          <path id="Path_9241" data-name="Path 9241" d="M74.811,311.515l-.806.023-.019-1.938c0-.126-.26-.287-.384-.282s-.406.127-.406.266l-.007,1.953-.8-.014.017-2.809c.1-.207.683-.182.768.084a1.042,1.042,0,0,1,1.437.094,1.167,1.167,0,0,1,1.6-.047,1.208,1.208,0,0,1,.248.734l-.007,1.951-.831,0v-1.761c0-.138-.123-.414-.25-.438a1.035,1.035,0,0,0-.562.143Z" transform="translate(-66.696 -284.27)" fill="#008bd3"/>
          <path id="Path_9242" data-name="Path 9242" d="M2.643,294.567l.011.808H.863v1.834L0,297.2V293L2.663,293l.015.806-1.816,0,0,.765Z" transform="translate(0 -269.941)" fill="#008bd3"/>
          <path id="Path_9243" data-name="Path 9243" d="M257.689,311.234a1.009,1.009,0,0,1,.078-1.654,1.939,1.939,0,0,1,1.186-.121c-.047-.515-.712-.465-1.352-.21l-.007-.72a2.659,2.659,0,0,1,1.392-.11.959.959,0,0,1,.758,1.017l.04,1.894a.848.848,0,0,1-.835-.1,1.276,1.276,0,0,1-1.26.009m1.211-.688a1.382,1.382,0,0,0,.019-.526,1.222,1.222,0,0,0-.683.056c-.164.08-.164.451-.034.553.18.141.6.172.7-.082" transform="translate(-237.049 -284.105)" fill="#008bd3"/>
          <path id="Path_9244" data-name="Path 9244" d="M36.417,311.162a1.173,1.173,0,0,1-1.4-.112,1.016,1.016,0,0,1,.055-1.4,1.371,1.371,0,0,1,1.328-.211.36.36,0,0,0-.272-.416,3.724,3.724,0,0,0-1.049.123l.008-.664a2.227,2.227,0,0,1,1.465-.088.88.88,0,0,1,.66.818l.017,1.773.06.252c.017.072-.518.219-.872-.075M36.4,310.5l.02-.533a2.377,2.377,0,0,0-.636.014c-.13.025-.259.315-.216.432a.507.507,0,0,0,.413.264c.1.006.415-.077.419-.177" transform="translate(-32.029 -284.047)" fill="#008bd3"/>
          <path id="Path_9245" data-name="Path 9245" d="M165.011,309.286l-1.324,3.629h-.914l.4-.97-1.1-2.67.9-.02.616,1.572.557-1.578Z" transform="translate(-149.319 -284.915)" fill="#008bd3"/>
          <path id="Path_9246" data-name="Path 9246" d="M321.361,299.086a1.329,1.329,0,0,1-1.1-.064,1.026,1.026,0,0,1-.376-.813l-.015-1.271-.341-.023c-.112-.008-.132-.683,0-.694l.35-.031,0-.771.79-.337.005,1.113.692,0-.016.727-.679.009,0,.963a.694.694,0,0,0,.167.443,1.019,1.019,0,0,0,.54.015Z" transform="translate(-294.297 -271.863)" fill="#008bd3"/>
          <path id="Path_9247" data-name="Path 9247" d="M148.843,297.27l-.819.024v-4.2l.817,0Z" transform="translate(-136.377 -270.03)" fill="#008bd3"/>
          <path id="Path_9248" data-name="Path 9248" d="M294.841,311.553l-.826.014v-2.919l.665-.035.174.3a.772.772,0,0,1,1.024-.24l-.023.869c-.3-.163-.828-.166-.974.13Z" transform="translate(-270.878 -284.296)" fill="#008bd3"/>
          <path id="Path_9249" data-name="Path 9249" d="M131.432,312.188a1.477,1.477,0,0,1-.824.055l0-2.9.822,0Z" transform="translate(-120.329 -284.997)" fill="#008bd3"/>
          <path id="Path_9250" data-name="Path 9250" d="M129.624,292.22a.527.527,0,0,1,.689.307.548.548,0,0,1-.279.649.514.514,0,0,1-.674-.258.487.487,0,0,1,.264-.7" transform="translate(-119.124 -269.192)" fill="#008bd3"/>
        </g>
      </g>
    </g>
    <rect id="Rectangle_1230" data-name="Rectangle 1230" width="28" height="28" transform="translate(7375 -208)" fill="none"/>
  </g>
</svg>
