<svg xmlns="http://www.w3.org/2000/svg" width="40" height="40" viewBox="0 0 40 40">
  <g id="ic-flower" transform="translate(-990 -7704)">
    <g id="花壇アイコン" transform="translate(990 7673.4)">
      <path id="Path_2600" data-name="Path 2600" d="M39.836,62.914,37.1,60.034a.6.6,0,0,0-.866,0l-2.466,2.6a.6.6,0,0,1-.866,0l-1.853-1.952v-3.85a2.7,2.7,0,0,0,1.156.262,2.739,2.739,0,0,0,2.222-4.352,2.735,2.735,0,1,0-1.684-5.2,2.746,2.746,0,0,0-5.492,0,2.735,2.735,0,0,0-1.684,5.2,2.712,2.712,0,0,0-.526,1.6,2.747,2.747,0,0,0,2.747,2.748,2.71,2.71,0,0,0,1.158-.262V60.7l-1.839,1.936a.6.6,0,0,1-.865,0l-2.468-2.6a.6.6,0,0,0-.865,0l-2.468,2.6a.6.6,0,0,1-.865,0l-2.468-2.6a.6.6,0,0,0-.865,0l-1.9,2V53.026a4.453,4.453,0,0,0,2.586.826,4.514,4.514,0,0,0,3.662-7.171,4.505,4.505,0,1,0-2.775-8.572,4.525,4.525,0,0,0-9.05,0,4.505,4.505,0,0,0-2.775,8.572,4.512,4.512,0,0,0,6.248,6.344v8.9l-1.8-1.891a.6.6,0,0,0-.865,0l-2.471,2.6a.6.6,0,0,1-.865,0l-2.473-2.6a.6.6,0,0,0-.865,0L.165,62.914A.6.6,0,0,0,0,63.325V68.35H40V63.325A.6.6,0,0,0,39.836,62.914Zm-28.9-18.23a2.357,2.357,0,1,1,2.356,2.354A2.356,2.356,0,0,1,10.936,44.684ZM30,52.954a1.429,1.429,0,1,1,1.431-1.428A1.428,1.428,0,0,1,30,52.954Z" fill="#fff2c8"/>
    </g>
    <rect id="Rectangle_846" data-name="Rectangle 846" width="40" height="40" transform="translate(990 7704)" fill="none"/>
  </g>
</svg>
