<svg xmlns="http://www.w3.org/2000/svg" width="20" height="20" viewBox="0 0 20 20">
  <path id="ic-globe" d="M0,10A10,10,0,1,1,10,20,10,10,0,0,1,0,10M9.375,1.346A4.4,4.4,0,0,0,7.016,3.665,10,10,0,0,0,6.431,5H9.375ZM5.113,5a11.625,11.625,0,0,1,.8-1.924A8.75,8.75,0,0,1,6.659,1.91,8.788,8.788,0,0,0,2.819,5ZM4.385,9.375a17.128,17.128,0,0,1,.39-3.125H2.092a8.75,8.75,0,0,0-.82,3.125ZM6.059,6.25a15.625,15.625,0,0,0-.423,3.125H9.375V6.25Zm4.566,0V9.375h3.737a15.625,15.625,0,0,0-.421-3.125ZM5.638,10.625a15.625,15.625,0,0,0,.421,3.125H9.375V10.625Zm4.987,0V13.75h3.316a15.567,15.567,0,0,0,.423-3.125ZM6.431,15a10.056,10.056,0,0,0,.585,1.335,4.407,4.407,0,0,0,2.359,2.319V15Zm.227,3.09a8.75,8.75,0,0,1-.746-1.166A11.625,11.625,0,0,1,5.113,15H2.819a8.75,8.75,0,0,0,3.84,3.09M4.775,13.75a17.125,17.125,0,0,1-.39-3.125H1.272a8.658,8.658,0,0,0,.82,3.125Zm8.566,4.34A8.75,8.75,0,0,0,17.181,15H14.887a11.625,11.625,0,0,1-.8,1.924,8.75,8.75,0,0,1-.746,1.166M10.625,15v3.654a4.4,4.4,0,0,0,2.359-2.319A9.961,9.961,0,0,0,13.569,15Zm4.6-1.25h2.683a8.658,8.658,0,0,0,.82-3.125H15.615a17.125,17.125,0,0,1-.39,3.125m3.5-4.375a8.75,8.75,0,0,0-.82-3.125H15.225a17.128,17.128,0,0,1,.39,3.125Zm-4.64-6.3A11.569,11.569,0,0,1,14.888,5h2.294a8.75,8.75,0,0,0-3.84-3.09,8.485,8.485,0,0,1,.746,1.166M13.569,5a10,10,0,0,0-.585-1.335,4.4,4.4,0,0,0-2.359-2.319V5Z" fill="#ff4d7d"/>
</svg>
