<svg xmlns="http://www.w3.org/2000/svg" width="14" height="12.872" viewBox="0 0 14 12.872">
  <g id="ic-home" transform="translate(-0.499 -1.207)">
    <path id="Path_235" data-name="Path 235" d="M8.159,1.48a.933.933,0,0,0-1.32,0l-6.2,6.2a.467.467,0,1,0,.661.661l6.2-6.2,6.2,6.2a.467.467,0,0,0,.661-.661l-2.2-2.2V2.414a.467.467,0,0,0-.467-.467h-.933a.467.467,0,0,0-.467.467V3.62Z" transform="translate(0)" fill="#ffa6ca"/>
    <path id="Path_236" data-name="Path 236" d="M7.6,3.293l5.6,5.6v3.926a1.4,1.4,0,0,1-1.4,1.4H3.4a1.4,1.4,0,0,1-1.4-1.4V8.893Z" transform="translate(-0.1 -0.139)" fill="#ffa6ca"/>
  </g>
</svg>
