<svg id="ic-ig" xmlns="http://www.w3.org/2000/svg" xmlns:xlink="http://www.w3.org/1999/xlink" width="29" height="29" viewBox="0 0 29 29">
  <defs>
    <clipPath id="clip-path">
      <rect id="Rectangle_21" data-name="Rectangle 21" width="29" height="29" fill="#ff88a9"/>
    </clipPath>
  </defs>
  <g id="Group_20" data-name="Group 20" transform="translate(0 0)" clip-path="url(#clip-path)">
    <path id="Path_27" data-name="Path 27" d="M14.471,29A14.5,14.5,0,1,1,29,14.617,14.524,14.524,0,0,1,14.471,29m.043-23.822V5.158c-1.29,0-2.58,0-3.87,0a6.137,6.137,0,0,0-.763.036A5.43,5.43,0,0,0,5.09,10.631q-.006,3.944,0,7.888a5.425,5.425,0,0,0,5.429,5.449q3.968.013,7.936-.007a5.884,5.884,0,0,0,1.435-.186,5.4,5.4,0,0,0,4.018-5.2q.016-3.906,0-7.813a7.344,7.344,0,0,0-.091-1.127A5.356,5.356,0,0,0,18.9,5.189c-1.46-.063-2.924-.012-4.386-.012" transform="translate(0 0)" fill="#ff88a9"/>
    <path id="Path_28" data-name="Path 28" d="M28.3,20.87c0,1.315,0,2.629,0,3.944a3.594,3.594,0,0,1-3.677,3.708c-2.177.013-4.354.005-6.532,0-.624,0-1.252.027-1.871-.033a3.54,3.54,0,0,1-3.249-3.535q-.032-4.1,0-8.208A3.564,3.564,0,0,1,16.6,13.182q4,0,8.01,0a3.585,3.585,0,0,1,3.683,3.7q0,2,0,3.993m-7.674,4.857a4.883,4.883,0,1,0-4.874-4.9,4.873,4.873,0,0,0,4.874,4.9m6.187-9.951a1.139,1.139,0,1,0-1.138,1.145,1.146,1.146,0,0,0,1.138-1.145" transform="translate(-6.13 -6.238)" fill="#ff88a9"/>
    <path id="Path_29" data-name="Path 29" d="M24.689,28.05a3.16,3.16,0,1,1,3.16-3.161,3.149,3.149,0,0,1-3.16,3.161" transform="translate(-10.191 -10.284)" fill="#ff88a9"/>
  </g>
</svg>
