<svg xmlns="http://www.w3.org/2000/svg" xmlns:xlink="http://www.w3.org/1999/xlink" width="18.16" height="18" viewBox="0 0 18.16 18">
  <defs>
    <clipPath id="clip-path">
      <rect id="Rectangle_843" data-name="Rectangle 843" width="17.672" height="14.74" fill="#9c2546"/>
    </clipPath>
  </defs>
  <g id="ic-like" transform="translate(0.488 0.328)">
    <g id="Group_1098" data-name="Group 1098" transform="translate(0 1.767)">
      <g id="Group_1056" data-name="Group 1056" clip-path="url(#clip-path)">
        <path id="Path_9202" data-name="Path 9202" d="M10.079,14.225,16.3,8.006a4.689,4.689,0,0,0,0-6.631l0,0a4.689,4.689,0,0,0-6.631,0l-.83.83-.83-.83a4.689,4.689,0,0,0-6.631,0l0,0a4.689,4.689,0,0,0,0,6.631l6.219,6.219a1.759,1.759,0,0,0,2.487,0M9.25,13.4a.586.586,0,0,1-.829,0L2.2,7.177A3.516,3.516,0,0,1,2.2,2.2l0,0a3.516,3.516,0,0,1,4.973,0L8.421,3.447a.586.586,0,0,0,.829,0L10.495,2.2a3.516,3.516,0,0,1,4.973,0l0,0a3.516,3.516,0,0,1,0,4.973Z" fill="#9c2546" fill-rule="evenodd"/>
      </g>
    </g>
    <rect id="Rectangle_876" data-name="Rectangle 876" width="18" height="18" transform="translate(-0.488 -0.328)" fill="none"/>
  </g>
</svg>
