<svg id="ic-line" xmlns="http://www.w3.org/2000/svg" xmlns:xlink="http://www.w3.org/1999/xlink" width="29" height="29" viewBox="0 0 29 29">
  <defs>
    <clipPath id="clip-path">
      <rect id="Rectangle_23" data-name="Rectangle 23" width="29" height="29" fill="#ff88a9"/>
    </clipPath>
  </defs>
  <g id="Group_24" data-name="Group 24" clip-path="url(#clip-path)">
    <path id="Path_31" data-name="Path 31" d="M14.491,0A14.5,14.5,0,1,1,0,14.55,14.521,14.521,0,0,1,14.491,0m-.1,5.576c-.37.032-.84.055-1.3.115a9.394,9.394,0,0,0-6.07,3.158,6.619,6.619,0,0,0-.861,7.456,8.408,8.408,0,0,0,5.073,4.037,21.144,21.144,0,0,0,2.2.468c.5.1.691.33.59.8-.094.445-.245.877-.372,1.315-.113.39.019.573.4.462A3.8,3.8,0,0,0,15.16,22.9c1.618-1.125,3.241-2.247,4.808-3.44a10.692,10.692,0,0,0,2.669-2.779,6.589,6.589,0,0,0-.673-7.845,9.754,9.754,0,0,0-7.575-3.257" transform="translate(-0.001)" fill="#ff88a9"/>
    <path id="Path_32" data-name="Path 32" d="M143.713,127.886c0,.689,0,1.378,0,2.068,0,.494-.136.731-.423.723s-.4-.23-.4-.71q0-1.268,0-2.536c0-.117-.006-.236.005-.352.028-.3,0-.645.393-.736.362-.083.52.191.684.44.526.8,1.054,1.6,1.628,2.475.014-.18.028-.277.028-.374,0-.669-.006-1.338.006-2.007,0-.264.048-.55.408-.54.334.009.371.27.372.53,0,1.068.007,2.137,0,3.2,0,.233,0,.485-.294.573a.584.584,0,0,1-.694-.283c-.412-.613-.814-1.234-1.22-1.851l-.425-.644-.075.018" transform="translate(-129.43 -114.433)" fill="#ff88a9"/>
    <path id="Path_33" data-name="Path 33" d="M191.214,127.7v1.042h1.477c.106,0,.212-.005.317,0,.2.019.367.121.308.332a.463.463,0,0,1-.313.286c-.42.035-.844.015-1.267.015h-.513v1.195c.581,0,1.153,0,1.725,0a.731.731,0,0,1,.345.026c.113.069.252.206.254.317s-.147.225-.252.311a.416.416,0,0,1-.238.037c-.693,0-1.386.01-2.079,0-.516-.008-.63-.116-.636-.621q-.016-1.513,0-3.027c0-.443.134-.563.574-.567.716-.007,1.433,0,2.149,0,.238,0,.438.067.437.339s-.2.314-.421.314h-1.866" transform="translate(-172.404 -115.081)" fill="#ff88a9"/>
    <path id="Path_34" data-name="Path 34" d="M86.355,130.178c.593,0,1.12,0,1.647,0,.234,0,.475.022.483.329.009.326-.249.368-.49.372-.646.01-1.292.014-1.938,0-.426-.01-.556-.141-.559-.554-.008-1.056,0-2.112,0-3.168,0-.07-.015-.163.023-.206.112-.129.243-.325.374-.331s.32.156.4.293a1.007,1.007,0,0,1,.056.48c0,.913,0,1.825,0,2.786" transform="translate(-77.441 -114.697)" fill="#ff88a9"/>
    <path id="Path_35" data-name="Path 35" d="M123.771,128.523c0-.551,0-1.1,0-1.652,0-.274.094-.5.414-.5s.427.235.43.5c.01,1.113.008,2.226,0,3.339,0,.267-.116.5-.427.5-.332,0-.42-.247-.421-.533,0-.551,0-1.1,0-1.652h.005" transform="translate(-112.106 -114.473)" fill="#ff88a9"/>
  </g>
</svg>
