<svg xmlns="http://www.w3.org/2000/svg" xmlns:xlink="http://www.w3.org/1999/xlink" width="40" height="40" viewBox="0 0 40 40">
  <defs>
    <clipPath id="clip-path">
      <rect id="Rectangle_157" data-name="Rectangle 157" width="34.726" height="40" fill="#fff2c8"/>
    </clipPath>
  </defs>
  <g id="ic-leaves" transform="translate(-767 -7703)">
    <g id="Group_260" data-name="Group 260" transform="translate(770 7703)">
      <g id="Group_259" data-name="Group 259" clip-path="url(#clip-path)">
        <path id="Path_2595" data-name="Path 2595" d="M13.855,98.689a5.482,5.482,0,0,0,2.96-2.73L17.956,91.4a.969.969,0,0,0-.233-1.048.981.981,0,0,0-1.071-.121l-4.014,1.834a4.062,4.062,0,0,0-2.02,1.989l-1.5,3.877a1.059,1.059,0,0,0-.107-.011.886.886,0,0,0-.107.011L7.4,94.057a4.061,4.061,0,0,0-2.021-1.989L1.364,90.234a.981.981,0,0,0-1.071.121A.968.968,0,0,0,.061,91.4L1.2,95.959a5.479,5.479,0,0,0,2.96,2.73A17.442,17.442,0,0,0,8,99.818v5.189l-.6-1.547a4.061,4.061,0,0,0-2.021-1.989L1.364,99.638a.981.981,0,0,0-1.071.121.968.968,0,0,0-.233,1.048L1.2,105.363a5.479,5.479,0,0,0,2.96,2.73A17.408,17.408,0,0,0,8,109.222v5.189l-.6-1.547a4.061,4.061,0,0,0-2.021-1.989l-4.014-1.834a.981.981,0,0,0-1.071.121.968.968,0,0,0-.233,1.048L1.2,114.766a5.479,5.479,0,0,0,2.96,2.73A17.449,17.449,0,0,0,8,118.626v2.421a1.01,1.01,0,1,0,2.019,0v-2.421a17.469,17.469,0,0,0,3.837-1.129,5.482,5.482,0,0,0,2.96-2.73l1.142-4.556a.969.969,0,0,0-.233-1.048.981.981,0,0,0-1.071-.121l-4.014,1.834a4.063,4.063,0,0,0-2.02,1.989l-.6,1.548v-5.191a17.424,17.424,0,0,0,3.837-1.129,5.482,5.482,0,0,0,2.96-2.73l1.142-4.556a.969.969,0,0,0-.233-1.048.981.981,0,0,0-1.071-.121l-4.014,1.834a4.063,4.063,0,0,0-2.02,1.989l-.6,1.549V99.818a17.451,17.451,0,0,0,3.837-1.129" transform="translate(0 -82.056)" fill="#fff2c8"/>
        <path id="Path_2596" data-name="Path 2596" d="M64.354,10.372a1.019,1.019,0,0,0,1.785,0l2.248-3.856a2.133,2.133,0,0,0,0-2.133L66.139.528a1.019,1.019,0,0,0-1.785,0L62.106,4.382a2.135,2.135,0,0,0,0,2.135Z" transform="translate(-56.281)" fill="#fff2c8"/>
        <path id="Path_2597" data-name="Path 2597" d="M255.891,201.831a3.856,3.856,0,0,0,2.082-1.92l.8-3.205a.681.681,0,0,0-.164-.737.69.69,0,0,0-.752-.085l-2.825,1.29a2.865,2.865,0,0,0-1.421,1.4l-1.057,2.728a.644.644,0,0,0-.075-.007.672.672,0,0,0-.076.007l-1.055-2.728a2.861,2.861,0,0,0-1.422-1.4l-2.824-1.29a.69.69,0,0,0-.752.085.681.681,0,0,0-.164.737l.8,3.205a3.854,3.854,0,0,0,2.082,1.92,12.275,12.275,0,0,0,2.7.795v3.651l-.421-1.089a2.861,2.861,0,0,0-1.422-1.4L247.1,202.5a.69.69,0,0,0-.752.085.681.681,0,0,0-.164.737l.8,3.205a3.857,3.857,0,0,0,2.082,1.921,12.313,12.313,0,0,0,2.7.794v3.65l-.421-1.089a2.859,2.859,0,0,0-1.422-1.4l-2.824-1.29a.69.69,0,0,0-.752.085.682.682,0,0,0-.164.737l.8,3.2a3.857,3.857,0,0,0,2.082,1.921,12.313,12.313,0,0,0,2.7.794v1.7a.71.71,0,1,0,1.42,0v-1.7a12.317,12.317,0,0,0,2.7-.794,3.86,3.86,0,0,0,2.082-1.921l.8-3.2a.682.682,0,0,0-.164-.737.69.69,0,0,0-.752-.085l-2.825,1.29a2.862,2.862,0,0,0-1.421,1.4l-.422,1.089v-3.651a12.316,12.316,0,0,0,2.7-.794,3.859,3.859,0,0,0,2.082-1.921l.8-3.205a.681.681,0,0,0-.164-.737.69.69,0,0,0-.752-.085l-2.825,1.29a2.865,2.865,0,0,0-1.421,1.4l-.422,1.09v-3.652a12.284,12.284,0,0,0,2.7-.795" transform="translate(-224.092 -178.269)" fill="#fff2c8"/>
        <path id="Path_2598" data-name="Path 2598" d="M291.415,139.7a.716.716,0,0,0,1.255,0l1.582-2.712a1.5,1.5,0,0,0,0-1.5l-1.582-2.712a.716.716,0,0,0-1.255,0l-1.581,2.711a1.5,1.5,0,0,0,0,1.5Z" transform="translate(-263.684 -120.541)" fill="#fff2c8"/>
      </g>
    </g>
    <rect id="Rectangle_844" data-name="Rectangle 844" width="40" height="40" transform="translate(767 7703)" fill="none"/>
  </g>
</svg>
