<svg xmlns="http://www.w3.org/2000/svg" xmlns:xlink="http://www.w3.org/1999/xlink" width="28" height="28" viewBox="0 0 28 28">
  <defs>
    <clipPath id="clip-path">
      <rect id="Rectangle_990" data-name="Rectangle 990" width="26.39" height="28" fill="none"/>
    </clipPath>
  </defs>
  <g id="ic-linepay" transform="translate(-7380 280)">
    <g id="Group_1742" data-name="Group 1742" transform="translate(7380 -280)">
      <g id="Group_1187" data-name="Group 1187" transform="translate(0 0)" clip-path="url(#clip-path)">
        <path id="Path_9322" data-name="Path 9322" d="M26.39,24.578a.957.957,0,0,1-1.019.745l-24.5,0A.917.917,0,0,1,0,24.31L0,9.557A.931.931,0,0,1,1.11,8.808H25.324a.882.882,0,0,1,1.061.791ZM7.261,17.884a2.673,2.673,0,0,0,2.2-1.971,3.238,3.238,0,0,0,0-1.393,2.6,2.6,0,0,0-1.808-1.836l-.354-.108-3.225-.005-.183.142v7.42l.16.147H5.586a.387.387,0,0,0,.116-.3V17.927a8.932,8.932,0,0,0,1.559-.043m8.82,2.387,0-5.355a1.046,1.046,0,0,0-.166-.179l-1.5.009-.172.337A2.389,2.389,0,0,0,13.5,14.7l-.4-.086a1.889,1.889,0,0,0-.716.005l-.4.091a2.776,2.776,0,0,0-1.719,1.73l-.163.7a2.385,2.385,0,0,0,.025.916,2.851,2.851,0,0,0,1.683,2.239,2.426,2.426,0,0,0,2.433-.305l.136.294Zm5.37-5.325L20.26,17.94l-.167-.265-.177-.454-.166-.4-.183-.447-.168-.41-.184-.449-.171-.411c-.038-.091-.093-.342-.2-.354l-1.628-.007a.429.429,0,0,0-.039.31l.6,1.445,1.552,3.8-.71,1.778a.782.782,0,0,0-.034.423l1.712,0,2.9-7.3c.063-.159.14-.31.027-.454l-1.582,0c-.056,0-.158.13-.187.2" transform="translate(0 2.677)" fill="#09bf5b"/>
        <path id="Path_9323" data-name="Path 9323" d="M15.508,8.554l-1.486.009a2.194,2.194,0,0,1-.361-.421L10.426,3.533l-.014,4.772a1.233,1.233,0,0,1-.239.256l-1.456,0a.319.319,0,0,1-.29-.3V.3a.31.31,0,0,1,.29-.3L10.321,0a2.073,2.073,0,0,1,.343.389L13.78,4.835,13.79.307A.5.5,0,0,1,14.026,0l1.456,0a.3.3,0,0,1,.287.3v7.95a.314.314,0,0,1-.261.3" transform="translate(2.567 0)"/>
        <path id="Path_9324" data-name="Path 9324" d="M20.367,5.273l-3.319,0L17.04,6.576h3.413c.1.007.342.132.343.232L20.8,8.265a.324.324,0,0,1-.3.295l-5.2-.005c-.116,0-.239-.249-.239-.355V.357c0-.111.12-.352.237-.354l5.257,0A.329.329,0,0,1,20.8.238V1.7a.338.338,0,0,1-.244.237l-3.522.008.005,1.338h3.372c.17,0,.389.085.387.292l0,1.4c0,.227-.265.3-.432.3" transform="translate(4.587 0)"/>
        <path id="Path_9325" data-name="Path 9325" d="M6.412,6.928,6.4,8.257a.326.326,0,0,1-.3.3l-5.161,0c-.184,0-.287-.235-.287-.4V.358c0-.115.13-.35.236-.35L2.441,0a.473.473,0,0,1,.22.327V6.577l3.389,0a.379.379,0,0,1,.36.348" transform="translate(0.201 0.001)"/>
        <path id="Path_9326" data-name="Path 9326" d="M7.587,8.558H6.145a.322.322,0,0,1-.237-.252V.253A.31.31,0,0,1,6.151,0l1.5.007c.091,0,.2.2.2.295V8.255a.324.324,0,0,1-.265.3" transform="translate(1.799 0)"/>
        <path id="Path_9327" data-name="Path 9327" d="M6.354,17a8.936,8.936,0,0,1-1.559.043V19.1a.381.381,0,0,1-.117.3H3.139l-.16-.147V11.83l.183-.141,3.225,0,.354.108a2.6,2.6,0,0,1,1.808,1.836,3.224,3.224,0,0,1,0,1.395A2.672,2.672,0,0,1,6.354,17m.431-2.466a.977.977,0,0,0-.192-.809A.932.932,0,0,0,5.84,13.4l-1.045.012v1.839H6.088a.8.8,0,0,0,.7-.72" transform="translate(0.907 3.56)" fill="#fff"/>
        <path id="Path_9328" data-name="Path 9328" d="M13.731,18.919l-1.7.01-.136-.294a2.424,2.424,0,0,1-2.432.305A2.854,2.854,0,0,1,7.778,16.7a2.431,2.431,0,0,1-.025-.915l.163-.7A2.774,2.774,0,0,1,9.636,13.36l.4-.091a1.838,1.838,0,0,1,.716-.005l.4.086a2.383,2.383,0,0,1,.746.381l.172-.338,1.5-.008a1,1,0,0,1,.166.179ZM11.182,17.4a1.186,1.186,0,0,0,.8-1.188,1.21,1.21,0,0,0-.776-1.239,1.263,1.263,0,0,0-1.178.111,1.209,1.209,0,0,0-.558.981,1.241,1.241,0,0,0,.8,1.34,1.743,1.743,0,0,0,.908,0" transform="translate(2.351 4.03)" fill="#fff"/>
        <path id="Path_9329" data-name="Path 9329" d="M17.445,13.557c.029-.073.13-.2.187-.2l1.582,0c.112.144.035.295-.027.454l-2.9,7.3-1.712,0a.782.782,0,0,1,.034-.423l.71-1.778-1.552-3.8-.6-1.445a.429.429,0,0,1,.039-.31l1.628.007c.108.012.163.262.2.354l.171.411.184.449.168.41.183.447.166.4.177.454.167.265Z" transform="translate(4.006 4.067)" fill="#fff"/>
        <path id="Path_9330" data-name="Path 9330" d="M6.36,14.135a.8.8,0,0,1-.7.72H4.372V13.016L5.416,13a.932.932,0,0,1,.753.322.977.977,0,0,1,.192.809" transform="translate(1.331 3.961)" fill="#09bf5b"/>
        <path id="Path_9331" data-name="Path 9331" d="M10.773,17.015a1.743,1.743,0,0,1-.908,0,1.241,1.241,0,0,1-.8-1.34,1.209,1.209,0,0,1,.558-.981,1.263,1.263,0,0,1,1.178-.111,1.21,1.21,0,0,1,.776,1.239,1.186,1.186,0,0,1-.8,1.188" transform="translate(2.759 4.414)" fill="#09bf5b"/>
      </g>
    </g>
    <rect id="Rectangle_1226" data-name="Rectangle 1226" width="28" height="28" transform="translate(7380 -280)" fill="none"/>
  </g>
</svg>
