<svg xmlns="http://www.w3.org/2000/svg" width="17.543" height="17.542" viewBox="0 0 17.543 17.542">
  <g id="ic-link" transform="translate(-2.464 -1.965)">
    <path id="Path_9235" data-name="Path 9235" d="M6.031,7.151,3.857,9.325a4.754,4.754,0,0,0,6.723,6.723l2.9-2.9A4.754,4.754,0,0,0,12.164,5.5l-.929.929a1.585,1.585,0,0,0-.244.315,3.169,3.169,0,0,1,1.364,5.288l-2.895,2.9a3.171,3.171,0,0,1-4.484-4.484L6.234,9.189a6.338,6.338,0,0,1-.2-2.039Z" transform="translate(0 2.066)" fill="#ae864b"/>
    <path id="Path_9236" data-name="Path 9236" d="M7.1,6.254A4.754,4.754,0,0,0,8.412,13.9l1.228-1.23a3.169,3.169,0,0,1-1.42-5.3l2.895-2.9A3.171,3.171,0,1,1,15.6,8.961l-1.257,1.255a6.375,6.375,0,0,1,.2,2.039l2.174-2.174A4.754,4.754,0,0,0,10,3.358Z" transform="translate(1.896 0)" fill="#ae864b"/>
  </g>
</svg>
