<svg xmlns="http://www.w3.org/2000/svg" width="20" height="20" viewBox="0 0 20 20">
  <g id="ic-mail-dark" transform="translate(-820 -411)">
    <path id="envelope-fill" d="M.05,3.555A2,2,0,0,1,2,2H14a2,2,0,0,1,1.95,1.555L8,8.414ZM0,4.7v7.1L5.8,8.243ZM6.761,8.83.191,12.857A2,2,0,0,0,2,14H14a2,2,0,0,0,1.808-1.144L9.238,8.829,8,9.586ZM10.2,8.244,16,11.8V4.7Z" transform="translate(822 413)" fill="#ff88a9"/>
    <rect id="Rectangle_833" data-name="Rectangle 833" width="20" height="20" transform="translate(820 411)" fill="none"/>
  </g>
</svg>
