<svg xmlns="http://www.w3.org/2000/svg" width="18" height="18" viewBox="0 0 18 18">
  <g id="ic-order-track" transform="translate(0.492 0.492)">
    <g id="Group_1161" data-name="Group 1161" transform="translate(-0.492 -0.492)">
      <rect id="Rectangle_964" data-name="Rectangle 964" width="18" height="18" fill="none"/>
    </g>
    <g id="Group_1163" data-name="Group 1163" transform="translate(2.11 0.644)">
      <g id="Group_1162" data-name="Group 1162">
        <path id="Path_9299" data-name="Path 9299" d="M4.466,3.933H5.933v2.2h7.332v-2.2h1.466V7.6H16.2V3.933a1.471,1.471,0,0,0-1.466-1.466H11.667a2.191,2.191,0,0,0-4.135,0H4.466A1.471,1.471,0,0,0,3,3.933V14.2a1.471,1.471,0,0,0,1.466,1.466H8.133V14.2H4.466ZM9.6,2.466a.733.733,0,1,1-.733.733A.735.735,0,0,1,9.6,2.466Z" transform="translate(-3 -1)" fill="#9c2546"/>
        <path id="Path_9300" data-name="Path 9300" d="M18.086,17.059A3.53,3.53,0,0,0,18.6,15.3a3.3,3.3,0,1,0-3.3,3.3,3.53,3.53,0,0,0,1.76-.513l1.98,1.98,1.027-1.027Zm-2.786.073A1.833,1.833,0,1,1,17.133,15.3,1.815,1.815,0,0,1,15.3,17.133Z" transform="translate(-5.401 -3.934)" fill="#9c2546"/>
      </g>
    </g>
  </g>
</svg>
