<svg xmlns="http://www.w3.org/2000/svg" width="40" height="40" viewBox="0 0 40 40">
  <g id="ic-peach" transform="translate(-660 -7696)">
    <g id="桃のアイコン素材_1" data-name="桃のアイコン素材 1" transform="translate(663 7682.458)">
      <path id="Path_2594" data-name="Path 2594" d="M25.78,22.426c-7.339-3.708-7.013-5.884-8.28-5.884s-.941,2.176-8.28,5.884C4.283,25.048,0,29.923,0,35.646a13.061,13.061,0,0,0,5.126,10.6c3.342,2.472,13.993,4.918,12.986-5.76-.235-2.494,3.105-2.682,1.458,4.187-.728,3.041-2.164,3.716-2.54,3.905s-.377.469.47.564a17.607,17.607,0,0,0,12.375-2.9C33.119,44.015,35,39.785,35,35.646,35,29.923,30.718,25.048,25.78,22.426Z" fill="#fff2c8"/>
    </g>
    <rect id="Rectangle_843" data-name="Rectangle 843" width="40" height="40" transform="translate(660 7696)" fill="none"/>
  </g>
</svg>
