<svg xmlns="http://www.w3.org/2000/svg" xmlns:xlink="http://www.w3.org/1999/xlink" width="40" height="40" viewBox="0 0 40 40">
  <defs>
    <clipPath id="clip-path">
      <rect id="Rectangle_158" data-name="Rectangle 158" width="33.983" height="37.74" fill="#fff2c8"/>
    </clipPath>
  </defs>
  <g id="ic-plants" transform="translate(-899 -7698)">
    <g id="Group_262" data-name="Group 262" transform="translate(902 7699)">
      <g id="Group_261" data-name="Group 261" transform="translate(0 0)" clip-path="url(#clip-path)">
        <path id="Path_2599" data-name="Path 2599" d="M33.52,27.281c-.381.024-.775.16-1.132-.1a1.553,1.553,0,0,0-.755-.424,3.411,3.411,0,0,1-1.782-1.35,5.247,5.247,0,0,0-2.945-2.545,48.152,48.152,0,0,0-4.731-2.393,5.615,5.615,0,0,0-2.145-.433c-1.057.006-2.112-.049-3.165-.077a5.309,5.309,0,0,0-3.076.568c-.443.2-.792.534-1.224.729a8.361,8.361,0,0,0-1.887,1.226,14.116,14.116,0,0,0-2.134,2.14c-.462.587-1.246,1.032-1.138,1.966.007.058-.055.124-.086.185-.287.575-.546,1.162-.793,1.756a3.355,3.355,0,0,1-1.064,1.414,9.362,9.362,0,0,1-1.261.7c-.329-.013-.308-.217-.2-.42.323-.625.272-1.395.768-1.954.069-.077.063-.217.1-.324a25.289,25.289,0,0,1,1.309-3.526,1.154,1.154,0,0,0,.235-.7,3.535,3.535,0,0,1,.562-.831c.419.047.55-.181.531-.554l.321-.414a5.351,5.351,0,0,0,.7-.739c.641-.737,1.143-1.575,1.737-2.346.348-.39.868-.569,1.18-1.02a18.237,18.237,0,0,0,1.776-3.07,33.455,33.455,0,0,1,2.4-4.651.755.755,0,0,0,.183-.508,9.582,9.582,0,0,1,.684-1.408c.2-.065.177-.225.167-.38l.113-.168c.179-.063.16-.226.186-.367a39.025,39.025,0,0,0,1.9-4.183A18.485,18.485,0,0,1,19.98.767.727.727,0,0,0,20.04,0c-.314.141-.642.225-.757.619a5.293,5.293,0,0,1-1.118,2.023.5.5,0,0,0-.132.443,3.26,3.26,0,0,1-.909,1.275,1.515,1.515,0,0,0-.44.609,4.138,4.138,0,0,1-.861,1.386,6,6,0,0,0-.652.966c-.445.645-.679,1.415-1.123,2.047-.658.934-1.085,2-1.8,2.908-.541.689-.98,1.486-1.46,2.237a2.442,2.442,0,0,0-.509,1.467,1.258,1.258,0,0,1-.219.784c-.628.853-.813,1.93-1.444,2.776-.193.049-.245.332-.509.308a1.514,1.514,0,0,1,.049-.874c.46-.815.323-1.766.616-2.619a.651.651,0,0,0,.12-.661c.013-.052.024-.1.036-.155a3.982,3.982,0,0,0,.4-1.511,3,3,0,0,1,.165-.808,15.993,15.993,0,0,0,.544-2.62c.1-.663.036-1.329.091-1.982A7.414,7.414,0,0,0,9.74,5.573a1.666,1.666,0,0,0-.13-.671A9.045,9.045,0,0,0,8.6,2.377C8.263,1.764,7.668,1.369,7.392.731,7.274.564,7.173.337,6.911.493c-.171.1-.4.208-.31.472.073.224-.038.394-.088.593-.185.736-.577,1.394-.725,2.151A9.143,9.143,0,0,1,5.16,6.034,16.773,16.773,0,0,1,4.3,8.128a2.393,2.393,0,0,0-.362,1.721c.172.858.093,1.734.247,2.594a6.5,6.5,0,0,0,.19.934c.536,1.612,1.239,3.164,1.671,4.813.086.327.139.748.649.767.192.007.147.2.146.33,0,.576-.026,1.152-.02,1.728a1.8,1.8,0,0,1-.17.732h0l-.125.13a4.507,4.507,0,0,0-.373.479c-.249.424-.648.785-.677,1.305a5.652,5.652,0,0,1-.187,1l-.006.008c-.18.1-.2.3-.26.467A16.12,16.12,0,0,1,4.292,27.2a20.566,20.566,0,0,0-1.229,2.526c-.355,1.018-.937,1.944-1.219,3-.1.373-.2.747-.326,1.116-.293.873-.808,1.651-1.043,2.542a.522.522,0,0,1-.232.326c-.36.233-.238.57-.155.87.054.2.23.228.364.052a2.515,2.515,0,0,0,.278-.476c.385-.834.763-1.671,1.142-2.508a1.594,1.594,0,0,1,.574-.835A4.044,4.044,0,0,0,3.379,33a4.788,4.788,0,0,0,1.171-.567A3.351,3.351,0,0,1,6,31.857c.475-.083.942-.2,1.412-.307A18.076,18.076,0,0,1,9.9,31.033a9.259,9.259,0,0,0,2.473-.519,4.629,4.629,0,0,0,1.234-.3l.139-.018a1.562,1.562,0,0,0,.709-.115l.4-.018c.933-.061,1.839-.3,2.763-.423a.694.694,0,0,0,.584-.1h0a15.8,15.8,0,0,0,2.619-.1c1.2-.238,2.42-.281,3.619-.481.8-.133,1.607-.091,2.395-.282a13.629,13.629,0,0,1,2.859-.4,11.746,11.746,0,0,0,4.05-.717c.128-.05.268-.075.231-.261-.151-.148-.3-.032-.456-.022" transform="translate(0 0)" fill="#fff2c8"/>
      </g>
    </g>
    <rect id="Rectangle_845" data-name="Rectangle 845" width="40" height="40" transform="translate(899 7698)" fill="none"/>
  </g>
</svg>
