<svg xmlns="http://www.w3.org/2000/svg" width="20" height="20" viewBox="0 0 20 20">
  <g id="ic-sitemap" transform="translate(-1526 69)">
    <path id="diagram-3-fill" d="M7.5,3.875A1.875,1.875,0,0,1,9.375,2h1.25A1.875,1.875,0,0,1,12.5,3.875v1.25A1.875,1.875,0,0,1,10.625,7V8.25H17.5a.625.625,0,0,1,.625.625v1.25a.625.625,0,0,1-1.25,0V9.5h-6.25v.625a.625.625,0,0,1-1.25,0V9.5H3.125v.625a.625.625,0,0,1-1.25,0V8.875A.625.625,0,0,1,2.5,8.25H9.375V7A1.875,1.875,0,0,1,7.5,5.125Zm-7.5,10A1.875,1.875,0,0,1,1.875,12h1.25A1.875,1.875,0,0,1,5,13.875v1.25A1.875,1.875,0,0,1,3.125,17H1.875A1.875,1.875,0,0,1,0,15.125Zm7.5,0A1.875,1.875,0,0,1,9.375,12h1.25A1.875,1.875,0,0,1,12.5,13.875v1.25A1.875,1.875,0,0,1,10.625,17H9.375A1.875,1.875,0,0,1,7.5,15.125Zm7.5,0A1.875,1.875,0,0,1,16.875,12h1.25A1.875,1.875,0,0,1,20,13.875v1.25A1.875,1.875,0,0,1,18.125,17h-1.25A1.875,1.875,0,0,1,15,15.125Z" transform="translate(1526 -68)" fill="#fff2c8" fill-rule="evenodd"/>
    <rect id="Rectangle_832" data-name="Rectangle 832" width="20" height="20" transform="translate(1526 -69)" fill="none"/>
  </g>
</svg>
