<svg xmlns="http://www.w3.org/2000/svg" width="22" height="22" viewBox="0 0 22 22">
  <path id="ic-shop-white" d="M4.084,1.513A1.341,1.341,0,0,1,5.129,1H16.871a1.341,1.341,0,0,1,1.045.513L21.5,5.978A2.289,2.289,0,0,1,22,7.409v.374a3.475,3.475,0,0,1-2.206,3.3,3.146,3.146,0,0,1-3.637-1.157,3.143,3.143,0,0,1-5.156,0,3.143,3.143,0,0,1-5.156,0,3.146,3.146,0,0,1-3.638,1.157A3.475,3.475,0,0,1,0,7.783V7.409A2.289,2.289,0,0,1,.5,5.978Zm2.448,6.27A1.957,1.957,0,0,0,8.422,9.8a1.957,1.957,0,0,0,1.891-2.017.689.689,0,1,1,1.375,0,1.895,1.895,0,1,0,3.781,0,.689.689,0,1,1,1.375,0,1.895,1.895,0,1,0,3.781,0V7.409a.763.763,0,0,0-.165-.477L16.871,2.467H5.129L1.54,6.933a.763.763,0,0,0-.165.477v.374A1.957,1.957,0,0,0,3.266,9.8,1.957,1.957,0,0,0,5.156,7.783a.689.689,0,1,1,1.375,0M2.063,12a.712.712,0,0,1,.688.733v8.8H4.125V14.2A1.423,1.423,0,0,1,5.5,12.733H9.625A1.423,1.423,0,0,1,11,14.2v7.333h8.25v-8.8a.689.689,0,1,1,1.375,0v8.8h.688a.735.735,0,0,1,0,1.467H.687a.735.735,0,0,1,0-1.467h.687v-8.8A.712.712,0,0,1,2.063,12M5.5,21.533H9.625V14.2H5.5ZM12.375,14.2a1.423,1.423,0,0,1,1.375-1.467H16.5A1.423,1.423,0,0,1,17.875,14.2v4.4A1.423,1.423,0,0,1,16.5,20.067H13.75A1.423,1.423,0,0,1,12.375,18.6Zm4.125,0H13.75v4.4H16.5Z" transform="translate(0 -1)" fill="#fff"/>
</svg>
