<svg xmlns="http://www.w3.org/2000/svg" width="23" height="41" viewBox="0 0 23 41">
  <g id="ic-slide-arrow-right" transform="translate(23) rotate(90)" fill="#ffa6ca">
    <path d="M 36.53826904296875 21.49999809265137 L 4.461730003356934 21.49999809265137 C 4.179989814758301 21.49999809265137 4.054940223693848 21.31486892700195 4.005469799041748 21.20451927185059 C 3.956010103225708 21.09416770935059 3.901010036468506 20.87763786315918 4.088469982147217 20.66730880737305 L 20.12673950195312 2.673168420791626 C 20.25650024414062 2.527578353881836 20.41629028320312 2.505848407745361 20.5 2.505848407745361 C 20.58370018005371 2.505848407745361 20.74349975585938 2.527578353881836 20.87324905395508 2.673158407211304 L 36.91152954101562 20.66731834411621 C 37.09899139404297 20.87763786315918 37.04399108886719 21.09416770935059 36.99452972412109 21.20451927185059 C 36.94506072998047 21.31486892700195 36.82001113891602 21.49999809265137 36.53826904296875 21.49999809265137 Z" stroke="none"/>
    <path d="M 20.49999618530273 4.508760452270508 L 6.692592620849609 19.99999809265137 L 34.30740737915039 19.99999809265137 L 20.49999618530273 4.508760452270508 M 20.4999942779541 1.005844116210938 C 21.04767036437988 1.005844116210938 21.59534454345703 1.228927612304688 21.99301910400391 1.675098419189453 L 38.03129959106445 19.66925811767578 C 39.18037033081055 20.95846939086914 38.26523971557617 22.99999809265137 36.53826904296875 22.99999809265137 L 4.46173095703125 22.99999809265137 C 2.734760284423828 22.99999809265137 1.819629669189453 20.95846939086914 2.968700408935547 19.66925811767578 L 19.0069694519043 1.675098419189453 C 19.4046459197998 1.228927612304688 19.95232009887695 1.005844116210938 20.4999942779541 1.005844116210938 Z" stroke="none" fill="#fff"/>
  </g>
</svg>
