<svg xmlns="http://www.w3.org/2000/svg" width="16" height="16" viewBox="0 0 16 16">
  <path id="ic-shop" d="M2.97,1.373A.975.975,0,0,1,3.73,1h8.54a.975.975,0,0,1,.76.373L15.639,4.62A1.665,1.665,0,0,1,16,5.661v.272a2.527,2.527,0,0,1-1.6,2.4,2.288,2.288,0,0,1-2.645-.841,2.286,2.286,0,0,1-3.75,0,2.286,2.286,0,0,1-3.75,0A2.288,2.288,0,0,1,1.6,8.33,2.527,2.527,0,0,1,0,5.933V5.661A1.664,1.664,0,0,1,.361,4.62Zm1.78,4.56A1.423,1.423,0,0,0,6.125,7.4,1.423,1.423,0,0,0,7.5,5.933a.5.5,0,1,1,1,0,1.378,1.378,0,1,0,2.75,0,.5.5,0,1,1,1,0,1.378,1.378,0,1,0,2.75,0V5.661a.555.555,0,0,0-.12-.347L12.27,2.067H3.73L1.12,5.315A.555.555,0,0,0,1,5.661v.272A1.423,1.423,0,0,0,2.375,7.4,1.423,1.423,0,0,0,3.75,5.933a.5.5,0,1,1,1,0M1.5,9a.517.517,0,0,1,.5.533v6.4H3V10.6A1.035,1.035,0,0,1,4,9.533H7A1.035,1.035,0,0,1,8,10.6v5.333h6v-6.4a.5.5,0,1,1,1,0v6.4h.5A.534.534,0,0,1,15.5,17H.5a.534.534,0,0,1,0-1.067H1v-6.4A.517.517,0,0,1,1.5,9M4,15.933H7V10.6H4ZM9,10.6a1.035,1.035,0,0,1,1-1.067h2A1.035,1.035,0,0,1,13,10.6v3.2a1.035,1.035,0,0,1-1,1.067H10A1.035,1.035,0,0,1,9,13.8Zm3,0H10v3.2h2Z" transform="translate(0 -1)" fill="#ae864b"/>
</svg>
