<svg id="ic-trash" xmlns="http://www.w3.org/2000/svg" width="19.25" height="22" viewBox="0 0 19.25 22">
  <path id="trash3" d="M8.563,1.375h4.125a.687.687,0,0,1,.688.688V3.438h-5.5V2.063a.687.687,0,0,1,.688-.687M14.75,3.438V2.063A2.062,2.062,0,0,0,12.688,0H8.563A2.063,2.063,0,0,0,6.5,2.063V3.438H1.688a.688.688,0,0,0,0,1.375h.74L3.6,19.47A2.75,2.75,0,0,0,6.342,22h8.566a2.75,2.75,0,0,0,2.742-2.531L18.823,4.813h.74a.688.688,0,0,0,0-1.375Zm2.692,1.375L16.279,19.36a1.375,1.375,0,0,1-1.371,1.265H6.342A1.375,1.375,0,0,1,4.971,19.36L3.808,4.813ZM7.148,6.188a.687.687,0,0,1,.726.646l.687,11.687a.687.687,0,1,1-1.372.083L6.5,6.916a.687.687,0,0,1,.646-.729Zm6.955,0a.688.688,0,0,1,.646.729L14.061,18.6a.687.687,0,1,1-1.372-.083l.688-11.687a.687.687,0,0,1,.726-.646m-3.477,0a.688.688,0,0,1,.688.688V18.563a.688.688,0,0,1-1.375,0V6.875a.687.687,0,0,1,.688-.687" transform="translate(-1)" fill="#666"/>
</svg>
