<svg xmlns="http://www.w3.org/2000/svg" xmlns:xlink="http://www.w3.org/1999/xlink" width="34" height="34" viewBox="0 0 34 34">
  <defs>
    <clipPath id="clip-path">
      <rect id="Rectangle_963" data-name="Rectangle 963" width="34" height="34" stroke="#000" stroke-width="1"/>
    </clipPath>
  </defs>
  <g id="ic-ticket-title" transform="translate(1 -0.002)">
    <g id="Group_1160" data-name="Group 1160" transform="translate(-1 0.002)" clip-path="url(#clip-path)">
      <path id="Path_9298" data-name="Path 9298" d="M27.523,11.19h2.812a.485.485,0,0,1,.466.5V24.333a.485.485,0,0,1-.466.5H6.347a.466.466,0,0,1-.42-.281L4.4,21.7a.523.523,0,0,1,.144-.667h0L4.59,21a2.472,2.472,0,0,0,1.057-1.5,2.65,2.65,0,0,0-.215-1.863h0a.506.506,0,0,1-.029-.053,2.338,2.338,0,0,0-1.4-1.141,2.173,2.173,0,0,0-1.761.247.449.449,0,0,1-.637-.19h0L.063,13.635a.521.521,0,0,1,.169-.684L21.005.068a.449.449,0,0,1,.637.19Zm2.344,1H26.84L8.087,23.823h21.78ZM6.518,23.643l4.8-2.975-.951-1.755a.521.521,0,0,1,.169-.684.449.449,0,0,1,.637.19l.951,1.755,14.364-8.915L21.07,1.186,6.7,10.093l.951,1.757a.519.519,0,0,1-.171.681.449.449,0,0,1-.639-.175L5.894,10.6,1.1,13.566,2.2,15.61a3.042,3.042,0,0,1,2.048-.131,3.278,3.278,0,0,1,1.956,1.6h0l.015.032h0a3.707,3.707,0,0,1,.325,2.646A3.512,3.512,0,0,1,5.417,21.6Zm1.5-9.107a.519.519,0,0,1,.171-.681.449.449,0,0,1,.635.19L10,16.224a.519.519,0,0,1-.171.681.449.449,0,0,1-.635-.19Z" transform="translate(1.71 3.318)" stroke="#000" stroke-width="1"/>
    </g>
  </g>
</svg>
