<svg xmlns="http://www.w3.org/2000/svg" xmlns:xlink="http://www.w3.org/1999/xlink" width="18" height="18" viewBox="0 0 18 18">
  <defs>
    <clipPath id="clip-path">
      <rect id="Rectangle_963" data-name="Rectangle 963" width="18" height="18" transform="translate(0 0)" fill="#9c2546" stroke="#9c2546" stroke-width="0.5"/>
    </clipPath>
  </defs>
  <g id="ic-ticket" transform="translate(1 -0.002)">
    <g id="Group_1160" data-name="Group 1160" transform="translate(-1 0.002)" clip-path="url(#clip-path)">
      <path id="Path_9298" data-name="Path 9298" d="M14.476,5.887h1.479a.255.255,0,0,1,.245.264V12.8a.255.255,0,0,1-.245.264H3.338a.245.245,0,0,1-.221-.148l-.805-1.5a.275.275,0,0,1,.076-.351h0l.026-.016a1.3,1.3,0,0,0,.556-.788,1.394,1.394,0,0,0-.113-.98h0a.266.266,0,0,1-.015-.028,1.23,1.23,0,0,0-.734-.6,1.143,1.143,0,0,0-.926.13.236.236,0,0,1-.335-.1h0L.033,7.173a.274.274,0,0,1,.089-.36L11.048.037a.236.236,0,0,1,.335.1Zm1.233.527H14.117L4.253,12.532H15.709ZM3.428,12.437l2.523-1.565-.5-.923a.274.274,0,0,1,.089-.36.236.236,0,0,1,.335.1l.5.923L13.93,5.923,11.082.625,3.526,5.31l.5.924a.273.273,0,0,1-.09.358A.236.236,0,0,1,3.6,6.5l-.5-.923L.58,7.137l.578,1.075a1.6,1.6,0,0,1,1.077-.069,1.724,1.724,0,0,1,1.029.84v0h0L3.272,9h0a1.95,1.95,0,0,1,.171,1.392,1.847,1.847,0,0,1-.594.968Zm.79-4.79a.273.273,0,0,1,.09-.358.236.236,0,0,1,.334.1L5.26,8.535a.273.273,0,0,1-.09.358.236.236,0,0,1-.334-.1Z" transform="translate(0.9 1.744)" fill="#9c2546" stroke="#9c2546" stroke-width="0.5"/>
    </g>
  </g>
</svg>
