<svg xmlns="http://www.w3.org/2000/svg" width="20" height="20" viewBox="0 0 20 20">
  <g id="ic-tel" transform="translate(-412 -6843)">
    <path id="telephone-fill_3_" data-name="telephone-fill (3)" d="M1.885.511a1.745,1.745,0,0,1,2.61.163L6.29,2.98a1.744,1.744,0,0,1,.315,1.494l-.547,2.19a.68.68,0,0,0,.178.643L8.693,9.764a.68.68,0,0,0,.644.178L11.526,9.4a1.75,1.75,0,0,1,1.494.315L15.326,11.5a1.745,1.745,0,0,1,.163,2.611l-1.034,1.034a2.777,2.777,0,0,1-2.877.7,18.6,18.6,0,0,1-7.01-4.42A18.6,18.6,0,0,1,.148,4.422a2.78,2.78,0,0,1,.7-2.877Z" transform="translate(414 6844.999)" fill="#ff4d7d" fill-rule="evenodd"/>
    <rect id="Rectangle_834" data-name="Rectangle 834" width="20" height="20" transform="translate(412 6843)" fill="none"/>
  </g>
</svg>
