<svg xmlns="http://www.w3.org/2000/svg" xmlns:xlink="http://www.w3.org/1999/xlink" width="30" height="16.29" viewBox="0 0 30 16.29">
  <defs>
    <clipPath id="clip-path">
      <rect id="Rectangle_985" data-name="Rectangle 985" width="30" height="16.29" fill="#fff2c8"/>
    </clipPath>
  </defs>
  <g id="ic-truck" transform="translate(170.35 -3.982)">
    <g id="Group_1178" data-name="Group 1178" transform="translate(-170.35 3.982)" clip-path="url(#clip-path)">
      <path id="Path_9315" data-name="Path 9315" d="M29.21,5.119,27.164,2.861a2.8,2.8,0,0,0-2.107-.9H21l.072-.531A1.222,1.222,0,0,0,19.839,0H7.618A1.553,1.553,0,0,0,6.111,1.32l-.076.535H3.742a.38.38,0,0,0,0,.759h3.78a.38.38,0,0,0,0-.759H6.8l.061-.429A.8.8,0,0,1,7.618.758H19.839a.488.488,0,0,1,.372.156.5.5,0,0,1,.106.406L19.1,10.034H5.659L5.83,8.824h.827a.38.38,0,1,0,0-.759H.38a.38.38,0,1,0,0,.759H5.063l-.448,3.2a1.221,1.221,0,0,0,1.234,1.423h.782c-.011.057-.027.114-.034.167a2.345,2.345,0,0,0,.535,1.9,2.3,2.3,0,0,0,1.776.782,3.062,3.062,0,0,0,2.934-2.573q.017-.137.023-.273h9.413c-.011.057-.027.114-.034.167a2.357,2.357,0,0,0,.531,1.9,2.312,2.312,0,0,0,1.776.782,3.062,3.062,0,0,0,2.938-2.573q.017-.137.023-.273h1.643a1.188,1.188,0,0,0,1.154-1.01l.657-4.7a3.208,3.208,0,0,0-.755-2.615M11.09,13.61a2.282,2.282,0,0,1-2.182,1.92,1.559,1.559,0,0,1-1.2-.52,1.593,1.593,0,0,1-.357-1.294A2.286,2.286,0,0,1,9.534,11.8a1.57,1.57,0,0,1,1.2.52,1.605,1.605,0,0,1,.353,1.294m7.815-2.179-.175,1.252H11.777a2.263,2.263,0,0,0-.467-.865,2.325,2.325,0,0,0-1.776-.782A3.062,3.062,0,0,0,6.9,12.684H5.849a.484.484,0,0,1-.376-.156.494.494,0,0,1-.106-.406l.186-1.328H19Zm6.832,2.179a2.283,2.283,0,0,1-2.186,1.92,1.516,1.516,0,0,1-1.575-1.552,2.03,2.03,0,0,1,.019-.262A2.283,2.283,0,0,1,24.181,11.8a1.57,1.57,0,0,1,1.2.52,1.6,1.6,0,0,1,.353,1.294m3.477-5.982-.657,4.7a.428.428,0,0,1-.4.353H26.424a2.263,2.263,0,0,0-.467-.865,2.325,2.325,0,0,0-1.776-.782,3.062,3.062,0,0,0-2.63,1.647H19.5l.566-4.046.827-5.921h4.167a2.05,2.05,0,0,1,1.545.653l2.042,2.258a2.452,2.452,0,0,1,.569,2" transform="translate(0 0.001)" fill="#fff2c8"/>
      <path id="Path_9316" data-name="Path 9316" d="M928.173,146.783a1.651,1.651,0,0,0-1.237-.531H924.01a.671.671,0,0,0-.649.569l-.528,3.769a.59.59,0,0,0,.584.672h6.631a.671.671,0,0,0,.649-.566,2.022,2.022,0,0,0-.478-1.651Zm-4.558,3.72.486-3.492h2.835a.9.9,0,0,1,.672.281l2.046,2.262a1.261,1.261,0,0,1,.3.949Z" transform="translate(-902.064 -142.961)" fill="#fff2c8"/>
      <path id="Path_9317" data-name="Path 9317" d="M1027.692,573.714a.83.83,0,0,0-.808.7v0a.731.731,0,0,0,.167.569.707.707,0,0,0,.535.239.833.833,0,0,0,.808-.706.712.712,0,0,0-.167-.569.7.7,0,0,0-.535-.239" transform="translate(-1003.773 -560.805)" fill="#fff2c8"/>
      <path id="Path_9318" data-name="Path 9318" d="M376.816,573.714a.826.826,0,0,0-.8.7v0a.7.7,0,0,0,.7.809.834.834,0,0,0,.808-.706.724.724,0,0,0-.163-.569.715.715,0,0,0-.539-.239" transform="translate(-367.544 -560.805)" fill="#fff2c8"/>
      <path id="Path_9319" data-name="Path 9319" d="M100.076,175.181h4.612a.38.38,0,0,0,0-.759h-4.612a.38.38,0,0,0,0,.759" transform="translate(-97.453 -170.497)" fill="#fff2c8"/>
      <path id="Path_9320" data-name="Path 9320" d="M50.313,267.291h5.443a.38.38,0,1,0,0-.759H50.313a.38.38,0,1,0,0,.759" transform="translate(-48.81 -260.535)" fill="#fff2c8"/>
    </g>
  </g>
</svg>
