<svg id="ic-unit" xmlns="http://www.w3.org/2000/svg" xmlns:xlink="http://www.w3.org/1999/xlink" width="20" height="20" viewBox="0 0 20 20">
  <defs>
    <clipPath id="clip-path">
      <rect id="Rectangle_829" data-name="Rectangle 829" width="20" height="20" fill="#ff4d7d"/>
    </clipPath>
  </defs>
  <g id="Group_1005" data-name="Group 1005" clip-path="url(#clip-path)">
    <path id="Path_8930" data-name="Path 8930" d="M16.333,2H4.667A1.666,1.666,0,0,0,3,3.667V15.333A1.666,1.666,0,0,0,4.667,17H8l2.5,2.5L13,17h3.333A1.672,1.672,0,0,0,18,15.333V3.667A1.672,1.672,0,0,0,16.333,2m0,13.333H12.308l-.492.492L10.5,17.142,9.175,15.817l-.483-.483H4.667V3.667H16.333ZM10.5,9.5A2.5,2.5,0,1,0,8,7a2.507,2.507,0,0,0,2.5,2.5m5,3.817c0-2.083-3.308-2.983-5-2.983s-5,.9-5,2.983V14.5h10Z" transform="translate(-0.5 -0.333)" fill="#ff4d7d"/>
  </g>
</svg>
