<svg id="ic-zoom" xmlns="http://www.w3.org/2000/svg" width="16.432" height="16.432" viewBox="0 0 16.432 16.432">
  <path id="Path_740" data-name="Path 740" d="M0,0H16.432V16.432H0Z" fill="none"/>
  <path id="Path_741" data-name="Path 741" d="M10.967,3l1.527,1.527L10.575,6.432l.943.943,1.905-1.919L14.95,6.983V3ZM3,6.983,4.527,5.456,6.432,7.375l.943-.943L5.456,4.527,6.983,3H3ZM6.983,14.95,5.456,13.423l1.919-1.905-.943-.943L4.527,12.494,3,10.967V14.95Zm7.967-3.983-1.527,1.527-1.905-1.919-.943.943,1.919,1.905L10.967,14.95H14.95Z" transform="translate(-0.759 -0.759)" fill="#fff"/>
</svg>
