<svg id="ic-zoom" xmlns="http://www.w3.org/2000/svg" width="16" height="16" viewBox="0 0 16 16">
  <path id="Path_9195" data-name="Path 9195" d="M6.5,12A5.5,5.5,0,1,0,1,6.5,5.5,5.5,0,0,0,6.5,12M13,6.5A6.5,6.5,0,1,1,6.5,0,6.5,6.5,0,0,1,13,6.5" fill="#fff" fill-rule="evenodd"/>
  <path id="Path_9196" data-name="Path 9196" d="M10.344,11.742a1.053,1.053,0,0,0,.1.115l3.85,3.85a1,1,0,0,0,1.415-1.414l-3.85-3.85a1,1,0,0,0-.115-.1,6.5,6.5,0,0,1-1.4,1.4Z" fill="#fff"/>
  <path id="Path_9197" data-name="Path 9197" d="M6.5,3a.5.5,0,0,1,.5.5V6H9.5a.5.5,0,0,1,0,1H7V9.5a.5.5,0,0,1-1,0V7H3.5a.5.5,0,0,1,0-1H6V3.5A.5.5,0,0,1,6.5,3" fill="#fff" fill-rule="evenodd"/>
</svg>
