<svg id="logo" xmlns="http://www.w3.org/2000/svg" xmlns:xlink="http://www.w3.org/1999/xlink" width="104.882" height="134.993" viewBox="0 0 104.882 134.993">
  <defs>
    <clipPath id="clip-path">
      <rect id="Rectangle_489" data-name="Rectangle 489" width="104.882" height="134.993" fill="none"/>
    </clipPath>
  </defs>
  <g id="Group_647" data-name="Group 647" clip-path="url(#clip-path)">
    <path id="Path_2826" data-name="Path 2826" d="M144.81,34.713v0Z" transform="translate(-41.895 -10.818)" fill="#fff"/>
    <path id="Path_2827" data-name="Path 2827" d="M146.969,121v0" transform="translate(-42.52 -37.71)" fill="#fff"/>
    <path id="Path_2828" data-name="Path 2828" d="M104.842,78.724a9.5,9.5,0,0,0-.222-1.4v-.006h0c-.041-.171-.081-.311-.112-.416v0c-.028-.092-.077-.277-.183-.562l-.027-.068A9.575,9.575,0,0,0,102.087,73h0c-.02-.019-.041-.035-.06-.054a11.62,11.62,0,0,0-2.677-1.9,15.419,15.419,0,0,0-1.976-.849,10.336,10.336,0,0,0,.876-.577,15.923,15.923,0,0,0,3.658-3.945,2.531,2.531,0,0,0,.163-.268,13.87,13.87,0,0,0,1.8-6.607A11.691,11.691,0,0,0,103.2,54.9l-.087-.22A9.125,9.125,0,0,0,101,51.733h0c-.079-.074-.166-.142-.247-.214a13.265,13.265,0,0,0-2.853-1.9l-.1-.049-4.169-1.918a3.289,3.289,0,0,0-.441-.162l-.757-.43v-.017L101.57,36.6l.009-.01a14.889,14.889,0,0,0,2.13-3.128,9.73,9.73,0,0,0,1.006-3.442l.011-.225v-.079c0-.172-.009-.29-.013-.355l0-.057h0c0-.081-.017-.158-.026-.238,0-.045.011-.089.011-.136a2.33,2.33,0,0,0-.015-.3c-.04-.383-.1-.645-.124-.794l0-.012-.01-.059q-.006-.037-.017-.095c-.011-.067-.028-.15-.053-.258V27.4c-.077-.324-.155-.555-.2-.708v0c-.021-.064-.059-.187-.111-.337-.017-.052-.031-.1-.054-.158v0h0c-.1-.26-.192-.471-.268-.641h0c-.065-.146-.146-.319-.247-.515l0-.007v0h0q-.156-.3-.318-.575h0c-.047-.08-.094-.149-.141-.224-.068-.108-.137-.224-.2-.319l0,0h0c-.1-.145-.213-.319-.355-.514h0c-.082-.112-.161-.214-.235-.308l-.082-.1-.127-.157v0c-.075-.09-.193-.243-.369-.443h0c-.1-.112-.192-.211-.282-.307l-.149-.156-.163-.168,0,0c-.034-.033-.141-.154-.337-.345h0c-.089-.085-.184-.172-.276-.259-.242-.226-.493-.452-.761-.679l-.109-.087a17.34,17.34,0,0,0-3.595-2.171,12.833,12.833,0,0,0-2.206-.735,11.427,11.427,0,0,0-1.434-.246V12.082a17.145,17.145,0,0,0-.1-1.9h0c-.048-.433-.116-.845-.195-1.236a12.086,12.086,0,0,0-.649-2.167c-.1-.255-.216-.5-.336-.741a10.038,10.038,0,0,0-.713-1.225l-.04-.057a9.076,9.076,0,0,0-.917-1.081h0c-.1-.1-.212-.182-.315-.277A10.525,10.525,0,0,0,85.18,1.136,17.668,17.668,0,0,0,79.847.4a16.215,16.215,0,0,0-5.813.973,11.242,11.242,0,0,0-4.566,3.171l-.053.064a8.461,8.461,0,0,0-.524.725,9.706,9.706,0,0,0-.558-.928l-.041-.059a9.082,9.082,0,0,0-.917-1.081h0A9.361,9.361,0,0,0,65.7,1.953a11.2,11.2,0,0,0-2.62-1.22A17.689,17.689,0,0,0,57.75,0a16.216,16.216,0,0,0-5.813.974,11.24,11.24,0,0,0-4.566,3.17l-.053.064a9.474,9.474,0,0,0-1.747,3.451q-.133.471-.227.957a15.864,15.864,0,0,0-.276,3.062v.8c-.026,0-.048,0-.075,0-.121,0-.25,0-.387.008H44.6a13.56,13.56,0,0,0-3.715.7l.009,0h0l-.02.007.01,0a10.638,10.638,0,0,0-2.98,1.466,3.174,3.174,0,0,0-.314.264c-.033.03-.062.063-.092.095V12.89a14.263,14.263,0,0,0-1.223-6.084h0a10.878,10.878,0,0,0-.8-1.411c-.072-.109-.136-.222-.212-.328h0l-.152-.195a11.514,11.514,0,0,0-1.556-1.5l-.018-.013a12.255,12.255,0,0,0-3.158-1.838q-.579-.232-1.185-.413a18.107,18.107,0,0,0-5.21-.7,18.591,18.591,0,0,0-5.611.79,12.661,12.661,0,0,0-4.629,2.571c-.3.262-.566.549-.834.838-.023.021-.043.044-.065.065-.051.056-.111.1-.161.161a2.669,2.669,0,0,0-.2.26,10.606,10.606,0,0,0-1.342,2.654,13.968,13.968,0,0,0-.66,2.99h0a18.982,18.982,0,0,0-.117,2.156v3.2c-.394.064-.782.139-1.16.232q-.505.124-.994.287a10.056,10.056,0,0,0-2.646,1.327l0,0c-.011.008-.021.018-.033.025l-.036.023,0,0a9.721,9.721,0,0,0-2.861,3.146,12.432,12.432,0,0,0-1.309,3.43,19.1,19.1,0,0,0-.446,3.923v.168l0,.059c0,.076.023.147.031.221a3.083,3.083,0,0,0,.055.381c.018.074.05.142.075.214s.038.12.061.178v.008c0,.016-.006.033-.01.05a2.943,2.943,0,0,0-.072.4c0,.047-.006.1-.009.144a3.107,3.107,0,0,0,0,.326c0,.03,0,.058,0,.087v0l.011.118c0,.023.008.043.01.066,0,.008,0,.015,0,.023v0a.143.143,0,0,1,0,.019,14.022,14.022,0,0,0,1.224,4.363v0l.031.066c.021.047.058.124.113.232l.014.028v0l0,0v0l0,.01,0,0c.146.281.283.5.387.675h0l0,.008c.05.081.119.182.179.275.05.076.1.151.149.229l0,0,.008.011,0,0c.117.169.243.343.384.522h0l.006.007c.084.106.166.2.246.3.1.114.191.217.273.306L4.067,38l0-.006c.03.03.139.163.354.376h0l0,0c.089.087.19.178.287.266q.174.159.365.318c.106.092.223.19.366.3h0s.012.007.018.011A3.232,3.232,0,0,0,6.55,39.8c.02.006.041.006.061.011a3.344,3.344,0,0,0,.532.09c.074.006.147,0,.221,0a3.211,3.211,0,0,0,.382-.009c.017,0,.034,0,.051,0,.07-.008.136-.032.205-.045h0c.019.028.036.057.055.085a3.142,3.142,0,0,0,.824.8c.038.025.078.046.117.07a3.226,3.226,0,0,0,.4.207l.136.056a3.3,3.3,0,0,0,.429.127c-.684,1.7-1.357,3.29-2.018,4.767q-.245.548-.49,1.078a60.943,60.943,0,0,1-4.608,8.478h0A16.12,16.12,0,0,0,.79,59.164,11.781,11.781,0,0,0,.2,61.141,10.222,10.222,0,0,0,0,63.164q0,.353.026.706v0h0l.007.083.009.089h0A9.794,9.794,0,0,0,.5,66.234a10.962,10.962,0,0,0,1.3,2.649L1.884,69a18.741,18.741,0,0,0,4.537,4.364,21.452,21.452,0,0,0,3.936,2.1V88.405c0,.463.018.9.049,1.326l0,.036.009.1h0v.015c.033.4.076.8.138,1.2a3.042,3.042,0,0,0,.61,1.383,2.958,2.958,0,0,0-.033.428h0a3.031,3.031,0,0,0,.062.6c.007.036.023.071.032.107a3.042,3.042,0,0,0,.132.439c.132.321.279.625.431.918,0,.009.006.019.011.028l.025.049.036.069a9.818,9.818,0,0,0,.613,1c.041.057.1.131.159.2,0,.006.007.012.012.017.041.049.083.091.124.138l.009.01,0,0a11.729,11.729,0,0,0,.832.857c.122.113.217.191.276.24l.064.052.013.01c.2.167.437.37.739.589l0,0,0,0h0c.225.162.381.256.453.3h0c.215.14.462.3.746.453h0c.2.108.37.195.517.268q.382.189.78.354h0c.154.064.336.138.547.215h0c.3.11.585.2.841.273.108.031.293.09.555.157.161.041.311.074.455.1.177.037.344.07.5.1h0c.042.006.21.047.5.095h0c.426.067.86.116,1.3.154v0l.089.01a3.267,3.267,0,0,0,1.76-.3,3.261,3.261,0,0,0,1.618.314c.48-.034.9-.089,1.259-.138a3.251,3.251,0,0,0,.628-.153,3.293,3.293,0,0,0,.639-.068,14.953,14.953,0,0,0,2.843-.9l.012,0c.05-.022.141-.061.259-.115l.034-.014h0l0,0,0,0,.011-.006,0,0c.23-.106.468-.222.712-.354h0l.009,0,.013-.008c.265-.145.487-.282.667-.394l0,0,0,0-.006,0,.011-.007,0,0c.211-.134.411-.269.6-.4l.009-.006c.222-.161.466-.346.719-.56l.008-.006h0l0,0,0,0,.006-.006h0c.1-.083.2-.173.312-.273l.006,0c.031-.028.064-.061.1-.09a11.243,11.243,0,0,0,.824-.838l.011-.014c.041-.047.081-.1.119-.15.008-.01.018-.018.026-.028s.028-.043.043-.064.029-.037.043-.058l0,0h0c.158-.22.31-.439.443-.656v0c.065-.105.108-.185.137-.237l.031-.058.008-.014c.034-.059.075-.132.122-.218s.1-.185.155-.3h0v0h0c.093-.191.15-.326.185-.4h0c.048-.108.116-.259.192-.454h0c.051-.132.087-.237.124-.344a11.635,11.635,0,0,0,1.058,1.4c.055.063.121.118.176.18a15.206,15.206,0,0,0,2.064,1.876c.227.171.431.313.61.437h0a23.173,23.173,0,0,0,2.356,1.439l.177.087c.712.325,1.389.582,2.018.8a15.741,15.741,0,0,0,5.146.942,11.045,11.045,0,0,0,4.42-.892v0l.026-.013L54.8,99.6l0,0a9.559,9.559,0,0,0,3.359-2.574,29,29,0,0,0,4.059-6.576,95.116,95.116,0,0,0,3.988-10.056l.041-.129q.489-1.67.917-3.325V89.211c0,.029,0,.059,0,.088,0,.073-.006.149-.006.221a8.666,8.666,0,0,0,.053.945v.012a10.2,10.2,0,0,0,.61,2.439,13.386,13.386,0,0,0,.71,1.583h0c.007.015.016.029.024.044s.014.03.022.045h0A8.555,8.555,0,0,0,70.1,96.695a9.9,9.9,0,0,0,3.438,2.21,15.693,15.693,0,0,0,4.212.962,2.706,2.706,0,0,0,.326.016h9.694l.139,0a28.688,28.688,0,0,0,6.867-1.016,12.307,12.307,0,0,0,5.157-2.815,3.017,3.017,0,0,0,.6-.807,3.134,3.134,0,0,1,.425-.607,3.251,3.251,0,0,0,.335-.471,18.768,18.768,0,0,0,1.892-5.061l.013-.058,1.251-5.755a17.018,17.018,0,0,0,.433-3.616c0-.339-.016-.657-.041-.949M58.858,61.038h0Zm-7.809-2.287h0ZM23.883,82.515v0M57.472,18.169v0h0v0h0v0M31.088,79.974h0l.009.006,0,0-.014-.01h0M75.931,65.988v0h0M104.1,26.19h0m-.521-1.168h0M3.141,36.849h0l0,0M13.968,97.636h0m21.959-2.553v0Z" transform="translate(0 0)" fill="#fff"/>
    <path id="Path_2829" data-name="Path 2829" d="M10.751,191.717a.45.45,0,0,1-.254.447.633.633,0,0,1-.1.034.416.416,0,0,1-.09.02.391.391,0,0,1-.075.007h-.045q-.592,0-.591-.507V187.18H8.1q-.247,0-.247-.217t.247-.223h4.147c.159,0,.24.072.24.217s-.08.223-.24.223h-1.5Z" transform="translate(-2.272 -58.199)" fill="#942544"/>
    <path id="Path_2830" data-name="Path 2830" d="M18.9,190.208a.874.874,0,0,0-.15-.562.715.715,0,0,0-.6-.229.647.647,0,0,0-.7.486.2.2,0,0,0-.015.061l-.03.067a.318.318,0,0,1-.082.129.566.566,0,0,1-.426.142q-.532,0-.532-.385,0-.3.426-.582a2.013,2.013,0,0,1,.554-.243,2.919,2.919,0,0,1,.793-.1,3.2,3.2,0,0,1,.651.061,1.736,1.736,0,0,1,.584.23,1.286,1.286,0,0,1,.569,1.17v1.467a.938.938,0,0,0,.015.156l.016.1.082.285a.193.193,0,0,1,.015.061.357.357,0,0,1-.179.284.693.693,0,0,1-.4.122.547.547,0,0,1-.524-.419,1.906,1.906,0,0,1-.419.244,2.085,2.085,0,0,1-.411.122,2.68,2.68,0,0,1-.337.047,1.257,1.257,0,0,1-.135.007h-.1a1.575,1.575,0,0,1-1.115-.345.992.992,0,0,1-.308-.757,1.035,1.035,0,0,1,.277-.744,1.609,1.609,0,0,1,.7-.392,4.582,4.582,0,0,1,.89-.156c.135-.008.287-.016.456-.02.065,0,.138-.007.217-.007.045,0,.114-.007.21-.007Zm0,.683c-.264,0-.484.016-.659.034a2.056,2.056,0,0,0-.532.129.731.731,0,0,0-.479.73.69.69,0,0,0,.15.474.758.758,0,0,0,.583.2l.15-.008a1.083,1.083,0,0,0,.217-.047,1.568,1.568,0,0,0,.569-.277Z" transform="translate(-4.673 -58.9)" fill="#942544"/>
    <path id="Path_2831" data-name="Path 2831" d="M27.22,189.552a1.971,1.971,0,0,1-1.475,3.374,1.964,1.964,0,0,1-1.467-.548,1.926,1.926,0,0,1-.532-1.419,2.061,2.061,0,0,1,3.473-1.407m-2.088.142a2.18,2.18,0,0,0-.277,1.265,2.209,2.209,0,0,0,.277,1.271.8.8,0,0,0,1.212.014,1.261,1.261,0,0,0,.2-.474,3.422,3.422,0,0,0,.082-.811,2.261,2.261,0,0,0-.262-1.245.8.8,0,0,0-1.235-.02" transform="translate(-6.87 -58.9)" fill="#942544"/>
    <path id="Path_2832" data-name="Path 2832" d="M31.212,189.694a.535.535,0,0,1-.082-.223.41.41,0,0,1,.188-.331.665.665,0,0,1,.426-.149.405.405,0,0,1,.269.087.65.65,0,0,1,.134.169l1.3,2.232,1.153-2.353a.228.228,0,0,1,.112-.108.2.2,0,0,1,.105-.027q.246,0,.247.209a.226.226,0,0,1-.007.061l-2.193,4.5a.234.234,0,0,1-.225.135q-.24,0-.24-.209a.185.185,0,0,1,.023-.1l.486-.994Z" transform="translate(-9.006 -58.9)" fill="#942544"/>
    <path id="Path_2833" data-name="Path 2833" d="M38.861,189.457a.405.405,0,0,1,.239-.406.375.375,0,0,1,.09-.034.456.456,0,0,1,.082-.02.37.37,0,0,1,.068-.007h.044c.36,0,.539.156.539.467v2.225a.876.876,0,0,0,.128.494.624.624,0,0,0,.554.251.941.941,0,0,0,.591-.21,1.273,1.273,0,0,0,.367-.474v-2.285a.406.406,0,0,1,.232-.406.677.677,0,0,1,.09-.034.726.726,0,0,1,.09-.02.3.3,0,0,1,.068-.007h.045q.532,0,.532.467v3a.406.406,0,0,1-.232.405.806.806,0,0,1-.09.034.663.663,0,0,1-.089.02.345.345,0,0,1-.068.007h-.045a.863.863,0,0,1-.15-.014.594.594,0,0,1-.171-.061.354.354,0,0,1-.21-.338v-.189a1.358,1.358,0,0,1-.158.176,1.237,1.237,0,0,1-.247.2,1.55,1.55,0,0,1-.853.23,1.908,1.908,0,0,1-.5-.061,1.244,1.244,0,0,1-.464-.216,1.039,1.039,0,0,1-.345-.433,1.712,1.712,0,0,1-.134-.71Z" transform="translate(-11.243 -58.9)" fill="#942544"/>
    <path id="Path_2834" data-name="Path 2834" d="M49.192,190.208a.874.874,0,0,0-.15-.562.715.715,0,0,0-.6-.229.647.647,0,0,0-.7.486.2.2,0,0,0-.015.061l-.03.067a.318.318,0,0,1-.082.129.566.566,0,0,1-.426.142q-.532,0-.532-.385,0-.3.426-.582a2.013,2.013,0,0,1,.554-.243,2.919,2.919,0,0,1,.793-.1,3.2,3.2,0,0,1,.651.061,1.736,1.736,0,0,1,.584.23,1.286,1.286,0,0,1,.569,1.17v1.467a.938.938,0,0,0,.015.156l.016.1.082.285a.193.193,0,0,1,.015.061.357.357,0,0,1-.179.284.693.693,0,0,1-.4.122.547.547,0,0,1-.524-.419,1.906,1.906,0,0,1-.419.244,2.085,2.085,0,0,1-.411.122,2.68,2.68,0,0,1-.337.047,1.257,1.257,0,0,1-.135.007h-.1a1.575,1.575,0,0,1-1.115-.345.992.992,0,0,1-.308-.757,1.035,1.035,0,0,1,.277-.744,1.609,1.609,0,0,1,.7-.392,4.582,4.582,0,0,1,.89-.156c.135-.008.287-.016.456-.02.065,0,.138-.007.217-.007.045,0,.114-.007.21-.007Zm0,.683c-.264,0-.484.016-.659.034a2.056,2.056,0,0,0-.532.129.731.731,0,0,0-.479.73.69.69,0,0,0,.15.474.758.758,0,0,0,.583.2l.15-.008a1.083,1.083,0,0,0,.217-.047,1.568,1.568,0,0,0,.569-.277Z" transform="translate(-13.437 -58.9)" fill="#942544"/>
    <path id="Path_2835" data-name="Path 2835" d="M58.153,192.459a.406.406,0,0,1-.232.405.686.686,0,0,1-.09.034.7.7,0,0,1-.09.021.336.336,0,0,1-.068.006H57.63q-.539,0-.539-.459v-2.225a.861.861,0,0,0-.135-.507.631.631,0,0,0-.547-.236.938.938,0,0,0-.6.216,1.221,1.221,0,0,0-.352.467v2.279a.4.4,0,0,1-.239.405.4.4,0,0,1-.09.034.448.448,0,0,1-.082.021.418.418,0,0,1-.067.006h-.1a.465.465,0,0,1-.075-.006.455.455,0,0,1-.082-.021.552.552,0,0,1-.1-.034.4.4,0,0,1-.232-.4v-3.009a.4.4,0,0,1,.24-.406.375.375,0,0,1,.09-.034.455.455,0,0,1,.082-.021.424.424,0,0,1,.068-.006h.045a.87.87,0,0,1,.15.014.709.709,0,0,1,.179.061.362.362,0,0,1,.21.345v.182l.158-.176a1.212,1.212,0,0,1,.247-.2,1.531,1.531,0,0,1,.845-.23,2.127,2.127,0,0,1,.495.054,1.263,1.263,0,0,1,.471.217,1.047,1.047,0,0,1,.345.432,1.738,1.738,0,0,1,.134.717Z" transform="translate(-15.737 -58.9)" fill="#942544"/>
    <path id="Path_2836" data-name="Path 2836" d="M66.8,192.017a.247.247,0,0,1-.119.129.259.259,0,0,1-.127.033q-.255,0-.254-.23a.158.158,0,0,1,.015-.074l1.766-4.794a.753.753,0,0,1,.793-.487,1,1,0,0,1,.427.088.76.76,0,0,1,.359.4l1.767,4.423a.5.5,0,0,1,.038.162q0,.513-.652.514a.5.5,0,0,1-.359-.115.536.536,0,0,1-.082-.115l-.038-.094a.026.026,0,0,1-.007-.021l-.464-1.169H67.3Zm.659-1.792h2.231l-1-2.509c-.045-.117-.1-.176-.15-.176s-.107.061-.157.182Z" transform="translate(-19.18 -58.153)" fill="#942544"/>
    <path id="Path_2837" data-name="Path 2837" d="M79.029,189.782a1.012,1.012,0,0,1,.045.3.909.909,0,0,1-.2.6,1.129,1.129,0,0,1-.478.325,2.221,2.221,0,0,1-.57.129,3.91,3.91,0,0,1-.478.027,3.8,3.8,0,0,1-.569-.034,1.306,1.306,0,0,1-.195-.041l-.157-.04-.03.034a.084.084,0,0,0-.023.033.228.228,0,0,0-.03.123q0,.277.8.3l.442.013q.239.007.419.021a3.136,3.136,0,0,1,.711.136.891.891,0,0,1,.667.92,1.289,1.289,0,0,1-.053.4.8.8,0,0,1-.262.4,1.451,1.451,0,0,1-.629.3,4.693,4.693,0,0,1-1.168.122,3.984,3.984,0,0,1-1.033-.115,1.349,1.349,0,0,1-.576-.284.85.85,0,0,1-.254-.372,1.217,1.217,0,0,1-.053-.379.9.9,0,0,1,.247-.67.8.8,0,0,1,.217-.149.558.558,0,0,1,.1-.048l.045-.02a.1.1,0,0,1,.038-.014l-.113-.041a.881.881,0,0,1-.127-.081.416.416,0,0,1-.157-.338.566.566,0,0,1,.382-.5.979.979,0,0,1-.337-.487.679.679,0,0,1-.045-.2.348.348,0,0,1-.007-.074v-.048a.885.885,0,0,1,.24-.629,1.3,1.3,0,0,1,.546-.317,2.857,2.857,0,0,1,.6-.122l.389-.014a3.036,3.036,0,0,1,.839.095,1.3,1.3,0,0,1,.24.088c.04.018.1.049.179.094l.068-.094a.7.7,0,0,1,.119-.123.648.648,0,0,1,.412-.149c.224,0,.337.106.337.318s-.123.332-.367.345a.908.908,0,0,0-.269.041,1.015,1.015,0,0,1,.1.216m-2.492,2.347a.867.867,0,0,0-.127.514q0,.792.935.792a1,1,0,0,0,.838-.3.77.77,0,0,0,.119-.264,1.055,1.055,0,0,0,.023-.236v-.068a.5.5,0,0,0-.007-.088.738.738,0,0,0-.075-.216.677.677,0,0,0-.576-.3c-.026,0-.08-.009-.166-.013l-.516-.021c-.085,0-.141-.009-.173-.014a.976.976,0,0,0-.276.224m1.393-1.711a.823.823,0,0,0,.075-.23.564.564,0,0,0,.007-.088v-.054a.747.747,0,0,0-.127-.44.6.6,0,0,0-.532-.251.648.648,0,0,0-.547.244.785.785,0,0,0-.142.474.477.477,0,0,0,.008.087.337.337,0,0,0,.015.1.615.615,0,0,0,.1.224.655.655,0,0,0,.583.25.573.573,0,0,0,.561-.318" transform="translate(-21.801 -58.86)" fill="#942544"/>
    <path id="Path_2838" data-name="Path 2838" d="M84.4,192.459a.406.406,0,0,1-.232.405.641.641,0,0,1-.09.034.7.7,0,0,1-.09.021.341.341,0,0,1-.068.006h-.09a.456.456,0,0,1-.075-.006.7.7,0,0,1-.09-.021.61.61,0,0,1-.09-.034.4.4,0,0,1-.232-.4v-3.009a.406.406,0,0,1,.232-.406.61.61,0,0,1,.09-.034.7.7,0,0,1,.09-.021.335.335,0,0,1,.068-.006h.045q.532,0,.532.467v.379a1.16,1.16,0,0,1,1.108-.845q.471,0,.471.412a.367.367,0,0,1-.217.352.932.932,0,0,1-.195.054l-.165.021a1.247,1.247,0,0,0-.771.284.618.618,0,0,0-.156.2l-.075.169Z" transform="translate(-24.113 -58.9)" fill="#942544"/>
    <path id="Path_2839" data-name="Path 2839" d="M90.409,186.769a.571.571,0,0,1,.2.44.563.563,0,0,1-.2.432.687.687,0,0,1-.479.176.7.7,0,0,1-.479-.176.573.573,0,0,1-.195-.432.56.56,0,0,1,.195-.433.731.731,0,0,1,.958-.007m.053,4.944a.406.406,0,0,1-.232.405.678.678,0,0,1-.09.034.7.7,0,0,1-.09.021.347.347,0,0,1-.068.006h-.045q-.532,0-.532-.459V188.71a.406.406,0,0,1,.232-.406.651.651,0,0,1,.09-.034.7.7,0,0,1,.09-.021.335.335,0,0,1,.068-.006h.045q.532,0,.532.467Z" transform="translate(-25.823 -58.153)" fill="#942544"/>
    <path id="Path_2840" data-name="Path 2840" d="M97.408,191.688a.771.771,0,0,1-.1.345,1.376,1.376,0,0,1-.314.412,1.8,1.8,0,0,1-.584.338,2.714,2.714,0,0,1-.905.142,2.043,2.043,0,0,1-1.587-.588,1.96,1.96,0,0,1-.472-1.379,1.878,1.878,0,0,1,.576-1.468,2.182,2.182,0,0,1,1.519-.5,2.521,2.521,0,0,1,.959.169,1.659,1.659,0,0,1,.561.372,1.3,1.3,0,0,1,.262.405.6.6,0,0,1,.053.149.412.412,0,0,1,.014.088.329.329,0,0,1-.187.3.63.63,0,0,1-.329.088.518.518,0,0,1-.434-.162.726.726,0,0,1-.127-.331L96.3,190a.519.519,0,0,0-.022-.088.93.93,0,0,0-.113-.217.776.776,0,0,0-.651-.277.765.765,0,0,0-.674.31,2.983,2.983,0,0,0,.015,2.51.751.751,0,0,0,.629.277.761.761,0,0,0,.658-.3.791.791,0,0,0,.127-.257.837.837,0,0,0,.045-.23c.031-.3.212-.447.547-.447q.546,0,.547.406" transform="translate(-27.036 -58.9)" fill="#942544"/>
    <path id="Path_2841" data-name="Path 2841" d="M101.337,189.457a.406.406,0,0,1,.239-.406.4.4,0,0,1,.09-.034.479.479,0,0,1,.082-.02.357.357,0,0,1,.068-.007h.045q.538,0,.539.467v2.225a.87.87,0,0,0,.128.494.623.623,0,0,0,.554.251.944.944,0,0,0,.591-.21,1.271,1.271,0,0,0,.367-.474v-2.285a.407.407,0,0,1,.232-.406.686.686,0,0,1,.09-.034.7.7,0,0,1,.09-.02.29.29,0,0,1,.068-.007h.045q.532,0,.532.467v3a.406.406,0,0,1-.232.405.806.806,0,0,1-.09.034.7.7,0,0,1-.09.02.345.345,0,0,1-.068.007h-.045a.857.857,0,0,1-.15-.014.591.591,0,0,1-.172-.061.356.356,0,0,1-.21-.338v-.189a1.308,1.308,0,0,1-.157.176,1.257,1.257,0,0,1-.247.2,1.552,1.552,0,0,1-.853.23,1.918,1.918,0,0,1-.5-.061,1.255,1.255,0,0,1-.464-.216,1.044,1.044,0,0,1-.345-.433,1.712,1.712,0,0,1-.134-.71Z" transform="translate(-29.318 -58.9)" fill="#942544"/>
    <path id="Path_2842" data-name="Path 2842" d="M110.5,191.712a.406.406,0,0,1-.233.405.677.677,0,0,1-.09.034.665.665,0,0,1-.089.021.354.354,0,0,1-.068.006h-.09a.473.473,0,0,1-.076-.006.72.72,0,0,1-.089-.021.65.65,0,0,1-.09-.034.4.4,0,0,1-.231-.4V187.06a.406.406,0,0,1,.231-.406.751.751,0,0,1,.09-.034.715.715,0,0,1,.089-.021.341.341,0,0,1,.068-.006h.089a.478.478,0,0,1,.077.006.66.66,0,0,1,.089.021.789.789,0,0,1,.09.034.406.406,0,0,1,.233.406Z" transform="translate(-31.664 -58.153)" fill="#942544"/>
    <path id="Path_2843" data-name="Path 2843" d="M115.03,191.423a.609.609,0,0,0,.075.331.384.384,0,0,0,.345.156.685.685,0,0,0,.239-.034l.053-.02a.181.181,0,0,0,.053-.028.369.369,0,0,1,.1-.02c.134,0,.2.063.2.189,0,.09-.08.169-.24.237a1.94,1.94,0,0,1-.794.162,1.213,1.213,0,0,1-.763-.216.947.947,0,0,1-.336-.8v-2.408h-.495c-.149,0-.225-.065-.225-.2s.075-.2.225-.2h.495v-.812a.406.406,0,0,1,.232-.406.947.947,0,0,1,.09-.034.626.626,0,0,1,.09-.02.283.283,0,0,1,.068-.007h.1a.4.4,0,0,1,.075.007.6.6,0,0,1,.09.02.478.478,0,0,1,.09.034.407.407,0,0,1,.232.406v.812h.8c.15,0,.225.065.225.2s-.075.2-.225.2h-.8Z" transform="translate(-32.764 -58.37)" fill="#942544"/>
    <path id="Path_2844" data-name="Path 2844" d="M119.358,189.457a.406.406,0,0,1,.239-.406.4.4,0,0,1,.09-.034.479.479,0,0,1,.082-.02.357.357,0,0,1,.068-.007h.045q.538,0,.539.467v2.225a.87.87,0,0,0,.128.494.623.623,0,0,0,.554.251.944.944,0,0,0,.591-.21,1.271,1.271,0,0,0,.367-.474v-2.285a.407.407,0,0,1,.232-.406.686.686,0,0,1,.09-.034.7.7,0,0,1,.09-.02.29.29,0,0,1,.068-.007h.045q.532,0,.532.467v3a.406.406,0,0,1-.232.405.806.806,0,0,1-.09.034.7.7,0,0,1-.09.02.345.345,0,0,1-.068.007h-.045a.857.857,0,0,1-.15-.014.591.591,0,0,1-.172-.061.356.356,0,0,1-.21-.338v-.189a1.308,1.308,0,0,1-.157.176,1.257,1.257,0,0,1-.247.2,1.552,1.552,0,0,1-.853.23,1.917,1.917,0,0,1-.5-.061,1.255,1.255,0,0,1-.464-.216,1.044,1.044,0,0,1-.345-.433,1.712,1.712,0,0,1-.134-.71Z" transform="translate(-34.532 -58.9)" fill="#942544"/>
    <path id="Path_2845" data-name="Path 2845" d="M128.417,192.459a.406.406,0,0,1-.232.405.641.641,0,0,1-.09.034.7.7,0,0,1-.09.021.347.347,0,0,1-.068.006h-.09a.45.45,0,0,1-.075-.006.7.7,0,0,1-.09-.021.65.65,0,0,1-.09-.034.4.4,0,0,1-.232-.4v-3.009a.406.406,0,0,1,.232-.406.65.65,0,0,1,.09-.034.7.7,0,0,1,.09-.021.325.325,0,0,1,.068-.006h.045q.532,0,.532.467v.379a1.159,1.159,0,0,1,1.107-.845q.472,0,.472.412a.367.367,0,0,1-.217.352.926.926,0,0,1-.194.054l-.165.021a1.247,1.247,0,0,0-.771.284.63.63,0,0,0-.157.2l-.075.169Z" transform="translate(-36.847 -58.9)" fill="#942544"/>
    <path id="Path_2846" data-name="Path 2846" d="M134.066,191.148a3.448,3.448,0,0,0,.038.453,1.8,1.8,0,0,0,.112.439.806.806,0,0,0,1.288.244.654.654,0,0,0,.12-.189l.052-.162a.942.942,0,0,1,.142-.331.528.528,0,0,1,.412-.142q.553,0,.554.392a.649.649,0,0,1-.082.291,1.054,1.054,0,0,1-.285.359,1.739,1.739,0,0,1-.561.3,2.781,2.781,0,0,1-.884.128c-.119,0-.235,0-.343-.013a2.21,2.21,0,0,1-.4-.074,1.542,1.542,0,0,1-.764-.406,1.823,1.823,0,0,1-.426-.764q-.045-.183-.075-.379c-.01-.108-.016-.216-.016-.325a1.794,1.794,0,0,1,1.984-1.974,2.221,2.221,0,0,1,1.062.236,1.554,1.554,0,0,1,.583.528,2.192,2.192,0,0,1,.285.778l.007.128a.417.417,0,0,1-.276.419.958.958,0,0,1-.232.061.954.954,0,0,0-.113.008Zm1.445-.406c.154,0,.232-.067.232-.2a2.076,2.076,0,0,0-.059-.487.731.731,0,0,0-.756-.642.707.707,0,0,0-.7.426,1.955,1.955,0,0,0-.12.432q-.022.177-.038.474Z" transform="translate(-38.462 -58.9)" fill="#942544"/>
    <path id="Path_2847" data-name="Path 2847" d="M10.312,166.088q-.271.506-.583.991-.251.384-.521.728l-.188.262-.313.344a.526.526,0,0,1-.375.162.508.508,0,0,1-.583-.566.643.643,0,0,1,.125-.365,15.669,15.669,0,0,0,1.521-3.618,22.97,22.97,0,0,0,.855-3.881H8.874a1.074,1.074,0,0,1-.208-.021.659.659,0,0,1-.229-.081.535.535,0,0,1,0-.93.5.5,0,0,1,.229-.081.926.926,0,0,1,.208-.02h1.438v-2.79a2.5,2.5,0,0,1,.167-1.071,1.213,1.213,0,0,1,1.167-.526,1.2,1.2,0,0,1,1.167.547,2.439,2.439,0,0,1,.166,1.05v2.79h.959a1.129,1.129,0,0,1,.208.02,1.213,1.213,0,0,1,.229.061.5.5,0,0,1,.271.485.485.485,0,0,1-.271.465.664.664,0,0,1-.229.081,1.074,1.074,0,0,1-.208.021H12.98a14.11,14.11,0,0,0,1.772,4.71l.125.263a.348.348,0,0,1,.021.142.5.5,0,0,1-.562.566.636.636,0,0,1-.48-.223,9.036,9.036,0,0,1-.876-1.172v7.56a2.506,2.506,0,0,1-.166,1.071,1.22,1.22,0,0,1-1.188.546,1.176,1.176,0,0,1-1.146-.546,2.493,2.493,0,0,1-.167-1.071Zm7.462-10.127a1.2,1.2,0,0,1,.021-.243,1.55,1.55,0,0,1,.146-.485,1.158,1.158,0,0,1,1.126-.545,1.214,1.214,0,0,1,1.167.566,1.819,1.819,0,0,1,.146.505,1.13,1.13,0,0,1,.021.222v7.884c-.014.445-.035.849-.062,1.213A13.7,13.7,0,0,1,20,167.422a9.252,9.252,0,0,1-.834,2.244,8.488,8.488,0,0,1-1.6,2.062,9.991,9.991,0,0,1-1.73,1.293,3.136,3.136,0,0,1-1.084.485q-.583,0-.583-.545a.767.767,0,0,1,.333-.547,8.384,8.384,0,0,0,1.709-1.86,7.681,7.681,0,0,0,.959-1.9,11.176,11.176,0,0,0,.416-1.779l.125-1.435a16.265,16.265,0,0,1-1.583,2.042,1.234,1.234,0,0,1-.9.485,1.076,1.076,0,0,1-.834-.4,1.294,1.294,0,0,1-.355-.869,1.2,1.2,0,0,1,.729-.991l.417-.262q.417-.243.792-.506.52-.322.937-.626.5-.363.855-.667v-2.264a1.47,1.47,0,0,1-1.251.748q-.772,0-1.251-1.759a18.4,18.4,0,0,0-.708-2,1.119,1.119,0,0,1-.1-.445.568.568,0,0,1,.208-.445.689.689,0,0,1,.375-.121,1.2,1.2,0,0,1,.583.3,7.362,7.362,0,0,1,.812.728,8.856,8.856,0,0,1,1.335,1.576Zm6.252,7.8a28.261,28.261,0,0,1,3.189,1.678,1.21,1.21,0,0,1,.6.93,1.238,1.238,0,0,1-.416.909,1.355,1.355,0,0,1-.959.425c-.279,0-.6-.222-.979-.667s-.868-.977-1.438-1.556v6.205q0,.506.834.506a.4.4,0,0,0,.209-.041.522.522,0,0,0,.146-.263,8.98,8.98,0,0,0,.229-1.88.711.711,0,0,1,.021-.182.722.722,0,0,1,.021-.182,1.107,1.107,0,0,1,.125-.343,1.063,1.063,0,0,1,.937-.364q1.167,0,1.168.931a6.1,6.1,0,0,1-.438,2.325,2.014,2.014,0,0,1-2.084,1.132H23.276q-1.835,0-1.834-1.536V155.961a1.2,1.2,0,0,1,.021-.243,1.547,1.547,0,0,1,.146-.505,1.12,1.12,0,0,1,1.1-.525,1.192,1.192,0,0,1,1.146.525,1.563,1.563,0,0,1,.146.485,1.474,1.474,0,0,1,.021.242v5.054a19.133,19.133,0,0,0,1.355-2.527l.063-.121a.473.473,0,0,0,.063-.122.931.931,0,0,1,.917-.525,1.435,1.435,0,0,1,.9.324,1,1,0,0,1,.459.809,1.6,1.6,0,0,1-.438.869,8.749,8.749,0,0,1-1.021,1.032q-.584.484-1.125.849a1.887,1.887,0,0,1-.73.343.519.519,0,0,1-.291-.081.4.4,0,0,1-.146-.121Z" transform="translate(-2.242 -48.19)" fill="#942544"/>
    <path id="Path_2848" data-name="Path 2848" d="M61.921,170.939q0,2.264-2.5,2.265H46.54a3.434,3.434,0,0,1-.771-.081,2.069,2.069,0,0,1-.813-.3,2.037,2.037,0,0,1-.917-1.881V157.8q0-2.263,2.5-2.264H59.42a3.475,3.475,0,0,1,.771.081,2.276,2.276,0,0,1,.834.3,2.052,2.052,0,0,1,.9,1.88ZM59.17,157.315a.6.6,0,0,0-.687-.668h-11a.638.638,0,0,0-.5.243.618.618,0,0,0-.188.425v14.09a.6.6,0,0,0,.688.667h11a.709.709,0,0,0,.5-.223.689.689,0,0,0,.187-.444Zm-7.5,3.557v-1.313h-3a1.124,1.124,0,0,1-.208-.021.658.658,0,0,1-.229-.081.535.535,0,0,1,0-.931.508.508,0,0,1,.229-.081,1.124,1.124,0,0,1,.208-.021h3v-.161a.711.711,0,0,1,.021-.182.887.887,0,0,1,.146-.445,1.193,1.193,0,0,1,1.146-.525,1.207,1.207,0,0,1,1.146.546,1.307,1.307,0,0,1,.146.445.746.746,0,0,1,.021.182v.141h3.084a.928.928,0,0,1,.209.021.7.7,0,0,1,.25.081.558.558,0,0,1,0,.931.672.672,0,0,1-.23.081.922.922,0,0,1-.208.021H54.293v1.313H58.17a.883.883,0,0,1,.208.021.668.668,0,0,1,.25.081.493.493,0,0,1,.25.465.451.451,0,0,1-.25.445.662.662,0,0,1-.23.081.922.922,0,0,1-.208.021H47.811a1.118,1.118,0,0,1-.208-.021.662.662,0,0,1-.23-.081.535.535,0,0,1,0-.931.778.778,0,0,1,.23-.06.879.879,0,0,1,.208-.021Zm-.021,7.378a13.244,13.244,0,0,1-1.4,1.213,11.451,11.451,0,0,1-1.229.829,7.963,7.963,0,0,1-.917.485,1.669,1.669,0,0,1-.438.161.5.5,0,0,1-.563-.566.684.684,0,0,1,.375-.566,8.346,8.346,0,0,0,2.793-3.053h-.313a3.028,3.028,0,0,1-.354-.019,2.06,2.06,0,0,1-.688-.182,1.3,1.3,0,0,1-.771-1.335v-.93q0-1.536,1.834-1.536H56a2.177,2.177,0,0,1,1.271.324,1.365,1.365,0,0,1,.563,1.213v.93q0,1.536-1.834,1.536h-.75l.021.041a.06.06,0,0,1,.021.041.242.242,0,0,0,.063.1,1.633,1.633,0,0,0,.146.263,6.6,6.6,0,0,0,.5.708q.251-.243.771-.849l.313-.3a.711.711,0,0,1,.438-.141q1.02,0,1.021.971a.743.743,0,0,1-.25.545,7.715,7.715,0,0,1-1.334.728l.23.2a2.461,2.461,0,0,0,.312.222,7.67,7.67,0,0,0,.959.627.57.57,0,0,1,.375.526.508.508,0,0,1-.583.566,1.94,1.94,0,0,1-.5-.162,7.162,7.162,0,0,1-1-.525,9.206,9.206,0,0,1-1.229-.829,7.679,7.679,0,0,1-1.23-1.172v2.143a.756.756,0,0,1-.021.182,1.308,1.308,0,0,1-.146.444,1.266,1.266,0,0,1-1.188.526,1.157,1.157,0,0,1-1.125-.546,1.271,1.271,0,0,1-.146-.424.983.983,0,0,1-.021-.2Zm3.605-3.861a.454.454,0,0,0-.521-.505h-3.46a.454.454,0,0,0-.521.505v.728a.453.453,0,0,0,.521.505h3.46a.454.454,0,0,0,.521-.505Z" transform="translate(-12.741 -48.474)" fill="#942544"/>
    <path id="Path_2849" data-name="Path 2849" d="M83.894,158.547a3.47,3.47,0,0,1,.583.041,1.867,1.867,0,0,1,.625.2,1.583,1.583,0,0,1,.667,1.475,16.36,16.36,0,0,1-1.709,7.419q.729.324,1.375.667l.667.384q.834.506.834,1.092a1.506,1.506,0,0,1-.4.991,1.339,1.339,0,0,1-1.043.505,1.609,1.609,0,0,1-1.042-.445l-.917-.768q-.249-.2-.667-.505a16.926,16.926,0,0,1-1.438,1.678q-.689.667-1.376,1.233a4.327,4.327,0,0,1-1.73,1.032.5.5,0,0,1-.563-.566.57.57,0,0,1,.23-.466q.5-.424.75-.667.4-.383.729-.767a14.182,14.182,0,0,0,1.667-2.568q-1.209-.646-2.23-1.092-1.083-.485-1.083-1.334a5.9,5.9,0,0,1,.291-1.192q.188-.627.4-1.557.166-.748.313-1.678.125-.667.229-1.355l.084-.646h-.73a1.072,1.072,0,0,1-.208-.021.658.658,0,0,1-.229-.081.535.535,0,0,1,0-.931.789.789,0,0,1,.229-.06.883.883,0,0,1,.208-.021h.855a1.194,1.194,0,0,0,.021-.262l.25-2.366a3.942,3.942,0,0,1,.063-.485,1.113,1.113,0,0,1,.625-.687,2.615,2.615,0,0,1,.375-.1,1.906,1.906,0,0,1,.292-.021l.355.021a1.667,1.667,0,0,0,.249.061,1.514,1.514,0,0,1,.271.1,1.051,1.051,0,0,1,.709,1.03c0,.107-.014.283-.042.525l-.354,2.183Zm-2,1.112a.321.321,0,0,1-.021.081.226.226,0,0,1-.021.1l-.23,1.192q-.145.769-.312,1.415-.375,1.617-.9,3.214a1.968,1.968,0,0,0-.1.465.273.273,0,0,0,.042.161.425.425,0,0,0,.208.162l.25.081c.111.04.25.081.416.122l.646.182a18.835,18.835,0,0,0,1.23-6.671.472.472,0,0,0-.209-.445.748.748,0,0,0-.187-.06Zm8.461,1.455a5.1,5.1,0,0,1,.021-.526,1.69,1.69,0,0,1,.167-.566,1.284,1.284,0,0,1,1.251-.586,1.179,1.179,0,0,1,.229.021l.167.02a17.415,17.415,0,0,0,.854-1.718,3.118,3.118,0,0,0,.271-.89.307.307,0,0,0-.167-.3l-.167-.041H86.9a1.062,1.062,0,0,1-.208-.02.663.663,0,0,1-.23-.081.535.535,0,0,1,0-.931.514.514,0,0,1,.23-.081,1.118,1.118,0,0,1,.208-.021h8.754a1.847,1.847,0,0,1,.812.162,1.1,1.1,0,0,1,.438.343l.083.2a.819.819,0,0,1,.063.162.589.589,0,0,1,.021.141v.061q0,.566-1.313,2.042a25.68,25.68,0,0,1-2.564,2.466v2.3H96.42a1.128,1.128,0,0,1,.208.02.66.66,0,0,1,.229.081.485.485,0,0,1,.271.465.448.448,0,0,1-.25.444.673.673,0,0,1-.25.081.888.888,0,0,1-.208.02H93.189v7.035q0,1.94-2.167,1.941H87.77a1.118,1.118,0,0,1-.208-.021.671.671,0,0,1-.23-.081.535.535,0,0,1,0-.931.786.786,0,0,1,.23-.061.916.916,0,0,1,.208-.02h2a.508.508,0,0,0,.583-.566v-7.3H86.5a1.062,1.062,0,0,1-.208-.02,1.111,1.111,0,0,1-.23-.061.434.434,0,0,1-.188-.162.522.522,0,0,1-.083-.3.485.485,0,0,1,.271-.465.5.5,0,0,1,.23-.081.921.921,0,0,1,.208-.02h3.855Z" transform="translate(-22.481 -48.19)" fill="#942544"/>
    <path id="Path_2850" data-name="Path 2850" d="M113.7,164.461a1.916,1.916,0,0,1,.479-1.375,2.245,2.245,0,0,1,1.688-.566h14.694a1.124,1.124,0,0,1,.208.021.658.658,0,0,1,.229.081.485.485,0,0,1,.271.465.5.5,0,0,1-.271.485,1.1,1.1,0,0,1-.229.061,1.122,1.122,0,0,1-.208.019h-13.63a.527.527,0,0,0-.6.586v2.183l-.02.222h14.88a1.129,1.129,0,0,1,.208.02.668.668,0,0,1,.23.081.485.485,0,0,1,.27.465.5.5,0,0,1-.27.485,1.124,1.124,0,0,1-.23.061,1.074,1.074,0,0,1-.208.021h-5.523a6.432,6.432,0,0,0,1.062,2.021,7.791,7.791,0,0,0,.98-.708c.124-.094.27-.215.437-.363l.521-.485.271-.2a1.323,1.323,0,0,1,.583-.12q1.271,0,1.271,1.091,0,.526-.917.97l-.271.122a3.561,3.561,0,0,1-.458.182q-.646.263-1.4.485a8.906,8.906,0,0,0,1.708.95,9.184,9.184,0,0,0,.9.324q.313.121,1.063.344a.529.529,0,0,1,.417.525.5.5,0,0,1-.563.566,4.553,4.553,0,0,1-.5-.061q-.5-.081-1.084-.222-.749-.183-1.48-.424a12.584,12.584,0,0,1-1.689-.668,7.857,7.857,0,0,1-1.854-1.192,6.734,6.734,0,0,1-1.188-1.315,6.847,6.847,0,0,1-.647-1.111,3.235,3.235,0,0,1-.166-.425.776.776,0,0,1-.063-.162l-.041-.121h-1.584v3.335l1.167-.1,1.792-.2a.509.509,0,0,1,.584.566.445.445,0,0,1-.271.445,10.213,10.213,0,0,1-1.375.4,38.578,38.578,0,0,1-6.794,1.334.916.916,0,0,1-.9-.485,1.38,1.38,0,0,1-.125-.363.564.564,0,0,1-.021-.141v-.1a.88.88,0,0,1,.813-1.011,4.536,4.536,0,0,1,.459-.04l1.979-.081v-3.557h-2.105q-.083.586-.187,1.051a7.019,7.019,0,0,1-.334,1.112,8.6,8.6,0,0,1-1.4,2.426l-.6.667a1.281,1.281,0,0,1-.667.445.508.508,0,0,1-.583-.566.8.8,0,0,1,.063-.2,3.508,3.508,0,0,1,.146-.343l.25-.546a12.2,12.2,0,0,0,.5-1.638q.145-.748.229-1.6.083-.668.1-1.476Zm9.545-8.51v-.142a.854.854,0,0,1,.021-.2,1.555,1.555,0,0,1,.146-.465,1.227,1.227,0,0,1,1.167-.545,1.205,1.205,0,0,1,1.146.545,1.535,1.535,0,0,1,.146.465.815.815,0,0,1,.021.2v.142h2.814q1.834,0,1.834,1.536v2.729a1.363,1.363,0,0,1-.563,1.212,2.172,2.172,0,0,1-1.271.324H115.724q-1.855,0-1.855-1.536v-2.729a1.348,1.348,0,0,1,.583-1.214,2.184,2.184,0,0,1,1.271-.323H118.6v-.162a.849.849,0,0,1,.021-.2,1.529,1.529,0,0,1,.146-.465,1.191,1.191,0,0,1,1.146-.525,1.154,1.154,0,0,1,1.105.485,1.057,1.057,0,0,1,.124.445,1.081,1.081,0,0,1,.021.222v.2ZM118.6,158.3v-1.234H117a.48.48,0,0,0-.542.546v.688Zm-2.146,1.091v.708a.48.48,0,0,0,.542.546h1.6v-1.253Zm1.167,6.267a.9.9,0,0,1-.209-.02.5.5,0,0,1-.229-.081.443.443,0,0,1-.271-.445.5.5,0,0,1,.271-.485,1.2,1.2,0,0,1,.229-.061,1.129,1.129,0,0,1,.209-.02h10.921a1.133,1.133,0,0,1,.208.02,1.211,1.211,0,0,1,.229.061.441.441,0,0,1,.188.162.527.527,0,0,1,.084.3.5.5,0,0,1-.271.485,1.116,1.116,0,0,1-.229.061,1.077,1.077,0,0,1-.208.02Zm5.627-8.591h-2.084V158.3h2.084Zm-2.084,3.578h2.084v-1.253h-2.084ZM128,158.3v-.688a.49.49,0,0,0-.563-.546h-1.542V158.3Zm-2.105,1.091v1.253h1.542a.49.49,0,0,0,.563-.546v-.708Z" transform="translate(-32.522 -48.181)" fill="#942544"/>
    <path id="Path_2851" data-name="Path 2851" d="M69.774,25.067c.013.012.026.022.038.034-.012-.012-.026-.022-.038-.034" transform="translate(-20.186 -7.812)" fill="#ed4887"/>
    <path id="Path_2852" data-name="Path 2852" d="M71.568,27.529a10.79,10.79,0,0,1,.571,1.2,10.79,10.79,0,0,0-.571-1.2" transform="translate(-20.705 -8.58)" fill="#ed4887"/>
    <path id="Path_2853" data-name="Path 2853" d="M60.323,27.564A11.16,11.16,0,0,1,62.376,30.8a11.16,11.16,0,0,0-2.053-3.232" transform="translate(-17.452 -8.59)" fill="#ed4887"/>
    <path id="Path_2854" data-name="Path 2854" d="M63.115,41.469a14.666,14.666,0,0,1-3.708,10.19,14.666,14.666,0,0,0,3.708-10.19" transform="translate(-17.187 -12.924)" fill="#ed4887"/>
    <path id="Path_2855" data-name="Path 2855" d="M58.118,23.173a10.286,10.286,0,0,1,2.824-.544,10.286,10.286,0,0,0-2.824.544,7.408,7.408,0,0,0-2.084,1.01,7.408,7.408,0,0,1,2.084-1.01" transform="translate(-16.211 -7.052)" fill="#ed4887"/>
    <path id="Path_2856" data-name="Path 2856" d="M75.665,37.418q1.126,2.821,2.156,5.717-1.029-2.9-2.156-5.717" transform="translate(-21.891 -11.662)" fill="#ed4887"/>
    <path id="Path_2857" data-name="Path 2857" d="M80.708,53.521c0,.008,0,.017,0,.025,0-.008,0-.017,0-.025" transform="translate(-23.35 -16.68)" fill="#ed4887"/>
    <path id="Path_2858" data-name="Path 2858" d="M67.516,23.774c-.039-.026-.077-.057-.117-.083a6.877,6.877,0,0,0-3.064-1.019A6.877,6.877,0,0,1,67.4,23.692c.04.025.077.056.117.083" transform="translate(-18.613 -7.066)" fill="#ed4887"/>
    <path id="Path_2859" data-name="Path 2859" d="M62.408,60.371q-2.568-3.538-2.916-3.988.344.447,2.916,3.988" transform="translate(-17.212 -17.572)" fill="#ed4887"/>
    <path id="Path_2860" data-name="Path 2860" d="M70.5,25.88a7.206,7.206,0,0,1,.49.681,7.206,7.206,0,0,0-.49-.681" transform="translate(-20.395 -8.066)" fill="#ed4887"/>
    <path id="Path_2861" data-name="Path 2861" d="M64.432,39.437a23.174,23.174,0,0,0-.468-4.382,23.174,23.174,0,0,1,.468,4.382" transform="translate(-18.505 -10.925)" fill="#ed4887"/>
    <path id="Path_2862" data-name="Path 2862" d="M56.034,24.18a6.464,6.464,0,0,1,3.049,1.843,11.153,11.153,0,0,1,2.052,3.232c.071.16.146.31.214.478.123.49.227.971.321,1.447a23.174,23.174,0,0,1,.468,4.382V35.6a14.666,14.666,0,0,1-3.708,10.19c.006.006.033.04.06.075q.345.448,2.916,3.988l.568.783a11.426,11.426,0,0,0,5.837-.1,9.014,9.014,0,0,0,5.524-5.048,5.027,5.027,0,0,0,.235-1.566c0-.008,0-.017,0-.025a9.365,9.365,0,0,0-.65-3.154c-.252-.743-.517-1.478-.778-2.214q-1.029-2.9-2.156-5.717c-.7-1.75-1.419-3.486-2.174-5.193-.053-.145-.11-.279-.166-.416a10.839,10.839,0,0,0-.571-1.2q-.132-.236-.271-.454a7.386,7.386,0,0,0-.49-.681,6.1,6.1,0,0,0-.475-.525c-.012-.012-.026-.022-.038-.034a5.116,5.116,0,0,0-.684-.547c-.04-.027-.077-.058-.117-.083a6.872,6.872,0,0,0-3.064-1.019,7.753,7.753,0,0,0-.992-.03,10.286,10.286,0,0,0-2.824.544,7.408,7.408,0,0,0-2.084,1.01" transform="translate(-16.211 -7.05)" fill="#ed4887"/>
    <path id="Path_2863" data-name="Path 2863" d="M122.068,88.549a27.725,27.725,0,0,1-.9-2.886.734.734,0,0,0-.184-.343c-.054-.047-.21.008-.581.041a3.887,3.887,0,0,1,.173.55,10.59,10.59,0,0,0,2.474,5.293,5.7,5.7,0,0,0,2.354,1.735,2.48,2.48,0,0,0,2.008-.022c.115-.055.16-.242.237-.368-.127-.043-.284-.154-.377-.117a2.549,2.549,0,0,1-2.554-.531,7.672,7.672,0,0,1-2.647-3.352" transform="translate(-34.833 -26.585)" fill="#ed4887"/>
    <path id="Path_2864" data-name="Path 2864" d="M120.952,79.609a15.07,15.07,0,0,0,.96,1.889,3.372,3.372,0,0,0,2.638,1.556,6.679,6.679,0,0,0,1.088-.105c.01-.059.019-.119.029-.178-2.191-.3-3.3-1.866-4.593-3.213l-.122.052" transform="translate(-34.993 -24.794)" fill="#ed4887"/>
    <path id="Path_2865" data-name="Path 2865" d="M142.811,42.026Z" transform="translate(-41.317 -13.098)" fill="#ed4887"/>
    <path id="Path_2866" data-name="Path 2866" d="M141.719,38.361c.065.126.124.253.181.38-.057-.127-.116-.254-.181-.38" transform="translate(-41.001 -11.955)" fill="#ed4887"/>
    <path id="Path_2867" data-name="Path 2867" d="M142.246,39.578c.043.116.078.233.115.349-.037-.116-.072-.233-.115-.349" transform="translate(-41.153 -12.335)" fill="#ed4887"/>
    <path id="Path_2868" data-name="Path 2868" d="M142.609,40.8c.023.1.037.2.055.3-.018-.1-.032-.2-.055-.3" transform="translate(-41.258 -12.715)" fill="#ed4887"/>
    <path id="Path_2869" data-name="Path 2869" d="M118.824,104.843c-.081.092-.158.191-.237.288.078-.1.156-.2.237-.288" transform="translate(-34.309 -32.675)" fill="#ed4887"/>
    <path id="Path_2870" data-name="Path 2870" d="M141.023,37.145c.09.136.177.272.257.409-.08-.137-.167-.273-.257-.409" transform="translate(-40.799 -11.576)" fill="#ed4887"/>
    <path id="Path_2871" data-name="Path 2871" d="M116.94,107.65c-.089.162-.176.326-.259.5.084-.17.171-.335.259-.5" transform="translate(-33.757 -33.55)" fill="#ed4887"/>
    <path id="Path_2872" data-name="Path 2872" d="M117.516,106.644c-.087.137-.173.279-.257.423.084-.145.17-.285.257-.423" transform="translate(-33.924 -33.236)" fill="#ed4887"/>
    <path id="Path_2873" data-name="Path 2873" d="M118.144,105.706c-.086.115-.168.235-.252.355.083-.12.166-.24.252-.355" transform="translate(-34.107 -32.944)" fill="#ed4887"/>
    <path id="Path_2874" data-name="Path 2874" d="M116.414,108.717c-.089.189-.177.38-.261.578.084-.2.172-.39.261-.578" transform="translate(-33.604 -33.882)" fill="#ed4887"/>
    <path id="Path_2875" data-name="Path 2875" d="M125.194,29.927c.061-.021.122-.043.183-.061-.061.019-.122.04-.183.061" transform="translate(-36.22 -9.308)" fill="#ed4887"/>
    <path id="Path_2876" data-name="Path 2876" d="M140.147,35.922c.121.148.24.3.35.445-.109-.149-.229-.3-.35-.445" transform="translate(-40.546 -11.195)" fill="#ed4887"/>
    <path id="Path_2877" data-name="Path 2877" d="M124.1,30.422l.018-.008-.018.008" transform="translate(-35.904 -9.479)" fill="#ed4887"/>
    <path id="Path_2878" data-name="Path 2878" d="M121.273,26.8a10.424,10.424,0,0,1,1.491-.768A10.216,10.216,0,0,0,121.273,26.8Z" transform="translate(-35.086 -8.112)" fill="#ed4887"/>
    <path id="Path_2879" data-name="Path 2879" d="M124.175,25.629c-.218.068-.435.15-.65.235.215-.086.432-.167.65-.235" transform="translate(-35.737 -7.987)" fill="#ed4887"/>
    <path id="Path_2880" data-name="Path 2880" d="M139.052,34.662c.167.17.332.341.483.512-.151-.171-.317-.342-.483-.512" transform="translate(-40.229 -10.803)" fill="#ed4887"/>
    <path id="Path_2881" data-name="Path 2881" d="M124.2,10.729c.086.171.166.348.24.53-.075-.182-.154-.359-.24-.53" transform="translate(-35.931 -3.344)" fill="#ed4887"/>
    <path id="Path_2882" data-name="Path 2882" d="M99.006,75.031v4.223h0V75.03h0" transform="translate(-28.644 -23.383)" fill="#ed4887"/>
    <path id="Path_2883" data-name="Path 2883" d="M125.215,13.857c.063.315.117.639.154.977-.038-.338-.091-.662-.154-.977" transform="translate(-36.226 -4.319)" fill="#ed4887"/>
    <path id="Path_2884" data-name="Path 2884" d="M129.03,72.943l-1.906-1.082Z" transform="translate(-36.778 -22.396)" fill="#ed4887"/>
    <path id="Path_2885" data-name="Path 2885" d="M136.321,76.794a9.854,9.854,0,0,0-2.345-1.591l-4.169-1.918h0l4.169,1.918a9.854,9.854,0,0,1,2.345,1.591" transform="translate(-37.555 -22.84)" fill="#ed4887"/>
    <path id="Path_2886" data-name="Path 2886" d="M115.942,109.821c-.092.224-.182.452-.267.688.085-.237.176-.464.267-.688" transform="translate(-33.466 -34.226)" fill="#ed4887"/>
    <path id="Path_2887" data-name="Path 2887" d="M128.426,29.408a7.17,7.17,0,0,0-1.846.113h0a7.17,7.17,0,0,1,1.846-.113" transform="translate(-36.621 -9.16)" fill="#ed4887"/>
    <path id="Path_2888" data-name="Path 2888" d="M122.876,31.174l.046-.032-.046.032" transform="translate(-35.549 -9.706)" fill="#ed4887"/>
    <path id="Path_2889" data-name="Path 2889" d="M119.364,104.264c.067-.068.131-.14.2-.206-.068.065-.133.138-.2.206" transform="translate(-34.533 -32.43)" fill="#ed4887"/>
    <path id="Path_2890" data-name="Path 2890" d="M100.57,8.115q2.6-3.028,7.921-3.029,5.016,0,7.319,2.319-2.3-2.319-7.319-2.319-5.315,0-7.921,3.029a8.6,8.6,0,0,0-1.564,5.553v0a8.606,8.606,0,0,1,1.564-5.553" transform="translate(-28.644 -1.585)" fill="#ed4887"/>
    <path id="Path_2891" data-name="Path 2891" d="M135.973,32.75c-.274-.265-.564-.529-.876-.792a11.071,11.071,0,0,0-5.736-2.519,11.079,11.079,0,0,1,5.737,2.519c.311.263.6.527.875.792" transform="translate(-37.426 -9.175)" fill="#ed4887"/>
    <path id="Path_2892" data-name="Path 2892" d="M115.914,38.708h0l-.067.076-.065-.054.065.054Z" transform="translate(-33.497 -12.064)" fill="#ed4887"/>
    <path id="Path_2893" data-name="Path 2893" d="M101.282,67.511c.063-.1.1-.141.105-.18a2.37,2.37,0,0,0,0-.3,16.35,16.35,0,0,1,1.787-8.172,3.043,3.043,0,0,0,.26-1.021,27.8,27.8,0,0,1,2.263-8.288,28.5,28.5,0,0,1,5.95-8.635,30.081,30.081,0,0,0-6.666,14.95,25.056,25.056,0,0,1,10.834-7.578,7.409,7.409,0,0,1-.908.646c-4.987,3.237-8.54,7.407-10.032,12.905a3.332,3.332,0,0,0-.107,1.267,29.062,29.062,0,0,0,6.084,14.764h0c.085-.237.176-.464.267-.688.024-.06.048-.122.072-.182.084-.2.172-.389.261-.578.038-.081.075-.161.114-.24.085-.169.171-.334.26-.5.05-.091.1-.181.151-.269.084-.145.169-.286.257-.423.063-.1.128-.195.193-.29.082-.12.165-.241.251-.355s.161-.206.242-.306.156-.2.238-.288c.1-.117.209-.226.315-.335.067-.069.131-.141.2-.207.178-.171.361-.334.551-.485a6.524,6.524,0,0,1,3.648-1.514v-2.12a10.453,10.453,0,0,0,3.961.908q3.229-.3,6.046-4.441a9.678,9.678,0,0,0,.938-8.077,6.016,6.016,0,0,0-1.407-1.943,9.857,9.857,0,0,0-2.346-1.59L120.9,52.031v.1L118.99,51.05l-1.117-.634V47.488l9.9-11.307a8.8,8.8,0,0,0,2.4-4.846c0-.119-.011-.237-.015-.355-.192.358-.367.749-.672.882a6.7,6.7,0,0,1-2.413.533c-.429.013-.866-.434-1.3-.673a4.431,4.431,0,0,1,.91-1.135,4.548,4.548,0,0,1,3.068-.429l.385.356h0c-.018-.182-.055-.363-.089-.544-.018-.1-.032-.2-.055-.3-.039-.165-.092-.328-.143-.492-.037-.116-.072-.233-.115-.349-.057-.153-.124-.306-.193-.458-.058-.127-.117-.254-.182-.38q-.111-.215-.237-.428c-.08-.136-.167-.273-.257-.409s-.177-.264-.274-.4c-.109-.149-.228-.3-.349-.445-.1-.118-.19-.237-.295-.355-.151-.171-.316-.342-.483-.512-.092-.095-.178-.19-.276-.284-.274-.266-.563-.529-.875-.792a11.082,11.082,0,0,0-5.736-2.519c-.043,0-.087-.014-.131-.017a7.173,7.173,0,0,0-1.847.113,5.754,5.754,0,0,0-.8.2c-.061.019-.122.04-.183.061a6.308,6.308,0,0,0-.757.316l-.018.009a7.289,7.289,0,0,0-.826.492l-.046.032a9,9,0,0,0-.8.626,6.333,6.333,0,0,1-.709,1.991,4.736,4.736,0,0,1-3.364,2.554l-.038.006-.067.076-.065-.055,0,0a3.865,3.865,0,0,1-3.279-.941,5.588,5.588,0,0,1-1.37-1.975,6.2,6.2,0,0,1-.528-2,4.646,4.646,0,0,1,.245-1.931.439.439,0,0,0-.307-.591.518.518,0,0,0-.618.333,5.481,5.481,0,0,0-.269,2.618,7.134,7.134,0,0,0,.7,2.25,6.114,6.114,0,0,0,2.534,2.766c.058.032.124.12.114.174s-.1.125-.17.147a4.471,4.471,0,0,1-1.966.222,5.338,5.338,0,0,1-4.09-2.483,6.67,6.67,0,0,1-.982-4,5.441,5.441,0,0,1,1.22-3.283,4.914,4.914,0,0,1,3.4-1.859c.158-.017.252.028.29.18.05.2.114.393.173.589a.476.476,0,0,0,.5.347.468.468,0,0,0,.443-.346.711.711,0,0,0-.074-.372,3.789,3.789,0,0,0-3.267-2.4.446.446,0,0,1-.4-.356.521.521,0,0,1,.255-.54l.241-.065a.16.16,0,0,0,.043.013,4.739,4.739,0,0,1,3.056,1.417c.024.025.054.044.093.076.006-.056.011-.089.015-.123a3.078,3.078,0,0,1,2.328-2.641l1.791-.486c.391-.105.66.083.666.464a3.069,3.069,0,0,1-2.257,2.879c-.626.171-1.254.34-1.881.51l-.173.047a1.327,1.327,0,0,1,.115.193c.048.125.113.118.232.061a6.152,6.152,0,0,1,1.627-.52,4.156,4.156,0,0,1,3.42.806,6.333,6.333,0,0,1,2.045,2.84,10.174,10.174,0,0,1,1.491-.767c.036-.015.073-.026.109-.041.216-.085.432-.167.65-.235.262-.082.525-.152.791-.208V13.668a13.976,13.976,0,0,0-.086-1.567c-.038-.337-.091-.661-.154-.977a9.021,9.021,0,0,0-.485-1.623q-.112-.273-.24-.53a7.085,7.085,0,0,0-.495-.856,6,6,0,0,0-.6-.71q-2.3-2.318-7.319-2.319-5.316,0-7.922,3.029a8.607,8.607,0,0,0-1.564,5.553V46a32.038,32.038,0,0,1,3.983-7.449c.923-1.288,1.975-2.5,2.967-3.747l2-1.831c-.33.432-.65.871-.992,1.295Q99.691,43.3,99.006,53.232v4.224a35.932,35.932,0,0,0,1.987,9.414c.072.2.178.4.289.641m11.274-21.456a7.217,7.217,0,0,1-1.62,1.47c-.824.52-1.73.5-2.05.1s-.06-1.113.612-1.93a18.431,18.431,0,0,1,2.071-.851,1.189,1.189,0,0,1,1.008.25.934.934,0,0,1-.021.957m1.491-2.667a15.684,15.684,0,0,1-1.995.835,1.251,1.251,0,0,1-1.073-.244,1.108,1.108,0,0,1,.088-1.085,6.418,6.418,0,0,1,1.626-1.357,1.55,1.55,0,0,1,1.955-.046c.385.356.07,1.125-.6,1.9m4.887,15.325a6.815,6.815,0,0,1,2.441,2.256,9.463,9.463,0,0,1,1.689,4.892,5.276,5.276,0,0,1-.2,1.625,2.628,2.628,0,0,1-3.485,1.821,6.59,6.59,0,0,1-2.228-1.17,12.431,12.431,0,0,1-4.508-8.66,10.333,10.333,0,0,1,.394-2.725,2.138,2.138,0,0,1,.393-.765c.505-.719.994-.782,1.646-.213.35.3.667.642,1,.964l-.08.106c.975.628,1.917,1.306,2.934,1.87m.755-18.035a3.44,3.44,0,0,1-2.465,1.385,1.826,1.826,0,0,1-1.411-.377c-.193-.276.155-.876.214-1.121a4.553,4.553,0,0,1,2.926-1.207c.943.02,1.266.6.736,1.321m7.372-7.447c.8.223.9.848.186,1.5a4.015,4.015,0,0,1-3.362.573c-.8-.229-.936-.881-.29-1.386a3.767,3.767,0,0,1,3.465-.69m-6.715.189a3.715,3.715,0,0,1,2.747-2.476c.7-.071,1.141.324.925.954a10.558,10.558,0,0,1-.869,1.589,12.5,12.5,0,0,1-1.853.792c-.658.169-1.032-.234-.95-.86m.512,1.747c.383-.1,1.108-.023,1.232.195a1.31,1.31,0,0,1-.163,1.22,5.039,5.039,0,0,1-1.457,1.2c-.86.5-1.716.493-2.05.1s-.076-1.107.613-1.89a11.363,11.363,0,0,1,1.825-.824m-5.028-.062a10.533,10.533,0,0,1,.854-1.655,12.122,12.122,0,0,1,1.8-.8c.7-.187,1.089.226.988.894a3.712,3.712,0,0,1-2.666,2.466c-.722.095-1.171-.266-.972-.908m.8,1.987c.657-.142,1.01.308.879.922a3.76,3.76,0,0,1-2.942,2.279c-.726.021-1.1-.372-.844-1.012a9.9,9.9,0,0,1,.888-1.436,13.634,13.634,0,0,1,2.02-.754m-3.745-2.068c.473-.109,1-.391,1.405-.29.631.158.571.785.482,1.287a3.31,3.31,0,0,1-1.449,2.3,1.239,1.239,0,0,1-.967.18,1.14,1.14,0,0,1-.508-.841,4.159,4.159,0,0,1,1.037-2.639m-3.553,3.208c.21-.057.647-.313.937-.216a1.2,1.2,0,0,1,.643.844,3.127,3.127,0,0,1-1,2.852c-.649.62-1.384.423-1.565-.409a3.544,3.544,0,0,1,.989-3.071m-3.28,3.061a.8.8,0,0,1,1.217-.045,3.117,3.117,0,0,1,.167,3.616c-.387.436-.809.491-1.076.266a3.086,3.086,0,0,1-.308-3.837M104.141,44.9a.8.8,0,0,1,1.255.123,3.167,3.167,0,0,1,.146,3.436.8.8,0,0,1-1.186.255c-.976-.649-1.108-3.023-.215-3.813" transform="translate(-28.644 -1.585)" fill="#ed4887"/>
    <path id="Path_2894" data-name="Path 2894" d="M121.828,106.28q2.71-2.121,7.713-.807a10.527,10.527,0,0,1,4.649,2.429,10.527,10.527,0,0,0-4.649-2.429q-5-1.311-7.713.807a9.151,9.151,0,0,0-2.71,4.341l-.316.858.316-.858a9.151,9.151,0,0,1,2.71-4.341" transform="translate(-34.371 -32.715)" fill="#ed4887"/>
    <path id="Path_2895" data-name="Path 2895" d="M99.48,132.675a7.253,7.253,0,0,1-.438-1.721,7.253,7.253,0,0,0,.438,1.721" transform="translate(-28.654 -40.813)" fill="#ed4887"/>
    <path id="Path_2896" data-name="Path 2896" d="M143.036,114.729c.018.225.031.457.031.7,0-.243-.012-.475-.031-.7" transform="translate(-41.382 -35.756)" fill="#ed4887"/>
    <path id="Path_2897" data-name="Path 2897" d="M99,95.137h0v23.727a5.5,5.5,0,0,0,.026.927,5.5,5.5,0,0,1-.026-.927Z" transform="translate(-28.64 -29.65)" fill="#ed4887"/>
    <path id="Path_2898" data-name="Path 2898" d="M142.721,112.951c.026.087.05.174.072.264-.021-.09-.046-.178-.072-.264" transform="translate(-41.291 -35.202)" fill="#ed4887"/>
    <path id="Path_2899" data-name="Path 2899" d="M106.716,126.435h9.693q7.194-.3,9.9-2.928a6.232,6.232,0,0,1,.834-1.211,15.865,15.865,0,0,0,1.564-4.24l1.25-5.755a14.1,14.1,0,0,0,.365-2.978c0-.243-.012-.475-.031-.7a6.377,6.377,0,0,0-.151-.96c-.022-.09-.046-.178-.072-.264-.035-.118-.068-.237-.111-.348a6.458,6.458,0,0,0-1.5-2.214,10.521,10.521,0,0,0-4.649-2.429q-5-1.311-7.713.807a9.162,9.162,0,0,0-2.71,4.341l-.316.858a34.46,34.46,0,0,0,6.265,4.915c.377.234.714.456.988.653.21-.16.415-.321.637-.473a11.194,11.194,0,0,1,2.4-1.008,2.2,2.2,0,0,1,.792-.085c.8.016,1.058.329.867,1.055-.1.389-.244.771-.367,1.156l-.12-.006c-.1.981-.261,1.961-.294,2.942a5.834,5.834,0,0,1-.817,2.776,9.728,9.728,0,0,1-3.293,3.493,5.745,5.745,0,0,1-1.413.628,2.158,2.158,0,0,1-2.959-1.588,5.077,5.077,0,0,1,.018-2.115,11.869,11.869,0,0,1,4.016-6.348,41.131,41.131,0,0,1-8.75-4.113c-.694-.431-1.357-.9-2.034-1.356l-2.647-2.442c-.219-.279-.414-.578-.661-.834A30.966,30.966,0,0,1,99,95.137v23.727a5.577,5.577,0,0,0,.026.927,7.213,7.213,0,0,0,.437,1.722,10.231,10.231,0,0,0,.579,1.289q1.564,3.127,6.671,3.634" transform="translate(-28.64 -29.65)" fill="#ed4887"/>
    <path id="Path_2900" data-name="Path 2900" d="M124.465,128.642a4.66,4.66,0,0,0-.427,2.47,1.788,1.788,0,0,0,.863,1.4c.094.055.266,0,.4-.007-.019-.109.006-.272-.064-.32a1.867,1.867,0,0,1-.642-2.044,7.006,7.006,0,0,1,1.629-3.438c.586-.717,1.318-1.331,1.98-2a.709.709,0,0,0,.2-.291c.016-.059-.1-.143-.278-.388a4.024,4.024,0,0,1-.377.381,10.555,10.555,0,0,0-3.289,4.232" transform="translate(-35.876 -38.654)" fill="#ed4887"/>
    <path id="Path_2901" data-name="Path 2901" d="M133.211,126.579l.158-.064c-.68-1.678.139-3.194.694-4.739l-.094-.061a14.718,14.718,0,0,0-1.141,1.564,2.663,2.663,0,0,0-.161,2.585,4.777,4.777,0,0,0,.544.715" transform="translate(-38.305 -37.933)" fill="#ed4887"/>
    <path id="Path_2902" data-name="Path 2902" d="M55.841,58.689q.377.423.751.915-.374-.49-.751-.915" transform="translate(-16.155 -18.291)" fill="#ed4887"/>
    <path id="Path_2903" data-name="Path 2903" d="M53.017,56.136a8.188,8.188,0,0,1,.971.726,8.188,8.188,0,0,0-.971-.726" transform="translate(-15.338 -17.495)" fill="#ed4887"/>
    <path id="Path_2904" data-name="Path 2904" d="M39.729,56.146q3.96-2.522,7.192-1.01a6.264,6.264,0,0,1,.983.512,6.264,6.264,0,0,0-.983-.512q-3.232-1.515-7.192,1.01-4.065,2.725-4.378,6.461a6.055,6.055,0,0,0,.149,1.6,6.055,6.055,0,0,1-.149-1.6q.312-3.735,4.378-6.461" transform="translate(-10.226 -17.007)" fill="#ed4887"/>
    <path id="Path_2905" data-name="Path 2905" d="M37.006,72.23q.181.311.389.626c1,1.514,1.93,2.843,2.78,4-.85-1.157-1.775-2.486-2.78-4q-.209-.315-.389-.626" transform="translate(-10.706 -22.511)" fill="#ed4887"/>
    <path id="Path_2906" data-name="Path 2906" d="M65.081,76.073a7.079,7.079,0,0,1-.112.749,6.543,6.543,0,0,0,.112-.749" transform="translate(-18.796 -23.709)" fill="#ed4887"/>
    <path id="Path_2907" data-name="Path 2907" d="M64.842,77.611c-.026.1-.058.2-.087.306.03-.1.061-.2.087-.306" transform="translate(-18.734 -24.188)" fill="#ed4887"/>
    <path id="Path_2908" data-name="Path 2908" d="M36.365,70.886a9.057,9.057,0,0,1-.421-.989,9.057,9.057,0,0,0,.421.989" transform="translate(-10.399 -21.784)" fill="#ed4887"/>
    <path id="Path_2909" data-name="Path 2909" d="M44,82.29c-.262-.31-.537-.65-.819-1.008.282.357.558.7.819,1.008" transform="translate(-12.493 -25.332)" fill="#ed4887"/>
    <path id="Path_2910" data-name="Path 2910" d="M63.348,70.765a9.4,9.4,0,0,1,1.264,3.654,9.4,9.4,0,0,0-1.264-3.654" transform="translate(-18.327 -22.054)" fill="#ed4887"/>
    <path id="Path_2911" data-name="Path 2911" d="M50.778,58.468c-.038-.052-.077-.1-.115-.148q-.373-.49-.751-.915c-.185-.207-.37-.405-.556-.588q-.24-.235-.48-.443a8.248,8.248,0,0,0-.971-.726,6.356,6.356,0,0,0-.984-.511q-3.231-1.515-7.192,1.01-4.065,2.725-4.377,6.461a6.028,6.028,0,0,0,.149,1.6,7.449,7.449,0,0,0,.269.913,9.057,9.057,0,0,0,.421.988q.152.307.334.617t.389.626c1,1.514,1.929,2.843,2.779,4q.641.87,1.222,1.606c.283.357.558.7.819,1.007a10.507,10.507,0,0,0,3.206,2.877q3.127,1.313,7.191-1.01c.015-.01.027-.02.041-.03-1.537-.6-3.1-1.147-4.615-1.779a26.061,26.061,0,0,1-5.05-2.695,5.415,5.415,0,0,1-1.454-1.359,3.418,3.418,0,0,1-.343-.787.3.3,0,0,1,.217-.4,6.773,6.773,0,0,1,.963-.3,10.554,10.554,0,0,1,2.581-.067.564.564,0,0,0,.274-.017,2.594,2.594,0,0,1,1.463-.184,14.965,14.965,0,0,1,3.5.752A49.594,49.594,0,0,1,55.977,71.5a7.717,7.717,0,0,0,.269-.769c.029-.1.063-.2.087-.306s.045-.207.065-.31a7.079,7.079,0,0,0,.112-.749h0a9.4,9.4,0,0,0-1.264-3.653,69.926,69.926,0,0,0-4.469-7.25" transform="translate(-10.226 -17.007)" fill="#ed4887"/>
    <path id="Path_2912" data-name="Path 2912" d="M67.725,126.835a22.437,22.437,0,0,1,5.226-5.539,7.467,7.467,0,0,0-5.226,5.539" transform="translate(-19.594 -37.803)" fill="#ed4887"/>
    <path id="Path_2913" data-name="Path 2913" d="M94.448,16.558h0c0-.31-.011-.61-.028-.9.018.294.028.594.028.9" transform="translate(-27.317 -4.879)" fill="#ed4887"/>
    <path id="Path_2914" data-name="Path 2914" d="M56.568,134.745a11.9,11.9,0,0,0,1.772,1.622,11.9,11.9,0,0,1-1.772-1.622" transform="translate(-16.366 -41.994)" fill="#ed4887"/>
    <path id="Path_2915" data-name="Path 2915" d="M60.244,111.36l10.527-4.341L60.244,111.36a.091.091,0,0,0-.1.1.091.091,0,0,1,.1-.1" transform="translate(-17.399 -33.353)" fill="#ed4887"/>
    <path id="Path_2916" data-name="Path 2916" d="M59.775,137.629a19.877,19.877,0,0,0,2.031,1.242c.6.271,1.169.49,1.733.686-.564-.2-1.137-.414-1.733-.686a19.877,19.877,0,0,1-2.031-1.242" transform="translate(-17.294 -42.893)" fill="#ed4887"/>
    <path id="Path_2917" data-name="Path 2917" d="M57.4,118.423q.414-.9.9-1.9-.486,1-.9,1.9" transform="translate(-16.606 -36.314)" fill="#ed4887"/>
    <path id="Path_2918" data-name="Path 2918" d="M70.426,19.923a7.267,7.267,0,0,0-.991-.451,7.48,7.48,0,0,1,.991.451" transform="translate(-20.088 -6.069)" fill="#ed4887"/>
    <path id="Path_2919" data-name="Path 2919" d="M68.981,19.327a7.927,7.927,0,0,0-1.066-.306,7.8,7.8,0,0,1,1.066.306" transform="translate(-19.649 -5.928)" fill="#ed4887"/>
    <path id="Path_2920" data-name="Path 2920" d="M93.861,12.168c.033.116.065.233.1.354-.029-.12-.062-.237-.1-.354" transform="translate(-27.155 -3.792)" fill="#ed4887"/>
    <path id="Path_2921" data-name="Path 2921" d="M69.315,72.958A8.775,8.775,0,0,0,69.1,72a8.614,8.614,0,0,1,.22.959" transform="translate(-19.99 -22.439)" fill="#ed4887"/>
    <path id="Path_2922" data-name="Path 2922" d="M77.4,4.5q5.016,0,7.319,2.319Q82.415,4.5,77.4,4.5q-5.316,0-7.922,3.029a8.6,8.6,0,0,0-1.564,5.553,8.606,8.606,0,0,1,1.564-5.553Q72.081,4.5,77.4,4.5" transform="translate(-19.648 -1.402)" fill="#ed4887"/>
    <path id="Path_2923" data-name="Path 2923" d="M76.488,27.507c-.1-.287-.211-.565-.325-.832.114.267.222.546.325.832" transform="translate(-22.035 -8.313)" fill="#ed4887"/>
    <path id="Path_2924" data-name="Path 2924" d="M74.875,24.145a11.923,11.923,0,0,1,.9,1.7A11.886,11.886,0,0,0,74.875,24.145Z" transform="translate(-21.662 -7.525)" fill="#ed4887"/>
    <path id="Path_2925" data-name="Path 2925" d="M54.115,126.648a19.4,19.4,0,0,1,1.938-6.088,19.4,19.4,0,0,0-1.938,6.088" transform="translate(-15.656 -37.573)" fill="#ed4887"/>
    <path id="Path_2926" data-name="Path 2926" d="M44.533,90.153c.324.157.676.314,1.043.471-.367-.157-.719-.314-1.043-.471a4.408,4.408,0,0,0-1.59,1.918,4.408,4.408,0,0,1,1.59-1.918" transform="translate(-12.424 -28.097)" fill="#ed4887"/>
    <path id="Path_2927" data-name="Path 2927" d="M52.6,91.714a10.113,10.113,0,0,1-3.489-.118,10.113,10.113,0,0,0,3.489.118" transform="translate(-14.207 -28.546)" fill="#ed4887"/>
    <path id="Path_2928" data-name="Path 2928" d="M59,88.978h0A12.806,12.806,0,0,1,54.016,90.9a12.806,12.806,0,0,0,4.978-1.919h0" transform="translate(-15.627 -27.73)" fill="#ed4887"/>
    <path id="Path_2929" data-name="Path 2929" d="M42.566,93.82a6.387,6.387,0,0,0-.181,2.119,11.813,11.813,0,0,0,.912,3.736,11.813,11.813,0,0,1-.912-3.736,6.387,6.387,0,0,1,.181-2.119" transform="translate(-12.257 -29.24)" fill="#ed4887"/>
    <path id="Path_2930" data-name="Path 2930" d="M79.8,55.988a8.013,8.013,0,0,0,.317-2.247,8.013,8.013,0,0,1-.317,2.247q-1.876,4.846-7.713,6.966a12.3,12.3,0,0,1-4.17.706,12.3,12.3,0,0,0,4.17-.706q5.837-2.12,7.713-6.966" transform="translate(-19.648 -16.749)" fill="#ed4887"/>
    <path id="Path_2931" data-name="Path 2931" d="M73.34,103.206,74.2,105Z" transform="translate(-21.218 -32.165)" fill="#ed4887"/>
    <path id="Path_2932" data-name="Path 2932" d="M76.725,28.185c.107.31.21.628.3.96Q79.32,35,81.824,41.462q-2.5-6.459-4.8-12.317c-.094-.332-.2-.65-.3-.96" transform="translate(-22.197 -8.784)" fill="#ed4887"/>
    <path id="Path_2933" data-name="Path 2933" d="M69.447,73.658a7.688,7.688,0,0,1,.056,1.764h0a7.649,7.649,0,0,0-.056-1.764" transform="translate(-20.092 -22.956)" fill="#ed4887"/>
    <path id="Path_2934" data-name="Path 2934" d="M79.059,10.132c-.03-.12-.062-.237-.1-.353a7.682,7.682,0,0,0-1.034-2.25,5.881,5.881,0,0,0-.6-.71Q75.024,4.5,70.008,4.5q-5.316,0-7.922,3.029a8.606,8.606,0,0,0-1.564,5.553V14.5h0a7.858,7.858,0,0,1,1.066.306l.014,0a7.268,7.268,0,0,1,.991.451h0a5.188,5.188,0,0,1,.052-.7,6.253,6.253,0,0,1,1.765-3.4,5.338,5.338,0,0,1,2.881-1.618,4.626,4.626,0,0,1,3.547.646c.122.079.161.165.095.295-.086.169-.161.343-.239.516a.419.419,0,0,0,.136.531.449.449,0,0,0,.526.011.667.667,0,0,0,.177-.306A3.331,3.331,0,0,0,70.7,7.65a.393.393,0,0,1-.067-.485.509.509,0,0,1,.512-.235l.21.093a.159.159,0,0,0,.022.034,4.13,4.13,0,0,1,1.291,2.764,1.023,1.023,0,0,0,.019.108c.038-.036.063-.056.085-.078a2.982,2.982,0,0,1,3.271-.525l1.565.69a.418.418,0,0,1,.185.712,2.979,2.979,0,0,1-3.366.734c-.549-.24-1.1-.483-1.644-.723l-.152-.067a1.217,1.217,0,0,1-.038.2c-.043.116.008.149.127.177a5.671,5.671,0,0,1,1.47.571,3.641,3.641,0,0,1,1.923,2.541,5.918,5.918,0,0,1-1.039,4.582,5.989,5.989,0,0,1-2.842,2.214,4.527,4.527,0,0,1-3.949-.134,3.413,3.413,0,0,1-1.878-2.64A5.026,5.026,0,0,1,66.652,16a5.8,5.8,0,0,1,.856-1.718,4.5,4.5,0,0,1,1.36-1.225.4.4,0,0,0,.147-.6.486.486,0,0,0-.642-.12,5.31,5.31,0,0,0-1.8,1.7,6.651,6.651,0,0,0-.887,2,6.181,6.181,0,0,0-.216,1.991,11.93,11.93,0,0,1,.9,1.7c.006.014.011.029.018.043.114.267.222.545.326.832.025.068.05.137.074.207.107.31.21.628.3.96q2.292,5.856,4.8,12.317a15.557,15.557,0,0,1,.54,1.811,10.95,10.95,0,0,1,.3,2.5,8.017,8.017,0,0,1-.317,2.247q-1.876,4.846-7.713,6.965a12.286,12.286,0,0,1-4.17.707v.606q.169.316.314.63a9.967,9.967,0,0,1,.526,1.412,8.616,8.616,0,0,1,.22.959c.011.061.021.123.031.183a7.729,7.729,0,0,1,.056,1.764h0c-.026.222-.06.443-.1.66q1.941-.773,3.884-1.545a.491.491,0,0,1,.3-.029c.8.253,1.6.518,2.441.792-.075.069-.1.094-.125.114q-2.844,2.119-5.683,4.241,3.131,1.663,6.164,3.474a.708.708,0,0,0,.868,0c.478-.319.986-.6,1.48-.9q2.378-1.427,4.757-2.849a.4.4,0,0,1,.291-.061c1.006.454,2.006.922,3.029,1.4-.06.063-.093.1-.128.132L75.4,62.653q-1.006.982-2.011,1.963a.357.357,0,0,0,.081.639c.141.083.286.158.429.239l1.134.643c-.25.2-.485.383-.714.573a.335.335,0,0,1-.363.062Q68.141,64.931,62.317,63.1a.51.51,0,0,0-.525.036c-.177.145-.144.315-.088.5.262.856.517,1.715.773,2.573.166.556.33,1.114.507,1.708-.133-.045-.227-.072-.316-.107-.808-.319-1.619-.633-2.421-.964a1.135,1.135,0,0,1-.424-.3Q58,64.405,56.193,62.264c-.185.131-.373.26-.568.387h0a12.8,12.8,0,0,1-4.978,1.918,10.114,10.114,0,0,1-3.489-.117,11.035,11.035,0,0,1-1.435-.388c-.108-.045-.208-.089-.313-.134-.367-.158-.719-.315-1.043-.472a4.411,4.411,0,0,0-1.59,1.918,4.858,4.858,0,0,0-.21.606,6.41,6.41,0,0,0-.181,2.12,11.837,11.837,0,0,0,.912,3.736,12.712,12.712,0,0,0,2.111,3.331,6.542,6.542,0,0,0,3.335,2.02,8.189,8.189,0,0,0,5.108-.505l10.527-4.24.856,1.8.4.829L55.1,79.41a.091.091,0,0,0-.1.1q-.561,1.1-1.048,2.1t-.9,1.9q-.207.451-.4.878a19.45,19.45,0,0,0-1.938,6.089,3.079,3.079,0,0,0,.009.339,7.108,7.108,0,0,0,1.735,3.336,11.894,11.894,0,0,0,1.772,1.621c.162.123.335.243.508.363a19.8,19.8,0,0,0,2.031,1.242c.595.271,1.168.49,1.733.686,2.793.967,5.207,1.017,7.231.122q4.378-1.817,9.695-17.365a92.042,92.042,0,0,0,3.961-27.359V13.082c0-.31-.011-.61-.028-.9a11.559,11.559,0,0,0-.3-2.046M68.825,84.4c-.1.018-.193.036-.289.051a2.6,2.6,0,0,0-2.146,1.708,5.914,5.914,0,0,0-.314,1.558,4.211,4.211,0,0,1-2.061,3.194,4.889,4.889,0,0,1-.747.4,4.511,4.511,0,0,1-.781.229c-.094.019-.191.022-.287.033a8.977,8.977,0,0,1-2.244-.1.326.326,0,0,1-.281-.191,3.836,3.836,0,0,1-.378-1.19,7.121,7.121,0,0,1-.076-2.819c.017-.059.037-.116.056-.174a3.2,3.2,0,0,1,1.514-2,4.55,4.55,0,0,1,1.369-.7c.146-.055.6-.18.92-.257a2.416,2.416,0,0,1,.334-.074,13.746,13.746,0,0,1,2.108-.241,15.376,15.376,0,0,1,3.529.494.24.24,0,0,1,.05.03l-.276.052" transform="translate(-12.257 -1.402)" fill="#ed4887"/>
    <path id="Path_2935" data-name="Path 2935" d="M25.742,140.448q-.3-.124-.584-.264.285.14.584.264" transform="translate(-7.278 -43.689)" fill="#ed4887"/>
    <path id="Path_2936" data-name="Path 2936" d="M23.165,138.9c-.186-.134-.362-.281-.536-.43.173.149.35.3.536.43" transform="translate(-6.547 -43.154)" fill="#ed4887"/>
    <path id="Path_2937" data-name="Path 2937" d="M20.673,136.069l-.025-.049.025.049" transform="translate(-5.974 -42.391)" fill="#ed4887"/>
    <path id="Path_2938" data-name="Path 2938" d="M21.982,137.822a8.423,8.423,0,0,1-.705-.733,8.423,8.423,0,0,0,.705.733" transform="translate(-6.156 -42.725)" fill="#ed4887"/>
    <line id="Line_7" data-name="Line 7" transform="translate(14.332 92.899)" fill="#ed4887"/>
    <path id="Path_2939" data-name="Path 2939" d="M30.874,141.774q-.595-.049-1.153-.137.558.089,1.153.137" transform="translate(-8.599 -44.142)" fill="#ed4887"/>
    <path id="Path_2940" data-name="Path 2940" d="M24.4,139.745c-.188-.1-.367-.216-.544-.332.177.116.357.228.544.332" transform="translate(-6.901 -43.449)" fill="#ed4887"/>
    <path id="Path_2941" data-name="Path 2941" d="M28.844,141.45c-.257-.049-.512-.1-.757-.161.244.062.5.112.757.161" transform="translate(-8.126 -44.033)" fill="#ed4887"/>
    <path id="Path_2942" data-name="Path 2942" d="M27.215,141.015c-.22-.065-.438-.133-.648-.209.21.076.428.145.648.209" transform="translate(-7.686 -43.883)" fill="#ed4887"/>
    <path id="Path_2943" data-name="Path 2943" d="M26.8,138.677a27.206,27.206,0,0,0-6.634-3.716c.1.253.219.495.342.728l.025.05a6.75,6.75,0,0,0,.42.684l0,0a8.327,8.327,0,0,0,.705.733c.082.076.171.143.257.215.173.149.35.295.536.43.108.078.222.149.334.222.177.116.357.228.544.332.124.07.254.134.383.2q.285.14.584.265c.137.056.275.112.416.164.21.076.428.144.648.209.144.042.285.086.433.123.244.062.5.113.756.161.135.025.266.056.4.078q.559.089,1.153.137c.03,0,.058.008.087.01q-.7-.507-1.4-1.026" transform="translate(-5.835 -42.061)" fill="#ed4887"/>
    <path id="Path_2944" data-name="Path 2944" d="M24.325,95.561a9.218,9.218,0,0,0-7.118-6.446,27.619,27.619,0,0,1,7.118,6.446" transform="translate(-4.978 -27.773)" fill="#ed4887"/>
    <path id="Path_2945" data-name="Path 2945" d="M48.26,113.619h0Z" transform="translate(-13.962 -35.41)" fill="#ed4887"/>
    <path id="Path_2946" data-name="Path 2946" d="M46.8,112.822c.1.063.208.126.313.184-.105-.059-.21-.12-.313-.184" transform="translate(-13.539 -35.162)" fill="#ed4887"/>
    <path id="Path_2947" data-name="Path 2947" d="M45.12,111.535a8.956,8.956,0,0,0,.873.674,9.384,9.384,0,0,1-.873-.674" transform="translate(-13.054 -34.76)" fill="#ed4887"/>
    <path id="Path_2948" data-name="Path 2948" d="M42.409,114.836c-.33.807-1.375,2.936-2.526,3.188-.127.136-.249.274-.385.407s-.311.237-.458.363a2.506,2.506,0,0,0-.953,1.95c.013,2.282.058,4.564.092,6.91.485-.41,1.089-.6,1.271-1.26A24.881,24.881,0,0,1,40.5,123.24a6.334,6.334,0,0,1,4.812-3.856V112.97h0a7.453,7.453,0,0,1-.724-.363c-.106-.059-.21-.121-.313-.184s-.215-.139-.321-.212a8.879,8.879,0,0,1-.873-.674h0a9.156,9.156,0,0,1-.676,3.3" transform="translate(-11.019 -34.76)" fill="#ed4887"/>
    <path id="Path_2949" data-name="Path 2949" d="M43.03,139.421c-.166.105-.336.208-.512.3.176-.1.345-.2.512-.3" transform="translate(-12.301 -43.451)" fill="#ed4887"/>
    <path id="Path_2950" data-name="Path 2950" d="M44.412,138.371c-.173.147-.354.285-.539.419q.278-.2.539-.419" transform="translate(-12.693 -43.124)" fill="#ed4887"/>
    <path id="Path_2951" data-name="Path 2951" d="M41.656,140.256c-.076.036-.154.069-.232.1.078-.034.156-.067.232-.1" transform="translate(-11.984 -43.712)" fill="#ed4887"/>
    <path id="Path_2952" data-name="Path 2952" d="M47.212,134.534c-.044.112-.092.221-.14.329.048-.109.1-.217.14-.329" transform="translate(-13.618 -41.928)" fill="#ed4887"/>
    <path id="Path_2953" data-name="Path 2953" d="M46.8,135.439c-.063.126-.13.247-.2.368.068-.12.136-.242.2-.368" transform="translate(-13.483 -42.21)" fill="#ed4887"/>
    <path id="Path_2954" data-name="Path 2954" d="M47.814,132.574c-.021.1-.044.192-.068.286.024-.094.047-.189.068-.286" transform="translate(-13.813 -41.317)" fill="#ed4887"/>
    <path id="Path_2955" data-name="Path 2955" d="M47.547,133.578c-.031.1-.065.206-.1.306.034-.1.068-.2.1-.306" transform="translate(-13.727 -41.63)" fill="#ed4887"/>
    <path id="Path_2956" data-name="Path 2956" d="M48.153,130.481c-.006.064-.011.13-.018.193.007-.063.011-.129.018-.193" transform="translate(-13.926 -40.665)" fill="#ed4887"/>
    <path id="Path_2957" data-name="Path 2957" d="M46.284,136.29c-.115.188-.237.37-.367.544.13-.174.252-.356.367-.544" transform="translate(-13.284 -42.476)" fill="#ed4887"/>
    <path id="Path_2958" data-name="Path 2958" d="M48.016,131.532c-.014.085-.026.171-.041.255.015-.084.027-.169.041-.255" transform="translate(-13.88 -40.993)" fill="#ed4887"/>
    <path id="Path_2959" data-name="Path 2959" d="M45.637,137.087a8.507,8.507,0,0,1-.677.679,8.39,8.39,0,0,0,.677-.679" transform="translate(-13.007 -42.724)" fill="#ed4887"/>
    <path id="Path_2960" data-name="Path 2960" d="M42.334,131.35c-.529.373-1.018.792-1.531,1.185-.775.594-1.551,1.189-2.336,1.772a.478.478,0,0,0-.237.436c.018.995.031,1.989.045,2.984a11.633,11.633,0,0,0,2.224-.7c.078-.034.156-.067.232-.1.187-.085.37-.176.547-.271s.344-.2.511-.3.3-.2.452-.3c.184-.134.365-.272.539-.419.079-.067.157-.135.233-.2a8.63,8.63,0,0,0,.677-.68h0l0,0c.13-.173.252-.356.367-.544.043-.07.082-.145.122-.218.068-.12.137-.242.2-.368.048-.095.09-.195.134-.293s.1-.217.141-.329.085-.233.126-.352c.035-.1.068-.2.1-.307.041-.133.078-.268.113-.405.024-.094.047-.189.068-.286.034-.151.068-.3.095-.462.015-.084.028-.17.042-.255.026-.174.052-.35.072-.53.008-.063.012-.129.018-.193.02-.205.038-.412.049-.625a21.508,21.508,0,0,0-3,1.777" transform="translate(-11.061 -40.382)" fill="#ed4887"/>
    <path id="Path_2961" data-name="Path 2961" d="M7.371,49.661c-.041-.078-.076-.16-.114-.24.038.08.074.162.114.24" transform="translate(-2.1 -15.402)" fill="#ed4887"/>
    <path id="Path_2962" data-name="Path 2962" d="M5.9,44.3v0Z" transform="translate(-1.706 -13.807)" fill="#ed4887"/>
    <path id="Path_2963" data-name="Path 2963" d="M8.06,50.862c-.082-.118-.161-.242-.237-.366q.114.187.237.366" transform="translate(-2.263 -15.737)" fill="#ed4887"/>
    <path id="Path_2964" data-name="Path 2964" d="M8.92,52.007c-.128-.138-.252-.279-.37-.427.117.148.243.288.37.427" transform="translate(-2.474 -16.075)" fill="#ed4887"/>
    <path id="Path_2965" data-name="Path 2965" d="M10.13,53.2a7.377,7.377,0,0,1-.713-.621,7.284,7.284,0,0,0,.713.621" transform="translate(-2.724 -16.388)" fill="#ed4887"/>
    <path id="Path_2966" data-name="Path 2966" d="M8.576,50.157a4.83,4.83,0,0,1,.328-.848,6.171,6.171,0,0,1,.974-1.485,6.416,6.416,0,0,1,1.2-1.07,6.729,6.729,0,0,1-3.528-.973A5.611,5.611,0,0,1,5.9,44.3v0a11.077,11.077,0,0,0,.967,3.522c.038.08.074.162.114.24.09.173.188.337.288.5.077.124.155.247.237.366s.183.257.28.381c.117.148.242.289.37.427.082.089.161.18.246.265a7.456,7.456,0,0,0,.713.62h0c-.19-.145-.361-.307-.535-.467" transform="translate(-1.706 -13.807)" fill="#ed4887"/>
    <path id="Path_2967" data-name="Path 2967" d="M9.613,29.041q2.084-1.515,6.15-1.514-4.066,0-6.15,1.514a6.561,6.561,0,0,0-1.984,2.177,6.561,6.561,0,0,1,1.984-2.177" transform="translate(-2.207 -8.579)" fill="#ed4887"/>
    <path id="Path_2968" data-name="Path 2968" d="M37.968,7.331A11.594,11.594,0,0,0,30.45,5.086q-5.2,0-8.084,2.551Q25.25,5.086,30.45,5.086a11.594,11.594,0,0,1,7.518,2.245" transform="translate(-6.471 -1.585)" fill="#ed4887"/>
    <path id="Path_2969" data-name="Path 2969" d="M7.079,32.89a12.238,12.238,0,0,0-1.352,5.9c0,.021,0,.039,0,.059v-.012c0-.017,0-.031,0-.047a12.238,12.238,0,0,1,1.352-5.9" transform="translate(-1.657 -10.25)" fill="#ed4887"/>
    <path id="Path_2970" data-name="Path 2970" d="M19.073,17.9h0a16.006,16.006,0,0,1,.1-1.817,16.006,16.006,0,0,0-.1,1.817" transform="translate(-5.518 -5.014)" fill="#ed4887"/>
    <path id="Path_2971" data-name="Path 2971" d="M19.211,15.024a10.992,10.992,0,0,1,.513-2.347,11,11,0,0,0-.513,2.347" transform="translate(-5.558 -3.951)" fill="#ed4887"/>
    <path id="Path_2972" data-name="Path 2972" d="M19.933,11.82a7.589,7.589,0,0,1,.952-1.894,7.589,7.589,0,0,0-.952,1.894" transform="translate(-5.767 -3.093)" fill="#ed4887"/>
    <path id="Path_2973" data-name="Path 2973" d="M45.914,9.926a7.8,7.8,0,0,1,.729,1.25,7.8,7.8,0,0,0-.729-1.25" transform="translate(-13.283 -3.093)" fill="#ed4887"/>
    <path id="Path_2974" data-name="Path 2974" d="M9.882,29.569c.215.039.431.086.648.147a6.505,6.505,0,0,1,1.621.7,6.185,6.185,0,0,1-.166-1.431c0-.22.014-.434.035-.644A6.972,6.972,0,0,1,14.4,24.025,6.393,6.393,0,0,1,16.64,27.24a6.018,6.018,0,0,1,.252,1.743,6.233,6.233,0,0,1-.12,1.225,6.721,6.721,0,0,1,1.252-.491c.217-.061.434-.109.648-.147a6.29,6.29,0,0,1,3.224.238,6.323,6.323,0,0,1,.613-2.108,7.506,7.506,0,0,1,1.18-1.8,7.807,7.807,0,0,1,1.456-1.3A7.976,7.976,0,0,1,22.88,24.3a7.8,7.8,0,0,1-5.112-4.485,8.993,8.993,0,0,1,5.986-1.221c.259.047.521.1.785.178a7.923,7.923,0,0,1,1.964.846,7.474,7.474,0,0,1-.2-1.734,7.77,7.77,0,0,1,.043-.78c.2-3.02,2.881-5.227,2.881-5.227a7.752,7.752,0,0,1,2.716,3.9,7.3,7.3,0,0,1,.3,2.11,7.6,7.6,0,0,1-.145,1.483,8.175,8.175,0,0,1,1.517-.6c.264-.074.526-.131.785-.178a6.423,6.423,0,0,1,1.553-.133V14.475a11.276,11.276,0,0,0-.939-4.807,7.854,7.854,0,0,0-.728-1.25,8.331,8.331,0,0,0-1.134-1.087,11.593,11.593,0,0,0-7.518-2.245q-5.2,0-8.083,2.551a8.713,8.713,0,0,0-.777.781,7.565,7.565,0,0,0-.952,1.894,10.948,10.948,0,0,0-.513,2.347,16.007,16.007,0,0,0-.1,1.817v6.057q-4.065,0-6.15,1.514a6.576,6.576,0,0,0-1.984,2.177,12.23,12.23,0,0,0-1.351,5.9c0,.017,0,.031,0,.047v0a6.859,6.859,0,0,1,4.154-.6" transform="translate(-1.657 -1.585)" fill="#ed4887"/>
    <path id="Path_2975" data-name="Path 2975" d="M34.562,30.393a1.163,1.163,0,0,0,1.264-.09.426.426,0,0,1,.256-.112c.239.028.473.092.739.148-.13.187-.245.332-.337.489a.622.622,0,0,1-.642.366.877.877,0,0,0-.823.626.893.893,0,0,0,.33.993,1.121,1.121,0,0,0,1.264,0,.935.935,0,0,0,.289-1.11.393.393,0,0,1-.035-.3c.134-.231.308-.444.5-.706.132.185.226.343.347.48a.483.483,0,0,1,.092.582.854.854,0,0,0,.6,1.142,1.02,1.02,0,0,0,1.079-.222.836.836,0,0,0,.191-1,.978.978,0,0,0-.925-.558c-.107,0-.26,0-.31-.056-.187-.218-.34-.461-.527-.723.373-.08.64-.206.99.062a.986.986,0,0,0,1.534-.507.9.9,0,0,0-.736-1.127,1.036,1.036,0,0,0-1.208.65.411.411,0,0,1-.224.212,3.839,3.839,0,0,1-.549.109c-.026-.343-.089-.624.323-.857a.84.84,0,0,0,.076-1.327,1.081,1.081,0,0,0-1.465.008.877.877,0,0,0,.093,1.34.59.59,0,0,1,.221.831c-.227-.047-.461-.082-.684-.149a.325.325,0,0,1-.176-.19,1.019,1.019,0,0,0-.973-.7,1.032,1.032,0,0,0-.959.643.907.907,0,0,0,.392,1.052" transform="translate(-9.873 -8.501)" fill="#ed4887"/>
    <path id="Path_2976" data-name="Path 2976" d="M16.132,47.349a.772.772,0,0,0,.239-.916.322.322,0,0,1-.03-.248c.112-.191.255-.367.411-.583a4.715,4.715,0,0,0,.286.4.4.4,0,0,1,.077.481.7.7,0,0,0,.491.942.842.842,0,0,0,.89-.184.69.69,0,0,0,.158-.827.806.806,0,0,0-.763-.46c-.088,0-.215,0-.256-.047-.154-.18-.281-.381-.435-.6.308-.065.528-.17.817.051a.814.814,0,0,0,1.266-.419.741.741,0,0,0-.608-.931.856.856,0,0,0-1,.538.338.338,0,0,1-.185.175,3.184,3.184,0,0,1-.453.09c-.022-.284-.073-.515.267-.708a.694.694,0,0,0,.063-1.1.892.892,0,0,0-1.209.007.724.724,0,0,0,.077,1.105.487.487,0,0,1,.182.686c-.187-.039-.38-.068-.564-.123a.269.269,0,0,1-.145-.158.843.843,0,0,0-.8-.578.854.854,0,0,0-.792.531.751.751,0,0,0,.324.869.96.96,0,0,0,1.043-.074.348.348,0,0,1,.212-.093c.2.023.389.076.61.122-.107.155-.2.275-.278.4a.513.513,0,0,1-.529.3.725.725,0,0,0-.679.517.737.737,0,0,0,.272.82.925.925,0,0,0,1.044,0" transform="translate(-4.073 -13.331)" fill="#ed4887"/>
    <path id="Path_2977" data-name="Path 2977" d="M54.77,28.921l.111.059-.111-.059" transform="translate(-15.846 -9.013)" fill="#ed4887"/>
    <path id="Path_2978" data-name="Path 2978" d="M6.831,79.078a63.916,63.916,0,0,0,4.853-8.912,63.916,63.916,0,0,1-4.853,8.912A9.714,9.714,0,0,0,4.517,85.52a9.714,9.714,0,0,1,2.314-6.442" transform="translate(-1.302 -21.868)" fill="#ed4887"/>
    <path id="Path_2979" data-name="Path 2979" d="M17.883,55.833h0v2.625q-1.3,3.313-2.566,6.132,1.262-2.82,2.566-6.132Z" transform="translate(-4.431 -17.401)" fill="#ed4887"/>
    <path id="Path_2980" data-name="Path 2980" d="M38.276,82.515q.612.832,1.3,1.71-.684-.878-1.3-1.71" transform="translate(-11.074 -25.716)" fill="#ed4887"/>
    <path id="Path_2981" data-name="Path 2981" d="M60.3,39.307a12.6,12.6,0,0,0-1.05-5.4,12.6,12.6,0,0,1,1.05,5.4" transform="translate(-17.141 -10.567)" fill="#ed4887"/>
    <path id="Path_2982" data-name="Path 2982" d="M36.18,79.438q.473.707,1.006,1.451-.533-.744-1.006-1.451" transform="translate(-10.467 -24.757)" fill="#ed4887"/>
    <path id="Path_2983" data-name="Path 2983" d="M31.13,68.6c.053.271.117.549.2.838-.084-.289-.147-.567-.2-.838" transform="translate(-9.006 -21.378)" fill="#ed4887"/>
    <path id="Path_2984" data-name="Path 2984" d="M40.862,105.553c.154.309.314.6.477.887q-.244-.43-.477-.887" transform="translate(-11.822 -32.896)" fill="#ed4887"/>
    <path id="Path_2985" data-name="Path 2985" d="M4.86,94.15a6.783,6.783,0,0,1-.322-1.55,6.783,6.783,0,0,0,.322,1.55" transform="translate(-1.313 -28.859)" fill="#ed4887"/>
    <path id="Path_2986" data-name="Path 2986" d="M16.987,55.741l-.22-.019.22.019" transform="translate(-4.851 -17.366)" fill="#ed4887"/>
    <line id="Line_8" data-name="Line 8" transform="translate(10.696 38.183)" fill="#ed4887"/>
    <path id="Path_2987" data-name="Path 2987" d="M38.36,95.836a13.649,13.649,0,0,0,.436,2.976,13.649,13.649,0,0,1-.436-2.976" transform="translate(-11.098 -29.868)" fill="#ed4887"/>
    <path id="Path_2988" data-name="Path 2988" d="M19.141,130.156c0-.039-.007-.076-.01-.114,0,.039.007.076.01.114" transform="translate(-5.535 -40.528)" fill="#ed4887"/>
    <path id="Path_2989" data-name="Path 2989" d="M57.852,31.746a7.443,7.443,0,0,0-1.819-2.02h0a7.43,7.43,0,0,1,1.819,2.019" transform="translate(-16.211 -9.264)" fill="#ed4887"/>
    <path id="Path_2990" data-name="Path 2990" d="M16.762,99.025a8.218,8.218,0,0,1,7.916,2.658,6.714,6.714,0,0,1,1.763,4.793v.008c.361-.025.705-.07,1.047-.116q-.064-4.439-.124-8.877a.574.574,0,0,0-.226-.483,4.748,4.748,0,0,0-1-.843,5.306,5.306,0,0,0-1.329-.142c-.188-.024-.373-.054-.556-.085a11.929,11.929,0,0,1-2.653-.532,6.869,6.869,0,0,1-3.595-2.551A8.758,8.758,0,0,1,16.967,90.3q-.574-2.056-.961-4.15a19.947,19.947,0,0,1,7.906,3.338,6.671,6.671,0,0,1,2.359,2.566,6.591,6.591,0,0,1,.429,2.4c0,.017.008.034.011.052a1.394,1.394,0,0,1,.055.384.9.9,0,0,0,.569.927c0-.193,0-.361-.009-.528a3.41,3.41,0,0,1,.525-2.217,6.338,6.338,0,0,1,.771-.887.543.543,0,0,0,.2-.433c0-.138-.006-.276-.008-.414a5.061,5.061,0,0,1-.226-3.342c.369-1.963,1.46-3.741,2.23-5.6h0c-.163-.286-.323-.578-.478-.887s-.323-.658-.475-1.01a21.533,21.533,0,0,1-.867-2.7,13.649,13.649,0,0,1-.436-2.976,7.607,7.607,0,0,1,1.094-4.316,4.257,4.257,0,0,1,1.355-1.616c-.424-.521-.825-1.028-1.214-1.527q-.684-.878-1.3-1.71c-.166-.225-.326-.447-.484-.667q-.533-.744-1.006-1.452c-.551-.825-1.05-1.616-1.48-2.364a24.566,24.566,0,0,1-1.346-2.682,14.465,14.465,0,0,1-.563-1.579c-.084-.29-.147-.567-.2-.838a7.3,7.3,0,0,1-.144-1.217,5.375,5.375,0,0,1,.019-.6q.006-.3.036-.6a7.869,7.869,0,0,1,.208-1.183q.973-3.8,5.8-7a15.011,15.011,0,0,1,2.5-1.224,11.362,11.362,0,0,1,3.718-.748,10.831,10.831,0,0,1,3.689.558,8.635,8.635,0,0,1,2.19,1.313q2.813-2.727,3.023-7.773a12.588,12.588,0,0,0-1.051-5.4,8.27,8.27,0,0,0-.465-.858A7.453,7.453,0,0,0,41.125,29.3h0a5.58,5.58,0,0,0-.787-.5l-.111-.059a6.9,6.9,0,0,0-.919-.385,7.091,7.091,0,0,1-2.379,2.318,7.9,7.9,0,0,1-2.008.872,8.1,8.1,0,0,1-1.984.306,7.793,7.793,0,0,1,1.457,1.3,7.448,7.448,0,0,1,1.718,6.47,8.948,8.948,0,0,1-5.69-2.172,7.8,7.8,0,0,1-.554-.568,7.686,7.686,0,0,1-1-1.439,7.648,7.648,0,0,1-1,1.439c-.178.2-.365.39-.554.568A8.557,8.557,0,0,1,22.137,39.6,5.488,5.488,0,0,1,20.7,40.814a6.525,6.525,0,0,1-1.657.72,6.7,6.7,0,0,1-1.638.252,6.447,6.447,0,0,1,1.2,1.071A6.147,6.147,0,0,1,20.021,48.2a7.391,7.391,0,0,1-4.7-1.794c-.156-.147-.311-.3-.457-.469a6.31,6.31,0,0,1-.827-1.195,6.339,6.339,0,0,1-.827,1.195c-.147.167-.3.322-.458.469a5.042,5.042,0,0,1-.756.618c.387.076.8.131,1.22.173l.219.019c.422.034.857.057,1.315.057V49.9q-1.3,3.312-2.566,6.132-.253.564-.5,1.108A64,64,0,0,1,6.832,66.05a9.711,9.711,0,0,0-2.314,6.442c0,.03.006.059.009.088a6.776,6.776,0,0,0,.322,1.55,7.913,7.913,0,0,0,.94,1.914,17,17,0,0,0,8.86,6.057l.208.1V97.245c0,.383.015.75.041,1.108,0,.039.006.076.009.114.028.344.065.68.115,1a13,13,0,0,1,1.739-.446M13.206,73.843a7.56,7.56,0,0,0-.541-1.955,3.206,3.206,0,0,0-2.871-1.922c-.124-.007-.247-.019-.37-.03L9.069,69.9a.339.339,0,0,1,.06-.045,19.528,19.528,0,0,1,4.419-1.066,17.075,17.075,0,0,1,2.688.048,3.247,3.247,0,0,1,.43.054c.41.059,1,.162,1.187.215a5.572,5.572,0,0,1,1.8.723,3.958,3.958,0,0,1,2.1,2.375c.03.072.06.141.087.215A9.232,9.232,0,0,1,22,76.041a5.063,5.063,0,0,1-.369,1.57.428.428,0,0,1-.338.278,11.325,11.325,0,0,1-2.829.408c-.122,0-.245.006-.367-.008a5.51,5.51,0,0,1-1.008-.2,5.819,5.819,0,0,1-.981-.414,5.236,5.236,0,0,1-2.9-3.834" transform="translate(-1.302 -8.839)" fill="#ed4887"/>
    <path id="Path_2991" data-name="Path 2991" d="M53.438,28.346l.028.01v0l-.029-.008" transform="translate(-15.46 -8.834)" fill="#ed4887"/>
  </g>
</svg>
