<svg id="pay" xmlns="http://www.w3.org/2000/svg" width="170.783" height="170.783" viewBox="0 0 170.783 170.783">
  <path id="Path_9225" data-name="Path 9225" d="M2,2H23.348V23.348H2Z" transform="translate(19.348 19.348)"/>
  <path id="Path_9226" data-name="Path 9226" d="M64.044,0V64.044H0V0ZM53.37,10.674h-42.7v42.7h42.7ZM42.7,128.087H21.348v21.348H42.7Z"/>
  <path id="Path_9227" data-name="Path 9227" d="M64.044,87.392v64.044H0V87.392ZM10.674,98.066v42.7h42.7v-42.7ZM128.087,2h21.348V23.348H128.087Z" transform="translate(0 19.348)"/>
  <path id="Path_9228" data-name="Path 9228" d="M106.74,0V64.044h64.044V0Zm53.37,10.674v42.7h-42.7v-42.7Zm-74.718,0V0H96.066V21.348H85.392V42.7H74.718V10.674Zm0,53.37V42.7H96.066V64.044ZM64.044,85.392V74.718H74.718V64.044H85.392V85.392H96.066V74.718h53.37V85.392h-42.7V96.066H74.718V85.392Zm0,0V96.066h-42.7V85.392H10.674V96.066H0V74.718H32.022V85.392Zm106.74,10.674H160.109V74.718h10.674Zm-10.674,0H149.435v21.348h21.348V106.74H160.109Zm-42.7,0h21.348V106.74H128.087v10.674H117.413Zm21.348,32.022V117.413H128.087v10.674H117.413v10.674H96.066v10.674h32.022V128.087Zm0,0h32.022v10.674H149.435v10.674H138.761Zm-42.7-10.674v10.674H106.74V106.74H74.718v10.674Z"/>
  <path id="Path_9229" data-name="Path 9229" d="M7,12H17.674V44.022h42.7V54.7H7Zm96.066,21.348V54.7H71.044V44.022H92.392V33.348Z" transform="translate(67.718 116.087)"/>
</svg>
