<svg xmlns="http://www.w3.org/2000/svg" xmlns:xlink="http://www.w3.org/1999/xlink" width="268" height="189" viewBox="0 0 268 189">
  <defs>
    <clipPath id="clip-path">
      <rect id="Rectangle_1225" data-name="Rectangle 1225" width="268" height="189" transform="translate(-1720 5531)" fill="#fff" stroke="#707070" stroke-width="1"/>
    </clipPath>
    <linearGradient id="linear-gradient" x1="0.5" y1="0.12" x2="0.5" y2="0.5" gradientUnits="objectBoundingBox">
      <stop offset="0" stop-color="#fff"/>
      <stop offset="0.33" stop-color="#fff" stop-opacity="0.91"/>
      <stop offset="1" stop-color="#fff" stop-opacity="0"/>
    </linearGradient>
    <clipPath id="clip-path-2">
      <rect id="Rectangle_514" data-name="Rectangle 514" width="1935.942" height="25.673" fill="#fff"/>
    </clipPath>
    <clipPath id="clip-path-3">
      <rect id="Rectangle_515" data-name="Rectangle 515" width="1931.971" height="30" fill="#ffa200"/>
    </clipPath>
  </defs>
  <g id="ranking-top" transform="translate(1720 -5531)" clip-path="url(#clip-path)">
    <g id="ㄔㄣ" transform="translate(0 -121)">
      <path id="p0038_l" d="M0,0H1920V258.375H0Z" transform="translate(-1928 5675.603)" fill="url(#linear-gradient)"/>
      <g id="Group_1739" data-name="Group 1739" transform="translate(-1925 1378.82)">
        <g id="Group_726" data-name="Group 726" transform="translate(1924.971 4298.372) rotate(180)">
          <g id="Group_725" data-name="Group 725" clip-path="url(#clip-path-2)">
            <path id="Path_8779" data-name="Path 8779" d="M0,0C34.569,0,34.569,25.673,69.139,25.673S103.708,0,138.277,0s34.569,25.673,69.138,25.673S241.984,0,276.552,0s34.571,25.673,69.142,25.673S380.262,0,414.831,0s34.569,25.673,69.14,25.673S518.541,0,553.109,0s34.571,25.673,69.139,25.673S656.819,0,691.389,0s34.567,25.673,69.132,25.673S795.089,0,829.657,0,864.227,25.673,898.8,25.673,933.367,0,967.935,0s34.569,25.673,69.139,25.673S1071.642,0,1106.211,0s34.568,25.673,69.138,25.673S1209.918,0,1244.488,0s34.572,25.673,69.143,25.673S1348.2,0,1382.776,0s34.571,25.673,69.143,25.673S1486.491,0,1521.064,0s34.571,25.673,69.142,25.673S1624.776,0,1659.347,0s34.572,25.673,69.145,25.673S1763.064,0,1797.635,0s34.577,25.673,69.153,25.673S1901.365,0,1935.942,0" fill="#fff"/>
          </g>
        </g>
        <g id="Group_729" data-name="Group 729" transform="translate(-7 4292.868)">
          <g id="Group_728" data-name="Group 728" clip-path="url(#clip-path-3)">
            <path id="Path_8780" data-name="Path 8780" d="M1931.31,30l-.079,0a47.107,47.107,0,0,1-21.252-4.553c-8.365-4.09-14.056-10.063-20.812-14.886a45.116,45.116,0,0,0-11.3-6.085A45.705,45.705,0,0,0,1862.3,2a43.4,43.4,0,0,0-19.666,4.2c-7.795,3.783-13.421,9.625-20.4,14.643a48.05,48.05,0,0,1-12.04,6.467A49.535,49.535,0,0,1,1793.359,30h-.046a47.126,47.126,0,0,1-21.253-4.553c-8.363-4.09-14.055-10.063-20.808-14.886a45.124,45.124,0,0,0-11.294-6.085A45.7,45.7,0,0,0,1724.389,2a43.378,43.378,0,0,0-19.663,4.2c-7.794,3.783-13.42,9.625-20.4,14.643a48.012,48.012,0,0,1-12.038,6.467A49.519,49.519,0,0,1,1655.456,30h-.047a47.121,47.121,0,0,1-21.252-4.553c-8.363-4.09-14.055-10.063-20.807-14.886a45.126,45.126,0,0,0-11.294-6.085A45.7,45.7,0,0,0,1586.486,2a43.364,43.364,0,0,0-19.661,4.2c-7.794,3.783-13.419,9.625-20.4,14.643a48.021,48.021,0,0,1-12.039,6.467A49.5,49.5,0,0,1,1517.558,30h-.047a47.127,47.127,0,0,1-21.253-4.553c-8.363-4.09-14.055-10.063-20.809-14.886a45.1,45.1,0,0,0-11.294-6.085A45.7,45.7,0,0,0,1448.584,2a43.366,43.366,0,0,0-19.662,4.2c-7.794,3.783-13.419,9.625-20.4,14.643a48.04,48.04,0,0,1-12.038,6.467A49.517,49.517,0,0,1,1379.655,30h-.046a47.123,47.123,0,0,1-21.253-4.553c-8.363-4.09-14.055-10.063-20.809-14.886a45.1,45.1,0,0,0-11.294-6.085A45.7,45.7,0,0,0,1310.683,2a43.365,43.365,0,0,0-19.661,4.2c-7.794,3.783-13.42,9.625-20.4,14.643a48.014,48.014,0,0,1-12.038,6.467A49.519,49.519,0,0,1,1241.752,30h-.046a47.122,47.122,0,0,1-21.252-4.553c-8.363-4.09-14.053-10.063-20.807-14.886a45.1,45.1,0,0,0-11.293-6.085A45.7,45.7,0,0,0,1172.786,2a43.371,43.371,0,0,0-19.661,4.2c-7.792,3.783-13.417,9.625-20.4,14.643a48.029,48.029,0,0,1-12.037,6.467A49.516,49.516,0,0,1,1103.859,30h-.046a47.11,47.11,0,0,1-21.25-4.553c-8.363-4.09-14.053-10.063-20.806-14.886a45.117,45.117,0,0,0-11.293-6.085A45.7,45.7,0,0,0,1034.9,2a43.366,43.366,0,0,0-19.661,4.2c-7.794,3.783-13.419,9.625-20.4,14.643A48.005,48.005,0,0,1,982.8,27.308,49.515,49.515,0,0,1,965.969,30h-.047a47.115,47.115,0,0,1-21.251-4.553c-8.362-4.09-14.053-10.063-20.806-14.886a45.1,45.1,0,0,0-11.293-6.085A45.681,45.681,0,0,0,897.005,2a43.377,43.377,0,0,0-19.663,4.2c-7.792,3.783-13.419,9.625-20.4,14.643a48.015,48.015,0,0,1-12.038,6.467A49.5,49.5,0,0,1,828.076,30h-.046a47.12,47.12,0,0,1-21.252-4.553c-8.362-4.09-14.052-10.063-20.8-14.886a45.121,45.121,0,0,0-11.293-6.085A45.7,45.7,0,0,0,759.113,2a43.371,43.371,0,0,0-19.659,4.2c-7.792,3.784-13.417,9.626-20.4,14.644a48.005,48.005,0,0,1-12.037,6.467A49.5,49.5,0,0,1,690.193,30h-.045A47.121,47.121,0,0,1,668.9,25.447c-8.363-4.09-14.055-10.063-20.807-14.886A45.121,45.121,0,0,0,636.8,4.476,45.705,45.705,0,0,0,621.225,2a43.36,43.36,0,0,0-19.66,4.2c-7.794,3.783-13.419,9.625-20.4,14.643a47.989,47.989,0,0,1-12.038,6.467A49.5,49.5,0,0,1,552.3,30h-.045A47.121,47.121,0,0,1,531,25.447c-8.362-4.09-14.053-10.063-20.806-14.886A45.146,45.146,0,0,0,498.9,4.476,45.7,45.7,0,0,0,483.332,2a43.36,43.36,0,0,0-19.66,4.2c-7.794,3.783-13.42,9.625-20.4,14.643a48.039,48.039,0,0,1-12.038,6.467A49.492,49.492,0,0,1,414.421,30h-.061a47.112,47.112,0,0,1-21.252-4.553c-8.363-4.09-14.053-10.063-20.808-14.886a45.1,45.1,0,0,0-11.293-6.085A45.69,45.69,0,0,0,345.44,2a43.366,43.366,0,0,0-19.661,4.2c-7.792,3.783-13.419,9.625-20.4,14.643a48.029,48.029,0,0,1-12.037,6.467A49.507,49.507,0,0,1,276.527,30h-.061a47.121,47.121,0,0,1-21.252-4.553c-8.363-4.09-14.053-10.063-20.806-14.886a45.1,45.1,0,0,0-11.293-6.085A45.7,45.7,0,0,0,207.547,2a43.359,43.359,0,0,0-19.66,4.2c-7.794,3.783-13.419,9.625-20.4,14.643a48,48,0,0,1-12.037,6.467A49.493,49.493,0,0,1,138.637,30h-.061a47.121,47.121,0,0,1-21.252-4.553c-8.362-4.09-14.053-10.063-20.806-14.886A45.12,45.12,0,0,0,85.225,4.476,45.7,45.7,0,0,0,69.657,2,43.366,43.366,0,0,0,50,6.2C42.2,9.981,36.576,15.823,29.6,20.841A48.039,48.039,0,0,1,17.56,27.308,49.493,49.493,0,0,1,.746,30h0a.95.95,0,0,1-.278-.03L0,29.851V28.5H.71V28A43.353,43.353,0,0,0,20.37,23.8c7.794-3.783,13.419-9.625,20.4-14.643A48,48,0,0,1,52.805,2.692,49.441,49.441,0,0,1,69.513,0l.013,0H69.7A47.153,47.153,0,0,1,90.933,4.553c8.363,4.09,14.053,10.063,20.807,14.886a45.1,45.1,0,0,0,11.293,6.085A45.661,45.661,0,0,0,138.6,28a43.347,43.347,0,0,0,19.66-4.2c7.792-3.783,13.419-9.625,20.4-14.643A48.029,48.029,0,0,1,190.7,2.692,49.441,49.441,0,0,1,207.4,0l.013,0h.173a47.153,47.153,0,0,1,21.234,4.552c8.363,4.09,14.053,10.063,20.807,14.886a45.111,45.111,0,0,0,11.291,6.085A45.676,45.676,0,0,0,276.492,28a43.358,43.358,0,0,0,19.661-4.2c7.792-3.783,13.419-9.625,20.4-14.643a48.029,48.029,0,0,1,12.037-6.467A49.45,49.45,0,0,1,345.3,0l.013,0h.172a47.144,47.144,0,0,1,21.234,4.552c8.363,4.09,14.055,10.063,20.807,14.886a45.1,45.1,0,0,0,11.293,6.085A45.676,45.676,0,0,0,414.386,28a43.351,43.351,0,0,0,19.66-4.2c7.794-3.783,13.419-9.625,20.4-14.643a48.014,48.014,0,0,1,12.038-6.467A49.435,49.435,0,0,1,483.19,0l.013,0h.172A47.155,47.155,0,0,1,504.61,4.553c8.363,4.09,14.053,10.063,20.806,14.886a45.129,45.129,0,0,0,11.294,6.085A45.673,45.673,0,0,0,552.279,28a43.347,43.347,0,0,0,19.66-4.2c7.794-3.783,13.419-9.625,20.4-14.643a48.015,48.015,0,0,1,12.038-6.467A49.435,49.435,0,0,1,621.083,0l.013,0h.172A47.159,47.159,0,0,1,642.5,4.553c8.363,4.09,14.053,10.063,20.808,14.886A45.094,45.094,0,0,0,674.6,25.524,45.675,45.675,0,0,0,690.173,28a43.359,43.359,0,0,0,19.659-4.2c7.792-3.784,13.417-9.626,20.4-14.644a48,48,0,0,1,12.037-6.467A49.517,49.517,0,0,1,759.113,0h.043a47.153,47.153,0,0,1,21.234,4.552c8.362,4.09,14.053,10.063,20.806,14.886a45.112,45.112,0,0,0,11.291,6.085A45.676,45.676,0,0,0,828.056,28a43.362,43.362,0,0,0,19.661-4.2c7.792-3.783,13.419-9.625,20.4-14.643a48.015,48.015,0,0,1,12.038-6.467A49.528,49.528,0,0,1,897.005,0h.043a47.152,47.152,0,0,1,21.233,4.552c8.362,4.09,14.053,10.063,20.806,14.886a45.112,45.112,0,0,0,11.291,6.085A45.672,45.672,0,0,0,965.948,28a43.354,43.354,0,0,0,19.661-4.2c7.792-3.783,13.419-9.625,20.4-14.643a48.042,48.042,0,0,1,12.038-6.467A49.541,49.541,0,0,1,1034.9,0h.042a47.154,47.154,0,0,1,21.234,4.552c8.363,4.09,14.053,10.063,20.806,14.886a45.094,45.094,0,0,0,11.293,6.085A45.673,45.673,0,0,0,1103.839,28a43.358,43.358,0,0,0,19.662-4.2c7.792-3.783,13.417-9.625,20.4-14.643a48.027,48.027,0,0,1,12.037-6.467A49.535,49.535,0,0,1,1172.786,0h.042a47.153,47.153,0,0,1,21.234,4.552c8.363,4.09,14.055,10.063,20.807,14.886a45.123,45.123,0,0,0,11.293,6.085A45.682,45.682,0,0,0,1241.732,28a43.353,43.353,0,0,0,19.661-4.2c7.793-3.783,13.42-9.625,20.4-14.643a48.014,48.014,0,0,1,12.038-6.467A49.534,49.534,0,0,1,1310.683,0h.042a47.166,47.166,0,0,1,21.236,4.552c8.363,4.09,14.055,10.063,20.809,14.886a45.077,45.077,0,0,0,11.294,6.085A45.677,45.677,0,0,0,1379.635,28a43.354,43.354,0,0,0,19.662-4.2c7.794-3.783,13.419-9.625,20.4-14.643a48.044,48.044,0,0,1,12.038-6.467A49.542,49.542,0,0,1,1448.584,0h.042a47.16,47.16,0,0,1,21.236,4.552c8.363,4.09,14.055,10.063,20.809,14.886a45.1,45.1,0,0,0,11.294,6.085A45.677,45.677,0,0,0,1517.538,28a43.351,43.351,0,0,0,19.66-4.2c7.794-3.783,13.419-9.625,20.4-14.643a48.042,48.042,0,0,1,12.038-6.467A49.541,49.541,0,0,1,1586.486,0h.043a47.155,47.155,0,0,1,21.235,4.552c8.364,4.09,14.055,10.063,20.809,14.886a45.092,45.092,0,0,0,11.293,6.085A45.684,45.684,0,0,0,1655.437,28a43.355,43.355,0,0,0,19.661-4.2c7.795-3.783,13.42-9.625,20.4-14.643a48.026,48.026,0,0,1,12.04-6.467A49.526,49.526,0,0,1,1724.389,0h.043a47.154,47.154,0,0,1,21.235,4.552c8.365,4.09,14.055,10.063,20.809,14.886a45.1,45.1,0,0,0,11.294,6.085A45.677,45.677,0,0,0,1793.339,28,43.363,43.363,0,0,0,1813,23.8c7.795-3.783,13.422-9.625,20.4-14.643a48.021,48.021,0,0,1,12.04-6.467A49.545,49.545,0,0,1,1862.3,0h.042a47.172,47.172,0,0,1,21.238,4.552c8.365,4.09,14.057,10.063,20.812,14.886a45.087,45.087,0,0,0,11.3,6.085A45.687,45.687,0,0,0,1931.261,28h.708v1.965Z" transform="translate(0 -0.001)" fill="#ffa200"/>
          </g>
        </g>
      </g>
    </g>
  </g>
</svg>
