<svg xmlns="http://www.w3.org/2000/svg" xmlns:xlink="http://www.w3.org/1999/xlink" width="547" height="79" viewBox="0 0 547 79">
  <defs>
    <clipPath id="clip-path">
      <rect id="Rectangle_842" data-name="Rectangle 842" width="547" height="79" transform="translate(-1770 2441)" fill="#fff" stroke="#707070" stroke-width="1"/>
    </clipPath>
    <clipPath id="clip-path-2">
      <rect id="Rectangle_30" data-name="Rectangle 30" width="1098.307" height="52.386" fill="none"/>
    </clipPath>
  </defs>
  <g id="tour-top" transform="translate(1770 -2441)" clip-path="url(#clip-path)">
    <g id="Group_1054" data-name="Group 1054" transform="translate(-2042 1195.639)">
      <g id="Group_45" data-name="Group 45" transform="translate(-4 1272.361)">
        <path id="Path_1385" data-name="Path 1385" d="M378.468,0,241.178,52.387h274.58Z" transform="translate(-103.847 0)" fill="#9acb8b"/>
        <g id="Group_44" data-name="Group 44">
          <g id="Group_43" data-name="Group 43" clip-path="url(#clip-path-2)">
            <path id="Path_1386" data-name="Path 1386" d="M1476.995,51.174,1342.885,0,1205.6,52.386h271.274c.036-.4.082-.808.122-1.212" transform="translate(-519.109)" fill="#9acb8b"/>
            <path id="Path_1387" data-name="Path 1387" d="M723.391,52.386H997.969L860.681,0Z" transform="translate(-311.479)" fill="#9acb8b"/>
            <path id="Path_1388" data-name="Path 1388" d="M1098.307,52.386,961.02,0,823.732,52.386,686.444,0,549.159,52.386,411.871,0,274.581,52.386,137.291,0,0,52.386" fill="#eaf5e0"/>
          </g>
        </g>
      </g>
      <g id="Group_46" data-name="Group 46" transform="translate(821.693 1272.361)">
        <path id="Path_1385-2" data-name="Path 1385" d="M378.468,0,241.178,52.387h274.58Z" transform="translate(-103.847 0)" fill="#9acb8b"/>
        <g id="Group_44-2" data-name="Group 44">
          <g id="Group_43-2" data-name="Group 43" clip-path="url(#clip-path-2)">
            <path id="Path_1386-2" data-name="Path 1386" d="M1476.995,51.174,1342.885,0,1205.6,52.386h271.274c.036-.4.082-.808.122-1.212" transform="translate(-519.109)" fill="#9acb8b"/>
            <path id="Path_1387-2" data-name="Path 1387" d="M723.391,52.386H997.969L860.681,0Z" transform="translate(-311.479)" fill="#9acb8b"/>
            <path id="Path_1388-2" data-name="Path 1388" d="M1098.307,52.386,961.02,0,823.732,52.386,686.444,0,549.159,52.386,411.871,0,274.581,52.386,137.291,0,0,52.386" fill="#eaf5e0"/>
          </g>
        </g>
      </g>
    </g>
  </g>
</svg>
